G04*
G04 #@! TF.GenerationSoftware,Altium Limited,Altium Designer,23.3.1 (30)*
G04*
G04 Layer_Color=32768*
%FSLAX25Y25*%
%MOIN*%
G70*
G04*
G04 #@! TF.SameCoordinates,DDE6331C-4F95-4F18-AA14-E53DA5D8DD09*
G04*
G04*
G04 #@! TF.FilePolarity,Positive*
G04*
G01*
G75*
%ADD14C,0.00394*%
%ADD71C,0.00197*%
D14*
X279205Y281260D02*
X304795D01*
X279205Y238740D02*
Y281260D01*
Y238740D02*
X304795D01*
Y281260D01*
X254000Y250532D02*
Y254468D01*
X252031Y252500D02*
X255968D01*
X255232Y153854D02*
Y173146D01*
X234768Y153854D02*
X255232D01*
X234768D02*
Y173146D01*
X255232D01*
X234839Y188311D02*
X302161D01*
X234839D02*
Y214689D01*
X302161D01*
Y188311D02*
Y214689D01*
X305496Y223083D02*
Y260917D01*
X342110D01*
Y223083D02*
Y260917D01*
X305496Y223083D02*
X342110D01*
X305496Y191083D02*
Y228917D01*
X342110D01*
Y191083D02*
Y228917D01*
X305496Y191083D02*
X342110D01*
X305496Y159083D02*
Y196917D01*
X342110D01*
Y159083D02*
Y196917D01*
X305496Y159083D02*
X342110D01*
X305496Y255083D02*
Y292917D01*
X342110D01*
Y255083D02*
Y292917D01*
X305496Y255083D02*
X342110D01*
X305496Y127083D02*
Y164917D01*
X342110D01*
Y127083D02*
Y164917D01*
X305496Y127083D02*
X342110D01*
X208504Y223083D02*
Y260917D01*
X171890Y223083D02*
X208504D01*
X171890D02*
Y260917D01*
X208504D01*
X284500Y272532D02*
Y276468D01*
X282531Y274500D02*
X286469D01*
X284032Y243000D02*
X287968D01*
X286000Y241032D02*
Y244969D01*
X284032Y253000D02*
X287968D01*
X286000Y251031D02*
Y254969D01*
X285866Y220398D02*
X289803D01*
X287835Y218429D02*
Y222366D01*
X208504Y127083D02*
Y164917D01*
X171890Y127083D02*
X208504D01*
X171890D02*
Y164917D01*
X208504D01*
Y159083D02*
Y196917D01*
X171890Y159083D02*
X208504D01*
X171890D02*
Y196917D01*
X208504D01*
Y191083D02*
Y228917D01*
X171890Y191083D02*
X208504D01*
X171890D02*
Y228917D01*
X208504D01*
Y255083D02*
Y292917D01*
X171890Y255083D02*
X208504D01*
X171890D02*
Y292917D01*
X208504D01*
D71*
X222543Y280102D02*
Y292898D01*
X240457D01*
Y280102D02*
Y292898D01*
X222543Y280102D02*
X240457D01*
X211543Y207602D02*
Y220398D01*
Y207602D02*
X229457D01*
Y220398D01*
X211543D02*
X229457D01*
X231559Y230059D02*
X276441D01*
X231559Y274941D02*
X276441D01*
X231559Y230059D02*
Y274941D01*
X276441Y230059D02*
Y274941D01*
X275165Y237634D02*
Y279366D01*
X245835Y237634D02*
X275165D01*
X245835D02*
Y279366D01*
X275165D01*
X213614Y203634D02*
X225386D01*
Y140366D02*
Y203634D01*
X213614Y140366D02*
X225386D01*
X213614D02*
Y203634D01*
X252957Y141102D02*
Y153898D01*
X235043D02*
X252957D01*
X235043Y141102D02*
Y153898D01*
Y141102D02*
X252957D01*
X254957Y172602D02*
Y185398D01*
X237043D02*
X254957D01*
X237043Y172602D02*
Y185398D01*
Y172602D02*
X254957D01*
X253043Y141102D02*
Y153898D01*
Y141102D02*
X270957D01*
Y153898D01*
X253043D02*
X270957D01*
X288957Y141102D02*
Y153898D01*
X271043D02*
X288957D01*
X271043Y141102D02*
Y153898D01*
Y141102D02*
X288957D01*
X255685Y153933D02*
Y183067D01*
Y153933D02*
X291315D01*
Y183067D01*
X255685D02*
X291315D01*
X244102Y213043D02*
Y230957D01*
X256898D01*
Y213043D02*
Y230957D01*
X244102Y213043D02*
X256898D01*
X237043Y280102D02*
X254957D01*
Y292898D01*
X237043D02*
X254957D01*
X237043Y280102D02*
Y292898D01*
X251543D02*
X269457D01*
X251543Y280102D02*
Y292898D01*
Y280102D02*
X269457D01*
Y292898D01*
X266043Y280102D02*
X283957D01*
Y292898D01*
X266043D02*
X283957D01*
X266043Y280102D02*
Y292898D01*
X250043Y237898D02*
X267957D01*
X250043Y225102D02*
Y237898D01*
Y225102D02*
X267957D01*
Y237898D01*
X225043Y283398D02*
X242957D01*
X225043Y270602D02*
Y283398D01*
Y270602D02*
X242957D01*
Y283398D01*
X281350Y277453D02*
X287650D01*
X281350Y271547D02*
Y277453D01*
X287650Y271547D02*
Y277453D01*
X281350Y271547D02*
X287650D01*
X292693Y239063D02*
Y246937D01*
X279307Y239063D02*
Y246937D01*
X292693D01*
X279307Y239063D02*
X292693D01*
X280685Y249654D02*
Y256347D01*
X291315Y249654D02*
Y256347D01*
X280685Y249654D02*
X291315D01*
X280685Y256347D02*
X291315D01*
X277543Y224102D02*
X295457D01*
Y236898D01*
X277543D02*
X295457D01*
X277543Y224102D02*
Y236898D01*
X279370Y215280D02*
Y225516D01*
X296299Y215280D02*
Y225516D01*
X279370D02*
X296299D01*
X279370Y215280D02*
X296299D01*
X251602Y213043D02*
Y230957D01*
X264398D01*
Y213043D02*
Y230957D01*
X251602Y213043D02*
X264398D01*
X213807Y227453D02*
X227193D01*
Y221547D02*
Y227453D01*
X213807Y221547D02*
X227193D01*
X213807D02*
Y227453D01*
X243543Y288398D02*
X261457D01*
Y275602D02*
Y288398D01*
X243543Y275602D02*
X261457D01*
X243543D02*
Y288398D01*
X228543D02*
X246457D01*
Y275602D02*
Y288398D01*
X228543Y275602D02*
X246457D01*
X228543D02*
Y288398D01*
M02*
