M48
;Layer_Color=9474304
;FILE_FORMAT=2:4
INCH,TZ
;TYPE=PLATED
T1F00S00C0.0079
T2F00S00C0.0350
T3F00S00C0.0402
T4F00S00C0.0433
T5F00S00C0.1220
%
T01
X25300Y14750
X29050
X25400Y16000
X25381Y21281
X26000Y21300
X27250Y21550
X27650Y22950
X29900Y23050
X30350Y24600
X27800Y25450
X27900Y26550
X26050Y26150
X24400Y26050
Y26350
Y25700
X23750Y23250
X23450Y23400
X23150Y23550
X24950Y23100
X23605Y21550
X21750Y25200
Y27750
X22250Y28600
X25050Y29350
X25800
X27850
T02
X28513Y28500
X29300
X30087
T03
X21950Y14700
Y15700
Y16700
Y17700
Y18700
Y19700
T04
X19000Y13850
Y15350
X32400
Y13850
Y17050
Y18550
Y20250
Y21750
Y23450
Y24950
Y26650
Y28150
X19000
Y26650
Y24950
Y23450
Y21750
Y20250
Y18550
Y17050
T05
X16150Y11750
X35200
Y30250
X16150
M30
