G04*
G04 #@! TF.GenerationSoftware,Altium Limited,Altium Designer,23.3.1 (30)*
G04*
G04 Layer_Physical_Order=2*
G04 Layer_Color=36540*
%FSLAX25Y25*%
%MOIN*%
G70*
G04*
G04 #@! TF.SameCoordinates,DDE6331C-4F95-4F18-AA14-E53DA5D8DD09*
G04*
G04*
G04 #@! TF.FilePolarity,Positive*
G04*
G01*
G75*
%ADD44C,0.05472*%
%ADD45R,0.05472X0.05472*%
%ADD54R,0.06102X0.06102*%
%ADD55C,0.06102*%
%ADD56R,0.06496X0.06496*%
%ADD57C,0.06496*%
%ADD58C,0.01772*%
%ADD59C,0.15748*%
G36*
X353332Y316697D02*
X354982Y316480D01*
X356590Y316049D01*
X358128Y315412D01*
X359569Y314580D01*
X360890Y313567D01*
X362067Y312390D01*
X363080Y311069D01*
X363912Y309628D01*
X364549Y308090D01*
X364980Y306482D01*
X365197Y304832D01*
Y304000D01*
X365197Y116000D01*
X365197Y115233D01*
X364997Y113713D01*
X364600Y112232D01*
X364013Y110815D01*
X363247Y109487D01*
X362313Y108271D01*
X361229Y107187D01*
X360013Y106253D01*
X358685Y105487D01*
X357268Y104900D01*
X355787Y104503D01*
X354267Y104303D01*
X353500D01*
X161000Y104303D01*
X160070D01*
X158224Y104546D01*
X156427Y105027D01*
X154707Y105740D01*
X153095Y106670D01*
X151619Y107803D01*
X150303Y109119D01*
X149170Y110596D01*
X148240Y112207D01*
X147527Y113927D01*
X147046Y115724D01*
X146803Y117569D01*
Y118500D01*
Y303000D01*
D01*
Y303000D01*
X146803Y303898D01*
X147037Y305678D01*
X147502Y307412D01*
X148189Y309071D01*
X149087Y310626D01*
X150180Y312051D01*
X151449Y313320D01*
X152874Y314413D01*
X154429Y315311D01*
X156088Y315998D01*
X157822Y316463D01*
X159602Y316697D01*
X160500Y316697D01*
D01*
X160500D01*
X352500Y316697D01*
X353332Y316697D01*
D02*
G37*
%LPC*%
G36*
X304010Y288136D02*
X297738D01*
Y281864D01*
X304010D01*
Y288136D01*
D02*
G37*
G36*
X293000Y288163D02*
X292181Y288055D01*
X291418Y287739D01*
X290763Y287237D01*
X290261Y286582D01*
X289945Y285819D01*
X289837Y285000D01*
X289945Y284181D01*
X290261Y283418D01*
X290763Y282763D01*
X291418Y282260D01*
X292181Y281944D01*
X293000Y281837D01*
X293819Y281944D01*
X294582Y282260D01*
X295237Y282763D01*
X295740Y283418D01*
X296056Y284181D01*
X296163Y285000D01*
X296056Y285819D01*
X295740Y286582D01*
X295237Y287237D01*
X294582Y287739D01*
X293819Y288055D01*
X293000Y288163D01*
D02*
G37*
G36*
X285126D02*
X284307Y288055D01*
X283544Y287739D01*
X282889Y287237D01*
X282386Y286582D01*
X282070Y285819D01*
X281963Y285000D01*
X282070Y284181D01*
X282386Y283418D01*
X282889Y282763D01*
X283544Y282260D01*
X284307Y281944D01*
X285126Y281837D01*
X285945Y281944D01*
X286708Y282260D01*
X287363Y282763D01*
X287865Y283418D01*
X288181Y284181D01*
X288289Y285000D01*
X288181Y285819D01*
X287865Y286582D01*
X287363Y287237D01*
X286708Y287739D01*
X285945Y288055D01*
X285126Y288163D01*
D02*
G37*
G36*
X193648Y285148D02*
X186352D01*
Y277852D01*
X193648D01*
Y285148D01*
D02*
G37*
G36*
X324000Y285179D02*
X323048Y285054D01*
X322160Y284686D01*
X321398Y284102D01*
X320813Y283340D01*
X320446Y282452D01*
X320321Y281500D01*
X320446Y280548D01*
X320813Y279660D01*
X321398Y278898D01*
X322160Y278313D01*
X323048Y277946D01*
X324000Y277820D01*
X324952Y277946D01*
X325840Y278313D01*
X326602Y278898D01*
X327186Y279660D01*
X327554Y280548D01*
X327679Y281500D01*
X327554Y282452D01*
X327186Y283340D01*
X326602Y284102D01*
X325840Y284686D01*
X324952Y285054D01*
X324000Y285179D01*
D02*
G37*
G36*
X279000Y266913D02*
X278459Y266805D01*
X278001Y266499D01*
X277695Y266041D01*
X277587Y265500D01*
X277695Y264959D01*
X278001Y264501D01*
X278459Y264195D01*
X279000Y264087D01*
X279541Y264195D01*
X279999Y264501D01*
X280305Y264959D01*
X280413Y265500D01*
X280305Y266041D01*
X279999Y266499D01*
X279541Y266805D01*
X279000Y266913D01*
D02*
G37*
G36*
X327648Y270148D02*
X320352D01*
Y262852D01*
X327648D01*
Y270148D01*
D02*
G37*
G36*
X190000Y270180D02*
X189048Y270054D01*
X188160Y269687D01*
X187398Y269102D01*
X186813Y268340D01*
X186446Y267452D01*
X186320Y266500D01*
X186446Y265548D01*
X186813Y264660D01*
X187398Y263898D01*
X188160Y263314D01*
X189048Y262946D01*
X190000Y262821D01*
X190952Y262946D01*
X191840Y263314D01*
X192602Y263898D01*
X193187Y264660D01*
X193554Y265548D01*
X193679Y266500D01*
X193554Y267452D01*
X193187Y268340D01*
X192602Y269102D01*
X191840Y269687D01*
X190952Y270054D01*
X190000Y270180D01*
D02*
G37*
G36*
X260500Y262913D02*
X259959Y262805D01*
X259501Y262499D01*
X259195Y262041D01*
X259087Y261500D01*
X259195Y260959D01*
X259501Y260501D01*
X259959Y260195D01*
X260500Y260087D01*
X261041Y260195D01*
X261499Y260501D01*
X261805Y260959D01*
X261913Y261500D01*
X261805Y262041D01*
X261499Y262499D01*
X261041Y262805D01*
X260500Y262913D01*
D02*
G37*
G36*
X244000Y261913D02*
X243459Y261805D01*
X243001Y261499D01*
X242695Y261041D01*
X242587Y260500D01*
X242695Y259959D01*
X243001Y259501D01*
X243459Y259195D01*
X244000Y259087D01*
X244541Y259195D01*
X244999Y259501D01*
X245305Y259959D01*
X245413Y260500D01*
X245305Y261041D01*
X244999Y261499D01*
X244541Y261805D01*
X244000Y261913D01*
D02*
G37*
G36*
Y258413D02*
X243459Y258305D01*
X243001Y257999D01*
X242695Y257541D01*
X242587Y257000D01*
X242695Y256459D01*
X243001Y256001D01*
X243459Y255695D01*
X244000Y255587D01*
X244541Y255695D01*
X244999Y256001D01*
X245305Y256459D01*
X245413Y257000D01*
X245305Y257541D01*
X244999Y257999D01*
X244541Y258305D01*
X244000Y258413D01*
D02*
G37*
G36*
X193648Y253148D02*
X186352D01*
Y245852D01*
X193648D01*
Y253148D01*
D02*
G37*
G36*
X324000Y253180D02*
X323048Y253054D01*
X322160Y252687D01*
X321398Y252102D01*
X320813Y251340D01*
X320446Y250452D01*
X320321Y249500D01*
X320446Y248548D01*
X320813Y247660D01*
X321398Y246898D01*
X322160Y246314D01*
X323048Y245946D01*
X324000Y245820D01*
X324952Y245946D01*
X325840Y246314D01*
X326602Y246898D01*
X327186Y247660D01*
X327554Y248548D01*
X327679Y249500D01*
X327554Y250452D01*
X327186Y251340D01*
X326602Y252102D01*
X325840Y252687D01*
X324952Y253054D01*
X324000Y253180D01*
D02*
G37*
G36*
X231500Y236913D02*
X230959Y236805D01*
X230501Y236499D01*
X230195Y236041D01*
X230087Y235500D01*
X230195Y234959D01*
X230501Y234501D01*
X230959Y234195D01*
X231500Y234087D01*
X232041Y234195D01*
X232499Y234501D01*
X232805Y234959D01*
X232913Y235500D01*
X232805Y236041D01*
X232499Y236499D01*
X232041Y236805D01*
X231500Y236913D01*
D02*
G37*
G36*
X234500Y235413D02*
X233959Y235305D01*
X233501Y234999D01*
X233195Y234541D01*
X233087Y234000D01*
X233195Y233459D01*
X233501Y233001D01*
X233959Y232695D01*
X234500Y232587D01*
X235041Y232695D01*
X235499Y233001D01*
X235805Y233459D01*
X235913Y234000D01*
X235805Y234541D01*
X235499Y234999D01*
X235041Y235305D01*
X234500Y235413D01*
D02*
G37*
G36*
X237500Y233913D02*
X236959Y233805D01*
X236501Y233499D01*
X236195Y233041D01*
X236087Y232500D01*
X236195Y231959D01*
X236501Y231501D01*
X236959Y231195D01*
X237500Y231087D01*
X238041Y231195D01*
X238499Y231501D01*
X238805Y231959D01*
X238913Y232500D01*
X238805Y233041D01*
X238499Y233499D01*
X238041Y233805D01*
X237500Y233913D01*
D02*
G37*
G36*
X327648Y238148D02*
X320352D01*
Y230852D01*
X327648D01*
Y238148D01*
D02*
G37*
G36*
X190000Y238179D02*
X189048Y238054D01*
X188160Y237686D01*
X187398Y237102D01*
X186813Y236340D01*
X186446Y235452D01*
X186320Y234500D01*
X186446Y233548D01*
X186813Y232660D01*
X187398Y231898D01*
X188160Y231313D01*
X189048Y230946D01*
X190000Y230820D01*
X190952Y230946D01*
X191840Y231313D01*
X192602Y231898D01*
X193187Y232660D01*
X193554Y233548D01*
X193679Y234500D01*
X193554Y235452D01*
X193187Y236340D01*
X192602Y237102D01*
X191840Y237686D01*
X190952Y238054D01*
X190000Y238179D01*
D02*
G37*
G36*
X193648Y221148D02*
X186352D01*
Y213852D01*
X193648D01*
Y221148D01*
D02*
G37*
G36*
X324000Y221180D02*
X323048Y221054D01*
X322160Y220687D01*
X321398Y220102D01*
X320813Y219340D01*
X320446Y218452D01*
X320321Y217500D01*
X320446Y216548D01*
X320813Y215660D01*
X321398Y214898D01*
X322160Y214314D01*
X323048Y213946D01*
X324000Y213821D01*
X324952Y213946D01*
X325840Y214314D01*
X326602Y214898D01*
X327186Y215660D01*
X327554Y216548D01*
X327679Y217500D01*
X327554Y218452D01*
X327186Y219340D01*
X326602Y220102D01*
X325840Y220687D01*
X324952Y221054D01*
X324000Y221180D01*
D02*
G37*
G36*
X327648Y206148D02*
X320352D01*
Y198852D01*
X327648D01*
Y206148D01*
D02*
G37*
G36*
X190000Y206179D02*
X189048Y206054D01*
X188160Y205686D01*
X187398Y205102D01*
X186813Y204340D01*
X186446Y203452D01*
X186320Y202500D01*
X186446Y201548D01*
X186813Y200660D01*
X187398Y199898D01*
X188160Y199313D01*
X189048Y198946D01*
X190000Y198820D01*
X190952Y198946D01*
X191840Y199313D01*
X192602Y199898D01*
X193187Y200660D01*
X193554Y201548D01*
X193679Y202500D01*
X193554Y203452D01*
X193187Y204340D01*
X192602Y205102D01*
X191840Y205686D01*
X190952Y206054D01*
X190000Y206179D01*
D02*
G37*
G36*
X219500Y200481D02*
X218599Y200362D01*
X217759Y200015D01*
X217039Y199461D01*
X216485Y198740D01*
X216138Y197901D01*
X216019Y197000D01*
X216138Y196099D01*
X216485Y195259D01*
X217039Y194539D01*
X217759Y193985D01*
X218599Y193638D01*
X219500Y193519D01*
X220401Y193638D01*
X221240Y193985D01*
X221961Y194539D01*
X222515Y195259D01*
X222862Y196099D01*
X222981Y197000D01*
X222862Y197901D01*
X222515Y198740D01*
X221961Y199461D01*
X221240Y200015D01*
X220401Y200362D01*
X219500Y200481D01*
D02*
G37*
G36*
X193648Y189148D02*
X190200D01*
Y185700D01*
X193648D01*
Y189148D01*
D02*
G37*
G36*
X189800D02*
X186352D01*
Y185700D01*
X189800D01*
Y189148D01*
D02*
G37*
G36*
X219500Y190481D02*
X218599Y190362D01*
X217759Y190015D01*
X217039Y189461D01*
X216485Y188741D01*
X216138Y187901D01*
X216019Y187000D01*
X216138Y186099D01*
X216485Y185259D01*
X217039Y184539D01*
X217759Y183985D01*
X218599Y183638D01*
X219500Y183519D01*
X220401Y183638D01*
X221240Y183985D01*
X221961Y184539D01*
X222515Y185259D01*
X222862Y186099D01*
X222981Y187000D01*
X222862Y187901D01*
X222515Y188741D01*
X221961Y189461D01*
X221240Y190015D01*
X220401Y190362D01*
X219500Y190481D01*
D02*
G37*
G36*
X193648Y185300D02*
X190200D01*
Y181852D01*
X193648D01*
Y185300D01*
D02*
G37*
G36*
X189800D02*
X186352D01*
Y181852D01*
X189800D01*
Y185300D01*
D02*
G37*
G36*
X324000Y189180D02*
X323048Y189054D01*
X322160Y188687D01*
X321398Y188102D01*
X320813Y187340D01*
X320446Y186452D01*
X320321Y185500D01*
X320446Y184548D01*
X320813Y183660D01*
X321398Y182898D01*
X322160Y182313D01*
X323048Y181946D01*
X324000Y181820D01*
X324952Y181946D01*
X325840Y182313D01*
X326602Y182898D01*
X327186Y183660D01*
X327554Y184548D01*
X327679Y185500D01*
X327554Y186452D01*
X327186Y187340D01*
X326602Y188102D01*
X325840Y188687D01*
X324952Y189054D01*
X324000Y189180D01*
D02*
G37*
G36*
X219500Y180481D02*
X218599Y180362D01*
X217759Y180015D01*
X217039Y179461D01*
X216485Y178741D01*
X216138Y177901D01*
X216019Y177000D01*
X216138Y176099D01*
X216485Y175259D01*
X217039Y174539D01*
X217759Y173985D01*
X218599Y173638D01*
X219500Y173519D01*
X220401Y173638D01*
X221240Y173985D01*
X221961Y174539D01*
X222515Y175259D01*
X222862Y176099D01*
X222981Y177000D01*
X222862Y177901D01*
X222515Y178741D01*
X221961Y179461D01*
X221240Y180015D01*
X220401Y180362D01*
X219500Y180481D01*
D02*
G37*
G36*
X327648Y174148D02*
X320352D01*
Y166852D01*
X327648D01*
Y174148D01*
D02*
G37*
G36*
X190000Y174179D02*
X189048Y174054D01*
X188160Y173687D01*
X187398Y173102D01*
X186813Y172340D01*
X186446Y171452D01*
X186320Y170500D01*
X186446Y169548D01*
X186813Y168660D01*
X187398Y167898D01*
X188160Y167313D01*
X189048Y166946D01*
X190000Y166821D01*
X190952Y166946D01*
X191840Y167313D01*
X192602Y167898D01*
X193187Y168660D01*
X193554Y169548D01*
X193679Y170500D01*
X193554Y171452D01*
X193187Y172340D01*
X192602Y173102D01*
X191840Y173687D01*
X190952Y174054D01*
X190000Y174179D01*
D02*
G37*
G36*
X219500Y170481D02*
X218599Y170362D01*
X217759Y170015D01*
X217039Y169461D01*
X216485Y168740D01*
X216138Y167901D01*
X216019Y167000D01*
X216138Y166099D01*
X216485Y165260D01*
X217039Y164539D01*
X217759Y163985D01*
X218599Y163638D01*
X219500Y163519D01*
X220401Y163638D01*
X221240Y163985D01*
X221961Y164539D01*
X222515Y165260D01*
X222862Y166099D01*
X222981Y167000D01*
X222862Y167901D01*
X222515Y168740D01*
X221961Y169461D01*
X221240Y170015D01*
X220401Y170362D01*
X219500Y170481D01*
D02*
G37*
G36*
Y160481D02*
X218599Y160362D01*
X217759Y160015D01*
X217039Y159461D01*
X216485Y158740D01*
X216138Y157901D01*
X216019Y157000D01*
X216138Y156099D01*
X216485Y155260D01*
X217039Y154539D01*
X217759Y153985D01*
X218599Y153638D01*
X219500Y153519D01*
X220401Y153638D01*
X221240Y153985D01*
X221961Y154539D01*
X222515Y155260D01*
X222862Y156099D01*
X222981Y157000D01*
X222862Y157901D01*
X222515Y158740D01*
X221961Y159461D01*
X221240Y160015D01*
X220401Y160362D01*
X219500Y160481D01*
D02*
G37*
G36*
X193648Y157148D02*
X186352D01*
Y149852D01*
X193648D01*
Y157148D01*
D02*
G37*
G36*
X324000Y157179D02*
X323048Y157054D01*
X322160Y156687D01*
X321398Y156102D01*
X320813Y155340D01*
X320446Y154452D01*
X320321Y153500D01*
X320446Y152548D01*
X320813Y151660D01*
X321398Y150898D01*
X322160Y150313D01*
X323048Y149946D01*
X324000Y149820D01*
X324952Y149946D01*
X325840Y150313D01*
X326602Y150898D01*
X327186Y151660D01*
X327554Y152548D01*
X327679Y153500D01*
X327554Y154452D01*
X327186Y155340D01*
X326602Y156102D01*
X325840Y156687D01*
X324952Y157054D01*
X324000Y157179D01*
D02*
G37*
G36*
X222951Y150451D02*
X219700D01*
Y147200D01*
X222951D01*
Y150451D01*
D02*
G37*
G36*
X219300D02*
X216049D01*
Y147200D01*
X219300D01*
Y150451D01*
D02*
G37*
G36*
X222951Y146800D02*
X219700D01*
Y143549D01*
X222951D01*
Y146800D01*
D02*
G37*
G36*
X219300D02*
X216049D01*
Y143549D01*
X219300D01*
Y146800D01*
D02*
G37*
G36*
X190200Y142153D02*
Y138700D01*
X193653D01*
X193554Y139452D01*
X193187Y140340D01*
X192602Y141102D01*
X191840Y141687D01*
X190952Y142054D01*
X190200Y142153D01*
D02*
G37*
G36*
X189800D02*
X189048Y142054D01*
X188160Y141687D01*
X187398Y141102D01*
X186813Y140340D01*
X186446Y139452D01*
X186347Y138700D01*
X189800D01*
Y142153D01*
D02*
G37*
G36*
X327648Y142148D02*
X320352D01*
Y134852D01*
X327648D01*
Y142148D01*
D02*
G37*
G36*
X193653Y138300D02*
X190200D01*
Y134847D01*
X190952Y134946D01*
X191840Y135313D01*
X192602Y135898D01*
X193187Y136660D01*
X193554Y137548D01*
X193653Y138300D01*
D02*
G37*
G36*
X189800D02*
X186347D01*
X186446Y137548D01*
X186813Y136660D01*
X187398Y135898D01*
X188160Y135313D01*
X189048Y134946D01*
X189800Y134847D01*
Y138300D01*
D02*
G37*
%LPD*%
D44*
X285126Y285000D02*
D03*
X293000D02*
D03*
D45*
X300874D02*
D03*
D54*
X219500Y147000D02*
D03*
D55*
Y157000D02*
D03*
Y167000D02*
D03*
Y177000D02*
D03*
Y187000D02*
D03*
Y197000D02*
D03*
D56*
X324000Y234500D02*
D03*
Y202500D02*
D03*
Y170500D02*
D03*
Y266500D02*
D03*
Y138500D02*
D03*
X190000Y249500D02*
D03*
Y153500D02*
D03*
Y185500D02*
D03*
Y217500D02*
D03*
Y281500D02*
D03*
D57*
X324000Y249500D02*
D03*
Y217500D02*
D03*
Y185500D02*
D03*
Y281500D02*
D03*
Y153500D02*
D03*
X190000Y234500D02*
D03*
Y138500D02*
D03*
Y170500D02*
D03*
Y202500D02*
D03*
Y266500D02*
D03*
D58*
X254000Y160000D02*
D03*
X278500Y293500D02*
D03*
X279000Y265500D02*
D03*
X260500Y261500D02*
D03*
X250500Y293500D02*
D03*
X258000D02*
D03*
X222500Y286000D02*
D03*
X278000Y254500D02*
D03*
X303500Y246000D02*
D03*
X217500Y277500D02*
D03*
X244000Y260500D02*
D03*
Y257000D02*
D03*
X231500Y235500D02*
D03*
X234500Y234000D02*
D03*
X237500Y232500D02*
D03*
X253000Y147500D02*
D03*
X290500D02*
D03*
X299000Y230500D02*
D03*
X249500Y231000D02*
D03*
X253811Y212811D02*
D03*
X260000Y213000D02*
D03*
X244000Y263500D02*
D03*
X217500Y252000D02*
D03*
X276500Y229500D02*
D03*
X272500Y215500D02*
D03*
X236047D02*
D03*
D59*
X352000Y117500D02*
D03*
Y302500D02*
D03*
X161500Y117500D02*
D03*
Y302500D02*
D03*
M02*
