G04*
G04 #@! TF.GenerationSoftware,Altium Limited,Altium Designer,23.3.1 (30)*
G04*
G04 Layer_Color=16711935*
%FSLAX25Y25*%
%MOIN*%
G70*
G04*
G04 #@! TF.SameCoordinates,DDE6331C-4F95-4F18-AA14-E53DA5D8DD09*
G04*
G04*
G04 #@! TF.FilePolarity,Positive*
G04*
G01*
G75*
%ADD11C,0.00787*%
%ADD14C,0.00394*%
%ADD15C,0.01000*%
D11*
X283142Y268858D02*
X300858D01*
X283142Y251142D02*
Y268858D01*
Y251142D02*
X300858D01*
Y268858D01*
X227563Y284039D02*
Y288961D01*
X235437D01*
Y284039D02*
Y288961D01*
X227563Y284039D02*
X235437D01*
X216563Y211539D02*
Y216461D01*
Y211539D02*
X224437D01*
Y216461D01*
X216563D02*
X224437D01*
X247937Y145039D02*
Y149961D01*
X240063D02*
X247937D01*
X240063Y145039D02*
Y149961D01*
Y145039D02*
X247937D01*
X249937Y176539D02*
Y181461D01*
X242063D02*
X249937D01*
X242063Y176539D02*
Y181461D01*
Y176539D02*
X249937D01*
X258063Y145039D02*
Y149961D01*
Y145039D02*
X265937D01*
Y149961D01*
X258063D02*
X265937D01*
X283937Y145039D02*
Y149961D01*
X276063D02*
X283937D01*
X276063Y145039D02*
Y149961D01*
Y145039D02*
X283937D01*
X248039Y218063D02*
Y225937D01*
X252961D01*
Y218063D02*
Y225937D01*
X248039Y218063D02*
X252961D01*
X338173Y227020D02*
Y256980D01*
X309433D02*
X338173D01*
X309433Y227020D02*
Y256980D01*
Y227020D02*
X338173D01*
Y195020D02*
Y224980D01*
X309433D02*
X338173D01*
X309433Y195020D02*
Y224980D01*
Y195020D02*
X338173D01*
Y163020D02*
Y192980D01*
X309433D02*
X338173D01*
X309433Y163020D02*
Y192980D01*
Y163020D02*
X338173D01*
Y259020D02*
Y288980D01*
X309433D02*
X338173D01*
X309433Y259020D02*
Y288980D01*
Y259020D02*
X338173D01*
Y131020D02*
Y160980D01*
X309433D02*
X338173D01*
X309433Y131020D02*
Y160980D01*
Y131020D02*
X338173D01*
X242063Y284039D02*
X249937D01*
Y288961D01*
X242063D02*
X249937D01*
X242063Y284039D02*
Y288961D01*
X256563D02*
X264437D01*
X256563Y284039D02*
Y288961D01*
Y284039D02*
X264437D01*
Y288961D01*
X271063Y284039D02*
X278937D01*
Y288961D01*
X271063D02*
X278937D01*
X271063Y284039D02*
Y288961D01*
X255063Y233961D02*
X262937D01*
X255063Y229039D02*
Y233961D01*
Y229039D02*
X262937D01*
Y233961D01*
X230063Y279461D02*
X237937D01*
X230063Y274539D02*
Y279461D01*
Y274539D02*
X237937D01*
Y279461D01*
X175827Y227020D02*
Y256980D01*
Y227020D02*
X204567D01*
Y256980D01*
X175827D02*
X204567D01*
X282563Y228039D02*
X290437D01*
Y232961D01*
X282563D02*
X290437D01*
X282563Y228039D02*
Y232961D01*
X255539Y218063D02*
Y225937D01*
X260461D01*
Y218063D02*
Y225937D01*
X255539Y218063D02*
X260461D01*
X175827Y131020D02*
Y160980D01*
Y131020D02*
X204567D01*
Y160980D01*
X175827D02*
X204567D01*
X175827Y163020D02*
Y192980D01*
Y163020D02*
X204567D01*
Y192980D01*
X175827D02*
X204567D01*
X175827Y195020D02*
Y224980D01*
Y195020D02*
X204567D01*
Y224980D01*
X175827D02*
X204567D01*
X175827Y259020D02*
Y288980D01*
Y259020D02*
X204567D01*
Y288980D01*
X175827D02*
X204567D01*
X248563Y284461D02*
X256437D01*
Y279539D02*
Y284461D01*
X248563Y279539D02*
X256437D01*
X248563D02*
Y284461D01*
X233563D02*
X241437D01*
Y279539D02*
Y284461D01*
X233563Y279539D02*
X241437D01*
X233563D02*
Y284461D01*
D14*
X245732Y242264D02*
X245468Y243248D01*
X244748Y243969D01*
X243764Y244232D01*
X242779Y243969D01*
X242059Y243248D01*
X241795Y242264D01*
X242059Y241280D01*
X242779Y240559D01*
X243764Y240295D01*
X244748Y240559D01*
X245468Y241280D01*
X245732Y242264D01*
X240220Y238720D02*
X267779D01*
X240220Y266280D02*
X267779D01*
X240220Y238720D02*
Y266280D01*
X267779Y238720D02*
Y266280D01*
X263177Y277988D02*
X268177Y272988D01*
Y239012D02*
Y277988D01*
X252823Y239012D02*
X268177D01*
X252823D02*
Y277988D01*
X268177D01*
X214500Y202748D02*
X224500D01*
Y141252D02*
Y202748D01*
X214500Y141252D02*
X224500D01*
X214500D02*
Y202748D01*
X248150Y157791D02*
Y169209D01*
X241850Y157791D02*
X248150D01*
X241850D02*
Y169209D01*
X248150D01*
X259130Y155508D02*
Y181492D01*
Y155508D02*
X287870D01*
Y181492D01*
X259130D02*
X287870D01*
X246059Y192248D02*
X290941D01*
X246059D02*
Y210752D01*
X290941D01*
Y192248D02*
Y210752D01*
X282827Y276961D02*
X286173D01*
X282827Y272039D02*
X286173D01*
Y276961D01*
X282827Y272039D02*
Y276961D01*
X290331Y240146D02*
Y245854D01*
X281669Y240146D02*
Y245854D01*
X290331D01*
X281669Y240146D02*
X290331D01*
X281669Y250146D02*
Y255854D01*
X290331Y250146D02*
Y255854D01*
X281669Y250146D02*
X290331D01*
X281669Y255854D02*
X290331D01*
X283504Y217543D02*
Y223252D01*
X292165Y217543D02*
Y223252D01*
X283504D02*
X292165D01*
X283504Y217543D02*
X292165D01*
X217154Y226272D02*
X223847D01*
Y222728D02*
Y226272D01*
X217154Y222728D02*
X223847D01*
X217154D02*
Y226272D01*
Y224894D02*
X218531Y226272D01*
D15*
X146500Y117500D02*
X146538Y116491D01*
X146651Y115488D01*
X146838Y114496D01*
X147100Y113521D01*
X147433Y112568D01*
X147837Y111643D01*
X148309Y110750D01*
X148846Y109895D01*
X149445Y109083D01*
X150104Y108318D01*
X150818Y107604D01*
X151583Y106945D01*
X152395Y106346D01*
X153250Y105809D01*
X154143Y105337D01*
X155068Y104933D01*
X156021Y104600D01*
X156996Y104339D01*
X157988Y104151D01*
X158991Y104038D01*
X160000Y104000D01*
X354000D02*
X355002Y104044D01*
X355997Y104175D01*
X356976Y104392D01*
X357933Y104693D01*
X358860Y105078D01*
X359750Y105541D01*
X360596Y106080D01*
X361392Y106691D01*
X362132Y107368D01*
X362809Y108108D01*
X363420Y108904D01*
X363959Y109750D01*
X364422Y110640D01*
X364807Y111567D01*
X365108Y112524D01*
X365325Y113503D01*
X365456Y114498D01*
X365500Y115500D01*
Y305500D02*
X365456Y306502D01*
X365325Y307497D01*
X365108Y308476D01*
X364807Y309433D01*
X364422Y310360D01*
X363959Y311250D01*
X363420Y312096D01*
X362809Y312892D01*
X362132Y313632D01*
X361392Y314310D01*
X360596Y314920D01*
X359750Y315459D01*
X358860Y315922D01*
X357933Y316306D01*
X356976Y316608D01*
X355997Y316825D01*
X355002Y316956D01*
X354000Y317000D01*
X159500D02*
X158480Y316960D01*
X157466Y316840D01*
X156465Y316641D01*
X155483Y316364D01*
X154525Y316010D01*
X153598Y315583D01*
X152708Y315084D01*
X151859Y314517D01*
X151057Y313885D01*
X150308Y313192D01*
X149615Y312443D01*
X148983Y311641D01*
X148416Y310792D01*
X147917Y309902D01*
X147490Y308975D01*
X147136Y308017D01*
X146859Y307035D01*
X146660Y306034D01*
X146540Y305020D01*
X146500Y304000D01*
Y117500D02*
Y304000D01*
X160000Y104000D02*
X164000D01*
X354000D01*
X365500Y115500D02*
Y305500D01*
X159500Y317000D02*
X354000D01*
M02*
