G04*
G04 #@! TF.GenerationSoftware,Altium Limited,Altium Designer,23.3.1 (30)*
G04*
G04 Layer_Color=8388736*
%FSLAX25Y25*%
%MOIN*%
G70*
G04*
G04 #@! TF.SameCoordinates,DDE6331C-4F95-4F18-AA14-E53DA5D8DD09*
G04*
G04*
G04 #@! TF.FilePolarity,Positive*
G04*
G01*
G75*
%ADD11C,0.00787*%
%ADD14C,0.00394*%
D11*
X304811Y280787D02*
Y289055D01*
X281189D02*
X304811D01*
X281189Y280787D02*
Y289055D01*
Y280787D02*
X304811D01*
X216563Y255539D02*
Y260461D01*
Y255539D02*
X224437D01*
Y260461D01*
X216563D02*
X224437D01*
X216563Y243539D02*
Y248461D01*
Y243539D02*
X224437D01*
Y248461D01*
X216563D02*
X224437D01*
X265169Y218646D02*
Y224354D01*
Y218646D02*
X273831D01*
Y224354D01*
X265169D02*
X273831D01*
X243331Y218146D02*
Y223854D01*
X234669D02*
X243331D01*
X234669Y218146D02*
Y223854D01*
Y218146D02*
X243331D01*
X224437Y231539D02*
Y236461D01*
X216563D02*
X224437D01*
X216563Y231539D02*
Y236461D01*
Y231539D02*
X224437D01*
X216563Y267539D02*
Y272461D01*
Y267539D02*
X224437D01*
Y272461D01*
X216563D02*
X224437D01*
D14*
X263291Y286921D02*
X274709D01*
Y277079D02*
Y286921D01*
X263291Y277079D02*
X274709D01*
X263291D02*
Y286921D01*
M02*
