G04*
G04 #@! TF.GenerationSoftware,Altium Limited,Altium Designer,23.3.1 (30)*
G04*
G04 Layer_Color=65535*
%FSLAX25Y25*%
%MOIN*%
G70*
G04*
G04 #@! TF.SameCoordinates,DDE6331C-4F95-4F18-AA14-E53DA5D8DD09*
G04*
G04*
G04 #@! TF.FilePolarity,Positive*
G04*
G01*
G75*
%ADD10C,0.00984*%
%ADD11C,0.00787*%
%ADD12C,0.00787*%
%ADD13C,0.02362*%
%ADD14C,0.00394*%
%ADD15C,0.01000*%
%ADD16C,0.00315*%
%ADD17R,0.00787X0.04724*%
G36*
X236581Y136219D02*
X236573D01*
Y136146D01*
X237826D01*
Y136139D01*
X237833D01*
Y135831D01*
X237826D01*
Y136051D01*
X237819D01*
Y136132D01*
X237416D01*
Y136124D01*
X237379D01*
Y136132D01*
X236581D01*
Y135619D01*
X231519D01*
Y135626D01*
X231512D01*
Y136923D01*
X236581D01*
Y136219D01*
D02*
G37*
G36*
X237833Y135817D02*
X237826D01*
Y135824D01*
X237833D01*
Y135817D01*
D02*
G37*
G36*
X237826Y135531D02*
X237833D01*
Y135524D01*
X237826D01*
Y135516D01*
X237833D01*
Y135201D01*
X237841D01*
Y134776D01*
X237833D01*
Y134725D01*
Y134718D01*
Y134608D01*
X237841D01*
Y134593D01*
X237848D01*
Y134586D01*
X237855D01*
Y134571D01*
X237862D01*
Y134557D01*
X237811D01*
Y134564D01*
X237804D01*
Y134601D01*
X237811D01*
Y134659D01*
X237819D01*
Y135707D01*
X237826D01*
Y135531D01*
D02*
G37*
G36*
X253530Y132154D02*
X251377D01*
Y132161D01*
X251252D01*
Y132169D01*
X251157D01*
Y132176D01*
X251084D01*
Y132184D01*
X251025D01*
Y132191D01*
X250967D01*
Y132198D01*
X250915D01*
Y132205D01*
X250871D01*
Y132213D01*
X250827D01*
Y132220D01*
X250791D01*
Y132227D01*
X250754D01*
Y132235D01*
X250717D01*
Y132242D01*
X250681D01*
Y132249D01*
X250652D01*
Y132257D01*
X250622D01*
Y132264D01*
X250593D01*
Y132271D01*
X250564D01*
Y132279D01*
X250534D01*
Y132286D01*
X250512D01*
Y132293D01*
X250483D01*
Y132301D01*
X250461D01*
Y132308D01*
X250439D01*
Y132315D01*
X250417D01*
Y132323D01*
X250395D01*
Y132330D01*
X250373D01*
Y132337D01*
X250351D01*
Y132345D01*
X250329D01*
Y132352D01*
X250315D01*
Y132359D01*
X250293D01*
Y132367D01*
X250271D01*
Y132374D01*
X250256D01*
Y132381D01*
X250234D01*
Y132389D01*
X250219D01*
Y132396D01*
X250205D01*
Y132403D01*
X250183D01*
Y132411D01*
X250168D01*
Y132418D01*
X250153D01*
Y132425D01*
X250139D01*
Y132432D01*
X250124D01*
Y132440D01*
X250110D01*
Y132447D01*
X250095D01*
Y132455D01*
X250080D01*
Y132462D01*
X250065D01*
Y132469D01*
X250051D01*
Y132476D01*
X250036D01*
Y132484D01*
X250022D01*
Y132491D01*
X250007D01*
Y132498D01*
X249992D01*
Y132506D01*
X249985D01*
Y132513D01*
X249970D01*
Y132520D01*
X249956D01*
Y132528D01*
X249941D01*
Y132535D01*
X249934D01*
Y132542D01*
X249919D01*
Y132550D01*
X249904D01*
Y132557D01*
X249897D01*
Y132564D01*
X249882D01*
Y132572D01*
X249868D01*
Y132579D01*
X249860D01*
Y132586D01*
X249846D01*
Y132594D01*
X249838D01*
Y132601D01*
X249824D01*
Y132608D01*
X249816D01*
Y132616D01*
X249802D01*
Y132623D01*
X249795D01*
Y132630D01*
X249780D01*
Y132638D01*
X249773D01*
Y132645D01*
X249758D01*
Y132652D01*
X249751D01*
Y132660D01*
X249743D01*
Y132667D01*
X249729D01*
Y132674D01*
X249721D01*
Y132682D01*
X249707D01*
Y132689D01*
X249699D01*
Y132696D01*
X249692D01*
Y132703D01*
X249677D01*
Y132711D01*
X249670D01*
Y132718D01*
X249663D01*
Y132726D01*
X249648D01*
Y132733D01*
X249641D01*
Y132740D01*
X249633D01*
Y132747D01*
X249626D01*
Y132755D01*
X249611D01*
Y132762D01*
X249604D01*
Y132769D01*
X249597D01*
Y132777D01*
X249589D01*
Y132784D01*
X249575D01*
Y132791D01*
X249567D01*
Y132799D01*
X249560D01*
Y132806D01*
X249553D01*
Y132813D01*
X249545D01*
Y132821D01*
X249531D01*
Y132828D01*
X249523D01*
Y132835D01*
X249516D01*
Y132843D01*
X249509D01*
Y132850D01*
X249501D01*
Y132857D01*
X249494D01*
Y132865D01*
X249487D01*
Y132872D01*
X249472D01*
Y132879D01*
X249465D01*
Y132887D01*
X249458D01*
Y132894D01*
X249450D01*
Y132901D01*
X249443D01*
Y132909D01*
X249436D01*
Y132916D01*
X249428D01*
Y132923D01*
X249421D01*
Y132931D01*
X249414D01*
Y132938D01*
X249406D01*
Y132945D01*
X249399D01*
Y132953D01*
X249392D01*
Y132960D01*
X249377D01*
Y132967D01*
X249370D01*
Y132975D01*
X249362D01*
Y132982D01*
X249355D01*
Y132989D01*
X249348D01*
Y132996D01*
X249340D01*
Y133004D01*
X249333D01*
Y133011D01*
X249326D01*
Y133019D01*
X249318D01*
Y133026D01*
X249311D01*
Y133033D01*
X249304D01*
Y133040D01*
X249296D01*
Y133048D01*
X249289D01*
Y133055D01*
X249282D01*
Y133070D01*
X249274D01*
Y133077D01*
X249267D01*
Y133084D01*
X249260D01*
Y133092D01*
X249253D01*
Y133099D01*
X249245D01*
Y133106D01*
X249238D01*
Y133114D01*
X249231D01*
Y133121D01*
X249223D01*
Y133128D01*
X249216D01*
Y133136D01*
X249208D01*
Y133143D01*
X249201D01*
Y133150D01*
X249194D01*
Y133158D01*
X249186D01*
Y133172D01*
X249179D01*
Y133180D01*
X249172D01*
Y133187D01*
X249165D01*
Y133194D01*
X249157D01*
Y133202D01*
X249150D01*
Y133209D01*
X249143D01*
Y133224D01*
X249135D01*
Y133231D01*
X249128D01*
Y133238D01*
X249121D01*
Y133246D01*
X249113D01*
Y133253D01*
X249106D01*
Y133260D01*
X249099D01*
Y133275D01*
X249091D01*
Y133282D01*
X249084D01*
Y133290D01*
X249077D01*
Y133297D01*
X249069D01*
Y133304D01*
X249062D01*
Y133311D01*
X249055D01*
Y133326D01*
X249047D01*
Y133333D01*
X249040D01*
Y133341D01*
X249033D01*
Y133348D01*
X249025D01*
Y133355D01*
X249018D01*
Y133363D01*
X249011D01*
Y133377D01*
X249003D01*
Y133385D01*
X248996D01*
Y133392D01*
X248989D01*
Y133399D01*
X248981D01*
Y133407D01*
X248974D01*
Y133414D01*
X248967D01*
Y133429D01*
X248959D01*
Y133436D01*
X248952D01*
Y133443D01*
X248945D01*
Y133451D01*
X248938D01*
Y133458D01*
X248930D01*
Y133465D01*
X248923D01*
Y133480D01*
X248916D01*
Y133487D01*
X248908D01*
Y133495D01*
X248901D01*
Y133502D01*
X248894D01*
Y133509D01*
X248886D01*
Y133517D01*
X248879D01*
Y133531D01*
X248872D01*
Y133538D01*
X248864D01*
Y133546D01*
X248857D01*
Y133553D01*
X248850D01*
Y133561D01*
X248842D01*
Y133568D01*
X248835D01*
Y133582D01*
X248828D01*
Y133590D01*
X248820D01*
Y133597D01*
X248813D01*
Y133605D01*
X248806D01*
Y133612D01*
X248798D01*
Y133619D01*
X248791D01*
Y133634D01*
X248784D01*
Y133641D01*
X248776D01*
Y133648D01*
X248769D01*
Y133656D01*
X248762D01*
Y133663D01*
X248754D01*
Y133670D01*
X248747D01*
Y133685D01*
X248740D01*
Y133692D01*
X248732D01*
Y133700D01*
X248725D01*
Y133707D01*
X248718D01*
Y133714D01*
X248710D01*
Y133722D01*
X248703D01*
Y133736D01*
X248696D01*
Y133744D01*
X248689D01*
Y133751D01*
X248681D01*
Y133758D01*
X248674D01*
Y133766D01*
X248667D01*
Y133780D01*
X248659D01*
Y133788D01*
X248652D01*
Y133795D01*
X248644D01*
Y133802D01*
X248637D01*
Y133810D01*
X248630D01*
Y133817D01*
X248622D01*
Y133832D01*
X248615D01*
Y133839D01*
X248608D01*
Y133846D01*
X248601D01*
Y133853D01*
X248593D01*
Y133861D01*
X248586D01*
Y133868D01*
X248579D01*
Y133883D01*
X248571D01*
Y133890D01*
X248564D01*
Y133897D01*
X248557D01*
Y133905D01*
X248549D01*
Y133912D01*
X248542D01*
Y133919D01*
X248535D01*
Y133934D01*
X248527D01*
Y133941D01*
X248520D01*
Y133949D01*
X248513D01*
Y133956D01*
X248505D01*
Y133963D01*
X248498D01*
Y133971D01*
X248491D01*
Y133978D01*
X248483D01*
Y133993D01*
X248476D01*
Y134000D01*
X248469D01*
Y134007D01*
X248461D01*
Y134015D01*
X248454D01*
Y134022D01*
X248447D01*
Y134029D01*
X248439D01*
Y134044D01*
X248432D01*
Y134051D01*
X248425D01*
Y134059D01*
X248417D01*
Y134066D01*
X248410D01*
Y134073D01*
X248403D01*
Y134081D01*
X248395D01*
Y134095D01*
X248388D01*
Y134102D01*
X248381D01*
Y134110D01*
X248374D01*
Y134117D01*
X248366D01*
Y134125D01*
X248359D01*
Y134132D01*
X248352D01*
Y134146D01*
X248344D01*
Y134154D01*
X248337D01*
Y134161D01*
X248329D01*
Y134169D01*
X248322D01*
Y134176D01*
X248315D01*
Y134183D01*
X248308D01*
Y134198D01*
X248300D01*
Y134205D01*
X248293D01*
Y134212D01*
X248286D01*
Y134220D01*
X248278D01*
Y134227D01*
X248271D01*
Y134234D01*
X248264D01*
Y134249D01*
X248256D01*
Y134256D01*
X248249D01*
Y134264D01*
X248242D01*
Y134271D01*
X248234D01*
Y134278D01*
X248227D01*
Y134286D01*
X248220D01*
Y134300D01*
X248212D01*
Y134308D01*
X248205D01*
Y134315D01*
X248198D01*
Y134322D01*
X248190D01*
Y134330D01*
X248183D01*
Y134337D01*
X248176D01*
Y134352D01*
X248168D01*
Y134359D01*
X248161D01*
Y134366D01*
X248154D01*
Y134374D01*
X248146D01*
Y134381D01*
X248139D01*
Y134388D01*
X248132D01*
Y134403D01*
X248124D01*
Y134410D01*
X248117D01*
Y134417D01*
X248110D01*
Y134425D01*
X248102D01*
Y134432D01*
X248095D01*
Y134440D01*
X248088D01*
Y134454D01*
X248080D01*
Y134461D01*
X248073D01*
Y134469D01*
X248066D01*
Y134476D01*
X248059D01*
Y134483D01*
X248051D01*
Y134491D01*
X248044D01*
Y134505D01*
X248037D01*
Y134513D01*
X248029D01*
Y134520D01*
X248022D01*
Y134527D01*
X248015D01*
Y134535D01*
X248007D01*
Y134542D01*
X248000D01*
Y134557D01*
X247993D01*
Y134564D01*
X247985D01*
Y134571D01*
X247978D01*
Y134579D01*
X247971D01*
Y134586D01*
X247963D01*
Y134601D01*
X247956D01*
Y134608D01*
X247949D01*
Y134615D01*
X247941D01*
Y134623D01*
X247934D01*
Y134630D01*
X247927D01*
Y134637D01*
X247919D01*
Y134652D01*
X247912D01*
Y134659D01*
X247905D01*
Y134667D01*
X247897D01*
Y134674D01*
X247890D01*
Y134681D01*
X247883D01*
Y134688D01*
X247875D01*
Y134703D01*
X247868D01*
Y134711D01*
X247861D01*
Y134718D01*
X247853D01*
Y134725D01*
X247846D01*
Y134732D01*
X247839D01*
Y134740D01*
X247832D01*
Y134747D01*
X247824D01*
Y134762D01*
X247817D01*
Y134769D01*
X247810D01*
Y134776D01*
X247802D01*
Y134784D01*
X247795D01*
Y134791D01*
X247787D01*
Y134806D01*
X247780D01*
Y134813D01*
X247773D01*
Y134820D01*
X247765D01*
Y134828D01*
X247758D01*
Y134835D01*
X247751D01*
Y134842D01*
X247744D01*
Y134857D01*
X247736D01*
Y134864D01*
X247729D01*
Y134872D01*
X247722D01*
Y134879D01*
X247714D01*
Y134886D01*
X247707D01*
Y134894D01*
X247700D01*
Y134908D01*
X247692D01*
Y134916D01*
X247685D01*
Y134923D01*
X247678D01*
Y134930D01*
X247670D01*
Y134938D01*
X247663D01*
Y134945D01*
X247656D01*
Y134959D01*
X247648D01*
Y134967D01*
X247641D01*
Y134974D01*
X247634D01*
Y134982D01*
X247626D01*
Y134989D01*
X247619D01*
Y134996D01*
X247612D01*
Y135011D01*
X247604D01*
Y135018D01*
X247597D01*
Y135026D01*
X247590D01*
Y135033D01*
X247582D01*
Y135040D01*
X247575D01*
Y135047D01*
X247568D01*
Y135062D01*
X247560D01*
Y135069D01*
X247553D01*
Y135077D01*
X247546D01*
Y135084D01*
X247538D01*
Y135091D01*
X247531D01*
Y135099D01*
X247524D01*
Y135113D01*
X247516D01*
Y135121D01*
X247509D01*
Y135128D01*
X247502D01*
Y135135D01*
X247495D01*
Y135143D01*
X247487D01*
Y135150D01*
X247480D01*
Y135157D01*
X247473D01*
Y135172D01*
X247465D01*
Y135179D01*
X247458D01*
Y135187D01*
X247451D01*
Y135194D01*
X247443D01*
Y135201D01*
X247436D01*
Y135209D01*
X247429D01*
Y135223D01*
X247421D01*
Y135231D01*
X247414D01*
Y135238D01*
X247407D01*
Y135245D01*
X247399D01*
Y135252D01*
X247392D01*
Y135260D01*
X247385D01*
Y135275D01*
X247377D01*
Y135282D01*
X247370D01*
Y135289D01*
X247363D01*
Y135296D01*
X247355D01*
Y135304D01*
X247348D01*
Y135311D01*
X247341D01*
Y135326D01*
X247333D01*
Y135333D01*
X247326D01*
Y135340D01*
X247319D01*
Y135348D01*
X247311D01*
Y135355D01*
X247304D01*
Y135362D01*
X247297D01*
Y135377D01*
X247289D01*
Y135384D01*
X247282D01*
Y135392D01*
X247275D01*
Y135399D01*
X247268D01*
Y135406D01*
X247260D01*
Y135421D01*
X247253D01*
Y135428D01*
X247246D01*
Y135436D01*
X247238D01*
Y135443D01*
X247231D01*
Y135450D01*
X247223D01*
Y135458D01*
X247216D01*
Y135472D01*
X247209D01*
Y135480D01*
X247201D01*
Y135487D01*
X247194D01*
Y135494D01*
X247187D01*
Y135502D01*
X247180D01*
Y135509D01*
X247172D01*
Y135524D01*
X247165D01*
Y135531D01*
X247158D01*
Y135538D01*
X247150D01*
Y135546D01*
X247143D01*
Y135553D01*
X247136D01*
Y135560D01*
X247128D01*
Y135575D01*
X247121D01*
Y135582D01*
X247114D01*
Y135590D01*
X247106D01*
Y135597D01*
X247099D01*
Y135604D01*
X247092D01*
Y135611D01*
X247084D01*
Y135626D01*
X247077D01*
Y135633D01*
X247070D01*
Y135641D01*
X247062D01*
Y135648D01*
X247055D01*
Y135655D01*
X247048D01*
Y135663D01*
X247040D01*
Y135677D01*
X247033D01*
Y135685D01*
X247026D01*
Y135692D01*
X247018D01*
Y135699D01*
X247011D01*
Y135707D01*
X247004D01*
Y135714D01*
X246996D01*
Y135729D01*
X246989D01*
Y135736D01*
X246982D01*
Y135743D01*
X246974D01*
Y135751D01*
X246967D01*
Y135758D01*
X246960D01*
Y135765D01*
X246953D01*
Y135780D01*
X246945D01*
Y135787D01*
X246938D01*
Y135795D01*
X246931D01*
Y135802D01*
X246923D01*
Y135809D01*
X246916D01*
Y135817D01*
X246908D01*
Y135831D01*
X246901D01*
Y135838D01*
X246894D01*
Y135846D01*
X246887D01*
Y135853D01*
X246879D01*
Y135861D01*
X246872D01*
Y135868D01*
X246865D01*
Y135882D01*
X246857D01*
Y135890D01*
X246850D01*
Y135897D01*
X246843D01*
Y135904D01*
X246835D01*
Y135912D01*
X246828D01*
Y135919D01*
X246821D01*
Y135934D01*
X246813D01*
Y135941D01*
X246806D01*
Y135948D01*
X246799D01*
Y135956D01*
X246791D01*
Y135963D01*
X246784D01*
Y135970D01*
X246777D01*
Y135985D01*
X246769D01*
Y135992D01*
X246762D01*
Y136000D01*
X246755D01*
Y136007D01*
X246747D01*
Y136014D01*
X246740D01*
Y136022D01*
X246733D01*
Y136036D01*
X246725D01*
Y136044D01*
X246718D01*
Y136051D01*
X246711D01*
Y136058D01*
X246704D01*
Y136066D01*
X246696D01*
Y136073D01*
X246689D01*
Y136088D01*
X246681D01*
Y136095D01*
X246674D01*
Y136102D01*
X246667D01*
Y136109D01*
X246659D01*
Y136117D01*
X246652D01*
Y136124D01*
X246645D01*
Y136139D01*
X246638D01*
Y136146D01*
X246630D01*
Y136153D01*
X246623D01*
Y136161D01*
X246616D01*
Y136168D01*
X246608D01*
Y136176D01*
X246601D01*
Y136190D01*
X246594D01*
Y136197D01*
X246586D01*
Y136205D01*
X246579D01*
Y136212D01*
X246572D01*
Y136219D01*
X246564D01*
Y136227D01*
X246557D01*
Y136241D01*
X246550D01*
Y136249D01*
X246542D01*
Y136256D01*
X246535D01*
Y136263D01*
X246528D01*
Y136271D01*
X246520D01*
Y136278D01*
X246513D01*
Y136293D01*
X246506D01*
Y136300D01*
X246498D01*
Y136307D01*
X246491D01*
Y136315D01*
X246484D01*
Y136322D01*
X246476D01*
Y136329D01*
X246469D01*
Y136344D01*
X246462D01*
Y136351D01*
X246454D01*
Y136359D01*
X246447D01*
Y136366D01*
X246440D01*
Y136373D01*
X246432D01*
Y136381D01*
X246425D01*
Y136395D01*
X246418D01*
Y136402D01*
X246410D01*
Y136410D01*
X246403D01*
Y136417D01*
X246396D01*
Y136425D01*
X246389D01*
Y136432D01*
X246381D01*
Y136446D01*
X246374D01*
Y136454D01*
X246367D01*
Y136461D01*
X246359D01*
Y136468D01*
X246352D01*
Y136476D01*
X246344D01*
Y136483D01*
X246337D01*
Y136498D01*
X246330D01*
Y136505D01*
X246323D01*
Y136512D01*
X246315D01*
Y136520D01*
X246308D01*
Y136527D01*
X246301D01*
Y136534D01*
X246293D01*
Y136549D01*
X246286D01*
Y136556D01*
X246279D01*
Y136564D01*
X246271D01*
Y136571D01*
X246264D01*
Y136578D01*
X246257D01*
Y136586D01*
X246249D01*
Y136600D01*
X246242D01*
Y136608D01*
X246235D01*
Y136615D01*
X246227D01*
Y136622D01*
X246220D01*
Y136630D01*
X246213D01*
Y136637D01*
X246205D01*
Y136652D01*
X246198D01*
Y136659D01*
X246191D01*
Y136666D01*
X246183D01*
Y136673D01*
X246176D01*
Y136681D01*
X246169D01*
Y136688D01*
X246161D01*
Y136703D01*
X246154D01*
Y136710D01*
X246147D01*
Y136717D01*
X246139D01*
Y136725D01*
X246132D01*
Y136732D01*
X246125D01*
Y136740D01*
X246117D01*
Y136754D01*
X246110D01*
Y136761D01*
X246103D01*
Y136769D01*
X246095D01*
Y136776D01*
X246088D01*
Y136783D01*
X246081D01*
Y136791D01*
X246074D01*
Y136805D01*
X246066D01*
Y136813D01*
X246059D01*
Y136820D01*
X246052D01*
Y136827D01*
X246044D01*
Y136835D01*
X246037D01*
Y136842D01*
X246030D01*
Y136857D01*
X246022D01*
Y136864D01*
X246015D01*
Y136871D01*
X246008D01*
Y136879D01*
X246000D01*
Y136886D01*
X245993D01*
Y136893D01*
X245986D01*
Y136908D01*
X245978D01*
Y136915D01*
X245971D01*
Y136923D01*
X245964D01*
Y136930D01*
X245956D01*
Y136937D01*
X245949D01*
Y136945D01*
X245942D01*
Y136959D01*
X245934D01*
Y136967D01*
X245927D01*
Y136974D01*
X245920D01*
Y136981D01*
X245912D01*
Y136988D01*
X245905D01*
Y136996D01*
X245898D01*
Y137011D01*
X245890D01*
Y137018D01*
X245883D01*
Y137025D01*
X245876D01*
Y137032D01*
X245868D01*
Y137040D01*
X245861D01*
Y137047D01*
X245854D01*
Y137062D01*
X245847D01*
Y137069D01*
X245839D01*
Y137076D01*
X245832D01*
Y137084D01*
X245825D01*
Y137091D01*
X245817D01*
Y137098D01*
X245810D01*
Y137113D01*
X245802D01*
Y137120D01*
X245795D01*
Y137128D01*
X245788D01*
Y137135D01*
X245780D01*
Y137142D01*
X245773D01*
Y137150D01*
X245766D01*
Y137164D01*
X245759D01*
Y137172D01*
X245751D01*
Y137179D01*
X245744D01*
Y137186D01*
X245737D01*
Y137194D01*
X245729D01*
Y137201D01*
X245722D01*
Y137216D01*
X245715D01*
Y137223D01*
X245707D01*
Y137230D01*
X245700D01*
Y137238D01*
X245693D01*
Y137245D01*
X245685D01*
Y137252D01*
X245678D01*
Y137267D01*
X245671D01*
Y137274D01*
X245663D01*
Y137282D01*
X245656D01*
Y137289D01*
X245649D01*
Y137296D01*
X245641D01*
Y137303D01*
X245634D01*
Y137318D01*
X245627D01*
Y137325D01*
X245619D01*
Y137333D01*
X245612D01*
Y137340D01*
X245605D01*
Y137347D01*
X245597D01*
Y137355D01*
X245590D01*
Y137369D01*
X245583D01*
Y137377D01*
X245575D01*
Y137384D01*
X245568D01*
Y137391D01*
X245561D01*
Y137399D01*
X245553D01*
Y137406D01*
X245546D01*
Y137413D01*
X245539D01*
Y137428D01*
X245532D01*
Y137435D01*
X245524D01*
Y137443D01*
X245517D01*
Y137450D01*
X245510D01*
Y137457D01*
X245502D01*
Y137465D01*
X245495D01*
Y137479D01*
X245487D01*
Y137487D01*
X245480D01*
Y137494D01*
X245473D01*
Y137501D01*
X245466D01*
Y137509D01*
X245458D01*
Y137523D01*
X245451D01*
Y137531D01*
X245444D01*
Y137538D01*
X245436D01*
Y137545D01*
X245429D01*
Y137552D01*
X245422D01*
Y137560D01*
X245414D01*
Y137575D01*
X245407D01*
Y137582D01*
X245400D01*
Y137589D01*
X245392D01*
Y137596D01*
X245385D01*
Y137604D01*
X245378D01*
Y137611D01*
X245370D01*
Y137626D01*
X245363D01*
Y137633D01*
X245356D01*
Y137640D01*
X245348D01*
Y137648D01*
X245341D01*
Y137655D01*
X245334D01*
Y137662D01*
X245326D01*
Y137670D01*
X245319D01*
Y137677D01*
X245312D01*
Y137692D01*
X245304D01*
Y137699D01*
X245297D01*
Y137706D01*
X245290D01*
Y137714D01*
X245283D01*
Y137721D01*
X245275D01*
Y137728D01*
X245268D01*
Y137736D01*
X245261D01*
Y137743D01*
X245253D01*
Y137750D01*
X245246D01*
Y137758D01*
X245238D01*
Y137765D01*
X245231D01*
Y137772D01*
X245224D01*
Y137780D01*
X245216D01*
Y137787D01*
X245209D01*
Y137794D01*
X245202D01*
Y137802D01*
X245195D01*
Y137809D01*
X245187D01*
Y137816D01*
X245180D01*
Y137823D01*
X245173D01*
Y137831D01*
X245158D01*
Y137838D01*
X245151D01*
Y137846D01*
X245143D01*
Y137853D01*
X245136D01*
Y137860D01*
X245129D01*
Y137867D01*
X245121D01*
Y137875D01*
X245107D01*
Y137882D01*
X245099D01*
Y137889D01*
X245092D01*
Y137897D01*
X245085D01*
Y137904D01*
X245077D01*
Y137911D01*
X245063D01*
Y137919D01*
X245055D01*
Y137926D01*
X245048D01*
Y137933D01*
X245033D01*
Y137941D01*
X245026D01*
Y137948D01*
X245019D01*
Y137955D01*
X245004D01*
Y137963D01*
X244997D01*
Y137970D01*
X244982D01*
Y137977D01*
X244975D01*
Y137985D01*
X244968D01*
Y137992D01*
X244953D01*
Y137999D01*
X244946D01*
Y138007D01*
X244931D01*
Y138014D01*
X244916D01*
Y138021D01*
X244909D01*
Y138029D01*
X244894D01*
Y138036D01*
X244887D01*
Y138043D01*
X244872D01*
Y138051D01*
X244858D01*
Y138058D01*
X244843D01*
Y138065D01*
X244836D01*
Y138073D01*
X244821D01*
Y138080D01*
X244806D01*
Y138087D01*
X244792D01*
Y138094D01*
X244777D01*
Y138102D01*
X244762D01*
Y138109D01*
X244748D01*
Y138117D01*
X244733D01*
Y138124D01*
X244718D01*
Y138131D01*
X244704D01*
Y138138D01*
X244682D01*
Y138146D01*
X244667D01*
Y138153D01*
X244645D01*
Y138161D01*
X244631D01*
Y138168D01*
X244609D01*
Y138175D01*
X244587D01*
Y138182D01*
X244565D01*
Y138190D01*
X244543D01*
Y138197D01*
X244513D01*
Y138204D01*
X244484D01*
Y138212D01*
X244455D01*
Y138219D01*
X244418D01*
Y138226D01*
X244374D01*
Y138234D01*
X244316D01*
Y138241D01*
X244118D01*
Y132154D01*
X242235D01*
Y136132D01*
X241298D01*
Y136139D01*
X241481D01*
Y136146D01*
X241957D01*
Y136139D01*
X242243D01*
Y136146D01*
X242250D01*
Y136153D01*
X242243D01*
Y136278D01*
X242235D01*
Y139779D01*
Y139787D01*
Y140094D01*
X244272D01*
Y140087D01*
X244426D01*
Y140079D01*
X244535D01*
Y140072D01*
X244623D01*
Y140065D01*
X244696D01*
Y140058D01*
X244755D01*
Y140050D01*
X244814D01*
Y140043D01*
X244865D01*
Y140036D01*
X244909D01*
Y140028D01*
X244946D01*
Y140021D01*
X244989D01*
Y140014D01*
X245026D01*
Y140006D01*
X245055D01*
Y139999D01*
X245085D01*
Y139992D01*
X245114D01*
Y139984D01*
X245143D01*
Y139977D01*
X245173D01*
Y139970D01*
X245202D01*
Y139962D01*
X245224D01*
Y139955D01*
X245246D01*
Y139948D01*
X245268D01*
Y139940D01*
X245290D01*
Y139933D01*
X245312D01*
Y139926D01*
X245334D01*
Y139918D01*
X245356D01*
Y139911D01*
X245370D01*
Y139904D01*
X245392D01*
Y139896D01*
X245414D01*
Y139889D01*
X245429D01*
Y139882D01*
X245451D01*
Y139874D01*
X245466D01*
Y139867D01*
X245480D01*
Y139860D01*
X245502D01*
Y139852D01*
X245517D01*
Y139845D01*
X245532D01*
Y139838D01*
X245546D01*
Y139831D01*
X245561D01*
Y139823D01*
X245575D01*
Y139816D01*
X245590D01*
Y139808D01*
X245605D01*
Y139801D01*
X245619D01*
Y139794D01*
X245634D01*
Y139787D01*
X245649D01*
Y139779D01*
X245663D01*
Y139772D01*
X245678D01*
Y139765D01*
X245693D01*
Y139757D01*
X245707D01*
Y139750D01*
X245715D01*
Y139743D01*
X245729D01*
Y139735D01*
X245744D01*
Y139728D01*
X245751D01*
Y139721D01*
X245766D01*
Y139713D01*
X245780D01*
Y139706D01*
X245788D01*
Y139699D01*
X245802D01*
Y139691D01*
X245817D01*
Y139684D01*
X245825D01*
Y139677D01*
X245839D01*
Y139669D01*
X245847D01*
Y139662D01*
X245861D01*
Y139655D01*
X245876D01*
Y139647D01*
X245883D01*
Y139640D01*
X245890D01*
Y139633D01*
X245905D01*
Y139625D01*
X245912D01*
Y139618D01*
X245927D01*
Y139611D01*
X245934D01*
Y139603D01*
X245949D01*
Y139596D01*
X245956D01*
Y139589D01*
X245971D01*
Y139582D01*
X245978D01*
Y139574D01*
X245986D01*
Y139567D01*
X246000D01*
Y139559D01*
X246008D01*
Y139552D01*
X246015D01*
Y139545D01*
X246030D01*
Y139538D01*
X246037D01*
Y139530D01*
X246044D01*
Y139523D01*
X246059D01*
Y139515D01*
X246066D01*
Y139508D01*
X246074D01*
Y139501D01*
X246081D01*
Y139494D01*
X246095D01*
Y139486D01*
X246103D01*
Y139479D01*
X246110D01*
Y139472D01*
X246117D01*
Y139464D01*
X246132D01*
Y139457D01*
X246139D01*
Y139450D01*
X246147D01*
Y139442D01*
X246154D01*
Y139435D01*
X246169D01*
Y139428D01*
X246176D01*
Y139420D01*
X246183D01*
Y139413D01*
X246191D01*
Y139406D01*
X246198D01*
Y139398D01*
X246205D01*
Y139391D01*
X246220D01*
Y139384D01*
X246227D01*
Y139376D01*
X246235D01*
Y139369D01*
X246242D01*
Y139362D01*
X246249D01*
Y139354D01*
X246257D01*
Y139347D01*
X246264D01*
Y139340D01*
X246271D01*
Y139332D01*
X246279D01*
Y139325D01*
X246293D01*
Y139318D01*
X246301D01*
Y139310D01*
X246308D01*
Y139303D01*
X246315D01*
Y139296D01*
X246323D01*
Y139288D01*
X246330D01*
Y139281D01*
X246337D01*
Y139274D01*
X246344D01*
Y139267D01*
X246352D01*
Y139259D01*
X246359D01*
Y139252D01*
X246367D01*
Y139244D01*
X246374D01*
Y139237D01*
X246381D01*
Y139230D01*
X246389D01*
Y139223D01*
X246396D01*
Y139215D01*
X246403D01*
Y139208D01*
X246410D01*
Y139201D01*
X246418D01*
Y139193D01*
X246425D01*
Y139186D01*
X246432D01*
Y139179D01*
X246440D01*
Y139171D01*
X246447D01*
Y139164D01*
X246454D01*
Y139157D01*
X246462D01*
Y139149D01*
X246469D01*
Y139142D01*
X246476D01*
Y139135D01*
X246484D01*
Y139127D01*
X246491D01*
Y139120D01*
X246498D01*
Y139113D01*
X246506D01*
Y139105D01*
X246513D01*
Y139098D01*
X246520D01*
Y139091D01*
X246528D01*
Y139083D01*
X246535D01*
Y139076D01*
X246542D01*
Y139069D01*
X246550D01*
Y139061D01*
X246557D01*
Y139047D01*
X246564D01*
Y139039D01*
X246572D01*
Y139032D01*
X246579D01*
Y139025D01*
X246586D01*
Y139017D01*
X246594D01*
Y139010D01*
X246601D01*
Y139003D01*
X246608D01*
Y138996D01*
X246616D01*
Y138988D01*
X246623D01*
Y138973D01*
X246630D01*
Y138966D01*
X246638D01*
Y138959D01*
X246645D01*
Y138952D01*
X246652D01*
Y138944D01*
X246659D01*
Y138937D01*
X246667D01*
Y138922D01*
X246674D01*
Y138915D01*
X246681D01*
Y138908D01*
X246689D01*
Y138900D01*
X246696D01*
Y138893D01*
X246704D01*
Y138886D01*
X246711D01*
Y138878D01*
X246718D01*
Y138864D01*
X246725D01*
Y138856D01*
X246733D01*
Y138849D01*
X246740D01*
Y138842D01*
X246747D01*
Y138834D01*
X246755D01*
Y138827D01*
X246762D01*
Y138812D01*
X246769D01*
Y138805D01*
X246777D01*
Y138798D01*
X246784D01*
Y138790D01*
X246791D01*
Y138783D01*
X246799D01*
Y138776D01*
X246806D01*
Y138768D01*
X246813D01*
Y138754D01*
X246821D01*
Y138746D01*
X246828D01*
Y138739D01*
X246835D01*
Y138732D01*
X246843D01*
Y138725D01*
X246850D01*
Y138717D01*
X246857D01*
Y138702D01*
X246865D01*
Y138695D01*
X246872D01*
Y138688D01*
X246879D01*
Y138681D01*
X246887D01*
Y138673D01*
X246894D01*
Y138666D01*
X246901D01*
Y138658D01*
X246908D01*
Y138644D01*
X246916D01*
Y138637D01*
X246923D01*
Y138629D01*
X246931D01*
Y138622D01*
X246938D01*
Y138615D01*
X246945D01*
Y138607D01*
X246953D01*
Y138593D01*
X246960D01*
Y138585D01*
X246967D01*
Y138578D01*
X246974D01*
Y138571D01*
X246982D01*
Y138563D01*
X246989D01*
Y138556D01*
X246996D01*
Y138549D01*
X247004D01*
Y138534D01*
X247011D01*
Y138527D01*
X247018D01*
Y138519D01*
X247026D01*
Y138512D01*
X247033D01*
Y138505D01*
X247040D01*
Y138497D01*
X247048D01*
Y138483D01*
X247055D01*
Y138475D01*
X247062D01*
Y138468D01*
X247070D01*
Y138461D01*
X247077D01*
Y138453D01*
X247084D01*
Y138446D01*
X247092D01*
Y138439D01*
X247099D01*
Y138424D01*
X247106D01*
Y138417D01*
X247114D01*
Y138409D01*
X247121D01*
Y138402D01*
X247128D01*
Y138395D01*
X247136D01*
Y138388D01*
X247143D01*
Y138373D01*
X247150D01*
Y138366D01*
X247158D01*
Y138358D01*
X247165D01*
Y138351D01*
X247172D01*
Y138344D01*
X247180D01*
Y138336D01*
X247187D01*
Y138329D01*
X247194D01*
Y138314D01*
X247201D01*
Y138307D01*
X247209D01*
Y138300D01*
X247216D01*
Y138292D01*
X247223D01*
Y138285D01*
X247231D01*
Y138278D01*
X247238D01*
Y138263D01*
X247246D01*
Y138256D01*
X247253D01*
Y138248D01*
X247260D01*
Y138241D01*
X247268D01*
Y138234D01*
X247275D01*
Y138226D01*
X247282D01*
Y138219D01*
X247289D01*
Y138204D01*
X247297D01*
Y138197D01*
X247304D01*
Y138190D01*
X247311D01*
Y138182D01*
X247319D01*
Y138175D01*
X247326D01*
Y138168D01*
X247333D01*
Y138153D01*
X247341D01*
Y138146D01*
X247348D01*
Y138138D01*
X247355D01*
Y138131D01*
X247363D01*
Y138124D01*
X247370D01*
Y138117D01*
X247377D01*
Y138109D01*
X247385D01*
Y138094D01*
X247392D01*
Y138087D01*
X247399D01*
Y138080D01*
X247407D01*
Y138073D01*
X247414D01*
Y138065D01*
X247421D01*
Y138058D01*
X247429D01*
Y138043D01*
X247436D01*
Y138036D01*
X247443D01*
Y138029D01*
X247451D01*
Y138021D01*
X247458D01*
Y138014D01*
X247465D01*
Y138007D01*
X247473D01*
Y137999D01*
X247480D01*
Y137985D01*
X247487D01*
Y137977D01*
X247495D01*
Y137970D01*
X247502D01*
Y137963D01*
X247509D01*
Y137955D01*
X247516D01*
Y137948D01*
X247524D01*
Y137941D01*
X247531D01*
Y137926D01*
X247538D01*
Y137919D01*
X247546D01*
Y137911D01*
X247553D01*
Y137904D01*
X247560D01*
Y137897D01*
X247568D01*
Y137889D01*
X247575D01*
Y137875D01*
X247582D01*
Y137867D01*
X247590D01*
Y137860D01*
X247597D01*
Y137853D01*
X247604D01*
Y137846D01*
X247612D01*
Y137838D01*
X247619D01*
Y137831D01*
X247626D01*
Y137816D01*
X247634D01*
Y137809D01*
X247641D01*
Y137802D01*
X247648D01*
Y137794D01*
X247656D01*
Y137787D01*
X247663D01*
Y137780D01*
X247670D01*
Y137765D01*
X247678D01*
Y137758D01*
X247685D01*
Y137750D01*
X247692D01*
Y137743D01*
X247700D01*
Y137736D01*
X247707D01*
Y137728D01*
X247714D01*
Y137721D01*
X247722D01*
Y137706D01*
X247729D01*
Y137699D01*
X247736D01*
Y137692D01*
X247744D01*
Y137684D01*
X247751D01*
Y137677D01*
X247758D01*
Y137670D01*
X247765D01*
Y137655D01*
X247773D01*
Y137648D01*
X247780D01*
Y137640D01*
X247787D01*
Y137633D01*
X247795D01*
Y137626D01*
X247802D01*
Y137618D01*
X247810D01*
Y137611D01*
X247817D01*
Y137596D01*
X247824D01*
Y137589D01*
X247832D01*
Y137582D01*
X247839D01*
Y137575D01*
X247846D01*
Y137567D01*
X247853D01*
Y137560D01*
X247861D01*
Y137545D01*
X247868D01*
Y137538D01*
X247875D01*
Y137531D01*
X247883D01*
Y137523D01*
X247890D01*
Y137516D01*
X247897D01*
Y137509D01*
X247905D01*
Y137501D01*
X247912D01*
Y137487D01*
X247919D01*
Y137479D01*
X247927D01*
Y137472D01*
X247934D01*
Y137465D01*
X247941D01*
Y137457D01*
X247949D01*
Y137450D01*
X247956D01*
Y137435D01*
X247963D01*
Y137428D01*
X247971D01*
Y137421D01*
X247978D01*
Y137413D01*
X247985D01*
Y137406D01*
X247993D01*
Y137399D01*
X248000D01*
Y137391D01*
X248007D01*
Y137377D01*
X248015D01*
Y137369D01*
X248022D01*
Y137362D01*
X248029D01*
Y137355D01*
X248037D01*
Y137347D01*
X248044D01*
Y137340D01*
X248051D01*
Y137333D01*
X248059D01*
Y137318D01*
X248066D01*
Y137311D01*
X248073D01*
Y137303D01*
X248080D01*
Y137296D01*
X248088D01*
Y137289D01*
X248095D01*
Y137282D01*
X248102D01*
Y137267D01*
X248110D01*
Y137259D01*
X248117D01*
Y137252D01*
X248124D01*
Y137245D01*
X248132D01*
Y137238D01*
X248139D01*
Y137230D01*
X248146D01*
Y137223D01*
X248154D01*
Y137208D01*
X248161D01*
Y137201D01*
X248168D01*
Y137194D01*
X248176D01*
Y137186D01*
X248183D01*
Y137179D01*
X248190D01*
Y137172D01*
X248198D01*
Y137157D01*
X248205D01*
Y137150D01*
X248212D01*
Y137142D01*
X248220D01*
Y137135D01*
X248227D01*
Y137128D01*
X248234D01*
Y137120D01*
X248242D01*
Y137113D01*
X248249D01*
Y137098D01*
X248256D01*
Y137091D01*
X248264D01*
Y137084D01*
X248271D01*
Y137076D01*
X248278D01*
Y137069D01*
X248286D01*
Y137062D01*
X248293D01*
Y137047D01*
X248300D01*
Y137040D01*
X248308D01*
Y137032D01*
X248315D01*
Y137025D01*
X248322D01*
Y137018D01*
X248329D01*
Y137011D01*
X248337D01*
Y137003D01*
X248344D01*
Y136988D01*
X248352D01*
Y136981D01*
X248359D01*
Y136974D01*
X248366D01*
Y136967D01*
X248374D01*
Y136959D01*
X248381D01*
Y136952D01*
X248388D01*
Y136945D01*
X248395D01*
Y136930D01*
X248403D01*
Y136923D01*
X248410D01*
Y136915D01*
X248417D01*
Y136908D01*
X248425D01*
Y136901D01*
X248432D01*
Y136893D01*
X248439D01*
Y136879D01*
X248447D01*
Y136871D01*
X248454D01*
Y136864D01*
X248461D01*
Y136857D01*
X248469D01*
Y136849D01*
X248476D01*
Y136842D01*
X248483D01*
Y136835D01*
X248491D01*
Y136820D01*
X248498D01*
Y136813D01*
X248505D01*
Y136805D01*
X248513D01*
Y136798D01*
X248520D01*
Y136791D01*
X248527D01*
Y136783D01*
X248535D01*
Y136769D01*
X248542D01*
Y136761D01*
X248549D01*
Y136754D01*
X248557D01*
Y136747D01*
X248564D01*
Y136740D01*
X248571D01*
Y136732D01*
X248579D01*
Y136725D01*
X248586D01*
Y136710D01*
X248593D01*
Y136703D01*
X248601D01*
Y136696D01*
X248608D01*
Y136688D01*
X248615D01*
Y136681D01*
X248622D01*
Y136673D01*
X248630D01*
Y136659D01*
X248637D01*
Y136652D01*
X248644D01*
Y136644D01*
X248652D01*
Y136637D01*
X248659D01*
Y136630D01*
X248667D01*
Y136622D01*
X248674D01*
Y136615D01*
X248681D01*
Y136600D01*
X248689D01*
Y136593D01*
X248696D01*
Y136586D01*
X248703D01*
Y136578D01*
X248710D01*
Y136571D01*
X248718D01*
Y136564D01*
X248725D01*
Y136556D01*
X248732D01*
Y136542D01*
X248740D01*
Y136534D01*
X248747D01*
Y136527D01*
X248754D01*
Y136520D01*
X248762D01*
Y136512D01*
X248769D01*
Y136505D01*
X248776D01*
Y136490D01*
X248784D01*
Y136483D01*
X248791D01*
Y136476D01*
X248798D01*
Y136468D01*
X248806D01*
Y136461D01*
X248813D01*
Y136454D01*
X248820D01*
Y136446D01*
X248828D01*
Y136432D01*
X248835D01*
Y136425D01*
X248842D01*
Y136417D01*
X248850D01*
Y136410D01*
X248857D01*
Y136402D01*
X248864D01*
Y136395D01*
X248872D01*
Y136381D01*
X248879D01*
Y136373D01*
X248886D01*
Y136366D01*
X248894D01*
Y136359D01*
X248901D01*
Y136351D01*
X248908D01*
Y136344D01*
X248916D01*
Y136337D01*
X248923D01*
Y136322D01*
X248930D01*
Y136315D01*
X248938D01*
Y136307D01*
X248945D01*
Y136300D01*
X248952D01*
Y136293D01*
X248959D01*
Y136285D01*
X248967D01*
Y136271D01*
X248974D01*
Y136263D01*
X248981D01*
Y136256D01*
X248989D01*
Y136249D01*
X248996D01*
Y136241D01*
X249003D01*
Y136234D01*
X249011D01*
Y136227D01*
X249018D01*
Y136212D01*
X249025D01*
Y136205D01*
X249033D01*
Y136197D01*
X249040D01*
Y136190D01*
X249047D01*
Y136183D01*
X249055D01*
Y136176D01*
X249062D01*
Y136161D01*
X249069D01*
Y136153D01*
X249077D01*
Y136146D01*
X249084D01*
Y136139D01*
X249091D01*
Y136132D01*
X249099D01*
Y136124D01*
X249106D01*
Y136117D01*
X249113D01*
Y136102D01*
X249121D01*
Y136095D01*
X249128D01*
Y136088D01*
X249135D01*
Y136080D01*
X249143D01*
Y136073D01*
X249150D01*
Y136066D01*
X249157D01*
Y136058D01*
X249165D01*
Y136044D01*
X249172D01*
Y136036D01*
X249179D01*
Y136029D01*
X249186D01*
Y136022D01*
X249194D01*
Y136014D01*
X249201D01*
Y136007D01*
X249208D01*
Y135992D01*
X249216D01*
Y135985D01*
X249223D01*
Y135978D01*
X249231D01*
Y135970D01*
X249238D01*
Y135963D01*
X249245D01*
Y135956D01*
X249253D01*
Y135948D01*
X249260D01*
Y135934D01*
X249267D01*
Y135926D01*
X249274D01*
Y135919D01*
X249282D01*
Y135912D01*
X249289D01*
Y135904D01*
X249296D01*
Y135897D01*
X249304D01*
Y135882D01*
X249311D01*
Y135875D01*
X249318D01*
Y135868D01*
X249326D01*
Y135861D01*
X249333D01*
Y135853D01*
X249340D01*
Y135846D01*
X249348D01*
Y135838D01*
X249355D01*
Y135824D01*
X249362D01*
Y135817D01*
X249370D01*
Y135809D01*
X249377D01*
Y135802D01*
X249384D01*
Y135795D01*
X249392D01*
Y135787D01*
X249399D01*
Y135773D01*
X249406D01*
Y135765D01*
X249414D01*
Y135758D01*
X249421D01*
Y135751D01*
X249428D01*
Y135743D01*
X249436D01*
Y135736D01*
X249443D01*
Y135729D01*
X249450D01*
Y135714D01*
X249458D01*
Y135707D01*
X249465D01*
Y135699D01*
X249472D01*
Y135692D01*
X249480D01*
Y135685D01*
X249487D01*
Y135677D01*
X249494D01*
Y135670D01*
X249501D01*
Y135655D01*
X249509D01*
Y135648D01*
X249516D01*
Y135641D01*
X249523D01*
Y135633D01*
X249531D01*
Y135626D01*
X249538D01*
Y135619D01*
X249545D01*
Y135604D01*
X249553D01*
Y135597D01*
X249560D01*
Y135590D01*
X249567D01*
Y135582D01*
X249575D01*
Y135575D01*
X249582D01*
Y135567D01*
X249589D01*
Y135560D01*
X249597D01*
Y135546D01*
X249604D01*
Y135538D01*
X249611D01*
Y135531D01*
X249619D01*
Y135524D01*
X249626D01*
Y135516D01*
X249633D01*
Y135509D01*
X249641D01*
Y135494D01*
X249648D01*
Y135487D01*
X249655D01*
Y135480D01*
X249663D01*
Y135472D01*
X249670D01*
Y135465D01*
X249677D01*
Y135458D01*
X249685D01*
Y135450D01*
X249692D01*
Y135436D01*
X249699D01*
Y135428D01*
X249707D01*
Y135421D01*
X249714D01*
Y135414D01*
X249721D01*
Y135406D01*
X249729D01*
Y135399D01*
X249736D01*
Y135384D01*
X249743D01*
Y135377D01*
X249751D01*
Y135370D01*
X249758D01*
Y135362D01*
X249765D01*
Y135355D01*
X249773D01*
Y135348D01*
X249780D01*
Y135340D01*
X249787D01*
Y135326D01*
X249795D01*
Y135319D01*
X249802D01*
Y135311D01*
X249809D01*
Y135304D01*
X249816D01*
Y135296D01*
X249824D01*
Y135289D01*
X249831D01*
Y135275D01*
X249838D01*
Y135267D01*
X249846D01*
Y135260D01*
X249853D01*
Y135252D01*
X249860D01*
Y135245D01*
X249868D01*
Y135238D01*
X249875D01*
Y135231D01*
X249882D01*
Y135216D01*
X249890D01*
Y135209D01*
X249897D01*
Y135201D01*
X249904D01*
Y135194D01*
X249912D01*
Y135187D01*
X249919D01*
Y135179D01*
X249926D01*
Y135165D01*
X249934D01*
Y135157D01*
X249941D01*
Y135150D01*
X249948D01*
Y135143D01*
X249956D01*
Y135135D01*
X249963D01*
Y135128D01*
X249970D01*
Y135121D01*
X249978D01*
Y135106D01*
X249985D01*
Y135099D01*
X249992D01*
Y135091D01*
X250000D01*
Y135084D01*
X250007D01*
Y135077D01*
X250014D01*
Y135069D01*
X250022D01*
Y135062D01*
X250029D01*
Y135047D01*
X250036D01*
Y135040D01*
X250044D01*
Y135033D01*
X250051D01*
Y135026D01*
X250058D01*
Y135018D01*
X250065D01*
Y135011D01*
X250073D01*
Y134996D01*
X250080D01*
Y134989D01*
X250087D01*
Y134982D01*
X250095D01*
Y134974D01*
X250102D01*
Y134967D01*
X250110D01*
Y134959D01*
X250117D01*
Y134952D01*
X250124D01*
Y134945D01*
X250131D01*
Y134930D01*
X250139D01*
Y134923D01*
X250146D01*
Y134916D01*
X250153D01*
Y134908D01*
X250161D01*
Y134901D01*
X250168D01*
Y134894D01*
X250175D01*
Y134879D01*
X250183D01*
Y134872D01*
X250190D01*
Y134864D01*
X250197D01*
Y134857D01*
X250205D01*
Y134850D01*
X250212D01*
Y134842D01*
X250219D01*
Y134828D01*
X250227D01*
Y134820D01*
X250234D01*
Y134813D01*
X250241D01*
Y134806D01*
X250249D01*
Y134798D01*
X250256D01*
Y134791D01*
X250263D01*
Y134776D01*
X250271D01*
Y134769D01*
X250278D01*
Y134762D01*
X250285D01*
Y134754D01*
X250293D01*
Y134747D01*
X250300D01*
Y134740D01*
X250307D01*
Y134725D01*
X250315D01*
Y134718D01*
X250322D01*
Y134711D01*
X250329D01*
Y134703D01*
X250337D01*
Y134696D01*
X250344D01*
Y134688D01*
X250351D01*
Y134674D01*
X250359D01*
Y134667D01*
X250366D01*
Y134659D01*
X250373D01*
Y134652D01*
X250380D01*
Y134645D01*
X250388D01*
Y134637D01*
X250395D01*
Y134630D01*
X250402D01*
Y134615D01*
X250410D01*
Y134608D01*
X250417D01*
Y134601D01*
X250424D01*
Y134593D01*
X250432D01*
Y134586D01*
X250439D01*
Y134579D01*
X250446D01*
Y134571D01*
X250454D01*
Y134564D01*
X250461D01*
Y134557D01*
X250468D01*
Y134542D01*
X250476D01*
Y134535D01*
X250483D01*
Y134527D01*
X250490D01*
Y134520D01*
X250498D01*
Y134513D01*
X250505D01*
Y134505D01*
X250512D01*
Y134498D01*
X250520D01*
Y134491D01*
X250527D01*
Y134483D01*
X250534D01*
Y134476D01*
X250542D01*
Y134469D01*
X250549D01*
Y134461D01*
X250556D01*
Y134454D01*
X250564D01*
Y134447D01*
X250578D01*
Y134440D01*
X250586D01*
Y134432D01*
X250593D01*
Y134425D01*
X250600D01*
Y134417D01*
X250607D01*
Y134410D01*
X250615D01*
Y134403D01*
X250629D01*
Y134396D01*
X250637D01*
Y134388D01*
X250644D01*
Y134381D01*
X250652D01*
Y134374D01*
X250659D01*
Y134366D01*
X250674D01*
Y134359D01*
X250681D01*
Y134352D01*
X250688D01*
Y134344D01*
X250703D01*
Y134337D01*
X250710D01*
Y134330D01*
X250717D01*
Y134322D01*
X250725D01*
Y134315D01*
X250739D01*
Y134308D01*
X250747D01*
Y134300D01*
X250754D01*
Y134293D01*
X250769D01*
Y134286D01*
X250776D01*
Y134278D01*
X250791D01*
Y134271D01*
X250798D01*
Y134264D01*
X250805D01*
Y134256D01*
X250820D01*
Y134249D01*
X250827D01*
Y134242D01*
X250842D01*
Y134234D01*
X250849D01*
Y134227D01*
X250864D01*
Y134220D01*
X250871D01*
Y134212D01*
X250886D01*
Y134205D01*
X250901D01*
Y134198D01*
X250908D01*
Y134190D01*
X250922D01*
Y134183D01*
X250937D01*
Y134176D01*
X250944D01*
Y134169D01*
X250959D01*
Y134161D01*
X250974D01*
Y134154D01*
X250988D01*
Y134146D01*
X251003D01*
Y134139D01*
X251018D01*
Y134132D01*
X251032D01*
Y134125D01*
X251047D01*
Y134117D01*
X251062D01*
Y134110D01*
X251076D01*
Y134102D01*
X251091D01*
Y134095D01*
X251113D01*
Y134088D01*
X251128D01*
Y134081D01*
X251150D01*
Y134073D01*
X251164D01*
Y134066D01*
X251186D01*
Y134059D01*
X251208D01*
Y134051D01*
X251238D01*
Y134044D01*
X251259D01*
Y134037D01*
X251289D01*
Y134029D01*
X251325D01*
Y134022D01*
X251369D01*
Y134015D01*
X251435D01*
Y134007D01*
X251531D01*
Y134000D01*
X251640D01*
Y140094D01*
X253530D01*
Y132154D01*
D02*
G37*
G36*
X240272Y140233D02*
X240294D01*
Y140226D01*
X240309D01*
Y140211D01*
X240316D01*
Y140197D01*
X240324D01*
Y138388D01*
X231241D01*
Y138380D01*
X231175D01*
Y138373D01*
X231138D01*
Y138366D01*
X231109D01*
Y138358D01*
X231087D01*
Y138351D01*
X231065D01*
Y138344D01*
X231050D01*
Y138336D01*
X231036D01*
Y138329D01*
X231021D01*
Y138322D01*
X231014D01*
Y138314D01*
X230999D01*
Y138307D01*
X230992D01*
Y138300D01*
X230984D01*
Y138292D01*
X230970D01*
Y138285D01*
X230963D01*
Y138278D01*
X230955D01*
Y138270D01*
X230948D01*
Y138256D01*
X230941D01*
Y138248D01*
X230933D01*
Y138241D01*
X230926D01*
Y138226D01*
X230919D01*
Y138219D01*
X230911D01*
Y138204D01*
X230904D01*
Y138190D01*
X230897D01*
Y138168D01*
X230889D01*
Y138146D01*
X230882D01*
Y138117D01*
X230875D01*
Y138080D01*
X230867D01*
Y138007D01*
X230860D01*
Y134542D01*
X230867D01*
Y134461D01*
X230875D01*
Y134425D01*
X230882D01*
Y134396D01*
X230889D01*
Y134374D01*
X230897D01*
Y134359D01*
X230904D01*
Y134337D01*
X230911D01*
Y134322D01*
X230919D01*
Y134315D01*
X230926D01*
Y134300D01*
X230933D01*
Y134293D01*
X230941D01*
Y134286D01*
X230948D01*
Y134271D01*
X230955D01*
Y134264D01*
X230963D01*
Y134256D01*
X230970D01*
Y134249D01*
X230984D01*
Y134242D01*
X230992D01*
Y134234D01*
X230999D01*
Y134227D01*
X231014D01*
Y134220D01*
X231021D01*
Y134212D01*
X231036D01*
Y134205D01*
X231050D01*
Y134198D01*
X231065D01*
Y134190D01*
X231080D01*
Y134183D01*
X231102D01*
Y134176D01*
X231124D01*
Y134169D01*
X231160D01*
Y134161D01*
X231204D01*
Y134154D01*
X240243D01*
Y134146D01*
X240360D01*
Y132301D01*
X231160D01*
Y132308D01*
X230999D01*
Y132315D01*
X230897D01*
Y132323D01*
X230816D01*
Y132330D01*
X230743D01*
Y132337D01*
X230684D01*
Y132345D01*
X230633D01*
Y132352D01*
X230582D01*
Y132359D01*
X230538D01*
Y132367D01*
X230501D01*
Y132374D01*
X230465D01*
Y132381D01*
X230428D01*
Y132389D01*
X230391D01*
Y132396D01*
X230362D01*
Y132403D01*
X230325D01*
Y132411D01*
X230303D01*
Y132418D01*
X230274D01*
Y132425D01*
X230245D01*
Y132432D01*
X230223D01*
Y132440D01*
X230193D01*
Y132447D01*
X230171D01*
Y132455D01*
X230150D01*
Y132462D01*
X230128D01*
Y132469D01*
X230098D01*
Y132476D01*
X230084D01*
Y132484D01*
X230062D01*
Y132491D01*
X230040D01*
Y132498D01*
X230018D01*
Y132506D01*
X230003D01*
Y132513D01*
X229981D01*
Y132520D01*
X229966D01*
Y132528D01*
X229944D01*
Y132535D01*
X229930D01*
Y132542D01*
X229915D01*
Y132550D01*
X229901D01*
Y132557D01*
X229886D01*
Y132564D01*
X229864D01*
Y132572D01*
X229849D01*
Y132579D01*
X229835D01*
Y132586D01*
X229820D01*
Y132594D01*
X229805D01*
Y132601D01*
X229798D01*
Y132608D01*
X229783D01*
Y132616D01*
X229769D01*
Y132623D01*
X229754D01*
Y132630D01*
X229739D01*
Y132638D01*
X229732D01*
Y132645D01*
X229717D01*
Y132652D01*
X229703D01*
Y132660D01*
X229695D01*
Y132667D01*
X229681D01*
Y132674D01*
X229666D01*
Y132682D01*
X229659D01*
Y132689D01*
X229644D01*
Y132696D01*
X229637D01*
Y132703D01*
X229622D01*
Y132711D01*
X229615D01*
Y132718D01*
X229600D01*
Y132726D01*
X229593D01*
Y132733D01*
X229586D01*
Y132740D01*
X229571D01*
Y132747D01*
X229563D01*
Y132755D01*
X229556D01*
Y132762D01*
X229542D01*
Y132769D01*
X229534D01*
Y132777D01*
X229527D01*
Y132784D01*
X229512D01*
Y132791D01*
X229505D01*
Y132799D01*
X229498D01*
Y132806D01*
X229490D01*
Y132813D01*
X229483D01*
Y132821D01*
X229476D01*
Y132828D01*
X229461D01*
Y132835D01*
X229454D01*
Y132843D01*
X229446D01*
Y132850D01*
X229439D01*
Y132857D01*
X229432D01*
Y132865D01*
X229424D01*
Y132872D01*
X229417D01*
Y132879D01*
X229410D01*
Y132887D01*
X229402D01*
Y132894D01*
X229395D01*
Y132901D01*
X229388D01*
Y132909D01*
X229380D01*
Y132916D01*
X229373D01*
Y132923D01*
X229366D01*
Y132931D01*
X229358D01*
Y132938D01*
X229351D01*
Y132945D01*
X229344D01*
Y132953D01*
X229337D01*
Y132960D01*
X229329D01*
Y132967D01*
X229322D01*
Y132982D01*
X229314D01*
Y132989D01*
X229307D01*
Y132996D01*
X229300D01*
Y133004D01*
X229292D01*
Y133011D01*
X229285D01*
Y133026D01*
X229278D01*
Y133033D01*
X229271D01*
Y133040D01*
X229263D01*
Y133055D01*
X229256D01*
Y133062D01*
X229249D01*
Y133070D01*
X229241D01*
Y133084D01*
X229234D01*
Y133092D01*
X229227D01*
Y133106D01*
X229219D01*
Y133114D01*
X229212D01*
Y133128D01*
X229205D01*
Y133136D01*
X229197D01*
Y133150D01*
X229190D01*
Y133158D01*
X229183D01*
Y133172D01*
X229175D01*
Y133187D01*
X229168D01*
Y133194D01*
X229161D01*
Y133209D01*
X229153D01*
Y133224D01*
X229146D01*
Y133238D01*
X229139D01*
Y133246D01*
X229131D01*
Y133260D01*
X229124D01*
Y133275D01*
X229117D01*
Y133290D01*
X229109D01*
Y133304D01*
X229102D01*
Y133319D01*
X229095D01*
Y133341D01*
X229087D01*
Y133355D01*
X229080D01*
Y133370D01*
X229073D01*
Y133392D01*
X229065D01*
Y133407D01*
X229058D01*
Y133429D01*
X229051D01*
Y133443D01*
X229044D01*
Y133465D01*
X229036D01*
Y133487D01*
X229029D01*
Y133509D01*
X229022D01*
Y133531D01*
X229014D01*
Y133553D01*
X229007D01*
Y133582D01*
X228999D01*
Y133605D01*
X228992D01*
Y133634D01*
X228985D01*
Y133663D01*
X228978D01*
Y133700D01*
X228970D01*
Y133736D01*
X228963D01*
Y133773D01*
X228956D01*
Y133817D01*
X228948D01*
Y133861D01*
X228941D01*
Y133919D01*
X228934D01*
Y133985D01*
X228926D01*
Y134073D01*
X228919D01*
Y134249D01*
X228912D01*
Y138307D01*
X228919D01*
Y138468D01*
X228926D01*
Y138556D01*
X228934D01*
Y138629D01*
X228941D01*
Y138681D01*
X228948D01*
Y138732D01*
X228956D01*
Y138768D01*
X228963D01*
Y138812D01*
X228970D01*
Y138842D01*
X228978D01*
Y138878D01*
X228985D01*
Y138908D01*
X228992D01*
Y138937D01*
X228999D01*
Y138966D01*
X229007D01*
Y138988D01*
X229014D01*
Y139010D01*
X229022D01*
Y139032D01*
X229029D01*
Y139054D01*
X229036D01*
Y139076D01*
X229044D01*
Y139098D01*
X229051D01*
Y139120D01*
X229058D01*
Y139135D01*
X229065D01*
Y139157D01*
X229073D01*
Y139171D01*
X229080D01*
Y139186D01*
X229087D01*
Y139208D01*
X229095D01*
Y139223D01*
X229102D01*
Y139237D01*
X229109D01*
Y139252D01*
X229117D01*
Y139267D01*
X229124D01*
Y139281D01*
X229131D01*
Y139296D01*
X229139D01*
Y139310D01*
X229146D01*
Y139318D01*
X229153D01*
Y139332D01*
X229161D01*
Y139347D01*
X229168D01*
Y139354D01*
X229175D01*
Y139369D01*
X229183D01*
Y139384D01*
X229190D01*
Y139391D01*
X229197D01*
Y139406D01*
X229205D01*
Y139413D01*
X229212D01*
Y139428D01*
X229219D01*
Y139435D01*
X229227D01*
Y139450D01*
X229234D01*
Y139457D01*
X229241D01*
Y139464D01*
X229249D01*
Y139479D01*
X229256D01*
Y139486D01*
X229263D01*
Y139501D01*
X229271D01*
Y139508D01*
X229278D01*
Y139515D01*
X229285D01*
Y139523D01*
X229292D01*
Y139538D01*
X229300D01*
Y139545D01*
X229307D01*
Y139552D01*
X229314D01*
Y139559D01*
X229322D01*
Y139574D01*
X229329D01*
Y139582D01*
X229337D01*
Y139589D01*
X229344D01*
Y139596D01*
X229351D01*
Y139603D01*
X229358D01*
Y139611D01*
X229366D01*
Y139618D01*
X229373D01*
Y139625D01*
X229380D01*
Y139633D01*
X229388D01*
Y139640D01*
X229395D01*
Y139647D01*
X229402D01*
Y139655D01*
X229410D01*
Y139662D01*
X229417D01*
Y139669D01*
X229424D01*
Y139677D01*
X229432D01*
Y139684D01*
X229439D01*
Y139691D01*
X229446D01*
Y139699D01*
X229454D01*
Y139706D01*
X229461D01*
Y139713D01*
X229476D01*
Y139721D01*
X229483D01*
Y139728D01*
X229490D01*
Y139735D01*
X229498D01*
Y139743D01*
X229505D01*
Y139750D01*
X229520D01*
Y139757D01*
X229527D01*
Y139765D01*
X229534D01*
Y139772D01*
X229549D01*
Y139779D01*
X229556D01*
Y139787D01*
X229563D01*
Y139794D01*
X229578D01*
Y139801D01*
X229586D01*
Y139808D01*
X229593D01*
Y139816D01*
X229608D01*
Y139823D01*
X229615D01*
Y139831D01*
X229629D01*
Y139838D01*
X229637D01*
Y139845D01*
X229651D01*
Y139852D01*
X229659D01*
Y139860D01*
X229673D01*
Y139867D01*
X229681D01*
Y139874D01*
X229695D01*
Y139882D01*
X229710D01*
Y139889D01*
X229717D01*
Y139896D01*
X229732D01*
Y139904D01*
X229747D01*
Y139911D01*
X229761D01*
Y139918D01*
X229776D01*
Y139926D01*
X229783D01*
Y139933D01*
X229798D01*
Y139940D01*
X229813D01*
Y139948D01*
X229827D01*
Y139955D01*
X229842D01*
Y139962D01*
X229856D01*
Y139970D01*
X229871D01*
Y139977D01*
X229886D01*
Y139984D01*
X229908D01*
Y139992D01*
X229922D01*
Y139999D01*
X229937D01*
Y140006D01*
X229952D01*
Y140014D01*
X229974D01*
Y140021D01*
X229988D01*
Y140028D01*
X230010D01*
Y140036D01*
X230025D01*
Y140043D01*
X230047D01*
Y140050D01*
X230069D01*
Y140058D01*
X230091D01*
Y140065D01*
X230106D01*
Y140072D01*
X230128D01*
Y140079D01*
X230157D01*
Y140087D01*
X230179D01*
Y140094D01*
X230201D01*
Y140102D01*
X230230D01*
Y140109D01*
X230252D01*
Y140116D01*
X230281D01*
Y140123D01*
X230311D01*
Y140131D01*
X230340D01*
Y140138D01*
X230369D01*
Y140146D01*
X230406D01*
Y140153D01*
X230443D01*
Y140160D01*
X230479D01*
Y140167D01*
X230516D01*
Y140175D01*
X230560D01*
Y140182D01*
X230611D01*
Y140189D01*
X230662D01*
Y140197D01*
X230721D01*
Y140204D01*
X230787D01*
Y140211D01*
X230867D01*
Y140219D01*
X230970D01*
Y140226D01*
X231116D01*
Y140233D01*
X240258D01*
Y140241D01*
X240272D01*
Y140233D01*
D02*
G37*
G36*
X238185Y130147D02*
X237899D01*
Y130308D01*
X238185D01*
Y130147D01*
D02*
G37*
G36*
X235108Y129979D02*
Y129971D01*
Y129796D01*
X234889D01*
Y129803D01*
X234815D01*
Y129796D01*
X234698D01*
Y129788D01*
X234683D01*
Y129781D01*
X234676D01*
Y129774D01*
X234669D01*
Y129766D01*
X234662D01*
Y129737D01*
X234654D01*
Y129173D01*
X234369D01*
Y129818D01*
X234376D01*
Y129840D01*
X234383D01*
Y129861D01*
X234390D01*
Y129876D01*
X234398D01*
Y129884D01*
X234405D01*
Y129898D01*
X234413D01*
Y129905D01*
X234420D01*
Y129913D01*
X234427D01*
Y129920D01*
X234435D01*
Y129927D01*
X234442D01*
Y129935D01*
X234449D01*
Y129942D01*
X234456D01*
Y129949D01*
X234464D01*
Y129957D01*
X234478D01*
Y129964D01*
X234486D01*
Y129971D01*
X234500D01*
Y129979D01*
X234515D01*
Y129986D01*
X234537D01*
Y129993D01*
X234559D01*
Y130001D01*
X234596D01*
Y130008D01*
X235108D01*
Y129979D01*
D02*
G37*
G36*
X233592Y129818D02*
X233599D01*
Y129796D01*
X232896D01*
Y129803D01*
X232874D01*
Y129781D01*
X232867D01*
Y129744D01*
X232860D01*
Y129693D01*
X232852D01*
Y129459D01*
X232860D01*
Y129415D01*
X232867D01*
Y129407D01*
X232874D01*
Y129400D01*
X232882D01*
Y129393D01*
X232896D01*
Y129385D01*
X233599D01*
Y129173D01*
X232786D01*
Y129180D01*
X232757D01*
Y129188D01*
X232735D01*
Y129195D01*
X232713D01*
Y129202D01*
X232698D01*
Y129210D01*
X232684D01*
Y129217D01*
X232677D01*
Y129224D01*
X232662D01*
Y129232D01*
X232655D01*
Y129239D01*
X232647D01*
Y129246D01*
X232640D01*
Y129254D01*
X232625D01*
Y129268D01*
X232618D01*
Y129276D01*
X232611D01*
Y129283D01*
X232603D01*
Y129290D01*
X232596D01*
Y129305D01*
X232589D01*
Y129320D01*
X232581D01*
Y129341D01*
X232574D01*
Y129371D01*
X232567D01*
Y129818D01*
X232574D01*
Y129840D01*
X232581D01*
Y129861D01*
X232589D01*
Y129876D01*
X232596D01*
Y129884D01*
X232603D01*
Y129898D01*
X232611D01*
Y129905D01*
X232618D01*
Y129913D01*
X232625D01*
Y129920D01*
X232633D01*
Y129927D01*
X232640D01*
Y129935D01*
X232647D01*
Y129942D01*
X232655D01*
Y129949D01*
X232662D01*
Y129957D01*
X232677D01*
Y129964D01*
X232684D01*
Y129971D01*
X232698D01*
Y129979D01*
X232713D01*
Y129986D01*
X232735D01*
Y129993D01*
X232757D01*
Y130001D01*
X232794D01*
Y130008D01*
X233592D01*
Y129818D01*
D02*
G37*
G36*
X232274Y130001D02*
X232310D01*
Y129993D01*
X232332D01*
Y129986D01*
X232347D01*
Y129979D01*
X232354D01*
Y129971D01*
X232362D01*
Y129964D01*
X232369D01*
Y129957D01*
X232376D01*
Y129949D01*
X232384D01*
Y129942D01*
X232391D01*
Y129935D01*
X232398D01*
Y129920D01*
X232405D01*
Y129905D01*
X232413D01*
Y129884D01*
X232420D01*
Y129840D01*
X232428D01*
Y129671D01*
X232420D01*
Y129642D01*
X232413D01*
Y129620D01*
X232405D01*
Y129605D01*
X232398D01*
Y129598D01*
X232391D01*
Y129583D01*
X232384D01*
Y129576D01*
X232376D01*
Y129569D01*
X232369D01*
Y129561D01*
X232362D01*
Y129554D01*
X232347D01*
Y129547D01*
X232340D01*
Y129539D01*
X232318D01*
Y129532D01*
X232296D01*
Y129525D01*
X232186D01*
Y129517D01*
X232171D01*
Y129525D01*
X231592D01*
Y129510D01*
X231600D01*
Y129451D01*
X231607D01*
Y129422D01*
X231614D01*
Y129407D01*
X231622D01*
Y129400D01*
X231629D01*
Y129393D01*
X231644D01*
Y129385D01*
X232405D01*
Y129173D01*
X231527D01*
Y129180D01*
X231490D01*
Y129188D01*
X231468D01*
Y129195D01*
X231446D01*
Y129202D01*
X231431D01*
Y129210D01*
X231417D01*
Y129217D01*
X231402D01*
Y129224D01*
X231395D01*
Y129232D01*
X231387D01*
Y129239D01*
X231380D01*
Y129246D01*
X231365D01*
Y129261D01*
X231358D01*
Y129268D01*
X231351D01*
Y129276D01*
X231343D01*
Y129283D01*
X231336D01*
Y129297D01*
X231329D01*
Y129320D01*
X231322D01*
Y129356D01*
X231314D01*
Y129832D01*
X231322D01*
Y129869D01*
X231329D01*
Y129891D01*
X231336D01*
Y129898D01*
X231343D01*
Y129913D01*
X231351D01*
Y129920D01*
X231358D01*
Y129927D01*
X231365D01*
Y129935D01*
X231373D01*
Y129942D01*
X231380D01*
Y129949D01*
X231387D01*
Y129957D01*
X231395D01*
Y129964D01*
X231409D01*
Y129971D01*
X231424D01*
Y129979D01*
X231439D01*
Y129986D01*
X231453D01*
Y129993D01*
X231483D01*
Y130001D01*
X231527D01*
Y130008D01*
X232274D01*
Y130001D01*
D02*
G37*
G36*
X253413D02*
X253450D01*
Y129993D01*
X253471D01*
Y129986D01*
X253493D01*
Y129979D01*
X253508D01*
Y129971D01*
X253523D01*
Y129964D01*
X253537D01*
Y129957D01*
X253552D01*
Y129949D01*
X253559D01*
Y129942D01*
X253567D01*
Y129935D01*
X253574D01*
Y129927D01*
X253581D01*
Y129920D01*
X253589D01*
Y129913D01*
X253596D01*
Y129905D01*
X253603D01*
Y129898D01*
X253611D01*
Y129884D01*
X253618D01*
Y129869D01*
X253625D01*
Y129854D01*
X253633D01*
Y129832D01*
X253640D01*
Y129810D01*
X253647D01*
Y129759D01*
X253655D01*
Y129173D01*
X253362D01*
Y129224D01*
X253354D01*
Y129576D01*
X253362D01*
Y129671D01*
X253354D01*
Y129752D01*
X253347D01*
Y129774D01*
X253340D01*
Y129788D01*
X253332D01*
Y129796D01*
X253222D01*
Y129803D01*
X253179D01*
Y129796D01*
X253017D01*
Y129173D01*
X252717D01*
Y129202D01*
Y129210D01*
Y129796D01*
X252380D01*
Y129173D01*
X252095D01*
Y130008D01*
X253413D01*
Y130001D01*
D02*
G37*
G36*
X251699D02*
X251736D01*
Y129993D01*
X251765D01*
Y129986D01*
X251787D01*
Y129979D01*
X251801D01*
Y129971D01*
X251823D01*
Y129964D01*
X251831D01*
Y129957D01*
X251845D01*
Y129949D01*
X251853D01*
Y129942D01*
X251867D01*
Y129935D01*
X251875D01*
Y129927D01*
X251882D01*
Y129920D01*
X251889D01*
Y129905D01*
X251897D01*
Y129898D01*
X251904D01*
Y129884D01*
X251911D01*
Y129876D01*
X251919D01*
Y129854D01*
X251926D01*
Y129840D01*
X251933D01*
Y129810D01*
X251941D01*
Y129766D01*
X251948D01*
Y129415D01*
X251941D01*
Y129371D01*
X251933D01*
Y129341D01*
X251926D01*
Y129327D01*
X251919D01*
Y129305D01*
X251911D01*
Y129290D01*
X251904D01*
Y129283D01*
X251897D01*
Y129268D01*
X251889D01*
Y129261D01*
X251882D01*
Y129254D01*
X251875D01*
Y129246D01*
X251867D01*
Y129239D01*
X251860D01*
Y129232D01*
X251845D01*
Y129224D01*
X251838D01*
Y129217D01*
X251823D01*
Y129210D01*
X251809D01*
Y129202D01*
X251787D01*
Y129195D01*
X251765D01*
Y129188D01*
X251743D01*
Y129180D01*
X251699D01*
Y129173D01*
X250996D01*
Y129180D01*
X250959D01*
Y129188D01*
X250930D01*
Y129195D01*
X250915D01*
Y129202D01*
X250901D01*
Y129210D01*
X250886D01*
Y129217D01*
X250871D01*
Y129224D01*
X250864D01*
Y129232D01*
X250857D01*
Y129239D01*
X250842D01*
Y129246D01*
X250835D01*
Y129254D01*
X250827D01*
Y129261D01*
X250820D01*
Y129268D01*
X250813D01*
Y129283D01*
X250805D01*
Y129290D01*
X250798D01*
Y129305D01*
X250791D01*
Y129312D01*
X250783D01*
Y129334D01*
X250776D01*
Y129356D01*
X250769D01*
Y129459D01*
X250761D01*
Y129722D01*
X250769D01*
Y129825D01*
X250776D01*
Y129847D01*
X250783D01*
Y129869D01*
X250791D01*
Y129876D01*
X250798D01*
Y129891D01*
X250805D01*
Y129898D01*
X250813D01*
Y129913D01*
X250820D01*
Y129920D01*
X250827D01*
Y129927D01*
X250835D01*
Y129935D01*
X250842D01*
Y129942D01*
X250849D01*
Y129949D01*
X250864D01*
Y129957D01*
X250871D01*
Y129964D01*
X250886D01*
Y129971D01*
X250901D01*
Y129979D01*
X250915D01*
Y129986D01*
X250930D01*
Y129993D01*
X250959D01*
Y130001D01*
X251003D01*
Y130008D01*
X251699D01*
Y130001D01*
D02*
G37*
G36*
X250622Y129891D02*
X250615D01*
Y129796D01*
X249919D01*
Y129788D01*
X249904D01*
Y129781D01*
X249897D01*
Y129774D01*
X249890D01*
Y129766D01*
X249882D01*
Y129722D01*
X249875D01*
Y129466D01*
X249882D01*
Y129415D01*
X249890D01*
Y129407D01*
X249897D01*
Y129400D01*
X249904D01*
Y129393D01*
X249926D01*
Y129385D01*
X250622D01*
Y129378D01*
X250629D01*
Y129173D01*
X249809D01*
Y129180D01*
X249780D01*
Y129188D01*
X249758D01*
Y129195D01*
X249736D01*
Y129202D01*
X249721D01*
Y129210D01*
X249707D01*
Y129217D01*
X249699D01*
Y129224D01*
X249685D01*
Y129232D01*
X249677D01*
Y129239D01*
X249670D01*
Y129246D01*
X249663D01*
Y129254D01*
X249655D01*
Y129261D01*
X249648D01*
Y129268D01*
X249641D01*
Y129276D01*
X249633D01*
Y129283D01*
X249626D01*
Y129297D01*
X249619D01*
Y129305D01*
X249611D01*
Y129320D01*
X249604D01*
Y129341D01*
X249597D01*
Y129363D01*
X249589D01*
Y129810D01*
X249597D01*
Y129840D01*
X249604D01*
Y129861D01*
X249611D01*
Y129876D01*
X249619D01*
Y129884D01*
X249626D01*
Y129898D01*
X249633D01*
Y129905D01*
X249641D01*
Y129913D01*
X249648D01*
Y129920D01*
X249655D01*
Y129927D01*
X249663D01*
Y129935D01*
X249670D01*
Y129942D01*
X249677D01*
Y129949D01*
X249685D01*
Y129957D01*
X249699D01*
Y129964D01*
X249707D01*
Y129971D01*
X249721D01*
Y129979D01*
X249736D01*
Y129986D01*
X249758D01*
Y129993D01*
X249780D01*
Y130001D01*
X249809D01*
Y130008D01*
X250622D01*
Y129891D01*
D02*
G37*
G36*
X249304Y130001D02*
X249333D01*
Y129993D01*
X249355D01*
Y129986D01*
X249362D01*
Y129979D01*
X249377D01*
Y129971D01*
X249384D01*
Y129964D01*
X249399D01*
Y129957D01*
X249406D01*
Y129942D01*
X249414D01*
Y129935D01*
X249421D01*
Y129920D01*
X249428D01*
Y129905D01*
X249436D01*
Y129884D01*
X249443D01*
Y129847D01*
X249450D01*
Y129678D01*
X249443D01*
Y129642D01*
X249436D01*
Y129620D01*
X249428D01*
Y129605D01*
X249421D01*
Y129598D01*
X249414D01*
Y129583D01*
X249406D01*
Y129576D01*
X249399D01*
Y129569D01*
X249392D01*
Y129561D01*
X249384D01*
Y129554D01*
X249370D01*
Y129547D01*
X249362D01*
Y129539D01*
X249340D01*
Y129532D01*
X249318D01*
Y129525D01*
X248615D01*
Y129510D01*
X248622D01*
Y129451D01*
X248630D01*
Y129422D01*
X248637D01*
Y129407D01*
X248644D01*
Y129400D01*
X248652D01*
Y129393D01*
X248667D01*
Y129385D01*
X249428D01*
Y129173D01*
X248542D01*
Y129180D01*
X248513D01*
Y129188D01*
X248491D01*
Y129195D01*
X248469D01*
Y129202D01*
X248454D01*
Y129210D01*
X248439D01*
Y129217D01*
X248432D01*
Y129224D01*
X248417D01*
Y129232D01*
X248410D01*
Y129239D01*
X248403D01*
Y129246D01*
X248395D01*
Y129254D01*
X248388D01*
Y129261D01*
X248381D01*
Y129268D01*
X248374D01*
Y129276D01*
X248366D01*
Y129290D01*
X248359D01*
Y129305D01*
X248352D01*
Y129320D01*
X248344D01*
Y129371D01*
X248337D01*
Y129840D01*
X248344D01*
Y129847D01*
Y129869D01*
X248352D01*
Y129891D01*
X248359D01*
Y129898D01*
X248366D01*
Y129913D01*
X248374D01*
Y129920D01*
X248381D01*
Y129927D01*
X248388D01*
Y129935D01*
X248395D01*
Y129942D01*
X248403D01*
Y129949D01*
X248410D01*
Y129957D01*
X248417D01*
Y129964D01*
X248432D01*
Y129971D01*
X248447D01*
Y129979D01*
X248461D01*
Y129986D01*
X248483D01*
Y129993D01*
X248505D01*
Y130001D01*
X248542D01*
Y130008D01*
X249304D01*
Y130001D01*
D02*
G37*
G36*
X248176Y129803D02*
Y129796D01*
Y129173D01*
X247883D01*
Y129415D01*
X247890D01*
Y130074D01*
X247883D01*
Y130308D01*
X248176D01*
Y129803D01*
D02*
G37*
G36*
X247575Y130001D02*
X247604D01*
Y129993D01*
X247626D01*
Y129986D01*
X247641D01*
Y129979D01*
X247648D01*
Y129971D01*
X247663D01*
Y129964D01*
X247670D01*
Y129957D01*
X247678D01*
Y129949D01*
X247685D01*
Y129935D01*
X247692D01*
Y129927D01*
X247700D01*
Y129905D01*
X247707D01*
Y129884D01*
X247714D01*
Y129861D01*
Y129854D01*
X247722D01*
Y129664D01*
X247714D01*
Y129634D01*
X247707D01*
Y129620D01*
X247700D01*
Y129605D01*
X247692D01*
Y129590D01*
X247685D01*
Y129583D01*
X247678D01*
Y129576D01*
X247670D01*
Y129569D01*
X247663D01*
Y129561D01*
X247656D01*
Y129554D01*
X247641D01*
Y129547D01*
X247634D01*
Y129539D01*
X247619D01*
Y129532D01*
X247597D01*
Y129525D01*
X246894D01*
Y129459D01*
X246901D01*
Y129429D01*
X246908D01*
Y129415D01*
X246916D01*
Y129400D01*
X246923D01*
Y129393D01*
X246945D01*
Y129385D01*
X247700D01*
Y129173D01*
X246821D01*
Y129180D01*
X246784D01*
Y129188D01*
X246762D01*
Y129195D01*
X246740D01*
Y129202D01*
X246725D01*
Y129210D01*
X246711D01*
Y129217D01*
X246704D01*
Y129224D01*
X246689D01*
Y129232D01*
X246681D01*
Y129239D01*
X246674D01*
Y129246D01*
X246667D01*
Y129254D01*
X246659D01*
Y129261D01*
X246652D01*
Y129268D01*
X246645D01*
Y129276D01*
X246638D01*
Y129290D01*
X246630D01*
Y129305D01*
X246623D01*
Y129327D01*
X246616D01*
Y129363D01*
X246608D01*
Y129810D01*
X246616D01*
Y129861D01*
X246623D01*
Y129884D01*
X246630D01*
Y129898D01*
X246638D01*
Y129913D01*
X246645D01*
Y129920D01*
X246652D01*
Y129927D01*
X246659D01*
Y129935D01*
X246667D01*
Y129942D01*
X246674D01*
Y129949D01*
X246681D01*
Y129957D01*
X246696D01*
Y129964D01*
X246704D01*
Y129971D01*
X246718D01*
Y129979D01*
X246733D01*
Y129986D01*
X246755D01*
Y129993D01*
X246777D01*
Y130001D01*
X246813D01*
Y130008D01*
X247575D01*
Y130001D01*
D02*
G37*
G36*
X246579Y130045D02*
X245898D01*
Y129173D01*
X245605D01*
Y129378D01*
X245612D01*
Y129935D01*
X245605D01*
Y130045D01*
X244909D01*
Y130147D01*
Y130155D01*
Y130286D01*
X246579D01*
Y130045D01*
D02*
G37*
G36*
X244037Y129407D02*
X244030D01*
Y129363D01*
X244023D01*
Y129341D01*
X244015D01*
Y129320D01*
X244008D01*
Y129305D01*
X244001D01*
Y129290D01*
X243993D01*
Y129276D01*
X243986D01*
Y129268D01*
X243979D01*
Y129261D01*
X243971D01*
Y129254D01*
X243964D01*
Y129246D01*
X243957D01*
Y129239D01*
X243949D01*
Y129232D01*
X243935D01*
Y129224D01*
X243927D01*
Y129217D01*
X243913D01*
Y129210D01*
X243898D01*
Y129202D01*
X243876D01*
Y129195D01*
X243854D01*
Y129188D01*
X243832D01*
Y129180D01*
X243788D01*
Y129173D01*
X243085D01*
Y129180D01*
X243041D01*
Y129188D01*
X243019D01*
Y129195D01*
X243004D01*
Y129202D01*
X242990D01*
Y129210D01*
X242975D01*
Y129217D01*
X242961D01*
Y129224D01*
X242953D01*
Y129232D01*
X242946D01*
Y129239D01*
X242931D01*
Y129246D01*
X242924D01*
Y129254D01*
X242917D01*
Y129261D01*
X242909D01*
Y129268D01*
X242902D01*
Y129283D01*
X242895D01*
Y129290D01*
X242887D01*
Y129305D01*
X242880D01*
Y129320D01*
X242873D01*
Y129334D01*
X242865D01*
Y129356D01*
X242858D01*
Y129385D01*
Y129393D01*
Y129451D01*
X242851D01*
Y129730D01*
X242858D01*
Y129825D01*
X242865D01*
Y129847D01*
X242873D01*
Y129869D01*
X242880D01*
Y129876D01*
X242887D01*
Y129891D01*
X242895D01*
Y129898D01*
X242902D01*
Y129913D01*
X242909D01*
Y129920D01*
X242917D01*
Y129927D01*
X242924D01*
Y129935D01*
X242931D01*
Y129942D01*
X242946D01*
Y129949D01*
X242953D01*
Y129957D01*
X242961D01*
Y129964D01*
X242975D01*
Y129971D01*
X242990D01*
Y129979D01*
X243004D01*
Y129986D01*
X243019D01*
Y129993D01*
X243041D01*
Y130001D01*
X243078D01*
Y130008D01*
X243737D01*
Y130015D01*
X243744D01*
Y130308D01*
X244037D01*
Y129407D01*
D02*
G37*
G36*
X242440Y130001D02*
X242477D01*
Y129993D01*
X242506D01*
Y129986D01*
X242528D01*
Y129979D01*
X242543D01*
Y129971D01*
X242558D01*
Y129964D01*
X242572D01*
Y129957D01*
X242580D01*
Y129949D01*
X242594D01*
Y129942D01*
X242602D01*
Y129935D01*
X242609D01*
Y129927D01*
X242616D01*
Y129920D01*
X242624D01*
Y129913D01*
X242631D01*
Y129905D01*
X242638D01*
Y129891D01*
X242646D01*
Y129884D01*
X242653D01*
Y129861D01*
X242660D01*
Y129847D01*
X242668D01*
Y129825D01*
X242675D01*
Y129788D01*
X242682D01*
Y129722D01*
X242689D01*
Y129173D01*
X242389D01*
Y129781D01*
X242382D01*
Y129788D01*
X242323D01*
Y129796D01*
X241789D01*
Y129173D01*
X241503D01*
Y130008D01*
X242440D01*
Y130001D01*
D02*
G37*
G36*
X241144D02*
X241181D01*
Y129993D01*
X241203D01*
Y129986D01*
X241225D01*
Y129979D01*
X241239D01*
Y129971D01*
X241247D01*
Y129964D01*
X241261D01*
Y129957D01*
X241268D01*
Y129949D01*
X241283D01*
Y129942D01*
X241290D01*
Y129935D01*
X241298D01*
Y129927D01*
X241305D01*
Y129913D01*
X241312D01*
Y129905D01*
X241320D01*
Y129898D01*
X241327D01*
Y129884D01*
X241334D01*
Y129869D01*
X241342D01*
Y129854D01*
X241349D01*
Y129825D01*
X241356D01*
Y129788D01*
X241364D01*
Y129385D01*
X241356D01*
Y129334D01*
X241349D01*
Y129312D01*
X241342D01*
Y129290D01*
X241334D01*
Y129283D01*
X241327D01*
Y129268D01*
X241320D01*
Y129261D01*
X241312D01*
Y129254D01*
X241305D01*
Y129246D01*
X241298D01*
Y129239D01*
X241290D01*
Y129232D01*
X241283D01*
Y129224D01*
X241268D01*
Y129217D01*
X241261D01*
Y129210D01*
X241247D01*
Y129202D01*
X241232D01*
Y129195D01*
X241210D01*
Y129188D01*
X241188D01*
Y129180D01*
X241151D01*
Y129173D01*
X240389D01*
Y129180D01*
X240360D01*
Y129188D01*
X240338D01*
Y129195D01*
X240324D01*
Y129202D01*
X240309D01*
Y129210D01*
X240302D01*
Y129217D01*
X240294D01*
Y129224D01*
X240287D01*
Y129232D01*
X240280D01*
Y129246D01*
X240272D01*
Y129254D01*
X240265D01*
Y129276D01*
X240258D01*
Y129312D01*
X240250D01*
Y129532D01*
X240258D01*
Y129561D01*
X240265D01*
Y129576D01*
X240272D01*
Y129590D01*
X240280D01*
Y129598D01*
X240287D01*
Y129605D01*
X240294D01*
Y129613D01*
X240302D01*
Y129620D01*
X240309D01*
Y129627D01*
X240324D01*
Y129634D01*
X240331D01*
Y129642D01*
X240353D01*
Y129649D01*
X240375D01*
Y129656D01*
X241085D01*
Y129686D01*
X241078D01*
Y129722D01*
X241071D01*
Y129744D01*
X241063D01*
Y129759D01*
X241056D01*
Y129774D01*
X241049D01*
Y129781D01*
X241041D01*
Y129788D01*
X241027D01*
Y129796D01*
X240265D01*
Y129840D01*
X240258D01*
Y130008D01*
X241144D01*
Y130001D01*
D02*
G37*
G36*
X239364D02*
X239371D01*
Y129979D01*
X239379D01*
Y129796D01*
X238683D01*
Y129788D01*
X238668D01*
Y129781D01*
X238661D01*
Y129774D01*
X238653D01*
Y129766D01*
X238646D01*
Y129752D01*
X238639D01*
Y129678D01*
X238632D01*
Y129495D01*
X238639D01*
Y129422D01*
X238646D01*
Y129407D01*
X238653D01*
Y129400D01*
X238668D01*
Y129393D01*
X238683D01*
Y129385D01*
X239386D01*
Y129173D01*
X238580D01*
Y129180D01*
X238544D01*
Y129188D01*
X238514D01*
Y129195D01*
X238500D01*
Y129202D01*
X238478D01*
Y129210D01*
X238470D01*
Y129217D01*
X238456D01*
Y129224D01*
X238441D01*
Y129232D01*
X238434D01*
Y129239D01*
X238426D01*
Y129246D01*
X238419D01*
Y129254D01*
X238412D01*
Y129261D01*
X238404D01*
Y129268D01*
X238397D01*
Y129276D01*
X238390D01*
Y129290D01*
X238383D01*
Y129297D01*
X238375D01*
Y129312D01*
X238368D01*
Y129327D01*
X238361D01*
Y129356D01*
X238353D01*
Y129393D01*
X238346D01*
Y129788D01*
X238353D01*
Y129825D01*
X238361D01*
Y129854D01*
X238368D01*
Y129869D01*
X238375D01*
Y129884D01*
X238383D01*
Y129891D01*
X238390D01*
Y129905D01*
X238397D01*
Y129913D01*
X238404D01*
Y129920D01*
X238412D01*
Y129927D01*
X238419D01*
Y129935D01*
X238426D01*
Y129942D01*
X238434D01*
Y129949D01*
X238441D01*
Y129957D01*
X238456D01*
Y129964D01*
X238470D01*
Y129971D01*
X238478D01*
Y129979D01*
X238500D01*
Y129986D01*
X238514D01*
Y129993D01*
X238544D01*
Y130001D01*
X238580D01*
Y130008D01*
X239364D01*
Y130001D01*
D02*
G37*
G36*
X238185Y129173D02*
X237899D01*
Y130008D01*
X238185D01*
Y129173D01*
D02*
G37*
G36*
X237482Y130001D02*
X237518D01*
Y129993D01*
X237547D01*
Y129986D01*
X237569D01*
Y129979D01*
X237584D01*
Y129971D01*
X237599D01*
Y129964D01*
X237613D01*
Y129957D01*
X237628D01*
Y129949D01*
X237635D01*
Y129942D01*
X237643D01*
Y129935D01*
X237650D01*
Y129927D01*
X237665D01*
Y129913D01*
X237672D01*
Y129905D01*
X237679D01*
Y129898D01*
X237687D01*
Y129884D01*
X237694D01*
Y129869D01*
X237701D01*
Y129854D01*
X237709D01*
Y129832D01*
X237716D01*
Y129803D01*
X237723D01*
Y129752D01*
X237731D01*
Y129173D01*
X237430D01*
Y129788D01*
X237364D01*
Y129796D01*
X236837D01*
Y129678D01*
X236830D01*
Y129363D01*
X236837D01*
Y129173D01*
X236544D01*
Y129246D01*
Y129254D01*
Y130008D01*
X237482D01*
Y130001D01*
D02*
G37*
G36*
X234105Y130008D02*
X234266D01*
Y129796D01*
X234105D01*
Y129400D01*
Y129393D01*
Y129173D01*
X233819D01*
Y129393D01*
X233826D01*
Y129598D01*
X233819D01*
Y129796D01*
X233673D01*
Y130008D01*
X233819D01*
Y130257D01*
X234046D01*
Y130264D01*
X234105D01*
Y130008D01*
D02*
G37*
G36*
X231153Y129173D02*
X230860D01*
Y129576D01*
X230867D01*
Y129935D01*
X230860D01*
Y130096D01*
Y130103D01*
Y130308D01*
X231153D01*
Y129173D01*
D02*
G37*
G36*
X230714Y130052D02*
X230706D01*
Y130045D01*
X229366D01*
Y130037D01*
X229351D01*
Y130030D01*
X229344D01*
Y130023D01*
X229337D01*
Y130008D01*
X229329D01*
Y129979D01*
X229322D01*
Y129832D01*
X230699D01*
Y129598D01*
X229322D01*
Y129466D01*
X229329D01*
Y129444D01*
X229337D01*
Y129437D01*
X229344D01*
Y129422D01*
X229358D01*
Y129415D01*
X229388D01*
Y129407D01*
X230721D01*
Y129173D01*
X229271D01*
Y129180D01*
X229227D01*
Y129188D01*
X229205D01*
Y129195D01*
X229183D01*
Y129202D01*
X229168D01*
Y129210D01*
X229153D01*
Y129217D01*
X229146D01*
Y129224D01*
X229131D01*
Y129232D01*
X229124D01*
Y129239D01*
X229117D01*
Y129246D01*
X229109D01*
Y129254D01*
X229102D01*
Y129261D01*
X229095D01*
Y129268D01*
X229087D01*
Y129276D01*
X229080D01*
Y129283D01*
X229073D01*
Y129297D01*
X229065D01*
Y129305D01*
X229058D01*
Y129320D01*
X229051D01*
Y129334D01*
X229044D01*
Y129363D01*
X229036D01*
Y130096D01*
X229044D01*
Y130118D01*
X229051D01*
Y130140D01*
X229058D01*
Y130155D01*
X229065D01*
Y130162D01*
X229073D01*
Y130169D01*
Y130176D01*
X229080D01*
Y130184D01*
X229087D01*
Y130191D01*
X229095D01*
Y130199D01*
X229102D01*
Y130206D01*
X229109D01*
Y130213D01*
X229117D01*
Y130220D01*
X229124D01*
Y130228D01*
X229139D01*
Y130235D01*
X229146D01*
Y130242D01*
X229161D01*
Y130250D01*
X229175D01*
Y130257D01*
X229190D01*
Y130264D01*
X229212D01*
Y130272D01*
X229234D01*
Y130279D01*
X229278D01*
Y130286D01*
X230714D01*
Y130052D01*
D02*
G37*
G36*
X236156Y130001D02*
X236192D01*
Y129993D01*
X236222D01*
Y129986D01*
X236244D01*
Y129979D01*
X236258D01*
Y129971D01*
X236273D01*
Y129964D01*
X236288D01*
Y129957D01*
X236302D01*
Y129949D01*
X236310D01*
Y129942D01*
X236317D01*
Y129935D01*
X236324D01*
Y129927D01*
X236332D01*
Y129920D01*
X236339D01*
Y129913D01*
X236346D01*
Y129905D01*
X236354D01*
Y129891D01*
X236361D01*
Y129876D01*
X236368D01*
Y129861D01*
X236376D01*
Y129847D01*
X236383D01*
Y129825D01*
X236390D01*
Y129796D01*
X236398D01*
Y129744D01*
X236405D01*
Y129429D01*
X236398D01*
Y129385D01*
X236390D01*
Y129356D01*
X236383D01*
Y129334D01*
X236376D01*
Y129312D01*
X236368D01*
Y129297D01*
X236361D01*
Y129290D01*
X236354D01*
Y129276D01*
X236346D01*
Y129268D01*
X236339D01*
Y129261D01*
X236332D01*
Y129246D01*
X236324D01*
Y129239D01*
X236310D01*
Y129232D01*
X236302D01*
Y129224D01*
X236295D01*
Y129217D01*
X236280D01*
Y129210D01*
X236258D01*
Y129202D01*
X236244D01*
Y129195D01*
X236214D01*
Y129188D01*
X236185D01*
Y129180D01*
X236141D01*
Y129173D01*
X236046D01*
Y129166D01*
X235965D01*
Y129173D01*
X235453D01*
Y129180D01*
X235416D01*
Y129188D01*
X235387D01*
Y129195D01*
X235372D01*
Y129202D01*
X235350D01*
Y129210D01*
X235343D01*
Y129217D01*
X235328D01*
Y129224D01*
X235314D01*
Y129232D01*
X235306D01*
Y129239D01*
X235299D01*
Y129246D01*
X235292D01*
Y129254D01*
X235284D01*
Y129261D01*
X235277D01*
Y129268D01*
X235269D01*
Y129276D01*
X235262D01*
Y129283D01*
X235255D01*
Y129297D01*
X235247D01*
Y129305D01*
X235240D01*
Y129327D01*
X235233D01*
Y129349D01*
X235226D01*
Y129385D01*
X235218D01*
Y129788D01*
X235226D01*
Y129840D01*
X235233D01*
Y129854D01*
X235240D01*
Y129869D01*
X235247D01*
Y129884D01*
X235255D01*
Y129898D01*
X235262D01*
Y129905D01*
X235269D01*
Y129913D01*
X235277D01*
Y129920D01*
X235284D01*
Y129927D01*
X235292D01*
Y129935D01*
X235299D01*
Y129942D01*
X235306D01*
Y129949D01*
X235314D01*
Y129957D01*
X235328D01*
Y129964D01*
X235335D01*
Y129971D01*
X235350D01*
Y129979D01*
X235365D01*
Y129986D01*
X235387D01*
Y129993D01*
X235409D01*
Y130001D01*
X235460D01*
Y130008D01*
X236156D01*
Y130001D01*
D02*
G37*
G36*
X278031Y140087D02*
X278039D01*
Y138571D01*
X278031D01*
Y138241D01*
X269418D01*
Y138234D01*
X269322D01*
Y138241D01*
X268985D01*
Y138234D01*
X268876D01*
Y138226D01*
X268831D01*
Y138219D01*
X268802D01*
Y138212D01*
X268780D01*
Y138204D01*
X268766D01*
Y138197D01*
X268751D01*
Y138190D01*
X268736D01*
Y138182D01*
X268729D01*
Y138175D01*
X268714D01*
Y138168D01*
X268707D01*
Y138161D01*
X268692D01*
Y138153D01*
X268685D01*
Y138146D01*
X268678D01*
Y138138D01*
X268670D01*
Y138131D01*
X268663D01*
Y138124D01*
X268656D01*
Y138117D01*
X268648D01*
Y138109D01*
X268641D01*
Y138094D01*
X268634D01*
Y138087D01*
X268626D01*
Y138080D01*
X268619D01*
Y138065D01*
X268612D01*
Y138051D01*
X268604D01*
Y138036D01*
X268597D01*
Y138021D01*
X268590D01*
Y137999D01*
X268583D01*
Y137970D01*
X268575D01*
Y134476D01*
X268568D01*
Y134366D01*
X268575D01*
Y134293D01*
X268583D01*
Y134256D01*
X268590D01*
Y134234D01*
X268597D01*
Y134212D01*
X268604D01*
Y134198D01*
X268612D01*
Y134183D01*
X268619D01*
Y134169D01*
X268626D01*
Y134161D01*
X268634D01*
Y134154D01*
X268641D01*
Y134139D01*
X268648D01*
Y134132D01*
X268656D01*
Y134125D01*
X268663D01*
Y134117D01*
X268670D01*
Y134110D01*
X268678D01*
Y134102D01*
X268685D01*
Y134095D01*
X268692D01*
Y134088D01*
X268700D01*
Y134081D01*
X268714D01*
Y134073D01*
X268722D01*
Y134066D01*
X268736D01*
Y134059D01*
X268751D01*
Y134051D01*
X268766D01*
Y134044D01*
X268788D01*
Y134037D01*
X268810D01*
Y134029D01*
X268831D01*
Y134022D01*
X268868D01*
Y134015D01*
X268912D01*
Y134007D01*
X269000D01*
Y134000D01*
X278061D01*
Y133993D01*
X278068D01*
Y132498D01*
X278061D01*
Y132154D01*
X268876D01*
Y132161D01*
X268714D01*
Y132169D01*
X268604D01*
Y132176D01*
X268524D01*
Y132184D01*
X268458D01*
Y132191D01*
X268392D01*
Y132198D01*
X268341D01*
Y132205D01*
X268297D01*
Y132213D01*
X268246D01*
Y132220D01*
X268209D01*
Y132227D01*
X268165D01*
Y132235D01*
X268128D01*
Y132242D01*
X268099D01*
Y132249D01*
X268062D01*
Y132257D01*
X268033D01*
Y132264D01*
X268004D01*
Y132271D01*
X267974D01*
Y132279D01*
X267945D01*
Y132286D01*
X267923D01*
Y132293D01*
X267894D01*
Y132301D01*
X267872D01*
Y132308D01*
X267850D01*
Y132315D01*
X267828D01*
Y132323D01*
X267806D01*
Y132330D01*
X267784D01*
Y132337D01*
X267762D01*
Y132345D01*
X267740D01*
Y132352D01*
X267718D01*
Y132359D01*
X267704D01*
Y132367D01*
X267682D01*
Y132374D01*
X267667D01*
Y132381D01*
X267652D01*
Y132389D01*
X267630D01*
Y132396D01*
X267616D01*
Y132403D01*
X267601D01*
Y132411D01*
X267586D01*
Y132418D01*
X267572D01*
Y132425D01*
X267557D01*
Y132432D01*
X267542D01*
Y132440D01*
X267528D01*
Y132447D01*
X267513D01*
Y132455D01*
X267498D01*
Y132462D01*
X267484D01*
Y132469D01*
X267469D01*
Y132476D01*
X267455D01*
Y132484D01*
X267447D01*
Y132491D01*
X267432D01*
Y132498D01*
X267418D01*
Y132506D01*
X267403D01*
Y132513D01*
X267396D01*
Y132520D01*
X267381D01*
Y132528D01*
X267374D01*
Y132535D01*
X267359D01*
Y132542D01*
X267352D01*
Y132550D01*
X267337D01*
Y132557D01*
X267330D01*
Y132564D01*
X267315D01*
Y132572D01*
X267308D01*
Y132579D01*
X267293D01*
Y132586D01*
X267286D01*
Y132594D01*
X267279D01*
Y132601D01*
X267264D01*
Y132608D01*
X267257D01*
Y132616D01*
X267249D01*
Y132623D01*
X267235D01*
Y132630D01*
X267227D01*
Y132638D01*
X267220D01*
Y132645D01*
X267213D01*
Y132652D01*
X267198D01*
Y132660D01*
X267191D01*
Y132667D01*
X267183D01*
Y132674D01*
X267176D01*
Y132682D01*
X267169D01*
Y132689D01*
X267161D01*
Y132696D01*
X267147D01*
Y132703D01*
X267140D01*
Y132711D01*
X267132D01*
Y132718D01*
X267125D01*
Y132726D01*
X267118D01*
Y132733D01*
X267110D01*
Y132740D01*
X267103D01*
Y132747D01*
X267096D01*
Y132755D01*
X267088D01*
Y132762D01*
X267081D01*
Y132769D01*
X267074D01*
Y132777D01*
X267066D01*
Y132784D01*
X267059D01*
Y132791D01*
X267052D01*
Y132799D01*
X267044D01*
Y132813D01*
X267037D01*
Y132821D01*
X267030D01*
Y132828D01*
X267022D01*
Y132835D01*
X267015D01*
Y132843D01*
X267008D01*
Y132850D01*
X267000D01*
Y132865D01*
X266993D01*
Y132872D01*
X266986D01*
Y132879D01*
X266978D01*
Y132887D01*
X266971D01*
Y132901D01*
X266964D01*
Y132909D01*
X266956D01*
Y132916D01*
X266949D01*
Y132931D01*
X266942D01*
Y132938D01*
X266934D01*
Y132953D01*
X266927D01*
Y132960D01*
X266920D01*
Y132975D01*
X266912D01*
Y132982D01*
X266905D01*
Y132996D01*
X266898D01*
Y133004D01*
X266891D01*
Y133019D01*
X266883D01*
Y133033D01*
X266876D01*
Y133040D01*
X266868D01*
Y133055D01*
X266861D01*
Y133070D01*
X266854D01*
Y133084D01*
X266846D01*
Y133092D01*
X266839D01*
Y133106D01*
X266832D01*
Y133121D01*
X266825D01*
Y133136D01*
X266817D01*
Y133150D01*
X266810D01*
Y133165D01*
X266803D01*
Y133180D01*
X266795D01*
Y133194D01*
X266788D01*
Y133216D01*
X266781D01*
Y133231D01*
X266773D01*
Y133246D01*
X266766D01*
Y133267D01*
X266759D01*
Y133282D01*
X266751D01*
Y133304D01*
X266744D01*
Y133326D01*
X266737D01*
Y133348D01*
X266729D01*
Y133370D01*
X266722D01*
Y133392D01*
X266715D01*
Y133414D01*
X266707D01*
Y133443D01*
X266700D01*
Y133473D01*
X266693D01*
Y133502D01*
X266685D01*
Y133531D01*
X266678D01*
Y133568D01*
X266671D01*
Y133605D01*
X266663D01*
Y133641D01*
X266656D01*
Y133685D01*
X266649D01*
Y133736D01*
X266641D01*
Y133802D01*
X266634D01*
Y133876D01*
X266627D01*
Y133978D01*
X266619D01*
Y134212D01*
X266612D01*
Y134417D01*
X266619D01*
Y137721D01*
X266612D01*
Y138058D01*
X266619D01*
Y138285D01*
X266627D01*
Y138380D01*
X266634D01*
Y138453D01*
X266641D01*
Y138512D01*
X266649D01*
Y138563D01*
X266656D01*
Y138607D01*
X266663D01*
Y138651D01*
X266671D01*
Y138688D01*
X266678D01*
Y138717D01*
X266685D01*
Y138754D01*
X266693D01*
Y138783D01*
X266700D01*
Y138805D01*
X266707D01*
Y138834D01*
X266715D01*
Y138856D01*
X266722D01*
Y138886D01*
X266729D01*
Y138908D01*
X266737D01*
Y138930D01*
X266744D01*
Y138944D01*
X266751D01*
Y138966D01*
X266759D01*
Y138988D01*
X266766D01*
Y139003D01*
X266773D01*
Y139017D01*
X266781D01*
Y139039D01*
X266788D01*
Y139054D01*
X266795D01*
Y139069D01*
X266803D01*
Y139083D01*
X266810D01*
Y139098D01*
X266817D01*
Y139113D01*
X266825D01*
Y139127D01*
X266832D01*
Y139142D01*
X266839D01*
Y139157D01*
X266846D01*
Y139171D01*
X266854D01*
Y139186D01*
X266861D01*
Y139193D01*
X266868D01*
Y139208D01*
X266876D01*
Y139223D01*
X266883D01*
Y139230D01*
X266891D01*
Y139244D01*
X266898D01*
Y139252D01*
X266905D01*
Y139267D01*
X266912D01*
Y139274D01*
X266920D01*
Y139288D01*
X266927D01*
Y139296D01*
X266934D01*
Y139310D01*
X266942D01*
Y139318D01*
X266949D01*
Y139332D01*
X266956D01*
Y139340D01*
X266964D01*
Y139347D01*
X266971D01*
Y139362D01*
X266978D01*
Y139369D01*
X266986D01*
Y139376D01*
X266993D01*
Y139391D01*
X267000D01*
Y139398D01*
X267008D01*
Y139406D01*
X267015D01*
Y139413D01*
X267022D01*
Y139420D01*
X267030D01*
Y139428D01*
X267037D01*
Y139442D01*
X267044D01*
Y139450D01*
X267052D01*
Y139457D01*
X267059D01*
Y139464D01*
X267066D01*
Y139472D01*
X267074D01*
Y139479D01*
X267081D01*
Y139486D01*
X267088D01*
Y139494D01*
X267096D01*
Y139501D01*
X267103D01*
Y139508D01*
X267110D01*
Y139515D01*
X267118D01*
Y139523D01*
X267125D01*
Y139530D01*
X267132D01*
Y139538D01*
X267140D01*
Y139545D01*
X267147D01*
Y139552D01*
X267154D01*
Y139559D01*
X267169D01*
Y139567D01*
X267176D01*
Y139574D01*
X267183D01*
Y139582D01*
X267191D01*
Y139589D01*
X267198D01*
Y139596D01*
X267213D01*
Y139603D01*
X267220D01*
Y139611D01*
X267227D01*
Y139618D01*
X267235D01*
Y139625D01*
X267249D01*
Y139633D01*
X267257D01*
Y139640D01*
X267264D01*
Y139647D01*
X267279D01*
Y139655D01*
X267286D01*
Y139662D01*
X267293D01*
Y139669D01*
X267308D01*
Y139677D01*
X267315D01*
Y139684D01*
X267330D01*
Y139691D01*
X267337D01*
Y139699D01*
X267352D01*
Y139706D01*
X267359D01*
Y139713D01*
X267374D01*
Y139721D01*
X267381D01*
Y139728D01*
X267396D01*
Y139735D01*
X267410D01*
Y139743D01*
X267418D01*
Y139750D01*
X267432D01*
Y139757D01*
X267447D01*
Y139765D01*
X267462D01*
Y139772D01*
X267469D01*
Y139779D01*
X267484D01*
Y139787D01*
X267498D01*
Y139794D01*
X267513D01*
Y139801D01*
X267528D01*
Y139808D01*
X267542D01*
Y139816D01*
X267557D01*
Y139823D01*
X267572D01*
Y139831D01*
X267586D01*
Y139838D01*
X267608D01*
Y139845D01*
X267623D01*
Y139852D01*
X267638D01*
Y139860D01*
X267652D01*
Y139867D01*
X267674D01*
Y139874D01*
X267689D01*
Y139882D01*
X267711D01*
Y139889D01*
X267725D01*
Y139896D01*
X267747D01*
Y139904D01*
X267769D01*
Y139911D01*
X267791D01*
Y139918D01*
X267813D01*
Y139926D01*
X267835D01*
Y139933D01*
X267857D01*
Y139940D01*
X267879D01*
Y139948D01*
X267909D01*
Y139955D01*
X267931D01*
Y139962D01*
X267960D01*
Y139970D01*
X267982D01*
Y139977D01*
X268011D01*
Y139984D01*
X268040D01*
Y139992D01*
X268077D01*
Y139999D01*
X268106D01*
Y140006D01*
X268143D01*
Y140014D01*
X268180D01*
Y140021D01*
X268224D01*
Y140028D01*
X268260D01*
Y140036D01*
X268312D01*
Y140043D01*
X268363D01*
Y140050D01*
X268414D01*
Y140058D01*
X268480D01*
Y140065D01*
X268553D01*
Y140072D01*
X268648D01*
Y140079D01*
X268766D01*
Y140087D01*
X268963D01*
Y140094D01*
X278031D01*
Y140087D01*
D02*
G37*
G36*
X260511Y140438D02*
X260533D01*
Y140431D01*
X260562D01*
Y140424D01*
X260584D01*
Y140417D01*
X260598D01*
Y140409D01*
X260620D01*
Y140402D01*
X260643D01*
Y140394D01*
X260664D01*
Y140387D01*
X260679D01*
Y140380D01*
X260701D01*
Y140373D01*
X260723D01*
Y140365D01*
X260738D01*
Y140358D01*
X260760D01*
Y140351D01*
X260774D01*
Y140343D01*
X260789D01*
Y140336D01*
X260811D01*
Y140329D01*
X260826D01*
Y140321D01*
X260840D01*
Y140314D01*
X260855D01*
Y140307D01*
X260870D01*
Y140299D01*
X260884D01*
Y140292D01*
X260906D01*
Y140285D01*
X260921D01*
Y140277D01*
X260935D01*
Y140270D01*
X260950D01*
Y140263D01*
X260965D01*
Y140255D01*
X260972D01*
Y140248D01*
X260987D01*
Y140241D01*
X261001D01*
Y140233D01*
X261016D01*
Y140226D01*
X261031D01*
Y140219D01*
X261045D01*
Y140211D01*
X261053D01*
Y140204D01*
X261067D01*
Y140197D01*
X261082D01*
Y140189D01*
X261097D01*
Y140182D01*
X261104D01*
Y140175D01*
X261119D01*
Y140167D01*
X261133D01*
Y140160D01*
X261140D01*
Y140153D01*
X261155D01*
Y140146D01*
X261162D01*
Y140138D01*
X261177D01*
Y140131D01*
X261185D01*
Y140123D01*
X261199D01*
Y140116D01*
X261207D01*
Y140109D01*
X261221D01*
Y140102D01*
X261228D01*
Y140094D01*
X261243D01*
Y140087D01*
X261250D01*
Y140079D01*
X261265D01*
Y140072D01*
X261272D01*
Y140065D01*
X261287D01*
Y140058D01*
X261294D01*
Y140050D01*
X261302D01*
Y140043D01*
X261316D01*
Y140036D01*
X261324D01*
Y140028D01*
X261331D01*
Y140021D01*
X261346D01*
Y140014D01*
X261353D01*
Y140006D01*
X261360D01*
Y139999D01*
X261368D01*
Y139992D01*
X261382D01*
Y139984D01*
X261390D01*
Y139977D01*
X261397D01*
Y139970D01*
X261404D01*
Y139962D01*
X261419D01*
Y139955D01*
X261426D01*
Y139948D01*
X261434D01*
Y139940D01*
X261441D01*
Y139933D01*
X261448D01*
Y139926D01*
X261455D01*
Y139918D01*
X261470D01*
Y139911D01*
X261477D01*
Y139904D01*
X261485D01*
Y139896D01*
X261492D01*
Y139889D01*
X261499D01*
Y139882D01*
X261507D01*
Y139874D01*
X261514D01*
Y139867D01*
X261521D01*
Y139860D01*
X261529D01*
Y139852D01*
X261536D01*
Y139845D01*
X261543D01*
Y139838D01*
X261551D01*
Y139831D01*
X261558D01*
Y139823D01*
X261565D01*
Y139816D01*
X261573D01*
Y139808D01*
X261580D01*
Y139801D01*
X261587D01*
Y139794D01*
X261595D01*
Y139787D01*
X261602D01*
Y139779D01*
X261609D01*
Y139772D01*
X261617D01*
Y139765D01*
X261624D01*
Y139757D01*
X261631D01*
Y139750D01*
X261639D01*
Y139743D01*
X261646D01*
Y139735D01*
X261653D01*
Y139728D01*
X261661D01*
Y139721D01*
X261668D01*
Y139713D01*
X261675D01*
Y139706D01*
X261683D01*
Y139699D01*
X261690D01*
Y139684D01*
X261697D01*
Y139677D01*
X261704D01*
Y139669D01*
X261712D01*
Y139662D01*
X261719D01*
Y139655D01*
X261726D01*
Y139647D01*
X261734D01*
Y139633D01*
X261741D01*
Y139625D01*
X261749D01*
Y139618D01*
X261756D01*
Y139611D01*
X261763D01*
Y139603D01*
X261771D01*
Y139589D01*
X261778D01*
Y139582D01*
X261785D01*
Y139574D01*
X261792D01*
Y139559D01*
X261800D01*
Y139552D01*
X261807D01*
Y139545D01*
X261814D01*
Y139530D01*
X261822D01*
Y139523D01*
X261829D01*
Y139515D01*
X261836D01*
Y139501D01*
X261844D01*
Y139494D01*
X261851D01*
Y139479D01*
X261858D01*
Y139472D01*
X261866D01*
Y139457D01*
X261873D01*
Y139450D01*
X261880D01*
Y139435D01*
X261888D01*
Y139428D01*
X261895D01*
Y139413D01*
X261902D01*
Y139406D01*
X261910D01*
Y139391D01*
X261917D01*
Y139376D01*
X261924D01*
Y139369D01*
X261932D01*
Y139354D01*
X261939D01*
Y139340D01*
X261946D01*
Y139332D01*
X261954D01*
Y139318D01*
X261961D01*
Y139303D01*
X261968D01*
Y139288D01*
X261976D01*
Y139274D01*
X261983D01*
Y139259D01*
X261990D01*
Y139252D01*
X261998D01*
Y139237D01*
X262005D01*
Y139223D01*
X262012D01*
Y139208D01*
X262019D01*
Y139193D01*
X262027D01*
Y139171D01*
X262034D01*
Y139157D01*
X262041D01*
Y139142D01*
X262049D01*
Y139127D01*
X262056D01*
Y139113D01*
X262064D01*
Y139091D01*
X262071D01*
Y139076D01*
X262078D01*
Y139061D01*
X262085D01*
Y139039D01*
X262093D01*
Y139017D01*
X262100D01*
Y139003D01*
X262107D01*
Y138981D01*
X262115D01*
Y138959D01*
X262122D01*
Y138937D01*
X262129D01*
Y138922D01*
X262137D01*
Y138893D01*
X262144D01*
Y138871D01*
X262151D01*
Y138849D01*
X262159D01*
Y138820D01*
X262166D01*
Y138798D01*
X262173D01*
Y138768D01*
X262181D01*
Y138739D01*
X262188D01*
Y138710D01*
X262195D01*
Y138673D01*
X262203D01*
Y138637D01*
X262210D01*
Y138593D01*
X262217D01*
Y138549D01*
X262225D01*
Y138497D01*
X262232D01*
Y138432D01*
X262239D01*
Y138322D01*
X262247D01*
Y138241D01*
X261704D01*
Y138234D01*
X261580D01*
Y132044D01*
X261573D01*
Y131927D01*
X259632D01*
Y132528D01*
X259624D01*
Y138014D01*
X255002D01*
Y139852D01*
X255098D01*
Y139860D01*
X260298D01*
Y139882D01*
X260306D01*
Y139904D01*
X260313D01*
Y139926D01*
X260320D01*
Y139948D01*
X260328D01*
Y139970D01*
X260335D01*
Y139984D01*
X260342D01*
Y140006D01*
X260349D01*
Y140028D01*
X260357D01*
Y140050D01*
X260364D01*
Y140072D01*
X260371D01*
Y140094D01*
X260379D01*
Y140109D01*
X260386D01*
Y140131D01*
X260393D01*
Y140153D01*
X260401D01*
Y140175D01*
X260408D01*
Y140197D01*
X260415D01*
Y140219D01*
X260423D01*
Y140233D01*
X260430D01*
Y140255D01*
X260437D01*
Y140277D01*
X260445D01*
Y140299D01*
X260452D01*
Y140321D01*
X260459D01*
Y140343D01*
X260467D01*
Y140365D01*
X260474D01*
Y140380D01*
X260481D01*
Y140402D01*
X260489D01*
Y140424D01*
X260496D01*
Y140446D01*
X260511D01*
Y140438D01*
D02*
G37*
G36*
X275490Y130147D02*
X275197D01*
Y130308D01*
X275490D01*
Y130147D01*
D02*
G37*
G36*
X270304D02*
X270018D01*
Y130308D01*
X270304D01*
Y130147D01*
D02*
G37*
G36*
X261968D02*
X261683D01*
Y130308D01*
X261968D01*
Y130147D01*
D02*
G37*
G36*
X258467D02*
X258174D01*
Y130308D01*
X258467D01*
Y130147D01*
D02*
G37*
G36*
X267213Y130052D02*
X267205D01*
Y130045D01*
X266092D01*
Y130052D01*
X265931D01*
Y130045D01*
X265858D01*
Y130037D01*
X265850D01*
Y130030D01*
X265843D01*
Y130023D01*
X265836D01*
Y130008D01*
X265828D01*
Y129986D01*
X265821D01*
Y129832D01*
X267198D01*
Y129598D01*
X265821D01*
Y129473D01*
X265828D01*
Y129451D01*
X265836D01*
Y129437D01*
X265843D01*
Y129429D01*
X265850D01*
Y129422D01*
X265858D01*
Y129415D01*
X265880D01*
Y129407D01*
X267220D01*
Y129173D01*
X265755D01*
Y129180D01*
X265726D01*
Y129188D01*
X265704D01*
Y129195D01*
X265682D01*
Y129202D01*
X265667D01*
Y129210D01*
X265660D01*
Y129217D01*
X265645D01*
Y129224D01*
X265631D01*
Y129232D01*
X265623D01*
Y129239D01*
X265616D01*
Y129246D01*
X265609D01*
Y129254D01*
X265601D01*
Y129261D01*
X265594D01*
Y129268D01*
X265587D01*
Y129276D01*
X265579D01*
Y129283D01*
X265572D01*
Y129297D01*
X265565D01*
Y129305D01*
X265557D01*
Y129320D01*
X265550D01*
Y129341D01*
X265543D01*
Y129363D01*
X265535D01*
Y130096D01*
X265543D01*
Y130118D01*
X265550D01*
Y130140D01*
X265557D01*
Y130155D01*
X265565D01*
Y130162D01*
X265572D01*
Y130176D01*
X265579D01*
Y130184D01*
X265587D01*
Y130191D01*
X265594D01*
Y130199D01*
X265601D01*
Y130206D01*
X265609D01*
Y130213D01*
X265616D01*
Y130220D01*
X265623D01*
Y130228D01*
X265638D01*
Y130235D01*
X265645D01*
Y130242D01*
X265660D01*
Y130250D01*
X265675D01*
Y130257D01*
X265689D01*
Y130264D01*
X265711D01*
Y130272D01*
X265733D01*
Y130279D01*
X265777D01*
Y130286D01*
X267213D01*
Y130052D01*
D02*
G37*
G36*
X275087Y129796D02*
X274867D01*
Y129803D01*
X274794D01*
Y129796D01*
X274677D01*
Y129788D01*
X274662D01*
Y129781D01*
X274655D01*
Y129774D01*
X274647D01*
Y129766D01*
X274640D01*
Y129693D01*
X274633D01*
Y129173D01*
X274347D01*
Y129810D01*
X274354D01*
Y129840D01*
X274362D01*
Y129854D01*
X274369D01*
Y129876D01*
X274376D01*
Y129884D01*
X274384D01*
Y129898D01*
X274391D01*
Y129905D01*
X274398D01*
Y129913D01*
X274406D01*
Y129920D01*
X274413D01*
Y129927D01*
X274420D01*
Y129935D01*
X274428D01*
Y129942D01*
X274435D01*
Y129949D01*
X274442D01*
Y129957D01*
X274457D01*
Y129964D01*
X274464D01*
Y129971D01*
X274479D01*
Y129979D01*
X274494D01*
Y129986D01*
X274516D01*
Y129993D01*
X274537D01*
Y130001D01*
X274574D01*
Y130008D01*
X275087D01*
Y129796D01*
D02*
G37*
G36*
X256680Y129378D02*
X256672D01*
Y129341D01*
X256665D01*
Y129327D01*
X256658D01*
Y129312D01*
X256650D01*
Y129297D01*
X256643D01*
Y129283D01*
X256636D01*
Y129276D01*
X256628D01*
Y129268D01*
X256621D01*
Y129261D01*
X256614D01*
Y129254D01*
X256607D01*
Y129246D01*
X256599D01*
Y129239D01*
X256592D01*
Y129232D01*
X256585D01*
Y129224D01*
X256570D01*
Y129217D01*
X256555D01*
Y129210D01*
X256548D01*
Y129202D01*
X256526D01*
Y129195D01*
X256511D01*
Y129188D01*
X256489D01*
Y129180D01*
X256445D01*
Y129173D01*
X255757D01*
Y129180D01*
X255713D01*
Y129188D01*
X255691D01*
Y129195D01*
X255669D01*
Y129202D01*
X255654D01*
Y129210D01*
X255640D01*
Y129217D01*
X255632D01*
Y129224D01*
X255618D01*
Y129232D01*
X255610D01*
Y129239D01*
X255603D01*
Y129246D01*
X255596D01*
Y129254D01*
X255588D01*
Y129261D01*
X255581D01*
Y129268D01*
X255574D01*
Y129276D01*
X255566D01*
Y129283D01*
X255559D01*
Y129290D01*
X255552D01*
Y129305D01*
X255544D01*
Y129320D01*
X255537D01*
Y129334D01*
X255530D01*
Y129363D01*
X255522D01*
Y129986D01*
X255808D01*
Y129400D01*
X255823D01*
Y129393D01*
X255881D01*
Y129385D01*
X256379D01*
Y129473D01*
X256387D01*
Y129986D01*
X256680D01*
Y129378D01*
D02*
G37*
G36*
X276567Y130001D02*
X276603D01*
Y129993D01*
X276625D01*
Y129986D01*
X276647D01*
Y129979D01*
X276662D01*
Y129971D01*
X276676D01*
Y129964D01*
X276691D01*
Y129957D01*
X276698D01*
Y129949D01*
X276713D01*
Y129942D01*
X276720D01*
Y129935D01*
X276728D01*
Y129927D01*
X276735D01*
Y129920D01*
X276742D01*
Y129913D01*
X276750D01*
Y129905D01*
X276757D01*
Y129898D01*
X276764D01*
Y129884D01*
X276772D01*
Y129876D01*
X276779D01*
Y129861D01*
X276786D01*
Y129840D01*
X276794D01*
Y129810D01*
X276801D01*
Y129730D01*
X276808D01*
Y129173D01*
X276508D01*
Y129759D01*
X276501D01*
Y129774D01*
X276493D01*
Y129781D01*
X276486D01*
Y129788D01*
X276464D01*
Y129796D01*
X276303D01*
Y129803D01*
X276237D01*
Y129796D01*
X275915D01*
Y129173D01*
X275622D01*
Y130008D01*
X276567D01*
Y130001D01*
D02*
G37*
G36*
X275482Y129283D02*
X275490D01*
Y129173D01*
X275197D01*
Y129378D01*
Y129385D01*
Y130001D01*
X275204D01*
Y130008D01*
X275482D01*
Y129283D01*
D02*
G37*
G36*
X274039Y130001D02*
X274069D01*
Y129993D01*
X274083D01*
Y129986D01*
X274098D01*
Y129979D01*
X274113D01*
Y129971D01*
X274120D01*
Y129964D01*
X274127D01*
Y129957D01*
X274135D01*
Y129949D01*
X274142D01*
Y129942D01*
X274149D01*
Y129935D01*
X274157D01*
Y129920D01*
X274164D01*
Y129898D01*
X274171D01*
Y129876D01*
X274179D01*
Y129832D01*
X274186D01*
Y129708D01*
X274179D01*
Y129649D01*
X274171D01*
Y129627D01*
X274164D01*
Y129613D01*
X274157D01*
Y129598D01*
X274149D01*
Y129590D01*
X274142D01*
Y129576D01*
X274135D01*
Y129569D01*
X274127D01*
Y129561D01*
X274113D01*
Y129554D01*
X274105D01*
Y129547D01*
X274091D01*
Y129539D01*
X274076D01*
Y129532D01*
X274054D01*
Y129525D01*
X273351D01*
Y129481D01*
X273358D01*
Y129444D01*
X273365D01*
Y129422D01*
X273373D01*
Y129407D01*
X273380D01*
Y129400D01*
X273388D01*
Y129393D01*
X273395D01*
Y129385D01*
X274157D01*
Y129173D01*
X273278D01*
Y129180D01*
X273248D01*
Y129188D01*
X273219D01*
Y129195D01*
X273204D01*
Y129202D01*
X273190D01*
Y129210D01*
X273175D01*
Y129217D01*
X273161D01*
Y129224D01*
X273153D01*
Y129232D01*
X273138D01*
Y129239D01*
X273131D01*
Y129246D01*
X273124D01*
Y129254D01*
X273116D01*
Y129261D01*
X273109D01*
Y129276D01*
X273102D01*
Y129283D01*
X273095D01*
Y129297D01*
X273087D01*
Y129312D01*
X273080D01*
Y129341D01*
X273073D01*
Y129488D01*
X273065D01*
Y129510D01*
X273073D01*
Y129847D01*
X273080D01*
Y129876D01*
X273087D01*
Y129891D01*
X273095D01*
Y129905D01*
X273102D01*
Y129913D01*
X273109D01*
Y129927D01*
X273116D01*
Y129935D01*
X273124D01*
Y129942D01*
X273138D01*
Y129949D01*
X273146D01*
Y129957D01*
X273153D01*
Y129964D01*
X273168D01*
Y129971D01*
X273175D01*
Y129979D01*
X273197D01*
Y129986D01*
X273212D01*
Y129993D01*
X273241D01*
Y130001D01*
X273278D01*
Y130008D01*
X274039D01*
Y130001D01*
D02*
G37*
G36*
X272765D02*
X272794D01*
Y129993D01*
X272809D01*
Y129986D01*
X272824D01*
Y129979D01*
X272831D01*
Y129971D01*
X272846D01*
Y129964D01*
X272853D01*
Y129957D01*
X272860D01*
Y129949D01*
X272867D01*
Y129942D01*
X272875D01*
Y129927D01*
X272882D01*
Y129913D01*
X272889D01*
Y129898D01*
X272897D01*
Y129861D01*
X272904D01*
Y129796D01*
X272911D01*
Y129722D01*
X272904D01*
Y129664D01*
X272897D01*
Y129649D01*
Y129642D01*
Y129634D01*
X272889D01*
Y129613D01*
X272882D01*
Y129598D01*
X272875D01*
Y129590D01*
X272867D01*
Y129583D01*
X272860D01*
Y129576D01*
X272853D01*
Y129569D01*
X272846D01*
Y129561D01*
X272838D01*
Y129554D01*
X272831D01*
Y129547D01*
X272816D01*
Y129539D01*
X272801D01*
Y129532D01*
X272772D01*
Y129525D01*
X272076D01*
Y129473D01*
X272084D01*
Y129429D01*
X272091D01*
Y129415D01*
X272098D01*
Y129400D01*
X272113D01*
Y129393D01*
X272128D01*
Y129385D01*
X272882D01*
Y129173D01*
X272003D01*
Y129180D01*
X271967D01*
Y129188D01*
X271944D01*
Y129195D01*
X271930D01*
Y129202D01*
X271908D01*
Y129210D01*
X271901D01*
Y129217D01*
X271886D01*
Y129224D01*
X271871D01*
Y129232D01*
X271864D01*
Y129239D01*
X271857D01*
Y129246D01*
X271849D01*
Y129254D01*
X271842D01*
Y129261D01*
X271835D01*
Y129268D01*
X271827D01*
Y129283D01*
X271820D01*
Y129297D01*
X271813D01*
Y129312D01*
X271805D01*
Y129334D01*
X271798D01*
Y129400D01*
X271791D01*
Y129810D01*
X271798D01*
Y129861D01*
X271805D01*
Y129884D01*
X271813D01*
Y129898D01*
X271820D01*
Y129905D01*
X271827D01*
Y129920D01*
X271835D01*
Y129927D01*
X271842D01*
Y129935D01*
X271849D01*
Y129942D01*
X271857D01*
Y129949D01*
X271864D01*
Y129957D01*
X271879D01*
Y129964D01*
X271886D01*
Y129971D01*
X271901D01*
Y129979D01*
X271915D01*
Y129986D01*
X271937D01*
Y129993D01*
X271959D01*
Y130001D01*
X272003D01*
Y130008D01*
X272765D01*
Y130001D01*
D02*
G37*
G36*
X271403D02*
X271439D01*
Y129993D01*
X271468D01*
Y129986D01*
X271490D01*
Y129979D01*
X271505D01*
Y129971D01*
X271520D01*
Y129964D01*
X271534D01*
Y129957D01*
X271549D01*
Y129949D01*
X271556D01*
Y129942D01*
X271564D01*
Y129935D01*
X271578D01*
Y129927D01*
X271586D01*
Y129920D01*
X271593D01*
Y129905D01*
X271600D01*
Y129898D01*
X271608D01*
Y129884D01*
X271615D01*
Y129869D01*
X271622D01*
Y129854D01*
X271630D01*
Y129832D01*
X271637D01*
Y129803D01*
X271644D01*
Y129752D01*
X271652D01*
Y129173D01*
X271366D01*
Y129180D01*
X271359D01*
Y129195D01*
X271351D01*
Y129788D01*
X271285D01*
Y129796D01*
X270758D01*
Y129627D01*
X270751D01*
Y129371D01*
X270758D01*
Y129173D01*
X270465D01*
Y130008D01*
X271403D01*
Y130001D01*
D02*
G37*
G36*
X270304Y129173D02*
X270018D01*
Y130008D01*
X270304D01*
Y129173D01*
D02*
G37*
G36*
X268297Y130001D02*
X268341D01*
Y129993D01*
X268363D01*
Y129986D01*
X268385D01*
Y129979D01*
X268399D01*
Y129971D01*
X268421D01*
Y129964D01*
X268429D01*
Y129957D01*
X268443D01*
Y129949D01*
X268451D01*
Y129942D01*
X268465D01*
Y129935D01*
X268473D01*
Y129927D01*
X268480D01*
Y129920D01*
X268487D01*
Y129905D01*
X268495D01*
Y129898D01*
X268502D01*
Y129884D01*
X268509D01*
Y129876D01*
X268517D01*
Y129854D01*
X268524D01*
Y129832D01*
X268531D01*
Y129810D01*
X268538D01*
Y129766D01*
X268546D01*
Y129173D01*
X268246D01*
Y129788D01*
X268180D01*
Y129796D01*
X267652D01*
Y129173D01*
X267359D01*
Y129378D01*
X267367D01*
Y129803D01*
X267359D01*
Y130008D01*
X268297D01*
Y130001D01*
D02*
G37*
G36*
X264400D02*
X264437D01*
Y129993D01*
X264459D01*
Y129986D01*
X264481D01*
Y129979D01*
X264495D01*
Y129971D01*
X264510D01*
Y129964D01*
X264525D01*
Y129957D01*
X264532D01*
Y129949D01*
X264546D01*
Y129942D01*
X264554D01*
Y129935D01*
X264561D01*
Y129927D01*
X264568D01*
Y129920D01*
X264576D01*
Y129913D01*
X264583D01*
Y129905D01*
X264591D01*
Y129898D01*
X264598D01*
Y129884D01*
X264605D01*
Y129876D01*
X264613D01*
Y129861D01*
X264620D01*
Y129840D01*
X264627D01*
Y129810D01*
X264634D01*
Y129730D01*
X264642D01*
Y129173D01*
X264341D01*
Y129759D01*
X264334D01*
Y129774D01*
X264327D01*
Y129781D01*
X264319D01*
Y129788D01*
X264298D01*
Y129796D01*
X264136D01*
Y129803D01*
X264070D01*
Y129796D01*
X263748D01*
Y129173D01*
X263455D01*
Y130008D01*
X264400D01*
Y130001D01*
D02*
G37*
G36*
X263067D02*
X263104D01*
Y129993D01*
X263133D01*
Y129986D01*
X263155D01*
Y129979D01*
X263170D01*
Y129971D01*
X263184D01*
Y129964D01*
X263199D01*
Y129957D01*
X263213D01*
Y129949D01*
X263221D01*
Y129942D01*
X263228D01*
Y129935D01*
X263243D01*
Y129920D01*
X263250D01*
Y129913D01*
X263257D01*
Y129905D01*
X263265D01*
Y129898D01*
X263272D01*
Y129884D01*
X263279D01*
Y129869D01*
X263287D01*
Y129847D01*
X263294D01*
Y129832D01*
X263301D01*
Y129796D01*
X263309D01*
Y129737D01*
X263316D01*
Y129437D01*
X263309D01*
Y129385D01*
X263301D01*
Y129349D01*
X263294D01*
Y129327D01*
X263287D01*
Y129312D01*
X263279D01*
Y129297D01*
X263272D01*
Y129283D01*
X263265D01*
Y129276D01*
X263257D01*
Y129268D01*
X263250D01*
Y129254D01*
X263243D01*
Y129246D01*
X263235D01*
Y129239D01*
X263221D01*
Y129232D01*
X263213D01*
Y129224D01*
X263199D01*
Y129217D01*
X263184D01*
Y129210D01*
X263170D01*
Y129202D01*
X263155D01*
Y129195D01*
X263133D01*
Y129188D01*
X263104D01*
Y129180D01*
X263067D01*
Y129173D01*
X262356D01*
Y129180D01*
X262320D01*
Y129188D01*
X262298D01*
Y129195D01*
X262276D01*
Y129202D01*
X262261D01*
Y129210D01*
X262254D01*
Y129217D01*
X262239D01*
Y129224D01*
X262225D01*
Y129232D01*
X262217D01*
Y129239D01*
X262210D01*
Y129246D01*
X262203D01*
Y129254D01*
X262195D01*
Y129261D01*
X262188D01*
Y129268D01*
X262181D01*
Y129276D01*
X262173D01*
Y129290D01*
X262166D01*
Y129297D01*
X262159D01*
Y129312D01*
X262151D01*
Y129327D01*
X262144D01*
Y129349D01*
X262137D01*
Y129378D01*
X262129D01*
Y129642D01*
Y129649D01*
Y129803D01*
X262137D01*
Y129840D01*
X262144D01*
Y129854D01*
X262151D01*
Y129869D01*
X262159D01*
Y129884D01*
X262166D01*
Y129898D01*
X262173D01*
Y129905D01*
X262181D01*
Y129913D01*
X262188D01*
Y129920D01*
X262195D01*
Y129927D01*
X262203D01*
Y129935D01*
X262210D01*
Y129942D01*
X262217D01*
Y129949D01*
X262225D01*
Y129957D01*
X262239D01*
Y129964D01*
X262247D01*
Y129971D01*
X262261D01*
Y129979D01*
X262276D01*
Y129986D01*
X262298D01*
Y129993D01*
X262320D01*
Y130001D01*
X262371D01*
Y130008D01*
X263067D01*
Y130001D01*
D02*
G37*
G36*
X261961D02*
X261968D01*
Y129722D01*
Y129715D01*
Y129173D01*
X261683D01*
Y130008D01*
X261961D01*
Y130001D01*
D02*
G37*
G36*
X261411Y130257D02*
X261419D01*
Y130008D01*
X261580D01*
Y129796D01*
X261419D01*
Y129173D01*
X261133D01*
Y129796D01*
X260987D01*
Y130008D01*
X261133D01*
Y130257D01*
X261390D01*
Y130264D01*
X261411D01*
Y130257D01*
D02*
G37*
G36*
X260701Y130001D02*
X260730D01*
Y129993D01*
X260752D01*
Y129986D01*
X260774D01*
Y129979D01*
X260789D01*
Y129971D01*
X260796D01*
Y129964D01*
X260811D01*
Y129957D01*
X260818D01*
Y129949D01*
X260833D01*
Y129942D01*
X260840D01*
Y129935D01*
X260848D01*
Y129927D01*
X260855D01*
Y129920D01*
X260862D01*
Y129905D01*
X260870D01*
Y129898D01*
X260877D01*
Y129891D01*
X260884D01*
Y129876D01*
X260892D01*
Y129861D01*
X260899D01*
Y129840D01*
X260906D01*
Y129803D01*
X260913D01*
Y129378D01*
X260906D01*
Y129327D01*
X260899D01*
Y129305D01*
X260892D01*
Y129290D01*
X260884D01*
Y129276D01*
X260877D01*
Y129268D01*
X260870D01*
Y129261D01*
X260862D01*
Y129254D01*
X260855D01*
Y129246D01*
X260848D01*
Y129239D01*
X260840D01*
Y129232D01*
X260833D01*
Y129224D01*
X260818D01*
Y129217D01*
X260811D01*
Y129210D01*
X260796D01*
Y129202D01*
X260782D01*
Y129195D01*
X260760D01*
Y129188D01*
X260738D01*
Y129180D01*
X260701D01*
Y129173D01*
X259932D01*
Y129180D01*
X259903D01*
Y129188D01*
X259888D01*
Y129195D01*
X259873D01*
Y129202D01*
X259866D01*
Y129210D01*
X259851D01*
Y129217D01*
X259844D01*
Y129224D01*
X259837D01*
Y129239D01*
X259829D01*
Y129246D01*
X259822D01*
Y129261D01*
X259815D01*
Y129276D01*
X259807D01*
Y129327D01*
X259800D01*
Y129510D01*
X259807D01*
Y129554D01*
X259815D01*
Y129576D01*
X259822D01*
Y129590D01*
X259829D01*
Y129598D01*
X259837D01*
Y129605D01*
X259844D01*
Y129613D01*
X259851D01*
Y129620D01*
X259859D01*
Y129627D01*
X259873D01*
Y129634D01*
X259888D01*
Y129642D01*
X259903D01*
Y129649D01*
X259925D01*
Y129656D01*
X260635D01*
Y129686D01*
X260628D01*
Y129722D01*
X260620D01*
Y129744D01*
X260613D01*
Y129766D01*
X260606D01*
Y129774D01*
X260598D01*
Y129788D01*
X260562D01*
Y129796D01*
X260401D01*
Y129803D01*
X260276D01*
Y129796D01*
X259859D01*
Y129803D01*
X259822D01*
Y129810D01*
X259815D01*
Y129847D01*
X259807D01*
Y130008D01*
X260701D01*
Y130001D01*
D02*
G37*
G36*
X259654Y129891D02*
X259661D01*
Y129803D01*
X259624D01*
Y129796D01*
X258972D01*
Y129788D01*
X258943D01*
Y129781D01*
X258936D01*
Y129774D01*
X258928D01*
Y129766D01*
X258921D01*
Y129730D01*
X258914D01*
Y129634D01*
X258907D01*
Y129547D01*
X258914D01*
Y129451D01*
X258921D01*
Y129415D01*
X258928D01*
Y129407D01*
X258936D01*
Y129400D01*
X258943D01*
Y129393D01*
X258980D01*
Y129385D01*
X259661D01*
Y129173D01*
X258855D01*
Y129180D01*
X258819D01*
Y129188D01*
X258789D01*
Y129195D01*
X258775D01*
Y129202D01*
X258760D01*
Y129210D01*
X258745D01*
Y129217D01*
X258731D01*
Y129224D01*
X258723D01*
Y129232D01*
X258716D01*
Y129239D01*
X258709D01*
Y129246D01*
X258694D01*
Y129254D01*
X258687D01*
Y129261D01*
X258679D01*
Y129276D01*
X258672D01*
Y129283D01*
X258665D01*
Y129290D01*
X258658D01*
Y129305D01*
X258650D01*
Y129320D01*
X258643D01*
Y129334D01*
X258635D01*
Y129356D01*
X258628D01*
Y129532D01*
X258621D01*
Y129656D01*
X258628D01*
Y129818D01*
X258635D01*
Y129847D01*
X258643D01*
Y129861D01*
X258650D01*
Y129876D01*
X258658D01*
Y129891D01*
X258665D01*
Y129898D01*
X258672D01*
Y129905D01*
X258679D01*
Y129920D01*
X258687D01*
Y129927D01*
X258694D01*
Y129935D01*
X258701D01*
Y129942D01*
X258716D01*
Y129949D01*
X258723D01*
Y129957D01*
X258731D01*
Y129964D01*
X258745D01*
Y129971D01*
X258760D01*
Y129979D01*
X258775D01*
Y129986D01*
X258789D01*
Y129993D01*
X258819D01*
Y130001D01*
X258848D01*
Y130008D01*
X259654D01*
Y129891D01*
D02*
G37*
G36*
X258460Y129232D02*
X258467D01*
Y129173D01*
X258174D01*
Y129254D01*
Y129261D01*
Y130008D01*
X258460D01*
Y129232D01*
D02*
G37*
G36*
X257786Y130001D02*
X257822D01*
Y129993D01*
X257852D01*
Y129986D01*
X257874D01*
Y129979D01*
X257888D01*
Y129971D01*
X257903D01*
Y129964D01*
X257918D01*
Y129957D01*
X257925D01*
Y129949D01*
X257940D01*
Y129942D01*
X257947D01*
Y129935D01*
X257954D01*
Y129927D01*
X257962D01*
Y129920D01*
X257969D01*
Y129913D01*
X257976D01*
Y129905D01*
X257984D01*
Y129891D01*
X257991D01*
Y129884D01*
X257998D01*
Y129869D01*
X258005D01*
Y129847D01*
X258013D01*
Y129825D01*
X258020D01*
Y129796D01*
X258028D01*
Y129730D01*
X258035D01*
Y129429D01*
Y129422D01*
Y129173D01*
X257734D01*
Y129737D01*
X257727D01*
Y129774D01*
X257720D01*
Y129781D01*
X257713D01*
Y129788D01*
X257691D01*
Y129796D01*
X257522D01*
Y129803D01*
X257456D01*
Y129796D01*
X257134D01*
Y129173D01*
X256848D01*
Y130008D01*
X257786D01*
Y130001D01*
D02*
G37*
G36*
X255134D02*
X255171D01*
Y129993D01*
X255200D01*
Y129986D01*
X255222D01*
Y129979D01*
X255237D01*
Y129971D01*
X255251D01*
Y129964D01*
X255266D01*
Y129957D01*
X255281D01*
Y129949D01*
X255288D01*
Y129942D01*
X255295D01*
Y129935D01*
X255303D01*
Y129927D01*
X255310D01*
Y129920D01*
X255317D01*
Y129913D01*
X255325D01*
Y129905D01*
X255332D01*
Y129898D01*
X255339D01*
Y129884D01*
X255347D01*
Y129869D01*
X255354D01*
Y129854D01*
X255361D01*
Y129832D01*
X255369D01*
Y129803D01*
X255376D01*
Y129744D01*
X255383D01*
Y129173D01*
X255090D01*
Y129180D01*
X255083D01*
Y129759D01*
X255076D01*
Y129774D01*
X255068D01*
Y129781D01*
X255061D01*
Y129788D01*
X255039D01*
Y129796D01*
X254966D01*
Y129803D01*
X254878D01*
Y129796D01*
X254746D01*
Y129173D01*
X254446D01*
Y129796D01*
X254109D01*
Y129173D01*
X253816D01*
Y129356D01*
X253823D01*
Y129825D01*
X253816D01*
Y130008D01*
X255134D01*
Y130001D01*
D02*
G37*
G36*
X277936D02*
X277973D01*
Y129993D01*
X278002D01*
Y129986D01*
X278024D01*
Y129979D01*
X278039D01*
Y129971D01*
X278053D01*
Y129964D01*
X278068D01*
Y129957D01*
X278075D01*
Y129949D01*
X278090D01*
Y129942D01*
X278097D01*
Y129935D01*
X278105D01*
Y129927D01*
X278112D01*
Y129920D01*
X278119D01*
Y129905D01*
X278127D01*
Y129898D01*
X278134D01*
Y129884D01*
X278141D01*
Y129869D01*
X278149D01*
Y129840D01*
X278156D01*
Y129730D01*
X278163D01*
Y129539D01*
X278156D01*
Y129334D01*
X278163D01*
Y129202D01*
X278156D01*
Y129122D01*
X278149D01*
Y129085D01*
X278141D01*
Y129063D01*
X278134D01*
Y129041D01*
X278127D01*
Y129026D01*
X278119D01*
Y129012D01*
X278112D01*
Y129005D01*
X278105D01*
Y128997D01*
X278097D01*
Y128982D01*
X278090D01*
Y128975D01*
X278083D01*
Y128968D01*
X278075D01*
Y128961D01*
X278061D01*
Y128953D01*
X278053D01*
Y128946D01*
X278039D01*
Y128939D01*
X278024D01*
Y128931D01*
X278010D01*
Y128924D01*
X277988D01*
Y128917D01*
X277965D01*
Y128909D01*
X277936D01*
Y128902D01*
X277885D01*
Y128895D01*
X277028D01*
Y128961D01*
Y128968D01*
Y129107D01*
X277753D01*
Y129114D01*
X277790D01*
Y129122D01*
X277812D01*
Y129129D01*
X277834D01*
Y129136D01*
X277856D01*
Y129144D01*
X277863D01*
Y129188D01*
X277856D01*
Y129297D01*
X277131D01*
Y129305D01*
X277101D01*
Y129312D01*
X277079D01*
Y129320D01*
X277065D01*
Y129327D01*
X277057D01*
Y129334D01*
X277043D01*
Y129341D01*
X277035D01*
Y129349D01*
X277028D01*
Y129356D01*
X277021D01*
Y129363D01*
X277013D01*
Y129371D01*
X277006D01*
Y129385D01*
X276999D01*
Y129393D01*
X276991D01*
Y129415D01*
X276984D01*
Y129444D01*
X276977D01*
Y129854D01*
X276984D01*
Y129884D01*
X276991D01*
Y129898D01*
X276999D01*
Y129905D01*
X277006D01*
Y129913D01*
X277013D01*
Y129920D01*
X277021D01*
Y129935D01*
X277028D01*
Y129942D01*
X277043D01*
Y129949D01*
X277050D01*
Y129957D01*
X277057D01*
Y129964D01*
X277072D01*
Y129971D01*
X277086D01*
Y129979D01*
X277101D01*
Y129986D01*
X277123D01*
Y129993D01*
X277152D01*
Y130001D01*
X277189D01*
Y130008D01*
X277936D01*
Y130001D01*
D02*
G37*
G36*
X269645D02*
X269681D01*
Y129993D01*
X269710D01*
Y129986D01*
X269732D01*
Y129979D01*
X269754D01*
Y129971D01*
X269769D01*
Y129964D01*
X269776D01*
Y129957D01*
X269791D01*
Y129949D01*
X269806D01*
Y129942D01*
X269813D01*
Y129935D01*
X269820D01*
Y129927D01*
X269828D01*
Y129920D01*
X269835D01*
Y129905D01*
X269842D01*
Y129891D01*
X269850D01*
Y129876D01*
X269857D01*
Y129854D01*
X269864D01*
Y129825D01*
X269872D01*
Y129136D01*
X269864D01*
Y129092D01*
X269857D01*
Y129070D01*
X269850D01*
Y129049D01*
X269842D01*
Y129034D01*
X269835D01*
Y129019D01*
X269828D01*
Y129005D01*
X269820D01*
Y128997D01*
X269813D01*
Y128990D01*
X269806D01*
Y128982D01*
X269798D01*
Y128975D01*
X269791D01*
Y128968D01*
X269784D01*
Y128961D01*
X269776D01*
Y128953D01*
X269762D01*
Y128946D01*
X269754D01*
Y128939D01*
X269740D01*
Y128931D01*
X269725D01*
Y128924D01*
X269703D01*
Y128917D01*
X269681D01*
Y128909D01*
X269652D01*
Y128902D01*
X269601D01*
Y128895D01*
X268736D01*
Y129107D01*
X269469D01*
Y129114D01*
X269505D01*
Y129122D01*
X269527D01*
Y129129D01*
X269549D01*
Y129136D01*
X269571D01*
Y129261D01*
X269579D01*
Y129290D01*
X269571D01*
Y129297D01*
X268839D01*
Y129305D01*
X268810D01*
Y129312D01*
X268795D01*
Y129320D01*
X268780D01*
Y129327D01*
X268766D01*
Y129334D01*
X268758D01*
Y129341D01*
X268751D01*
Y129349D01*
X268744D01*
Y129356D01*
X268736D01*
Y129363D01*
X268729D01*
Y129371D01*
X268722D01*
Y129378D01*
X268714D01*
Y129393D01*
X268707D01*
Y129407D01*
X268700D01*
Y129437D01*
X268692D01*
Y129539D01*
X268685D01*
Y129730D01*
X268692D01*
Y129869D01*
X268700D01*
Y129884D01*
X268707D01*
Y129898D01*
X268714D01*
Y129913D01*
X268722D01*
Y129920D01*
X268729D01*
Y129927D01*
X268736D01*
Y129935D01*
X268744D01*
Y129942D01*
X268751D01*
Y129949D01*
X268766D01*
Y129957D01*
X268773D01*
Y129964D01*
X268788D01*
Y129971D01*
X268802D01*
Y129979D01*
X268817D01*
Y129986D01*
X268831D01*
Y129993D01*
X268861D01*
Y130001D01*
X268912D01*
Y130008D01*
X269645D01*
Y130001D01*
D02*
G37*
%LPC*%
G36*
X232135Y129803D02*
X231622D01*
Y129796D01*
X231607D01*
Y129781D01*
X231600D01*
Y129766D01*
X231592D01*
Y129664D01*
X231585D01*
Y129649D01*
X231739D01*
Y129656D01*
X231988D01*
Y129649D01*
X232135D01*
Y129708D01*
X232142D01*
Y129752D01*
X232135D01*
Y129803D01*
D02*
G37*
G36*
X251560D02*
X251450D01*
Y129796D01*
X251318D01*
Y129803D01*
X251179D01*
Y129796D01*
X251091D01*
Y129788D01*
X251076D01*
Y129781D01*
X251069D01*
Y129766D01*
X251062D01*
Y129752D01*
X251054D01*
Y129722D01*
Y129715D01*
Y129708D01*
X251047D01*
Y129671D01*
X251054D01*
Y129634D01*
X251047D01*
Y129473D01*
X251054D01*
Y129437D01*
X251062D01*
Y129422D01*
X251069D01*
Y129407D01*
X251076D01*
Y129400D01*
X251084D01*
Y129393D01*
X251091D01*
Y129385D01*
X251193D01*
Y129378D01*
X251289D01*
Y129385D01*
X251450D01*
Y129378D01*
X251465D01*
Y129385D01*
X251508D01*
Y129378D01*
X251552D01*
Y129385D01*
X251611D01*
Y129393D01*
X251626D01*
Y129400D01*
X251640D01*
Y129407D01*
X251648D01*
Y129451D01*
X251655D01*
Y129730D01*
X251648D01*
Y129781D01*
X251633D01*
Y129788D01*
X251611D01*
Y129796D01*
X251560D01*
Y129803D01*
D02*
G37*
G36*
X249157D02*
X248659D01*
Y129796D01*
X248622D01*
Y129759D01*
X248615D01*
Y129686D01*
X248608D01*
Y129649D01*
X248762D01*
Y129656D01*
X249011D01*
Y129649D01*
X249157D01*
Y129693D01*
X249165D01*
Y129752D01*
X249157D01*
Y129803D01*
D02*
G37*
G36*
X247429D02*
X246916D01*
Y129796D01*
X246908D01*
Y129788D01*
X246901D01*
Y129781D01*
X246894D01*
Y129759D01*
X246887D01*
Y129649D01*
X247040D01*
Y129656D01*
X247289D01*
Y129649D01*
X247429D01*
Y129671D01*
X247436D01*
Y129715D01*
Y129722D01*
Y129781D01*
X247429D01*
Y129803D01*
D02*
G37*
G36*
X243488D02*
X243312D01*
Y129796D01*
X243180D01*
Y129788D01*
X243166D01*
Y129774D01*
X243158D01*
Y129766D01*
X243151D01*
Y129744D01*
X243144D01*
Y129700D01*
X243136D01*
Y129481D01*
X243144D01*
Y129437D01*
X243151D01*
Y129415D01*
X243158D01*
Y129407D01*
X243166D01*
Y129393D01*
X243180D01*
Y129385D01*
X243283D01*
Y129378D01*
X243393D01*
Y129385D01*
X243539D01*
Y129378D01*
X243554D01*
Y129385D01*
X243605D01*
Y129378D01*
X243627D01*
Y129385D01*
X243693D01*
Y129393D01*
X243715D01*
Y129400D01*
X243730D01*
Y129407D01*
X243737D01*
Y129451D01*
X243744D01*
Y129649D01*
Y129656D01*
Y129796D01*
X243488D01*
Y129803D01*
D02*
G37*
G36*
X241085Y129532D02*
X241063D01*
Y129525D01*
X240975D01*
Y129532D01*
X240697D01*
Y129525D01*
X240529D01*
Y129385D01*
X240595D01*
Y129378D01*
X241019D01*
Y129385D01*
X241049D01*
Y129393D01*
X241056D01*
Y129400D01*
X241063D01*
Y129407D01*
X241071D01*
Y129422D01*
X241078D01*
Y129451D01*
X241085D01*
Y129510D01*
X241093D01*
Y129525D01*
X241085D01*
Y129532D01*
D02*
G37*
G36*
X236017Y129803D02*
X235951D01*
Y129796D01*
X235921D01*
Y129803D01*
X235907D01*
Y129796D01*
X235775D01*
Y129803D01*
X235636D01*
Y129796D01*
X235555D01*
Y129788D01*
X235533D01*
Y129781D01*
X235526D01*
Y129774D01*
X235519D01*
Y129766D01*
X235511D01*
Y129715D01*
X235504D01*
Y129473D01*
X235511D01*
Y129415D01*
X235519D01*
Y129407D01*
X235526D01*
Y129400D01*
X235533D01*
Y129393D01*
X235555D01*
Y129385D01*
X235643D01*
Y129378D01*
X235760D01*
Y129385D01*
X235907D01*
Y129378D01*
X235921D01*
Y129385D01*
X235951D01*
Y129378D01*
X236002D01*
Y129385D01*
X236061D01*
Y129393D01*
X236083D01*
Y129400D01*
X236097D01*
Y129415D01*
X236104D01*
Y129481D01*
X236112D01*
Y129693D01*
X236104D01*
Y129766D01*
X236097D01*
Y129781D01*
X236083D01*
Y129788D01*
X236061D01*
Y129796D01*
X236017D01*
Y129803D01*
D02*
G37*
G36*
X273666D02*
X273497D01*
Y129796D01*
X273395D01*
Y129788D01*
X273388D01*
Y129781D01*
X273380D01*
Y129774D01*
X273373D01*
Y129759D01*
X273365D01*
Y129744D01*
X273358D01*
Y129700D01*
X273351D01*
Y129656D01*
X273864D01*
Y129664D01*
X273871D01*
Y129678D01*
X273878D01*
Y129693D01*
X273886D01*
Y129708D01*
X273893D01*
Y129730D01*
X273900D01*
Y129752D01*
X273893D01*
Y129759D01*
X273886D01*
Y129766D01*
X273878D01*
Y129781D01*
X273871D01*
Y129788D01*
X273864D01*
Y129796D01*
X273666D01*
Y129803D01*
D02*
G37*
G36*
X272164D02*
X272106D01*
Y129796D01*
X272098D01*
Y129752D01*
X272091D01*
Y129722D01*
X272084D01*
Y129693D01*
X272076D01*
Y129671D01*
X272069D01*
Y129656D01*
X272589D01*
Y129671D01*
X272597D01*
Y129686D01*
X272604D01*
Y129700D01*
X272611D01*
Y129715D01*
X272618D01*
Y129730D01*
X272626D01*
Y129744D01*
X272618D01*
Y129759D01*
X272611D01*
Y129766D01*
X272604D01*
Y129774D01*
X272597D01*
Y129788D01*
X272589D01*
Y129796D01*
X272164D01*
Y129803D01*
D02*
G37*
G36*
X262913D02*
X262811D01*
Y129796D01*
X262686D01*
Y129803D01*
X262547D01*
Y129796D01*
X262459D01*
Y129788D01*
X262444D01*
Y129781D01*
X262437D01*
Y129774D01*
X262430D01*
Y129766D01*
X262422D01*
Y129708D01*
X262415D01*
Y129473D01*
X262422D01*
Y129415D01*
X262430D01*
Y129407D01*
X262437D01*
Y129400D01*
X262444D01*
Y129393D01*
X262459D01*
Y129385D01*
X262561D01*
Y129378D01*
X262664D01*
Y129385D01*
X262818D01*
Y129378D01*
X262840D01*
Y129385D01*
X262869D01*
Y129378D01*
X262906D01*
Y129385D01*
X262972D01*
Y129393D01*
X262994D01*
Y129400D01*
X263008D01*
Y129415D01*
X263016D01*
Y129481D01*
X263023D01*
Y129700D01*
X263016D01*
Y129766D01*
X263008D01*
Y129781D01*
X262994D01*
Y129788D01*
X262972D01*
Y129796D01*
X262913D01*
Y129803D01*
D02*
G37*
G36*
X260643Y129532D02*
X260628D01*
Y129525D01*
X260503D01*
Y129532D01*
X260240D01*
Y129525D01*
X260086D01*
Y129517D01*
X260079D01*
Y129385D01*
X260152D01*
Y129378D01*
X260562D01*
Y129385D01*
X260598D01*
Y129393D01*
X260606D01*
Y129400D01*
X260613D01*
Y129407D01*
X260620D01*
Y129422D01*
X260628D01*
Y129444D01*
X260635D01*
Y129503D01*
X260643D01*
Y129532D01*
D02*
G37*
G36*
X277336Y129803D02*
X277284D01*
Y129788D01*
X277277D01*
Y129752D01*
X277270D01*
Y129715D01*
X277262D01*
Y129642D01*
X277255D01*
Y129620D01*
X277262D01*
Y129561D01*
X277270D01*
Y129539D01*
X277277D01*
Y129532D01*
X277284D01*
Y129525D01*
X277292D01*
Y129517D01*
X277306D01*
Y129510D01*
X277856D01*
Y129605D01*
X277863D01*
Y129788D01*
X277819D01*
Y129796D01*
X277336D01*
Y129803D01*
D02*
G37*
G36*
X269044D02*
X269000D01*
Y129796D01*
X268993D01*
Y129774D01*
X268985D01*
Y129737D01*
X268978D01*
Y129576D01*
X268985D01*
Y129539D01*
X268993D01*
Y129510D01*
X269000D01*
Y129503D01*
X269015D01*
Y129510D01*
X269571D01*
Y129788D01*
X269542D01*
Y129796D01*
X269044D01*
Y129803D01*
D02*
G37*
%LPD*%
D10*
X308492Y281000D02*
X307754Y281426D01*
Y280574D01*
X308492Y281000D01*
X240122Y235768D02*
X239384Y236194D01*
Y235342D01*
X240122Y235768D01*
D11*
X285701Y279685D02*
Y278898D01*
Y279685D01*
X242779Y241280D02*
X265220D01*
X242779Y263720D02*
X265220D01*
X242779Y241280D02*
Y263720D01*
X265220Y241280D02*
Y263720D01*
X214500Y202748D02*
X224500D01*
Y141252D02*
Y202748D01*
X214500Y141252D02*
X224500D01*
X214500D02*
Y202748D01*
X243000Y170000D02*
X246937D01*
X243000Y157000D02*
X246937D01*
X259130Y155508D02*
X287870D01*
X259130Y181492D02*
X287870D01*
X290941Y192248D02*
Y195988D01*
X246059Y192248D02*
X290941D01*
X246059D02*
Y195988D01*
Y207012D02*
Y210752D01*
X290941D01*
Y207012D02*
Y210752D01*
X275102Y276685D02*
Y277866D01*
X262898Y276685D02*
Y277866D01*
X275102Y286134D02*
Y287315D01*
X262898Y286134D02*
Y287315D01*
Y276685D02*
X275102D01*
X262898Y287315D02*
X275102D01*
X215566Y262232D02*
X225433D01*
X215566Y253768D02*
X225433D01*
X215566Y250232D02*
X225433D01*
X215566Y241768D02*
X225433D01*
X287441Y223055D02*
X288228D01*
X287441Y217740D02*
X288228D01*
X216500Y222000D02*
X224500D01*
X216429Y227000D02*
X224500D01*
X215566Y229768D02*
X225433D01*
X215566Y238232D02*
X225433D01*
X215566Y274232D02*
X225433D01*
X215566Y265768D02*
X225433D01*
X283224Y141224D02*
X280787Y137287D01*
X283412Y141224D02*
X280975Y137287D01*
Y141224D02*
X280787Y140099D01*
Y141224D01*
X283412D01*
X280787Y137287D02*
X283412D01*
Y138412D01*
X283224Y137287D01*
X284180Y138787D02*
X286429D01*
Y139162D01*
X286242Y139537D01*
X286054Y139724D01*
X285680Y139911D01*
X285117D01*
X284555Y139724D01*
X284180Y139349D01*
X283993Y138787D01*
Y138412D01*
X284180Y137850D01*
X284555Y137475D01*
X285117Y137287D01*
X285492D01*
X286054Y137475D01*
X286429Y137850D01*
X286242Y138787D02*
Y139349D01*
X286054Y139724D01*
X285117Y139911D02*
X284742Y139724D01*
X284367Y139349D01*
X284180Y138787D01*
Y138412D01*
X284367Y137850D01*
X284742Y137475D01*
X285117Y137287D01*
X287591Y139911D02*
Y137287D01*
X287779Y139911D02*
Y137287D01*
Y138787D02*
X287966Y139349D01*
X288341Y139724D01*
X288716Y139911D01*
X289278D01*
X289466Y139724D01*
Y139537D01*
X289278Y139349D01*
X289091Y139537D01*
X289278Y139724D01*
X287029Y139911D02*
X287779D01*
X287029Y137287D02*
X288341D01*
X291190Y139911D02*
X290628Y139724D01*
X290253Y139349D01*
X290066Y138787D01*
Y138412D01*
X290253Y137850D01*
X290628Y137475D01*
X291190Y137287D01*
X291565D01*
X292127Y137475D01*
X292502Y137850D01*
X292690Y138412D01*
Y138787D01*
X292502Y139349D01*
X292127Y139724D01*
X291565Y139911D01*
X291190D01*
X290815Y139724D01*
X290440Y139349D01*
X290253Y138787D01*
Y138412D01*
X290440Y137850D01*
X290815Y137475D01*
X291190Y137287D01*
X291565D02*
X291940Y137475D01*
X292315Y137850D01*
X292502Y138412D01*
Y138787D01*
X292315Y139349D01*
X291940Y139724D01*
X291565Y139911D01*
D12*
X213807Y214000D02*
D03*
X251697Y147500D02*
D03*
X253087Y179000D02*
D03*
X255307Y147500D02*
D03*
X287087D02*
D03*
X247197Y215000D02*
D03*
X255697D02*
D03*
X245807Y282000D02*
D03*
X230807D02*
D03*
D13*
X247898Y245216D02*
X247453Y246140D01*
X246454Y246368D01*
X245652Y245729D01*
Y244704D01*
X246454Y244065D01*
X247453Y244293D01*
X247898Y245216D01*
D14*
X236732Y167240D02*
X237126D01*
X236732D01*
X299996Y201500D02*
X299602D01*
X299996D01*
X283142Y268858D02*
X300858D01*
X283142Y251142D02*
Y268858D01*
Y251142D02*
X300858D01*
Y268858D01*
X309433Y227020D02*
Y256980D01*
X338173D01*
Y227020D02*
Y256980D01*
X309433Y227020D02*
X338173D01*
X309433Y195020D02*
Y224980D01*
X338173D01*
Y195020D02*
Y224980D01*
X309433Y195020D02*
X338173D01*
X309433Y163020D02*
Y192980D01*
X338173D01*
Y163020D02*
Y192980D01*
X309433Y163020D02*
X338173D01*
X309433Y259020D02*
Y288980D01*
X338173D01*
Y259020D02*
Y288980D01*
X309433Y259020D02*
X338173D01*
X309433Y131020D02*
Y160980D01*
X338173D01*
Y131020D02*
Y160980D01*
X309433Y131020D02*
X338173D01*
X204567Y227020D02*
Y256980D01*
X175827Y227020D02*
X204567D01*
X175827D02*
Y256980D01*
X204567D01*
Y131020D02*
Y160980D01*
X175827Y131020D02*
X204567D01*
X175827D02*
Y160980D01*
X204567D01*
Y163020D02*
Y192980D01*
X175827Y163020D02*
X204567D01*
X175827D02*
Y192980D01*
X204567D01*
Y195020D02*
Y224980D01*
X175827Y195020D02*
X204567D01*
X175827D02*
Y224980D01*
X204567D01*
Y259020D02*
Y288980D01*
X175827Y259020D02*
X204567D01*
X175827D02*
Y288980D01*
X204567D01*
X285016Y292681D02*
X284229D01*
X284623D01*
Y290713D01*
X284229Y290319D01*
X283835D01*
X283442Y290713D01*
X285803Y290319D02*
X286590D01*
X286197D01*
Y292681D01*
X285803Y292287D01*
X287771Y290319D02*
X288558D01*
X288165D01*
Y292681D01*
X287771Y292287D01*
X302500Y267287D02*
X302106Y267681D01*
X301319D01*
X300926Y267287D01*
Y266894D01*
X301319Y266500D01*
X302106D01*
X302500Y266106D01*
Y265713D01*
X302106Y265319D01*
X301319D01*
X300926Y265713D01*
X303287Y265319D02*
X304074D01*
X303681D01*
Y267681D01*
X303287Y267287D01*
X211713Y214500D02*
X211319Y214106D01*
Y213319D01*
X211713Y212926D01*
X213287D01*
X213681Y213319D01*
Y214106D01*
X213287Y214500D01*
X213681Y215287D02*
Y216074D01*
Y215681D01*
X211319D01*
X211713Y215287D01*
X269926Y234681D02*
Y232713D01*
X270319Y232319D01*
X271106D01*
X271500Y232713D01*
Y234681D01*
X272287Y232319D02*
X273074D01*
X272681D01*
Y234681D01*
X272287Y234287D01*
X214901Y203926D02*
Y207074D01*
X216475D01*
X217000Y206550D01*
Y205500D01*
X216475Y204975D01*
X214901D01*
X218050Y203926D02*
X219099D01*
X218574D01*
Y207074D01*
X218050Y206550D01*
X236426Y213681D02*
Y213287D01*
X237213Y212500D01*
X238000Y213287D01*
Y213681D01*
X237213Y212500D02*
Y211319D01*
X238787D02*
X239574D01*
X239181D01*
Y213681D01*
X238787Y213287D01*
X213681Y244532D02*
X211319D01*
Y245713D01*
X211713Y246106D01*
X212500D01*
X212894Y245713D01*
Y244532D01*
Y245319D02*
X213681Y246106D01*
X211319Y248468D02*
Y246894D01*
X212500D01*
X212106Y247681D01*
Y248074D01*
X212500Y248468D01*
X213287D01*
X213681Y248074D01*
Y247287D01*
X213287Y246894D01*
X214181Y232532D02*
X211819D01*
Y233713D01*
X212213Y234106D01*
X213000D01*
X213394Y233713D01*
Y232532D01*
Y233319D02*
X214181Y234106D01*
Y236074D02*
X211819D01*
X213000Y234894D01*
Y236468D01*
X213681Y256532D02*
X211319D01*
Y257713D01*
X211713Y258106D01*
X212500D01*
X212894Y257713D01*
Y256532D01*
Y257319D02*
X213681Y258106D01*
X211713Y258894D02*
X211319Y259287D01*
Y260074D01*
X211713Y260468D01*
X212106D01*
X212500Y260074D01*
Y259681D01*
Y260074D01*
X212894Y260468D01*
X213287D01*
X213681Y260074D01*
Y259287D01*
X213287Y258894D01*
X213681Y268532D02*
X211319D01*
Y269713D01*
X211713Y270106D01*
X212500D01*
X212894Y269713D01*
Y268532D01*
Y269319D02*
X213681Y270106D01*
Y272468D02*
Y270894D01*
X212106Y272468D01*
X211713D01*
X211319Y272074D01*
Y271287D01*
X211713Y270894D01*
X300015Y218823D02*
X297654D01*
Y220004D01*
X298047Y220398D01*
X298835D01*
X299228Y220004D01*
Y218823D01*
Y219611D02*
X300015Y220398D01*
Y221185D02*
Y221972D01*
Y221578D01*
X297654D01*
X298047Y221185D01*
X256532Y186181D02*
Y183819D01*
X258106D01*
X260468D02*
X258894D01*
X260468Y185394D01*
Y185787D01*
X260074Y186181D01*
X259287D01*
X258894Y185787D01*
X261000Y292961D02*
Y290600D01*
X262574D01*
X263361D02*
X264149D01*
X263755D01*
Y292961D01*
X263361Y292568D01*
X172319Y187122D02*
Y186335D01*
Y186729D01*
X174287D01*
X174681Y186335D01*
Y185942D01*
X174287Y185548D01*
X174681Y187910D02*
Y188697D01*
Y188303D01*
X172319D01*
X172713Y187910D01*
Y189877D02*
X172319Y190271D01*
Y191058D01*
X172713Y191452D01*
X174287D01*
X174681Y191058D01*
Y190271D01*
X174287Y189877D01*
X172713D01*
X172319Y157606D02*
Y156819D01*
Y157213D01*
X174287D01*
X174681Y156819D01*
Y156426D01*
X174287Y156032D01*
Y158394D02*
X174681Y158787D01*
Y159574D01*
X174287Y159968D01*
X172713D01*
X172319Y159574D01*
Y158787D01*
X172713Y158394D01*
X173106D01*
X173500Y158787D01*
Y159968D01*
X172319Y221106D02*
Y220319D01*
Y220713D01*
X174287D01*
X174681Y220319D01*
Y219926D01*
X174287Y219532D01*
X172713Y221894D02*
X172319Y222287D01*
Y223074D01*
X172713Y223468D01*
X173106D01*
X173500Y223074D01*
X173894Y223468D01*
X174287D01*
X174681Y223074D01*
Y222287D01*
X174287Y221894D01*
X173894D01*
X173500Y222287D01*
X173106Y221894D01*
X172713D01*
X173500Y222287D02*
Y223074D01*
X306319Y286606D02*
Y285819D01*
Y286213D01*
X308287D01*
X308681Y285819D01*
Y285426D01*
X308287Y285032D01*
X306319Y287394D02*
Y288968D01*
X306713D01*
X308287Y287394D01*
X308681D01*
X305819Y254106D02*
Y253319D01*
Y253713D01*
X307787D01*
X308181Y253319D01*
Y252926D01*
X307787Y252532D01*
X305819Y256468D02*
X306213Y255681D01*
X307000Y254894D01*
X307787D01*
X308181Y255287D01*
Y256074D01*
X307787Y256468D01*
X307394D01*
X307000Y256074D01*
Y254894D01*
X306319Y221606D02*
Y220819D01*
Y221213D01*
X308287D01*
X308681Y220819D01*
Y220426D01*
X308287Y220032D01*
X306319Y223968D02*
Y222394D01*
X307500D01*
X307106Y223181D01*
Y223574D01*
X307500Y223968D01*
X308287D01*
X308681Y223574D01*
Y222787D01*
X308287Y222394D01*
X305819Y189606D02*
Y188819D01*
Y189213D01*
X307787D01*
X308181Y188819D01*
Y188426D01*
X307787Y188032D01*
X308181Y191574D02*
X305819D01*
X307000Y190394D01*
Y191968D01*
X305819Y158106D02*
Y157319D01*
Y157713D01*
X307787D01*
X308181Y157319D01*
Y156926D01*
X307787Y156532D01*
X306213Y158894D02*
X305819Y159287D01*
Y160074D01*
X306213Y160468D01*
X306606D01*
X307000Y160074D01*
Y159681D01*
Y160074D01*
X307394Y160468D01*
X307787D01*
X308181Y160074D01*
Y159287D01*
X307787Y158894D01*
X172319Y254606D02*
Y253819D01*
Y254213D01*
X174287D01*
X174681Y253819D01*
Y253426D01*
X174287Y253032D01*
X174681Y256968D02*
Y255394D01*
X173106Y256968D01*
X172713D01*
X172319Y256574D01*
Y255787D01*
X172713Y255394D01*
X172319Y286000D02*
Y285213D01*
Y285606D01*
X174287D01*
X174681Y285213D01*
Y284819D01*
X174287Y284426D01*
X174681Y286787D02*
Y287574D01*
Y287181D01*
X172319D01*
X172713Y286787D01*
X235442Y172181D02*
X236229D01*
X235835D01*
Y169819D01*
X235442D01*
X236229D01*
X238984Y171787D02*
X238590Y172181D01*
X237803D01*
X237410Y171787D01*
Y170213D01*
X237803Y169819D01*
X238590D01*
X238984Y170213D01*
X239771Y169819D02*
X240558D01*
X240165D01*
Y172181D01*
X239771Y171787D01*
X210819Y222032D02*
X213181D01*
Y223213D01*
X212787Y223606D01*
X211213D01*
X210819Y223213D01*
Y222032D01*
X213181Y225968D02*
Y224394D01*
X211606Y225968D01*
X211213D01*
X210819Y225574D01*
Y224787D01*
X211213Y224394D01*
X295819Y227926D02*
X298181D01*
Y229106D01*
X297787Y229500D01*
X296213D01*
X295819Y229106D01*
Y227926D01*
X298181Y230287D02*
Y231074D01*
Y230681D01*
X295819D01*
X296213Y230287D01*
X278623Y153287D02*
X278229Y153681D01*
X277442D01*
X277048Y153287D01*
Y151713D01*
X277442Y151319D01*
X278229D01*
X278623Y151713D01*
X279410Y151319D02*
X280197D01*
X279803D01*
Y153681D01*
X279410Y153287D01*
X281378D02*
X281771Y153681D01*
X282558D01*
X282952Y153287D01*
Y151713D01*
X282558Y151319D01*
X281771D01*
X281378Y151713D01*
Y153287D01*
X261606D02*
X261213Y153681D01*
X260426D01*
X260032Y153287D01*
Y151713D01*
X260426Y151319D01*
X261213D01*
X261606Y151713D01*
X262394D02*
X262787Y151319D01*
X263574D01*
X263968Y151713D01*
Y153287D01*
X263574Y153681D01*
X262787D01*
X262394Y153287D01*
Y152894D01*
X262787Y152500D01*
X263968D01*
X244106Y153287D02*
X243713Y153681D01*
X242926D01*
X242532Y153287D01*
Y151713D01*
X242926Y151319D01*
X243713D01*
X244106Y151713D01*
X244894Y153287D02*
X245287Y153681D01*
X246074D01*
X246468Y153287D01*
Y152894D01*
X246074Y152500D01*
X246468Y152106D01*
Y151713D01*
X246074Y151319D01*
X245287D01*
X244894Y151713D01*
Y152106D01*
X245287Y152500D01*
X244894Y152894D01*
Y153287D01*
X245287Y152500D02*
X246074D01*
X245606Y184787D02*
X245213Y185181D01*
X244426D01*
X244032Y184787D01*
Y183213D01*
X244426Y182819D01*
X245213D01*
X245606Y183213D01*
X246394Y185181D02*
X247968D01*
Y184787D01*
X246394Y183213D01*
Y182819D01*
X238106Y227287D02*
X237713Y227681D01*
X236926D01*
X236532Y227287D01*
Y225713D01*
X236926Y225319D01*
X237713D01*
X238106Y225713D01*
X240468Y227681D02*
X239681Y227287D01*
X238894Y226500D01*
Y225713D01*
X239287Y225319D01*
X240074D01*
X240468Y225713D01*
Y226106D01*
X240074Y226500D01*
X238894D01*
X268106Y216787D02*
X267713Y217181D01*
X266926D01*
X266532Y216787D01*
Y215213D01*
X266926Y214819D01*
X267713D01*
X268106Y215213D01*
X270468Y217181D02*
X268894D01*
Y216000D01*
X269681Y216394D01*
X270074D01*
X270468Y216000D01*
Y215213D01*
X270074Y214819D01*
X269287D01*
X268894Y215213D01*
X230374Y292868D02*
X229981Y293261D01*
X229194D01*
X228800Y292868D01*
Y291294D01*
X229194Y290900D01*
X229981D01*
X230374Y291294D01*
X232342Y290900D02*
Y293261D01*
X231161Y292081D01*
X232736D01*
X245374Y292868D02*
X244981Y293261D01*
X244194D01*
X243800Y292868D01*
Y291294D01*
X244194Y290900D01*
X244981D01*
X245374Y291294D01*
X246161Y292868D02*
X246555Y293261D01*
X247342D01*
X247736Y292868D01*
Y292474D01*
X247342Y292081D01*
X246949D01*
X247342D01*
X247736Y291687D01*
Y291294D01*
X247342Y290900D01*
X246555D01*
X246161Y291294D01*
D15*
X283386Y134154D02*
X283593Y133536D01*
Y134773D01*
X283386Y134154D01*
X282974Y134567D01*
X282356Y134773D01*
X281943D01*
X281325Y134567D01*
X280912Y134154D01*
X280706Y133742D01*
X280500Y133124D01*
Y132093D01*
X280706Y131474D01*
X280912Y131062D01*
X281325Y130649D01*
X281943Y130443D01*
X282356D01*
X282974Y130649D01*
X283386Y131062D01*
X281943Y134773D02*
X281531Y134567D01*
X281118Y134154D01*
X280912Y133742D01*
X280706Y133124D01*
Y132093D01*
X280912Y131474D01*
X281118Y131062D01*
X281531Y130649D01*
X281943Y130443D01*
X283386Y132093D02*
Y130443D01*
X283593Y132093D02*
Y130443D01*
X282768Y132093D02*
X284211D01*
X285386Y133330D02*
Y130443D01*
X285593Y133330D02*
Y130443D01*
Y132093D02*
X285799Y132711D01*
X286211Y133124D01*
X286624Y133330D01*
X287242D01*
X287448Y133124D01*
Y132917D01*
X287242Y132711D01*
X287036Y132917D01*
X287242Y133124D01*
X284768Y133330D02*
X285593D01*
X284768Y130443D02*
X286211D01*
X288520Y132917D02*
Y132711D01*
X288314D01*
Y132917D01*
X288520Y133124D01*
X288933Y133330D01*
X289757D01*
X290170Y133124D01*
X290376Y132917D01*
X290582Y132505D01*
Y131062D01*
X290788Y130649D01*
X290995Y130443D01*
X290376Y132917D02*
Y131062D01*
X290582Y130649D01*
X290995Y130443D01*
X291201D01*
X290376Y132505D02*
X290170Y132299D01*
X288933Y132093D01*
X288314Y131886D01*
X288108Y131474D01*
Y131062D01*
X288314Y130649D01*
X288933Y130443D01*
X289551D01*
X289964Y130649D01*
X290376Y131062D01*
X288933Y132093D02*
X288520Y131886D01*
X288314Y131474D01*
Y131062D01*
X288520Y130649D01*
X288933Y130443D01*
X292232Y133330D02*
X293469Y130443D01*
X292438Y133330D02*
X293469Y130856D01*
X294706Y133330D02*
X293469Y130443D01*
X291819Y133330D02*
X293056D01*
X293881D02*
X295118D01*
X296335Y134773D02*
X296129Y134567D01*
X296335Y134361D01*
X296541Y134567D01*
X296335Y134773D01*
Y133330D02*
Y130443D01*
X296541Y133330D02*
Y130443D01*
X295716Y133330D02*
X296541D01*
X295716Y130443D02*
X297159D01*
X299180D02*
X298974Y130649D01*
X298768Y131268D01*
Y134773D01*
X298561D01*
Y131268D01*
X298768Y130649D01*
X299180Y130443D01*
X299592D01*
X300005Y130649D01*
X300211Y131062D01*
X297943Y133330D02*
X299592D01*
X301324D02*
X302561Y130443D01*
X301530Y133330D02*
X302561Y130856D01*
X303798Y133330D02*
X302561Y130443D01*
X302149Y129619D01*
X301736Y129206D01*
X301324Y129000D01*
X301118D01*
X300912Y129206D01*
X301118Y129412D01*
X301324Y129206D01*
X300912Y133330D02*
X302149D01*
X302974D02*
X304211D01*
D16*
X249082Y214525D02*
X248819Y214787D01*
X248294D01*
X248032Y214525D01*
Y213475D01*
X248294Y213213D01*
X248819D01*
X249082Y213475D01*
X249606Y213213D02*
X250131D01*
X249869D01*
Y214787D01*
X249606Y214525D01*
X250918D02*
X251181Y214787D01*
X251706D01*
X251968Y214525D01*
Y214262D01*
X251706Y214000D01*
X251968Y213738D01*
Y213475D01*
X251706Y213213D01*
X251181D01*
X250918Y213475D01*
Y213738D01*
X251181Y214000D01*
X250918Y214262D01*
Y214525D01*
X251181Y214000D02*
X251706D01*
X262475Y214738D02*
X262213Y214475D01*
Y213950D01*
X262475Y213688D01*
X263525D01*
X263787Y213950D01*
Y214475D01*
X263525Y214738D01*
X263787Y216312D02*
Y215262D01*
X262738Y216312D01*
X262475D01*
X262213Y216050D01*
Y215525D01*
X262475Y215262D01*
D17*
X280520Y229500D02*
D03*
M02*
