G04*
G04 #@! TF.GenerationSoftware,Altium Limited,Altium Designer,23.3.1 (30)*
G04*
G04 Layer_Color=2752767*
%FSLAX25Y25*%
%MOIN*%
G70*
G04*
G04 #@! TF.SameCoordinates,DDE6331C-4F95-4F18-AA14-E53DA5D8DD09*
G04*
G04*
G04 #@! TF.FilePolarity,Positive*
G04*
G01*
G75*
%ADD74C,0.00500*%
%ADD75C,0.00667*%
D74*
X285126Y283000D02*
X286126Y284000D01*
X287126D01*
X286126Y285000D01*
X287126Y286000D01*
X286126D01*
X285126Y287000D01*
X284126Y286000D01*
X283126D01*
X284126Y285000D01*
X283126Y284000D01*
X284126D01*
X285126Y283000D01*
X293000D02*
X294000Y284000D01*
X295000D01*
X294000Y285000D01*
X295000Y286000D01*
X294000D01*
X293000Y287000D01*
X292000Y286000D01*
X291000D01*
X292000Y285000D01*
X291000Y284000D01*
X292000D01*
X293000Y283000D01*
X300874D02*
X301874Y284000D01*
X302874D01*
X301874Y285000D01*
X302874Y286000D01*
X301874D01*
X300874Y287000D01*
X299874Y286000D01*
X298874D01*
X299874Y285000D01*
X298874Y284000D01*
X299874D01*
X300874Y283000D01*
X322000Y232500D02*
Y236500D01*
X326000D01*
Y232500D01*
X322000D01*
Y247500D02*
Y251500D01*
X326000D01*
Y247500D01*
X322000D01*
Y200500D02*
Y204500D01*
X326000D01*
Y200500D01*
X322000D01*
Y215500D02*
Y219500D01*
X326000D01*
Y215500D01*
X322000D01*
Y168500D02*
Y172500D01*
X326000D01*
Y168500D01*
X322000D01*
Y183500D02*
Y187500D01*
X326000D01*
Y183500D01*
X322000D01*
Y264500D02*
Y268500D01*
X326000D01*
Y264500D01*
X322000D01*
Y279500D02*
Y283500D01*
X326000D01*
Y279500D01*
X322000D01*
Y136500D02*
Y140500D01*
X326000D01*
Y136500D01*
X322000D01*
Y151500D02*
Y155500D01*
X326000D01*
Y151500D01*
X322000D01*
X188000Y247500D02*
Y251500D01*
X192000D01*
Y247500D01*
X188000D01*
Y232500D02*
Y236500D01*
X192000D01*
Y232500D01*
X188000D01*
Y151500D02*
Y155500D01*
X192000D01*
Y151500D01*
X188000D01*
Y136500D02*
Y140500D01*
X192000D01*
Y136500D01*
X188000D01*
Y183500D02*
Y187500D01*
X192000D01*
Y183500D01*
X188000D01*
Y168500D02*
Y172500D01*
X192000D01*
Y168500D01*
X188000D01*
Y215500D02*
Y219500D01*
X192000D01*
Y215500D01*
X188000D01*
Y200500D02*
Y204500D01*
X192000D01*
Y200500D01*
X188000D01*
Y279500D02*
Y283500D01*
X192000D01*
Y279500D01*
X188000D01*
Y264500D02*
Y268500D01*
X192000D01*
Y264500D01*
X188000D01*
X254000Y158000D02*
X252000Y162000D01*
X256000D01*
X254000Y158000D01*
X278500Y291500D02*
X276500Y295500D01*
X280500D01*
X278500Y291500D01*
X279000Y263500D02*
X277000Y267500D01*
X281000D01*
X279000Y263500D01*
X260500Y259500D02*
X258500Y263500D01*
X262500D01*
X260500Y259500D01*
X250500Y291500D02*
X248500Y295500D01*
X252500D01*
X250500Y291500D01*
X258000D02*
X256000Y295500D01*
X260000D01*
X258000Y291500D01*
X222500Y284000D02*
X220500Y288000D01*
X224500D01*
X222500Y284000D01*
X278000Y252500D02*
X276000Y256500D01*
X280000D01*
X278000Y252500D01*
X303500Y244000D02*
X301500Y248000D01*
X305500D01*
X303500Y244000D01*
X217500Y275500D02*
X215500Y279500D01*
X219500D01*
X217500Y275500D01*
X244000Y258500D02*
X242000Y262500D01*
X246000D01*
X244000Y258500D01*
Y255000D02*
X242000Y259000D01*
X246000D01*
X244000Y255000D01*
X231500Y233500D02*
X229500Y237500D01*
X233500D01*
X231500Y233500D01*
X234500Y232000D02*
X232500Y236000D01*
X236500D01*
X234500Y232000D01*
X237500Y230500D02*
X235500Y234500D01*
X239500D01*
X237500Y230500D01*
X253000Y145500D02*
X251000Y149500D01*
X255000D01*
X253000Y145500D01*
X290500D02*
X288500Y149500D01*
X292500D01*
X290500Y145500D01*
X299000Y228500D02*
X297000Y232500D01*
X301000D01*
X299000Y228500D01*
X249500Y229000D02*
X247500Y233000D01*
X251500D01*
X249500Y229000D01*
X253811Y210811D02*
X251811Y214811D01*
X255811D01*
X253811Y210811D01*
X260000Y211000D02*
X258000Y215000D01*
X262000D01*
X260000Y211000D01*
X244000Y261500D02*
X242000Y265500D01*
X246000D01*
X244000Y261500D01*
X217500Y250000D02*
X215500Y254000D01*
X219500D01*
X217500Y250000D01*
X276500Y227500D02*
X274500Y231500D01*
X278500D01*
X276500Y227500D01*
X272500Y213500D02*
X270500Y217500D01*
X274500D01*
X272500Y213500D01*
X236047D02*
X234047Y217500D01*
X238047D01*
X236047Y213500D01*
X350000Y115500D02*
X351000Y117500D01*
X350000Y119500D01*
X352000Y118500D01*
X354000Y119500D01*
X353000Y117500D01*
X354000Y115500D01*
X352000Y116500D01*
X350000Y115500D01*
Y300500D02*
X351000Y302500D01*
X350000Y304500D01*
X352000Y303500D01*
X354000Y304500D01*
X353000Y302500D01*
X354000Y300500D01*
X352000Y301500D01*
X350000Y300500D01*
X159500Y115500D02*
X160500Y117500D01*
X159500Y119500D01*
X161500Y118500D01*
X163500Y119500D01*
X162500Y117500D01*
X163500Y115500D01*
X161500Y116500D01*
X159500Y115500D01*
Y300500D02*
X160500Y302500D01*
X159500Y304500D01*
X161500Y303500D01*
X163500Y304500D01*
X162500Y302500D01*
X163500Y300500D01*
X161500Y301500D01*
X159500Y300500D01*
D75*
X221500Y147000D02*
X221271Y147929D01*
X220636Y148646D01*
X219741Y148985D01*
X218791Y148870D01*
X218003Y148326D01*
X217558Y147479D01*
Y146521D01*
X218003Y145674D01*
X218791Y145130D01*
X219741Y145015D01*
X220636Y145354D01*
X221271Y146071D01*
X221500Y147000D01*
Y157000D02*
X221271Y157929D01*
X220636Y158646D01*
X219741Y158985D01*
X218791Y158870D01*
X218003Y158326D01*
X217558Y157479D01*
Y156521D01*
X218003Y155674D01*
X218791Y155130D01*
X219741Y155015D01*
X220636Y155354D01*
X221271Y156071D01*
X221500Y157000D01*
Y167000D02*
X221271Y167929D01*
X220636Y168646D01*
X219741Y168985D01*
X218791Y168870D01*
X218003Y168326D01*
X217558Y167479D01*
Y166521D01*
X218003Y165674D01*
X218791Y165130D01*
X219741Y165015D01*
X220636Y165354D01*
X221271Y166071D01*
X221500Y167000D01*
Y177000D02*
X221271Y177929D01*
X220636Y178646D01*
X219741Y178985D01*
X218791Y178870D01*
X218003Y178326D01*
X217558Y177479D01*
Y176521D01*
X218003Y175674D01*
X218791Y175130D01*
X219741Y175015D01*
X220636Y175354D01*
X221271Y176071D01*
X221500Y177000D01*
Y187000D02*
X221271Y187929D01*
X220636Y188646D01*
X219741Y188985D01*
X218791Y188870D01*
X218003Y188326D01*
X217558Y187479D01*
Y186521D01*
X218003Y185674D01*
X218791Y185130D01*
X219741Y185015D01*
X220636Y185354D01*
X221271Y186071D01*
X221500Y187000D01*
Y197000D02*
X221271Y197929D01*
X220636Y198646D01*
X219741Y198985D01*
X218791Y198870D01*
X218003Y198326D01*
X217558Y197479D01*
Y196521D01*
X218003Y195674D01*
X218791Y195130D01*
X219741Y195015D01*
X220636Y195354D01*
X221271Y196071D01*
X221500Y197000D01*
M02*
