G04*
G04 #@! TF.GenerationSoftware,Altium Limited,Altium Designer,23.3.1 (30)*
G04*
G04 Layer_Physical_Order=4*
G04 Layer_Color=16711680*
%FSLAX25Y25*%
%MOIN*%
G70*
G04*
G04 #@! TF.SameCoordinates,DDE6331C-4F95-4F18-AA14-E53DA5D8DD09*
G04*
G04*
G04 #@! TF.FilePolarity,Positive*
G04*
G01*
G75*
%ADD10C,0.00984*%
%ADD19R,0.04528X0.05709*%
%ADD28R,0.03367X0.04969*%
%ADD44C,0.05472*%
%ADD45R,0.05472X0.05472*%
%ADD51C,0.00591*%
%ADD52C,0.01181*%
%ADD54R,0.06102X0.06102*%
%ADD55C,0.06102*%
%ADD56R,0.06496X0.06496*%
%ADD57C,0.06496*%
%ADD58C,0.01772*%
%ADD59C,0.15748*%
%ADD60R,0.06004X0.02756*%
%ADD61R,0.04942X0.05756*%
%ADD62R,0.03740X0.05709*%
%ADD63R,0.01575X0.01575*%
%ADD64R,0.04134X0.05709*%
%ADD65R,0.03347X0.05315*%
%ADD66R,0.04545X0.05339*%
D10*
X276000Y281000D02*
X281000D01*
X271872Y286416D02*
X273228Y285059D01*
Y283772D02*
X276000Y281000D01*
X273228Y283772D02*
Y285059D01*
X281000Y281000D02*
X284500Y277500D01*
Y265161D02*
Y277500D01*
X266000Y286500D02*
X271478D01*
X262000Y297500D02*
X266000Y293500D01*
X176500Y278000D02*
X196000Y297500D01*
X262000D01*
X283339Y264000D02*
X284500Y265161D01*
X266000Y286500D02*
Y293500D01*
X176500Y180500D02*
Y278000D01*
X186212Y170788D02*
X189712D01*
X190000Y170500D01*
X176500Y180500D02*
X186212Y170788D01*
D19*
X235043Y286500D02*
D03*
X227957D02*
D03*
X242457D02*
D03*
X249543D02*
D03*
X264043D02*
D03*
X256957D02*
D03*
X271457D02*
D03*
X278543D02*
D03*
X262543Y231500D02*
D03*
X255457D02*
D03*
X237543Y277000D02*
D03*
X230457D02*
D03*
X282957Y230500D02*
D03*
X290043D02*
D03*
D28*
X237250Y268500D02*
D03*
X230750D02*
D03*
D44*
X285126Y285000D02*
D03*
X293000D02*
D03*
D45*
X300874D02*
D03*
D51*
X267500Y268500D02*
X276000D01*
X279000Y265500D01*
X260500Y261500D02*
X267500Y268500D01*
X275736Y261000D02*
X282752Y253984D01*
X271177Y261000D02*
X275736D01*
X242000Y254000D02*
Y258500D01*
X244000Y260500D01*
Y257000D02*
X248823D01*
X249823Y256000D01*
X244781Y251219D02*
X249604D01*
X242000Y254000D02*
X244781Y251219D01*
X249604D02*
X249823Y251000D01*
X282358Y243000D02*
Y252606D01*
X282752Y253000D02*
Y253984D01*
X282358Y252606D02*
X282752Y253000D01*
X231500Y228000D02*
Y235500D01*
X237662Y231338D02*
X299000Y170000D01*
X237662Y231338D02*
Y232338D01*
X234500Y229500D02*
Y234000D01*
X237500Y232500D02*
X237662Y232338D01*
X323212Y139288D02*
X324000Y138500D01*
X320212Y139288D02*
X323212D01*
X231500Y228000D02*
X320212Y139288D01*
X234500Y229500D02*
X310500Y153500D01*
X324000D01*
X299000Y170000D02*
X324000D01*
X280606Y271000D02*
X282531Y272925D01*
X271177Y271000D02*
X280606D01*
X255457Y232090D02*
X257425Y234059D01*
X257425D02*
X264366Y241000D01*
X255457Y230909D02*
Y231500D01*
X257425Y234059D02*
X257425D01*
X264366Y241000D02*
X269553D01*
X190000Y203130D02*
X229463Y242593D01*
X190000Y202500D02*
Y203130D01*
X229463Y242593D02*
Y243000D01*
X195870Y217500D02*
X229463Y251093D01*
X190000Y217500D02*
X195870D01*
X229463Y251093D02*
Y251500D01*
X262543Y231500D02*
X270500D01*
X276000Y237000D02*
Y242801D01*
X270500Y231500D02*
X276000Y237000D01*
X272801Y246000D02*
X276000Y242801D01*
X269553Y241000D02*
X271177D01*
X267480Y243073D02*
X269553Y241000D01*
X237611Y243073D02*
X267480D01*
X255457Y231500D02*
Y232090D01*
X271177Y246000D02*
X272801D01*
X244500Y248500D02*
X267000D01*
X237537Y251500D02*
X241500D01*
X244500Y248500D01*
X237537Y243000D02*
X237611Y243073D01*
X237250Y260089D02*
X237339Y260000D01*
X237250Y260089D02*
Y268500D01*
X268417Y247083D02*
X270094D01*
X268000Y247500D02*
X268417Y247083D01*
X267000Y248500D02*
X268000Y247500D01*
Y247500D02*
Y247500D01*
X270094Y247083D02*
X271177Y246000D01*
X246199Y269000D02*
X248199Y271000D01*
X238638Y269000D02*
X246199D01*
X248199Y271000D02*
X249823D01*
X271177Y266000D02*
X271896Y265281D01*
X274719D02*
X281500Y258500D01*
X285000D01*
X271896Y265281D02*
X274719D01*
X285000Y258500D02*
X287870Y255630D01*
X289248Y254252D02*
Y263413D01*
Y253000D02*
Y254252D01*
X288980D02*
X289248D01*
X287870Y255362D02*
X288980Y254252D01*
X287870Y255362D02*
Y255630D01*
X286469Y274500D02*
X288661Y272307D01*
Y264000D02*
Y272307D01*
Y264000D02*
X289248Y263413D01*
X277500Y238000D02*
X281000Y234500D01*
X272801Y251000D02*
X277500Y246301D01*
Y238000D02*
Y246301D01*
X281000Y232457D02*
X282957Y230500D01*
X281000Y232457D02*
Y234500D01*
X271177Y251000D02*
X272801D01*
D52*
X278500Y287543D02*
Y293500D01*
Y287543D02*
X279543Y286500D01*
X242957Y281242D02*
X244000Y280199D01*
X242957Y281242D02*
Y286500D01*
X236000D02*
X242957D01*
X236000Y278543D02*
Y286500D01*
Y278543D02*
X237543Y277000D01*
X228957Y286000D02*
Y286500D01*
X250500Y286211D02*
Y293500D01*
X257457Y286500D02*
X258000Y287043D01*
Y293500D01*
X228957Y278500D02*
Y286000D01*
X222500D02*
X227957D01*
X228457Y286500D01*
X228957Y278500D02*
X230457Y277000D01*
X276340Y256000D02*
X277840Y254500D01*
X278000D01*
X271177Y256000D02*
X276340D01*
X244000Y280199D02*
X248199Y276000D01*
X290043Y230500D02*
X299000D01*
X245812Y263613D02*
X248199Y266000D01*
X249823D01*
X244000Y263500D02*
X244113Y263613D01*
X245812D01*
X228382Y257736D02*
X229661Y259016D01*
Y260000D01*
X227398Y257736D02*
X228382D01*
X221661Y252000D02*
X227398Y257736D01*
X217500Y252000D02*
X221661D01*
X289642Y230902D02*
X290043Y230500D01*
X289642Y230902D02*
Y243000D01*
X249823Y276000D02*
X271177D01*
X248199D02*
X249823D01*
X203000Y268500D02*
X230750D01*
X190000Y281500D02*
X203000Y268500D01*
X230750Y269301D02*
X235870Y274421D01*
Y274736D02*
X237543Y276410D01*
X230750Y268500D02*
Y269301D01*
X235870Y274421D02*
Y274736D01*
X271215Y276037D02*
X282494D01*
X282531Y276075D01*
X271177Y276000D02*
X271215Y276037D01*
D54*
X219500Y147000D02*
D03*
D55*
Y157000D02*
D03*
Y167000D02*
D03*
Y177000D02*
D03*
Y187000D02*
D03*
Y197000D02*
D03*
D56*
X324000Y234500D02*
D03*
Y202500D02*
D03*
Y170500D02*
D03*
Y266500D02*
D03*
Y138500D02*
D03*
X190000Y249500D02*
D03*
Y153500D02*
D03*
Y185500D02*
D03*
Y217500D02*
D03*
Y281500D02*
D03*
D57*
X324000Y249500D02*
D03*
Y217500D02*
D03*
Y185500D02*
D03*
Y281500D02*
D03*
Y153500D02*
D03*
X190000Y234500D02*
D03*
Y138500D02*
D03*
Y170500D02*
D03*
Y202500D02*
D03*
Y266500D02*
D03*
D58*
X254000Y160000D02*
D03*
X278500Y293500D02*
D03*
X279000Y265500D02*
D03*
X260500Y261500D02*
D03*
X250500Y293500D02*
D03*
X258000D02*
D03*
X222500Y286000D02*
D03*
X278000Y254500D02*
D03*
X303500Y246000D02*
D03*
X217500Y277500D02*
D03*
X244000Y260500D02*
D03*
Y257000D02*
D03*
X231500Y235500D02*
D03*
X234500Y234000D02*
D03*
X237500Y232500D02*
D03*
X253000Y147500D02*
D03*
X290500D02*
D03*
X299000Y230500D02*
D03*
X249500Y231000D02*
D03*
X253811Y212811D02*
D03*
X260000Y213000D02*
D03*
X244000Y263500D02*
D03*
X217500Y252000D02*
D03*
X276500Y229500D02*
D03*
X272500Y215500D02*
D03*
X236047D02*
D03*
D59*
X352000Y117500D02*
D03*
Y302500D02*
D03*
X161500Y117500D02*
D03*
Y302500D02*
D03*
D60*
X249823Y276000D02*
D03*
Y271000D02*
D03*
Y266000D02*
D03*
Y261000D02*
D03*
Y256000D02*
D03*
Y251000D02*
D03*
Y246000D02*
D03*
Y241000D02*
D03*
X271177D02*
D03*
Y246000D02*
D03*
Y251000D02*
D03*
Y256000D02*
D03*
Y261000D02*
D03*
Y266000D02*
D03*
Y271000D02*
D03*
Y276000D02*
D03*
D61*
X237537Y251500D02*
D03*
X229463D02*
D03*
X237537Y243000D02*
D03*
X229463D02*
D03*
D62*
X229661Y260000D02*
D03*
X237339D02*
D03*
D63*
X286469Y274500D02*
D03*
X282531Y276075D02*
D03*
Y272925D02*
D03*
D64*
X289642Y243000D02*
D03*
X282358D02*
D03*
D65*
X282752Y253000D02*
D03*
X289248D02*
D03*
D66*
X288661Y264000D02*
D03*
X283339D02*
D03*
M02*
