G04*
G04 #@! TF.GenerationSoftware,Altium Limited,Altium Designer,23.3.1 (30)*
G04*
G04 Layer_Color=255*
%FSLAX25Y25*%
%MOIN*%
G70*
G04*
G04 #@! TF.SameCoordinates,DDE6331C-4F95-4F18-AA14-E53DA5D8DD09*
G04*
G04*
G04 #@! TF.FilePolarity,Positive*
G04*
G01*
G75*
%ADD18R,0.05512X0.06299*%
%ADD19R,0.04528X0.05709*%
%ADD20O,0.02362X0.07677*%
%ADD21O,0.07677X0.02362*%
%ADD22R,0.03937X0.02756*%
%ADD23R,0.11221X0.12598*%
%ADD24R,0.05709X0.04528*%
%ADD25R,0.22047X0.08268*%
%ADD26R,0.04331X0.05118*%
%ADD27R,0.03937X0.05512*%
%ADD28R,0.03367X0.04969*%
%ADD29R,0.04921X0.06102*%
%ADD30R,0.03740X0.05315*%
%ADD31R,0.04724X0.02756*%
%ADD44C,0.05472*%
%ADD45R,0.05472X0.05472*%
%ADD54R,0.06102X0.06102*%
%ADD55C,0.06102*%
%ADD56R,0.06496X0.06496*%
%ADD57C,0.06496*%
D18*
X297905Y245827D02*
D03*
Y274173D02*
D03*
X286094Y245827D02*
D03*
Y274173D02*
D03*
D19*
X224043Y214000D02*
D03*
X216957D02*
D03*
X240457Y147500D02*
D03*
X247543D02*
D03*
X242457Y179000D02*
D03*
X249543D02*
D03*
X265543Y147500D02*
D03*
X258457D02*
D03*
X276457D02*
D03*
X283543D02*
D03*
X248957Y282000D02*
D03*
X256043D02*
D03*
X233957D02*
D03*
X241043D02*
D03*
D20*
X242976Y235768D02*
D03*
X246126D02*
D03*
X249276D02*
D03*
X252425D02*
D03*
X255575D02*
D03*
X258724D02*
D03*
X261874D02*
D03*
X265024D02*
D03*
Y269232D02*
D03*
X261874D02*
D03*
X258724D02*
D03*
X255575D02*
D03*
X252425D02*
D03*
X249276D02*
D03*
X246126D02*
D03*
X242976D02*
D03*
D21*
X270732Y241476D02*
D03*
Y244626D02*
D03*
Y247776D02*
D03*
Y250925D02*
D03*
Y254075D02*
D03*
Y257224D02*
D03*
Y260374D02*
D03*
Y263524D02*
D03*
X237268D02*
D03*
Y260374D02*
D03*
Y257224D02*
D03*
Y254075D02*
D03*
Y250925D02*
D03*
Y247776D02*
D03*
Y244626D02*
D03*
Y241476D02*
D03*
D22*
X240673Y167240D02*
D03*
Y163500D02*
D03*
Y159760D02*
D03*
X249327D02*
D03*
Y163500D02*
D03*
Y167240D02*
D03*
D23*
X284720Y168500D02*
D03*
X262280D02*
D03*
D24*
X250500Y218457D02*
D03*
Y225543D02*
D03*
X258000Y218457D02*
D03*
Y225543D02*
D03*
D25*
X287201Y201500D02*
D03*
X249799D02*
D03*
D26*
X283866Y229500D02*
D03*
X292134D02*
D03*
D27*
X274512Y282000D02*
D03*
X263488D02*
D03*
D28*
X223750Y258000D02*
D03*
X217250D02*
D03*
X223750Y246000D02*
D03*
X217250D02*
D03*
Y234000D02*
D03*
X223750D02*
D03*
Y270000D02*
D03*
X217250D02*
D03*
D29*
X283799Y220398D02*
D03*
X291870D02*
D03*
D30*
X272453Y221500D02*
D03*
X266547D02*
D03*
X236047Y221000D02*
D03*
X241953D02*
D03*
D31*
X217154Y224500D02*
D03*
X223847D02*
D03*
D44*
X285126Y285000D02*
D03*
X293000D02*
D03*
D45*
X300874D02*
D03*
D54*
X219500Y147000D02*
D03*
D55*
Y157000D02*
D03*
Y167000D02*
D03*
Y177000D02*
D03*
Y187000D02*
D03*
Y197000D02*
D03*
D56*
X324000Y234500D02*
D03*
Y202500D02*
D03*
Y170500D02*
D03*
Y266500D02*
D03*
Y138500D02*
D03*
X190000Y249500D02*
D03*
Y153500D02*
D03*
Y185500D02*
D03*
Y217500D02*
D03*
Y281500D02*
D03*
D57*
X324000Y249500D02*
D03*
Y217500D02*
D03*
Y185500D02*
D03*
Y281500D02*
D03*
Y153500D02*
D03*
X190000Y234500D02*
D03*
Y138500D02*
D03*
Y170500D02*
D03*
Y202500D02*
D03*
Y266500D02*
D03*
M02*
