G04*
G04 #@! TF.GenerationSoftware,Altium Limited,Altium Designer,23.3.1 (30)*
G04*
G04 Layer_Color=16711935*
%FSLAX25Y25*%
%MOIN*%
G70*
G04*
G04 #@! TF.SameCoordinates,DDE6331C-4F95-4F18-AA14-E53DA5D8DD09*
G04*
G04*
G04 #@! TF.FilePolarity,Positive*
G04*
G01*
G75*
%ADD11C,0.00787*%
%ADD14C,0.00394*%
G36*
X292378Y284918D02*
X292407Y284914D01*
X292436Y284910D01*
X292512Y284896D01*
X292592Y284874D01*
X292676Y284841D01*
X292720Y284819D01*
X292760Y284794D01*
X292796Y284765D01*
X292833Y284732D01*
X292836Y284728D01*
X292840Y284725D01*
X292847Y284710D01*
X292858Y284696D01*
X292873Y284677D01*
X292887Y284652D01*
X292902Y284623D01*
X292920Y284590D01*
X292934Y284554D01*
X292949Y284510D01*
X292964Y284466D01*
X292978Y284415D01*
X292986Y284361D01*
X292996Y284299D01*
X293000Y284237D01*
Y284168D01*
X292698Y284124D01*
Y284128D01*
Y284135D01*
Y284150D01*
X292694Y284172D01*
X292691Y284193D01*
Y284219D01*
X292680Y284281D01*
X292669Y284346D01*
X292647Y284412D01*
X292625Y284470D01*
X292611Y284495D01*
X292592Y284517D01*
X292589Y284521D01*
X292574Y284532D01*
X292552Y284550D01*
X292523Y284568D01*
X292483Y284590D01*
X292440Y284605D01*
X292385Y284619D01*
X292327Y284623D01*
X292305D01*
X292283Y284619D01*
X292250Y284615D01*
X292217Y284608D01*
X292181Y284601D01*
X292145Y284586D01*
X292108Y284568D01*
X292105Y284565D01*
X292094Y284557D01*
X292079Y284543D01*
X292057Y284528D01*
X292039Y284503D01*
X292017Y284477D01*
X291999Y284448D01*
X291985Y284412D01*
Y284408D01*
X291977Y284394D01*
X291973Y284368D01*
X291966Y284335D01*
X291959Y284292D01*
X291955Y284237D01*
X291948Y284172D01*
Y284095D01*
Y282359D01*
X291613D01*
Y284077D01*
Y284081D01*
Y284091D01*
Y284106D01*
Y284128D01*
X291617Y284157D01*
Y284186D01*
X291624Y284255D01*
X291631Y284335D01*
X291646Y284419D01*
X291668Y284495D01*
X291693Y284568D01*
Y284572D01*
X291697Y284576D01*
X291708Y284597D01*
X291726Y284627D01*
X291752Y284666D01*
X291788Y284706D01*
X291828Y284750D01*
X291879Y284794D01*
X291937Y284830D01*
X291944Y284834D01*
X291966Y284845D01*
X291999Y284859D01*
X292046Y284874D01*
X292105Y284892D01*
X292170Y284907D01*
X292243Y284918D01*
X292323Y284921D01*
X292356D01*
X292378Y284918D01*
D02*
G37*
G36*
X290339Y282908D02*
X290343Y282912D01*
X290361Y282927D01*
X290383Y282948D01*
X290419Y282974D01*
X290459Y283007D01*
X290510Y283043D01*
X290568Y283083D01*
X290634Y283123D01*
X290638D01*
X290641Y283127D01*
X290663Y283141D01*
X290700Y283159D01*
X290743Y283181D01*
X290794Y283207D01*
X290849Y283232D01*
X290903Y283258D01*
X290958Y283280D01*
Y282981D01*
X290954D01*
X290947Y282974D01*
X290932Y282970D01*
X290914Y282959D01*
X290893Y282948D01*
X290867Y282934D01*
X290805Y282897D01*
X290732Y282857D01*
X290659Y282806D01*
X290583Y282748D01*
X290507Y282686D01*
X290503Y282683D01*
X290499Y282679D01*
X290488Y282668D01*
X290474Y282657D01*
X290441Y282621D01*
X290397Y282577D01*
X290354Y282526D01*
X290306Y282468D01*
X290266Y282410D01*
X290230Y282348D01*
X290030D01*
Y284878D01*
X290339D01*
Y282908D01*
D02*
G37*
G36*
X288381D02*
X288385Y282912D01*
X288403Y282927D01*
X288424Y282948D01*
X288461Y282974D01*
X288501Y283007D01*
X288552Y283043D01*
X288610Y283083D01*
X288676Y283123D01*
X288679D01*
X288683Y283127D01*
X288705Y283141D01*
X288741Y283159D01*
X288785Y283181D01*
X288836Y283207D01*
X288891Y283232D01*
X288945Y283258D01*
X289000Y283280D01*
Y282981D01*
X288996D01*
X288989Y282974D01*
X288974Y282970D01*
X288956Y282959D01*
X288934Y282948D01*
X288909Y282934D01*
X288847Y282897D01*
X288774Y282857D01*
X288701Y282806D01*
X288625Y282748D01*
X288548Y282686D01*
X288545Y282683D01*
X288541Y282679D01*
X288530Y282668D01*
X288515Y282657D01*
X288483Y282621D01*
X288439Y282577D01*
X288395Y282526D01*
X288348Y282468D01*
X288308Y282410D01*
X288272Y282348D01*
X288071D01*
Y284878D01*
X288381D01*
Y282908D01*
D02*
G37*
D11*
X305205Y276772D02*
Y293071D01*
X280795D02*
X305205D01*
X280795Y276772D02*
Y293071D01*
Y276772D02*
X305205D01*
X215173Y254949D02*
Y261051D01*
Y254949D02*
X225827D01*
Y261051D01*
X215173D02*
X225827D01*
X215173Y242949D02*
Y249051D01*
Y242949D02*
X225827D01*
Y249051D01*
X215173D02*
X225827D01*
X263988Y218154D02*
Y224847D01*
Y218154D02*
X275012D01*
Y224847D01*
X263988D02*
X275012D01*
X244512Y217653D02*
Y224346D01*
X233488D02*
X244512D01*
X233488Y217653D02*
Y224346D01*
Y217653D02*
X244512D01*
X225827Y230949D02*
Y237051D01*
X215173D02*
X225827D01*
X215173Y230949D02*
Y237051D01*
Y230949D02*
X225827D01*
X215173Y266949D02*
Y273051D01*
Y266949D02*
X225827D01*
Y273051D01*
X215173D02*
X225827D01*
D14*
X220894Y258394D02*
Y260755D01*
X222074D01*
X222468Y260362D01*
Y259574D01*
X222074Y259181D01*
X220894D01*
X221681D02*
X222468Y258394D01*
X223255Y260362D02*
X223649Y260755D01*
X224436D01*
X224829Y260362D01*
Y259968D01*
X224436Y259574D01*
X224042D01*
X224436D01*
X224829Y259181D01*
Y258787D01*
X224436Y258394D01*
X223649D01*
X223255Y258787D01*
X220894Y246394D02*
Y248755D01*
X222074D01*
X222468Y248361D01*
Y247574D01*
X222074Y247181D01*
X220894D01*
X221681D02*
X222468Y246394D01*
X224829Y248755D02*
X223255D01*
Y247574D01*
X224042Y247968D01*
X224436D01*
X224829Y247574D01*
Y246787D01*
X224436Y246394D01*
X223649D01*
X223255Y246787D01*
X271468Y223862D02*
X271074Y224255D01*
X270287D01*
X269894Y223862D01*
Y222287D01*
X270287Y221894D01*
X271074D01*
X271468Y222287D01*
X273829Y224255D02*
X272255D01*
Y223074D01*
X273042Y223468D01*
X273436D01*
X273829Y223074D01*
Y222287D01*
X273436Y221894D01*
X272649D01*
X272255Y222287D01*
X237032Y218638D02*
X237426Y218245D01*
X238213D01*
X238606Y218638D01*
Y220213D01*
X238213Y220606D01*
X237426D01*
X237032Y220213D01*
X234671Y218245D02*
X235458Y218638D01*
X236245Y219426D01*
Y220213D01*
X235851Y220606D01*
X235064D01*
X234671Y220213D01*
Y219819D01*
X235064Y219426D01*
X236245D01*
X220106Y233606D02*
Y231245D01*
X218926D01*
X218532Y231639D01*
Y232426D01*
X218926Y232819D01*
X220106D01*
X219319D02*
X218532Y233606D01*
X216564D02*
Y231245D01*
X217745Y232426D01*
X216171D01*
X220894Y270394D02*
Y272755D01*
X222074D01*
X222468Y272361D01*
Y271574D01*
X222074Y271181D01*
X220894D01*
X221681D02*
X222468Y270394D01*
X224829D02*
X223255D01*
X224829Y271968D01*
Y272361D01*
X224436Y272755D01*
X223649D01*
X223255Y272361D01*
M02*
