G04*
G04 #@! TF.GenerationSoftware,Altium Limited,Altium Designer,23.3.1 (30)*
G04*
G04 Layer_Color=8388736*
%FSLAX25Y25*%
%MOIN*%
G70*
G04*
G04 #@! TF.SameCoordinates,DDE6331C-4F95-4F18-AA14-E53DA5D8DD09*
G04*
G04*
G04 #@! TF.FilePolarity,Negative*
G04*
G01*
G75*
%ADD28R,0.03367X0.04969*%
%ADD30R,0.03740X0.05315*%
%ADD32R,0.06102X0.06890*%
%ADD33R,0.05118X0.06299*%
%ADD34O,0.02953X0.08268*%
%ADD35O,0.08268X0.02953*%
%ADD36R,0.04528X0.03347*%
%ADD37R,0.11811X0.13189*%
%ADD38R,0.06299X0.05118*%
%ADD39R,0.22638X0.08858*%
%ADD40R,0.04921X0.05709*%
%ADD41R,0.04528X0.06102*%
%ADD42R,0.05512X0.06693*%
%ADD43R,0.05315X0.03347*%
%ADD44C,0.05472*%
%ADD45R,0.05472X0.05472*%
%ADD46R,0.06693X0.06693*%
%ADD47C,0.06693*%
%ADD48R,0.07087X0.07087*%
%ADD49C,0.07087*%
%ADD50C,0.16339*%
D28*
X223750Y258000D02*
D03*
X217250D02*
D03*
X223750Y246000D02*
D03*
X217250D02*
D03*
Y234000D02*
D03*
X223750D02*
D03*
Y270000D02*
D03*
X217250D02*
D03*
D30*
X272453Y221500D02*
D03*
X266547D02*
D03*
X236047Y221000D02*
D03*
X241953D02*
D03*
D32*
X297905Y245827D02*
D03*
Y274173D02*
D03*
X286094Y245827D02*
D03*
Y274173D02*
D03*
D33*
X224043Y214000D02*
D03*
X216957D02*
D03*
X240457Y147500D02*
D03*
X247543D02*
D03*
X242457Y179000D02*
D03*
X249543D02*
D03*
X265543Y147500D02*
D03*
X258457D02*
D03*
X276457D02*
D03*
X283543D02*
D03*
X248957Y282000D02*
D03*
X256043D02*
D03*
X233957D02*
D03*
X241043D02*
D03*
D34*
X242976Y235768D02*
D03*
X246126D02*
D03*
X249276D02*
D03*
X252425D02*
D03*
X255575D02*
D03*
X258724D02*
D03*
X261874D02*
D03*
X265024D02*
D03*
Y269232D02*
D03*
X261874D02*
D03*
X258724D02*
D03*
X255575D02*
D03*
X252425D02*
D03*
X249276D02*
D03*
X246126D02*
D03*
X242976D02*
D03*
D35*
X270732Y241476D02*
D03*
Y244626D02*
D03*
Y247776D02*
D03*
Y250925D02*
D03*
Y254075D02*
D03*
Y257224D02*
D03*
Y260374D02*
D03*
Y263524D02*
D03*
X237268D02*
D03*
Y260374D02*
D03*
Y257224D02*
D03*
Y254075D02*
D03*
Y250925D02*
D03*
Y247776D02*
D03*
Y244626D02*
D03*
Y241476D02*
D03*
D36*
X240673Y167240D02*
D03*
Y163500D02*
D03*
Y159760D02*
D03*
X249327D02*
D03*
Y163500D02*
D03*
Y167240D02*
D03*
D37*
X284720Y168500D02*
D03*
X262280D02*
D03*
D38*
X250500Y218457D02*
D03*
Y225543D02*
D03*
X258000Y218457D02*
D03*
Y225543D02*
D03*
D39*
X287201Y201500D02*
D03*
X249799D02*
D03*
D40*
X283866Y229500D02*
D03*
X292134D02*
D03*
D41*
X274512Y282000D02*
D03*
X263488D02*
D03*
D42*
X283799Y220398D02*
D03*
X291870D02*
D03*
D43*
X217154Y224500D02*
D03*
X223847D02*
D03*
D44*
X285126Y285000D02*
D03*
X293000D02*
D03*
D45*
X300874D02*
D03*
D46*
X219500Y147000D02*
D03*
D47*
Y157000D02*
D03*
Y167000D02*
D03*
Y177000D02*
D03*
Y187000D02*
D03*
Y197000D02*
D03*
D48*
X324000Y234500D02*
D03*
Y202500D02*
D03*
Y170500D02*
D03*
Y266500D02*
D03*
Y138500D02*
D03*
X190000Y249500D02*
D03*
Y153500D02*
D03*
Y185500D02*
D03*
Y217500D02*
D03*
Y281500D02*
D03*
D49*
X324000Y249500D02*
D03*
Y217500D02*
D03*
Y185500D02*
D03*
Y281500D02*
D03*
Y153500D02*
D03*
X190000Y234500D02*
D03*
Y138500D02*
D03*
Y170500D02*
D03*
Y202500D02*
D03*
Y266500D02*
D03*
D50*
X352000Y117500D02*
D03*
Y302500D02*
D03*
X161500Y117500D02*
D03*
Y302500D02*
D03*
M02*
