G04*
G04 #@! TF.GenerationSoftware,Altium Limited,Altium Designer,23.3.1 (30)*
G04*
G04 Layer_Color=255*
%FSLAX25Y25*%
%MOIN*%
G70*
G04*
G04 #@! TF.SameCoordinates,DDE6331C-4F95-4F18-AA14-E53DA5D8DD09*
G04*
G04*
G04 #@! TF.FilePolarity,Positive*
G04*
G01*
G75*
%ADD19R,0.04528X0.05709*%
%ADD28R,0.03367X0.04969*%
%ADD44C,0.05472*%
%ADD45R,0.05472X0.05472*%
%ADD54R,0.06102X0.06102*%
%ADD55C,0.06102*%
%ADD56R,0.06496X0.06496*%
%ADD57C,0.06496*%
%ADD60R,0.06004X0.02756*%
%ADD61R,0.04942X0.05756*%
%ADD62R,0.03740X0.05709*%
%ADD63R,0.01575X0.01575*%
%ADD64R,0.04134X0.05709*%
%ADD65R,0.03347X0.05315*%
%ADD66R,0.04545X0.05339*%
D19*
X235043Y286500D02*
D03*
X227957D02*
D03*
X242457D02*
D03*
X249543D02*
D03*
X264043D02*
D03*
X256957D02*
D03*
X271457D02*
D03*
X278543D02*
D03*
X262543Y231500D02*
D03*
X255457D02*
D03*
X237543Y277000D02*
D03*
X230457D02*
D03*
X282957Y230500D02*
D03*
X290043D02*
D03*
D28*
X237250Y268500D02*
D03*
X230750D02*
D03*
D44*
X285126Y285000D02*
D03*
X293000D02*
D03*
D45*
X300874D02*
D03*
D54*
X219500Y147000D02*
D03*
D55*
Y157000D02*
D03*
Y167000D02*
D03*
Y177000D02*
D03*
Y187000D02*
D03*
Y197000D02*
D03*
D56*
X324000Y234500D02*
D03*
Y202500D02*
D03*
Y170500D02*
D03*
Y266500D02*
D03*
Y138500D02*
D03*
X190000Y249500D02*
D03*
Y153500D02*
D03*
Y185500D02*
D03*
Y217500D02*
D03*
Y281500D02*
D03*
D57*
X324000Y249500D02*
D03*
Y217500D02*
D03*
Y185500D02*
D03*
Y281500D02*
D03*
Y153500D02*
D03*
X190000Y234500D02*
D03*
Y138500D02*
D03*
Y170500D02*
D03*
Y202500D02*
D03*
Y266500D02*
D03*
D60*
X249823Y276000D02*
D03*
Y271000D02*
D03*
Y266000D02*
D03*
Y261000D02*
D03*
Y256000D02*
D03*
Y251000D02*
D03*
Y246000D02*
D03*
Y241000D02*
D03*
X271177D02*
D03*
Y246000D02*
D03*
Y251000D02*
D03*
Y256000D02*
D03*
Y261000D02*
D03*
Y266000D02*
D03*
Y271000D02*
D03*
Y276000D02*
D03*
D61*
X237537Y251500D02*
D03*
X229463D02*
D03*
X237537Y243000D02*
D03*
X229463D02*
D03*
D62*
X229661Y260000D02*
D03*
X237339D02*
D03*
D63*
X286469Y274500D02*
D03*
X282531Y276075D02*
D03*
Y272925D02*
D03*
D64*
X289642Y243000D02*
D03*
X282358D02*
D03*
D65*
X282752Y253000D02*
D03*
X289248D02*
D03*
D66*
X288661Y264000D02*
D03*
X283339D02*
D03*
M02*
