G04*
G04 #@! TF.GenerationSoftware,Altium Limited,Altium Designer,23.3.1 (30)*
G04*
G04 Layer_Color=32896*
%FSLAX25Y25*%
%MOIN*%
G70*
G04*
G04 #@! TF.SameCoordinates,DDE6331C-4F95-4F18-AA14-E53DA5D8DD09*
G04*
G04*
G04 #@! TF.FilePolarity,Positive*
G04*
G01*
G75*
%ADD11C,0.00787*%
%ADD12C,0.00787*%
%ADD14C,0.00394*%
D11*
X268177Y278756D02*
X274181D01*
X266799Y239012D02*
Y277988D01*
X254201Y239012D02*
X266799D01*
X254201D02*
Y277988D01*
X266799D01*
X226992Y247047D02*
X240008D01*
X226992Y255953D02*
X240008D01*
X233008Y257244D02*
X233992D01*
X233008Y262756D02*
X233992D01*
X229066Y264268D02*
X238933D01*
X229066Y272732D02*
X238933D01*
X286173Y271941D02*
Y272138D01*
Y276862D02*
Y277059D01*
X284882D02*
X286173D01*
X284882Y271941D02*
X286173D01*
X226992Y238547D02*
X240008D01*
X226992Y247453D02*
X240008D01*
X285606Y245461D02*
X286394D01*
X285606Y240539D02*
X286394D01*
X285606Y250736D02*
X286394D01*
X285606Y255264D02*
X286394D01*
X281066Y259571D02*
X290933D01*
X281066Y268429D02*
X290933D01*
D12*
X224197Y286500D02*
D03*
X238697D02*
D03*
X268197D02*
D03*
X267697D02*
D03*
X266087Y231500D02*
D03*
X241087Y277000D02*
D03*
X279807Y230500D02*
D03*
D14*
X232378Y292287D02*
X232771Y292681D01*
X233558D01*
X233952Y292287D01*
Y290713D01*
X233558Y290319D01*
X232771D01*
X232378Y290713D01*
X231590Y290319D02*
X230803D01*
X231197D01*
Y292681D01*
X231590Y292287D01*
X229623Y292681D02*
X228048D01*
Y292287D01*
X229623Y290713D01*
Y290319D01*
X261452Y242681D02*
X260665D01*
X261058D01*
Y240319D01*
X261452D01*
X260665D01*
X257910Y242287D02*
X258303Y242681D01*
X259090D01*
X259484Y242287D01*
Y240713D01*
X259090Y240319D01*
X258303D01*
X257910Y240713D01*
X255548Y240319D02*
X257122D01*
X255548Y241894D01*
Y242287D01*
X255942Y242681D01*
X256729D01*
X257122Y242287D01*
X222819Y257942D02*
X225181D01*
Y259122D01*
X224787Y259516D01*
X224000D01*
X223606Y259122D01*
Y257942D01*
Y258729D02*
X222819Y259516D01*
Y260303D02*
Y261090D01*
Y260697D01*
X225181D01*
X224787Y260303D01*
X222819Y262271D02*
Y263058D01*
Y262665D01*
X225181D01*
X224787Y262271D01*
X221819Y240048D02*
X224181D01*
Y241229D01*
X223787Y241622D01*
X223000D01*
X222606Y241229D01*
Y240048D01*
Y240835D02*
X221819Y241622D01*
Y242410D02*
Y243197D01*
Y242803D01*
X224181D01*
X223787Y242410D01*
Y244377D02*
X224181Y244771D01*
Y245558D01*
X223787Y245952D01*
X222213D01*
X221819Y245558D01*
Y244771D01*
X222213Y244377D01*
X223787D01*
X221819Y249532D02*
X224181D01*
Y250713D01*
X223787Y251106D01*
X223000D01*
X222606Y250713D01*
Y249532D01*
Y250319D02*
X221819Y251106D01*
X222213Y251894D02*
X221819Y252287D01*
Y253074D01*
X222213Y253468D01*
X223787D01*
X224181Y253074D01*
Y252287D01*
X223787Y251894D01*
X223394D01*
X223000Y252287D01*
Y253468D01*
X294319Y241532D02*
X296681D01*
Y242713D01*
X296287Y243106D01*
X295500D01*
X295106Y242713D01*
Y241532D01*
Y242319D02*
X294319Y243106D01*
X296287Y243894D02*
X296681Y244287D01*
Y245074D01*
X296287Y245468D01*
X295894D01*
X295500Y245074D01*
X295106Y245468D01*
X294713D01*
X294319Y245074D01*
Y244287D01*
X294713Y243894D01*
X295106D01*
X295500Y244287D01*
X295894Y243894D01*
X296287D01*
X295500Y244287D02*
Y245074D01*
X224319Y266532D02*
X226681D01*
Y267713D01*
X226287Y268106D01*
X225500D01*
X225106Y267713D01*
Y266532D01*
Y267319D02*
X224319Y268106D01*
X226681Y268894D02*
Y270468D01*
X226287D01*
X224713Y268894D01*
X224319D01*
X292819Y251532D02*
X295181D01*
Y252713D01*
X294787Y253106D01*
X294000D01*
X293606Y252713D01*
Y251532D01*
Y252319D02*
X292819Y253106D01*
X295181Y255468D02*
X294787Y254681D01*
X294000Y253894D01*
X293213D01*
X292819Y254287D01*
Y255074D01*
X293213Y255468D01*
X293606D01*
X294000Y255074D01*
Y253894D01*
X280026Y280294D02*
Y281868D01*
X280419Y282261D01*
X281206D01*
X281600Y281868D01*
Y280294D01*
X281206Y279900D01*
X280419D01*
X280813Y280687D02*
X280026Y279900D01*
X280419D02*
X280026Y280294D01*
X279239Y279900D02*
X278451D01*
X278845D01*
Y282261D01*
X279239Y281868D01*
X295681Y262532D02*
X293319D01*
Y264106D01*
X295287Y264894D02*
X295681Y265287D01*
Y266074D01*
X295287Y266468D01*
X294894D01*
X294500Y266074D01*
Y265681D01*
Y266074D01*
X294106Y266468D01*
X293713D01*
X293319Y266074D01*
Y265287D01*
X293713Y264894D01*
X247377Y292287D02*
X247771Y292681D01*
X248558D01*
X248952Y292287D01*
Y290713D01*
X248558Y290319D01*
X247771D01*
X247377Y290713D01*
X246590Y290319D02*
X245803D01*
X246197D01*
Y292681D01*
X246590Y292287D01*
X243048Y292681D02*
X243835Y292287D01*
X244622Y291500D01*
Y290713D01*
X244229Y290319D01*
X243442D01*
X243048Y290713D01*
Y291106D01*
X243442Y291500D01*
X244622D01*
X257122Y237713D02*
X256729Y237319D01*
X255942D01*
X255548Y237713D01*
Y239287D01*
X255942Y239681D01*
X256729D01*
X257122Y239287D01*
X257910Y239681D02*
X258697D01*
X258303D01*
Y237319D01*
X257910Y237713D01*
X261452Y237319D02*
X259877D01*
Y238500D01*
X260665Y238106D01*
X261058D01*
X261452Y238500D01*
Y239287D01*
X261058Y239681D01*
X260271D01*
X259877Y239287D01*
X295787Y230122D02*
X296181Y229729D01*
Y228942D01*
X295787Y228548D01*
X294213D01*
X293819Y228942D01*
Y229729D01*
X294213Y230122D01*
X293819Y230910D02*
Y231697D01*
Y231303D01*
X296181D01*
X295787Y230910D01*
X293819Y234058D02*
X296181D01*
X295000Y232877D01*
Y234452D01*
X261877Y292787D02*
X262271Y293181D01*
X263058D01*
X263452Y292787D01*
Y291213D01*
X263058Y290819D01*
X262271D01*
X261877Y291213D01*
X261090Y290819D02*
X260303D01*
X260697D01*
Y293181D01*
X261090Y292787D01*
X259122D02*
X258729Y293181D01*
X257942D01*
X257548Y292787D01*
Y292394D01*
X257942Y292000D01*
X258335D01*
X257942D01*
X257548Y291606D01*
Y291213D01*
X257942Y290819D01*
X258729D01*
X259122Y291213D01*
X276378Y292787D02*
X276771Y293181D01*
X277558D01*
X277952Y292787D01*
Y291213D01*
X277558Y290819D01*
X276771D01*
X276378Y291213D01*
X275590Y290819D02*
X274803D01*
X275197D01*
Y293181D01*
X275590Y292787D01*
X272048Y290819D02*
X273622D01*
X272048Y292394D01*
Y292787D01*
X272442Y293181D01*
X273229D01*
X273622Y292787D01*
X226287Y276016D02*
X226681Y275623D01*
Y274835D01*
X226287Y274442D01*
X224713D01*
X224319Y274835D01*
Y275623D01*
X224713Y276016D01*
X224319Y276803D02*
Y277590D01*
Y277197D01*
X226681D01*
X226287Y276803D01*
X224319Y278771D02*
Y279558D01*
Y279165D01*
X226681D01*
X226287Y278771D01*
M02*
