G04*
G04 #@! TF.GenerationSoftware,Altium Limited,Altium Designer,23.3.1 (30)*
G04*
G04 Layer_Physical_Order=2*
G04 Layer_Color=36540*
%FSLAX25Y25*%
%MOIN*%
G70*
G04*
G04 #@! TF.SameCoordinates,9E9A1B20-5B00-4279-B210-449FD35A5861*
G04*
G04*
G04 #@! TF.FilePolarity,Positive*
G04*
G01*
G75*
%ADD55C,0.06496*%
%ADD56R,0.06496X0.06496*%
%ADD57C,0.15748*%
%ADD58R,0.06102X0.06102*%
%ADD59C,0.06102*%
%ADD60C,0.05000*%
%ADD61C,0.02362*%
G36*
X119500Y322697D02*
X274640Y322697D01*
X275520Y322697D01*
X277264Y322468D01*
X278963Y322012D01*
X280588Y321339D01*
X282111Y320460D01*
X283507Y319389D01*
X284751Y318145D01*
X285822Y316750D01*
X286701Y315226D01*
X287374Y313601D01*
X287829Y311902D01*
X288059Y310158D01*
X288059Y309278D01*
X288059Y123864D01*
X288059Y122877D01*
X287801Y120920D01*
X287290Y119013D01*
X286535Y117189D01*
X285548Y115479D01*
X284346Y113912D01*
X282949Y112516D01*
X281383Y111314D01*
X279673Y110327D01*
X277849Y109571D01*
X275942Y109060D01*
X273985Y108803D01*
X272997Y108803D01*
X117500Y108803D01*
X116700Y108803D01*
X115115Y109011D01*
X113571Y109425D01*
X112093Y110037D01*
X110709Y110837D01*
X109440Y111810D01*
X108310Y112941D01*
X107336Y114209D01*
X106537Y115594D01*
X105925Y117071D01*
X105511Y118615D01*
X105303Y120201D01*
X105303Y121000D01*
Y308500D01*
X105303Y309431D01*
X105546Y311276D01*
X106027Y313073D01*
X106739Y314793D01*
X107670Y316405D01*
X108803Y317881D01*
X110119Y319197D01*
X111595Y320330D01*
X113207Y321261D01*
X114927Y321973D01*
X116724Y322454D01*
X118569Y322697D01*
X119500Y322697D01*
D02*
G37*
%LPC*%
G36*
X274009Y318480D02*
Y310340D01*
X282149D01*
X282012Y311732D01*
X281533Y313310D01*
X280756Y314765D01*
X279709Y316040D01*
X278434Y317087D01*
X276979Y317864D01*
X275401Y318343D01*
X274009Y318480D01*
D02*
G37*
G36*
X273509D02*
X272118Y318343D01*
X270539Y317864D01*
X269085Y317087D01*
X267810Y316040D01*
X266763Y314765D01*
X265985Y313310D01*
X265507Y311732D01*
X265370Y310340D01*
X273509D01*
Y318480D01*
D02*
G37*
G36*
X119638Y317985D02*
Y309845D01*
X127777D01*
X127640Y311237D01*
X127162Y312815D01*
X126384Y314270D01*
X125338Y315545D01*
X124062Y316592D01*
X122608Y317369D01*
X121029Y317848D01*
X119638Y317985D01*
D02*
G37*
G36*
X119138D02*
X117746Y317848D01*
X116167Y317369D01*
X114713Y316592D01*
X113438Y315545D01*
X112391Y314270D01*
X111614Y312815D01*
X111135Y311237D01*
X110998Y309845D01*
X119138D01*
Y317985D01*
D02*
G37*
G36*
X282149Y309840D02*
X274009D01*
Y301700D01*
X275401Y301837D01*
X276979Y302316D01*
X278434Y303094D01*
X279709Y304140D01*
X280756Y305415D01*
X281533Y306870D01*
X282012Y308449D01*
X282149Y309840D01*
D02*
G37*
G36*
X273509D02*
X265370D01*
X265507Y308449D01*
X265985Y306870D01*
X266763Y305415D01*
X267810Y304140D01*
X269085Y303094D01*
X270539Y302316D01*
X272118Y301837D01*
X273509Y301700D01*
Y309840D01*
D02*
G37*
G36*
X127777Y309345D02*
X119638D01*
Y301205D01*
X121029Y301343D01*
X122608Y301821D01*
X124062Y302599D01*
X125338Y303645D01*
X126384Y304921D01*
X127162Y306375D01*
X127640Y307954D01*
X127777Y309345D01*
D02*
G37*
G36*
X119138D02*
X110998D01*
X111135Y307954D01*
X111614Y306375D01*
X112391Y304921D01*
X113438Y303645D01*
X114713Y302599D01*
X116167Y301821D01*
X117746Y301343D01*
X119138Y301205D01*
Y309345D01*
D02*
G37*
G36*
X216651Y303653D02*
X215867Y303550D01*
X215138Y303248D01*
X214511Y302767D01*
X214030Y302140D01*
X213728Y301410D01*
X213625Y300627D01*
X213728Y299844D01*
X214030Y299114D01*
X214511Y298488D01*
X215138Y298007D01*
X215867Y297705D01*
X216651Y297601D01*
X217434Y297705D01*
X218163Y298007D01*
X218790Y298488D01*
X219271Y299114D01*
X219573Y299844D01*
X219676Y300627D01*
X219573Y301410D01*
X219271Y302140D01*
X218790Y302767D01*
X218163Y303248D01*
X217434Y303550D01*
X216651Y303653D01*
D02*
G37*
G36*
X259503Y290580D02*
X258524Y290452D01*
X257613Y290074D01*
X256830Y289473D01*
X256229Y288690D01*
X255851Y287778D01*
X255723Y286800D01*
X255851Y285822D01*
X256229Y284910D01*
X256830Y284127D01*
X257613Y283526D01*
X258524Y283148D01*
X259503Y283019D01*
X260481Y283148D01*
X261393Y283526D01*
X262176Y284127D01*
X262777Y284910D01*
X263155Y285822D01*
X263283Y286800D01*
X263155Y287778D01*
X262777Y288690D01*
X262176Y289473D01*
X261393Y290074D01*
X260481Y290452D01*
X259503Y290580D01*
D02*
G37*
G36*
X138814Y290392D02*
X131318D01*
Y282896D01*
X138814D01*
Y290392D01*
D02*
G37*
G36*
X176139Y285964D02*
X175483Y285833D01*
X174927Y285461D01*
X174555Y284906D01*
X174425Y284249D01*
X174555Y283594D01*
X174927Y283037D01*
X175483Y282666D01*
X175784Y282606D01*
Y282096D01*
X175315Y282003D01*
X174759Y281632D01*
X174387Y281076D01*
X174257Y280420D01*
X174387Y279764D01*
X174759Y279208D01*
X175315Y278836D01*
X175971Y278706D01*
X176627Y278836D01*
X177183Y279208D01*
X177554Y279764D01*
X177685Y280420D01*
X177554Y281076D01*
X177183Y281632D01*
X176627Y282003D01*
X176326Y282063D01*
Y282573D01*
X176795Y282666D01*
X177351Y283037D01*
X177723Y283594D01*
X177853Y284249D01*
X177723Y284906D01*
X177351Y285461D01*
X176795Y285833D01*
X176139Y285964D01*
D02*
G37*
G36*
X176169Y277386D02*
X175513Y277256D01*
X174957Y276884D01*
X174586Y276328D01*
X174455Y275672D01*
X174586Y275016D01*
X174957Y274460D01*
X175513Y274088D01*
X176169Y273958D01*
X176825Y274088D01*
X177381Y274460D01*
X177753Y275016D01*
X177883Y275672D01*
X177753Y276328D01*
X177381Y276884D01*
X176825Y277256D01*
X176169Y277386D01*
D02*
G37*
G36*
X172593Y274990D02*
X171937Y274859D01*
X171381Y274488D01*
X171010Y273932D01*
X170879Y273276D01*
X171010Y272620D01*
X171381Y272064D01*
X171937Y271692D01*
X172593Y271562D01*
X173249Y271692D01*
X173805Y272064D01*
X174177Y272620D01*
X174307Y273276D01*
X174177Y273932D01*
X173805Y274488D01*
X173249Y274859D01*
X172593Y274990D01*
D02*
G37*
G36*
X222518Y275360D02*
X221735Y275256D01*
X221005Y274954D01*
X220378Y274473D01*
X219897Y273847D01*
X219595Y273117D01*
X219492Y272334D01*
X219595Y271550D01*
X219897Y270821D01*
X220378Y270194D01*
X221005Y269713D01*
X221735Y269411D01*
X222518Y269308D01*
X223301Y269411D01*
X224031Y269713D01*
X224658Y270194D01*
X225138Y270821D01*
X225441Y271550D01*
X225544Y272334D01*
X225441Y273117D01*
X225138Y273847D01*
X224658Y274473D01*
X224031Y274954D01*
X223301Y275256D01*
X222518Y275360D01*
D02*
G37*
G36*
X263251Y275548D02*
X255755D01*
Y268052D01*
X263251D01*
Y275548D01*
D02*
G37*
G36*
X135066Y275425D02*
X134088Y275296D01*
X133176Y274918D01*
X132393Y274317D01*
X131792Y273534D01*
X131414Y272622D01*
X131286Y271644D01*
X131414Y270666D01*
X131792Y269754D01*
X132393Y268971D01*
X133176Y268370D01*
X134088Y267992D01*
X135066Y267864D01*
X136044Y267992D01*
X136956Y268370D01*
X137739Y268971D01*
X138340Y269754D01*
X138717Y270666D01*
X138846Y271644D01*
X138717Y272622D01*
X138340Y273534D01*
X137739Y274317D01*
X136956Y274918D01*
X136044Y275296D01*
X135066Y275425D01*
D02*
G37*
G36*
X204403Y272506D02*
X203620Y272403D01*
X202890Y272101D01*
X202264Y271620D01*
X201783Y270993D01*
X201481Y270264D01*
X201378Y269480D01*
X201481Y268697D01*
X201783Y267968D01*
X202264Y267341D01*
X202890Y266860D01*
X203620Y266558D01*
X204403Y266455D01*
X205187Y266558D01*
X205916Y266860D01*
X206543Y267341D01*
X207024Y267968D01*
X207326Y268697D01*
X207429Y269480D01*
X207326Y270264D01*
X207024Y270993D01*
X206543Y271620D01*
X205916Y272101D01*
X205187Y272403D01*
X204403Y272506D01*
D02*
G37*
G36*
X138658Y258849D02*
X131162D01*
Y251353D01*
X138658D01*
Y258849D01*
D02*
G37*
G36*
X259503Y258878D02*
X258524Y258750D01*
X257613Y258372D01*
X256830Y257771D01*
X256229Y256988D01*
X255851Y256077D01*
X255723Y255098D01*
X255851Y254120D01*
X256229Y253208D01*
X256830Y252425D01*
X257613Y251824D01*
X258524Y251447D01*
X259503Y251318D01*
X260481Y251447D01*
X261393Y251824D01*
X262176Y252425D01*
X262777Y253208D01*
X263155Y254120D01*
X263283Y255098D01*
X263155Y256077D01*
X262777Y256988D01*
X262176Y257771D01*
X261393Y258372D01*
X260481Y258750D01*
X259503Y258878D01*
D02*
G37*
G36*
X162491Y249085D02*
X161707Y248982D01*
X160978Y248680D01*
X160351Y248199D01*
X159870Y247573D01*
X159568Y246843D01*
X159465Y246060D01*
X159568Y245276D01*
X159870Y244547D01*
X160351Y243920D01*
X160978Y243439D01*
X161707Y243137D01*
X162491Y243034D01*
X163274Y243137D01*
X164004Y243439D01*
X164630Y243920D01*
X165111Y244547D01*
X165413Y245276D01*
X165516Y246060D01*
X165413Y246843D01*
X165111Y247573D01*
X164630Y248199D01*
X164004Y248680D01*
X163274Y248982D01*
X162491Y249085D01*
D02*
G37*
G36*
X236934Y244795D02*
X236151Y244692D01*
X235421Y244390D01*
X234795Y243909D01*
X234314Y243282D01*
X234012Y242552D01*
X233908Y241769D01*
X234012Y240986D01*
X234314Y240256D01*
X234795Y239629D01*
X235421Y239149D01*
X236151Y238846D01*
X236934Y238743D01*
X237717Y238846D01*
X238447Y239149D01*
X239074Y239629D01*
X239555Y240256D01*
X239857Y240986D01*
X239960Y241769D01*
X239857Y242552D01*
X239555Y243282D01*
X239074Y243909D01*
X238447Y244390D01*
X237717Y244692D01*
X236934Y244795D01*
D02*
G37*
G36*
X263251Y243846D02*
X255755D01*
Y236350D01*
X263251D01*
Y243846D01*
D02*
G37*
G36*
X134910Y243881D02*
X133931Y243753D01*
X133020Y243375D01*
X132237Y242774D01*
X131636Y241991D01*
X131258Y241079D01*
X131130Y240101D01*
X131258Y239123D01*
X131636Y238211D01*
X132237Y237428D01*
X133020Y236827D01*
X133931Y236450D01*
X134910Y236321D01*
X135888Y236450D01*
X136800Y236827D01*
X137583Y237428D01*
X138184Y238211D01*
X138561Y239123D01*
X138690Y240101D01*
X138561Y241079D01*
X138184Y241991D01*
X137583Y242774D01*
X136800Y243375D01*
X135888Y243753D01*
X134910Y243881D01*
D02*
G37*
G36*
X176992Y247996D02*
X176209Y247893D01*
X175479Y247591D01*
X174853Y247110D01*
X174372Y246483D01*
X174069Y245754D01*
X173966Y244970D01*
X174069Y244187D01*
X174372Y243458D01*
X174853Y242831D01*
X175479Y242350D01*
X175537Y242326D01*
X175542Y241962D01*
X175495Y241802D01*
X174815Y241520D01*
X174188Y241039D01*
X173707Y240413D01*
X173405Y239683D01*
X173302Y238900D01*
X173405Y238117D01*
X173707Y237387D01*
X174188Y236760D01*
X174815Y236279D01*
X175544Y235977D01*
X176328Y235874D01*
X177111Y235977D01*
X177840Y236279D01*
X178467Y236760D01*
X178948Y237387D01*
X179250Y238117D01*
X179353Y238900D01*
X179250Y239683D01*
X178948Y240413D01*
X178467Y241039D01*
X177840Y241520D01*
X177782Y241544D01*
X177777Y241908D01*
X177824Y242068D01*
X178505Y242350D01*
X179132Y242831D01*
X179613Y243458D01*
X179915Y244187D01*
X180018Y244970D01*
X179915Y245754D01*
X179613Y246483D01*
X179132Y247110D01*
X178505Y247591D01*
X177775Y247893D01*
X176992Y247996D01*
D02*
G37*
G36*
X182974Y240685D02*
X182191Y240582D01*
X181462Y240280D01*
X180835Y239799D01*
X180354Y239172D01*
X180052Y238442D01*
X179948Y237659D01*
X180052Y236876D01*
X180354Y236146D01*
X180835Y235519D01*
X181462Y235038D01*
X182191Y234736D01*
X182974Y234633D01*
X183758Y234736D01*
X184487Y235038D01*
X185114Y235519D01*
X185595Y236146D01*
X185897Y236876D01*
X186000Y237659D01*
X185897Y238442D01*
X185595Y239172D01*
X185114Y239799D01*
X184487Y240280D01*
X183758Y240582D01*
X182974Y240685D01*
D02*
G37*
G36*
X203037Y239483D02*
X202254Y239380D01*
X201524Y239077D01*
X200898Y238597D01*
X200417Y237970D01*
X200114Y237240D01*
X200011Y236457D01*
X200114Y235674D01*
X200417Y234944D01*
X200898Y234317D01*
X201524Y233836D01*
X202254Y233534D01*
X203037Y233431D01*
X203820Y233534D01*
X204550Y233836D01*
X205177Y234317D01*
X205658Y234944D01*
X205960Y235674D01*
X206063Y236457D01*
X205960Y237240D01*
X205658Y237970D01*
X205177Y238597D01*
X204550Y239077D01*
X203820Y239380D01*
X203037Y239483D01*
D02*
G37*
G36*
X138603Y227373D02*
X131107D01*
Y219877D01*
X138603D01*
Y227373D01*
D02*
G37*
G36*
X259639Y227303D02*
X258661Y227174D01*
X257749Y226796D01*
X256966Y226196D01*
X256365Y225413D01*
X255988Y224501D01*
X255859Y223522D01*
X255988Y222544D01*
X256365Y221632D01*
X256966Y220849D01*
X257749Y220249D01*
X258661Y219871D01*
X259639Y219742D01*
X260618Y219871D01*
X261530Y220249D01*
X262313Y220849D01*
X262913Y221632D01*
X263291Y222544D01*
X263420Y223522D01*
X263291Y224501D01*
X262913Y225413D01*
X262313Y226196D01*
X261530Y226796D01*
X260618Y227174D01*
X259639Y227303D01*
D02*
G37*
G36*
X236919Y217927D02*
X236136Y217824D01*
X235406Y217522D01*
X234780Y217041D01*
X234299Y216414D01*
X233997Y215684D01*
X233894Y214901D01*
X233997Y214118D01*
X234299Y213388D01*
X234780Y212761D01*
X235406Y212281D01*
X236136Y211978D01*
X236919Y211875D01*
X237703Y211978D01*
X238432Y212281D01*
X239059Y212761D01*
X239540Y213388D01*
X239842Y214118D01*
X239945Y214901D01*
X239842Y215684D01*
X239540Y216414D01*
X239059Y217041D01*
X238432Y217522D01*
X237703Y217824D01*
X236919Y217927D01*
D02*
G37*
G36*
X134855Y212405D02*
X133876Y212276D01*
X132965Y211899D01*
X132182Y211298D01*
X131581Y210515D01*
X131203Y209603D01*
X131074Y208625D01*
X131203Y207646D01*
X131581Y206734D01*
X132182Y205952D01*
X132965Y205351D01*
X133876Y204973D01*
X134855Y204844D01*
X135833Y204973D01*
X136745Y205351D01*
X137528Y205952D01*
X138129Y206734D01*
X138506Y207646D01*
X138635Y208625D01*
X138506Y209603D01*
X138129Y210515D01*
X137528Y211298D01*
X136745Y211899D01*
X135833Y212276D01*
X134855Y212405D01*
D02*
G37*
G36*
X263387Y212270D02*
X255891D01*
Y204774D01*
X263387D01*
Y212270D01*
D02*
G37*
G36*
X138622Y195703D02*
X135124D01*
Y192206D01*
X138622D01*
Y195703D01*
D02*
G37*
G36*
X134624D02*
X131126D01*
Y192206D01*
X134624D01*
Y195703D01*
D02*
G37*
G36*
X259602Y195994D02*
X258623Y195865D01*
X257712Y195487D01*
X256929Y194886D01*
X256328Y194104D01*
X255950Y193192D01*
X255821Y192213D01*
X255950Y191235D01*
X256328Y190323D01*
X256929Y189540D01*
X257712Y188939D01*
X258623Y188562D01*
X259602Y188433D01*
X260580Y188562D01*
X261492Y188939D01*
X262275Y189540D01*
X262876Y190323D01*
X263253Y191235D01*
X263382Y192213D01*
X263253Y193192D01*
X262876Y194104D01*
X262275Y194886D01*
X261492Y195487D01*
X260580Y195865D01*
X259602Y195994D01*
D02*
G37*
G36*
X138622Y191706D02*
X135124D01*
Y188207D01*
X138622D01*
Y191706D01*
D02*
G37*
G36*
X134624D02*
X131126D01*
Y188207D01*
X134624D01*
Y191706D01*
D02*
G37*
G36*
X161294Y194578D02*
X160367Y194456D01*
X159503Y194098D01*
X158761Y193529D01*
X158192Y192787D01*
X157834Y191923D01*
X157712Y190997D01*
X157834Y190069D01*
X158192Y189206D01*
X158761Y188464D01*
X159503Y187894D01*
X160367Y187537D01*
X161294Y187415D01*
X162221Y187537D01*
X163085Y187894D01*
X163827Y188464D01*
X164396Y189206D01*
X164754Y190069D01*
X164876Y190997D01*
X164754Y191923D01*
X164396Y192787D01*
X163827Y193529D01*
X163085Y194098D01*
X162221Y194456D01*
X161294Y194578D01*
D02*
G37*
G36*
Y184578D02*
X160367Y184456D01*
X159503Y184098D01*
X158761Y183529D01*
X158192Y182787D01*
X157834Y181923D01*
X157712Y180997D01*
X157834Y180069D01*
X158192Y179206D01*
X158761Y178464D01*
X159503Y177894D01*
X160367Y177537D01*
X161294Y177415D01*
X162221Y177537D01*
X163085Y177894D01*
X163827Y178464D01*
X164396Y179206D01*
X164754Y180069D01*
X164876Y180997D01*
X164754Y181923D01*
X164396Y182787D01*
X163827Y183529D01*
X163085Y184098D01*
X162221Y184456D01*
X161294Y184578D01*
D02*
G37*
G36*
X263350Y180961D02*
X255854D01*
Y173465D01*
X263350D01*
Y180961D01*
D02*
G37*
G36*
X134874Y180736D02*
X133896Y180607D01*
X132984Y180229D01*
X132201Y179629D01*
X131600Y178846D01*
X131222Y177934D01*
X131094Y176955D01*
X131222Y175977D01*
X131600Y175065D01*
X132201Y174282D01*
X132984Y173682D01*
X133896Y173304D01*
X134874Y173175D01*
X135853Y173304D01*
X136764Y173682D01*
X137547Y174282D01*
X138148Y175065D01*
X138526Y175977D01*
X138654Y176955D01*
X138526Y177934D01*
X138148Y178846D01*
X137547Y179629D01*
X136764Y180229D01*
X135853Y180607D01*
X134874Y180736D01*
D02*
G37*
G36*
X161294Y174578D02*
X160367Y174456D01*
X159503Y174098D01*
X158761Y173529D01*
X158192Y172787D01*
X157834Y171923D01*
X157712Y170996D01*
X157834Y170069D01*
X158192Y169206D01*
X158761Y168464D01*
X159503Y167894D01*
X160367Y167537D01*
X161294Y167415D01*
X162221Y167537D01*
X163085Y167894D01*
X163827Y168464D01*
X164396Y169206D01*
X164754Y170069D01*
X164876Y170996D01*
X164754Y171923D01*
X164396Y172787D01*
X163827Y173529D01*
X163085Y174098D01*
X162221Y174456D01*
X161294Y174578D01*
D02*
G37*
G36*
X173563Y170535D02*
X172780Y170432D01*
X172050Y170130D01*
X171424Y169649D01*
X170943Y169022D01*
X170641Y168292D01*
X170537Y167509D01*
X170641Y166726D01*
X170943Y165996D01*
X171424Y165369D01*
X172050Y164889D01*
X172780Y164586D01*
X173563Y164483D01*
X174346Y164586D01*
X175076Y164889D01*
X175703Y165369D01*
X176184Y165996D01*
X176486Y166726D01*
X176589Y167509D01*
X176486Y168292D01*
X176184Y169022D01*
X175703Y169649D01*
X175076Y170130D01*
X174346Y170432D01*
X173563Y170535D01*
D02*
G37*
G36*
X161294Y164578D02*
X160367Y164456D01*
X159503Y164098D01*
X158761Y163529D01*
X158192Y162787D01*
X157834Y161924D01*
X157712Y160996D01*
X157834Y160069D01*
X158192Y159206D01*
X158761Y158464D01*
X159503Y157895D01*
X160367Y157537D01*
X161294Y157415D01*
X162221Y157537D01*
X163085Y157895D01*
X163827Y158464D01*
X164396Y159206D01*
X164754Y160069D01*
X164876Y160996D01*
X164754Y161924D01*
X164396Y162787D01*
X163827Y163529D01*
X163085Y164098D01*
X162221Y164456D01*
X161294Y164578D01*
D02*
G37*
G36*
X259691Y164503D02*
X258712Y164374D01*
X257801Y163997D01*
X257018Y163396D01*
X256417Y162613D01*
X256039Y161701D01*
X255910Y160723D01*
X256039Y159744D01*
X256417Y158833D01*
X257018Y158050D01*
X257801Y157449D01*
X258712Y157071D01*
X259691Y156942D01*
X260669Y157071D01*
X261581Y157449D01*
X262364Y158050D01*
X262965Y158833D01*
X263342Y159744D01*
X263471Y160723D01*
X263342Y161701D01*
X262965Y162613D01*
X262364Y163396D01*
X261581Y163997D01*
X260669Y164374D01*
X259691Y164503D01*
D02*
G37*
G36*
X138346Y164134D02*
X130850D01*
Y156638D01*
X138346D01*
Y164134D01*
D02*
G37*
G36*
X218923Y154852D02*
X218140Y154749D01*
X217410Y154447D01*
X216783Y153966D01*
X216302Y153339D01*
X216000Y152609D01*
X215897Y151826D01*
X216000Y151043D01*
X216302Y150313D01*
X216783Y149687D01*
X217410Y149206D01*
X218140Y148903D01*
X218923Y148800D01*
X219706Y148903D01*
X220436Y149206D01*
X221062Y149687D01*
X221543Y150313D01*
X221846Y151043D01*
X221949Y151826D01*
X221846Y152609D01*
X221543Y153339D01*
X221062Y153966D01*
X220436Y154447D01*
X219706Y154749D01*
X218923Y154852D01*
D02*
G37*
G36*
X161294Y154578D02*
X160367Y154456D01*
X159503Y154098D01*
X158761Y153529D01*
X158192Y152787D01*
X157834Y151924D01*
X157712Y150996D01*
X157834Y150069D01*
X158192Y149206D01*
X158761Y148464D01*
X159503Y147895D01*
X160367Y147537D01*
X161294Y147415D01*
X162221Y147537D01*
X163085Y147895D01*
X163827Y148464D01*
X164396Y149206D01*
X164754Y150069D01*
X164876Y150996D01*
X164754Y151924D01*
X164396Y152787D01*
X163827Y153529D01*
X163085Y154098D01*
X162221Y154456D01*
X161294Y154578D01*
D02*
G37*
G36*
X134848Y149134D02*
Y145636D01*
X138345D01*
X138249Y146365D01*
X137872Y147276D01*
X137271Y148059D01*
X136488Y148660D01*
X135576Y149038D01*
X134848Y149134D01*
D02*
G37*
G36*
X134348D02*
X133619Y149038D01*
X132708Y148660D01*
X131925Y148059D01*
X131324Y147276D01*
X130946Y146365D01*
X130850Y145636D01*
X134348D01*
Y149134D01*
D02*
G37*
G36*
X263439Y149471D02*
X255943D01*
Y141975D01*
X263439D01*
Y149471D01*
D02*
G37*
G36*
X138345Y145136D02*
X134848D01*
Y141639D01*
X135576Y141735D01*
X136488Y142112D01*
X137271Y142713D01*
X137872Y143496D01*
X138249Y144408D01*
X138345Y145136D01*
D02*
G37*
G36*
X134348D02*
X130850D01*
X130946Y144408D01*
X131324Y143496D01*
X131925Y142713D01*
X132708Y142112D01*
X133619Y141735D01*
X134348Y141639D01*
Y145136D01*
D02*
G37*
G36*
X164845Y144548D02*
X161544D01*
Y141246D01*
X164845D01*
Y144548D01*
D02*
G37*
G36*
X161044D02*
X157743D01*
Y141246D01*
X161044D01*
Y144548D01*
D02*
G37*
G36*
X164845Y140746D02*
X161544D01*
Y137445D01*
X164845D01*
Y140746D01*
D02*
G37*
G36*
X161044D02*
X157743D01*
Y137445D01*
X161044D01*
Y140746D01*
D02*
G37*
G36*
X119225Y131613D02*
Y123473D01*
X127365D01*
X127228Y124864D01*
X126749Y126443D01*
X125971Y127898D01*
X124925Y129173D01*
X123650Y130219D01*
X122195Y130997D01*
X120617Y131475D01*
X119225Y131613D01*
D02*
G37*
G36*
X118725D02*
X117333Y131475D01*
X115755Y130997D01*
X114300Y130219D01*
X113025Y129173D01*
X111979Y127898D01*
X111201Y126443D01*
X110722Y124864D01*
X110585Y123473D01*
X118725D01*
Y131613D01*
D02*
G37*
G36*
X274255Y130672D02*
Y122532D01*
X282395D01*
X282258Y123924D01*
X281779Y125503D01*
X281001Y126957D01*
X279955Y128233D01*
X278680Y129279D01*
X277225Y130057D01*
X275646Y130535D01*
X274255Y130672D01*
D02*
G37*
G36*
X273755D02*
X272363Y130535D01*
X270785Y130057D01*
X269330Y129279D01*
X268055Y128233D01*
X267008Y126957D01*
X266231Y125503D01*
X265752Y123924D01*
X265615Y122532D01*
X273755D01*
Y130672D01*
D02*
G37*
G36*
X127365Y122973D02*
X119225D01*
Y114833D01*
X120617Y114970D01*
X122195Y115449D01*
X123650Y116226D01*
X124925Y117273D01*
X125971Y118548D01*
X126749Y120002D01*
X127228Y121581D01*
X127365Y122973D01*
D02*
G37*
G36*
X118725D02*
X110585D01*
X110722Y121581D01*
X111201Y120002D01*
X111979Y118548D01*
X113025Y117273D01*
X114300Y116226D01*
X115755Y115449D01*
X117333Y114970D01*
X118725Y114833D01*
Y122973D01*
D02*
G37*
G36*
X282395Y122032D02*
X274255D01*
Y113893D01*
X275646Y114030D01*
X277225Y114508D01*
X278680Y115286D01*
X279955Y116332D01*
X281001Y117608D01*
X281779Y119062D01*
X282258Y120641D01*
X282395Y122032D01*
D02*
G37*
G36*
X273755D02*
X265615D01*
X265752Y120641D01*
X266231Y119062D01*
X267008Y117608D01*
X268055Y116332D01*
X269330Y115286D01*
X270785Y114508D01*
X272363Y114030D01*
X273755Y113893D01*
Y122032D01*
D02*
G37*
%LPD*%
D55*
X134910Y240101D02*
D03*
X259602Y192213D02*
D03*
X134855Y208625D02*
D03*
X134874Y176955D02*
D03*
X259639Y223522D02*
D03*
X259503Y286800D02*
D03*
Y255098D02*
D03*
X259691Y160723D02*
D03*
X135066Y271644D02*
D03*
X134598Y145386D02*
D03*
D56*
X135066Y286644D02*
D03*
X259602Y177213D02*
D03*
X134855Y223625D02*
D03*
X134874Y191955D02*
D03*
X259639Y208522D02*
D03*
X259503Y271800D02*
D03*
Y240098D02*
D03*
X259691Y145723D02*
D03*
X134910Y255101D02*
D03*
X134598Y160386D02*
D03*
D57*
X118975Y123223D02*
D03*
X274005Y122283D02*
D03*
X119387Y309595D02*
D03*
X273759Y310090D02*
D03*
D58*
X161294Y140997D02*
D03*
D59*
Y150996D02*
D03*
Y160996D02*
D03*
Y170996D02*
D03*
Y180997D02*
D03*
Y190997D02*
D03*
D60*
X212148Y122047D02*
D03*
X201609Y256851D02*
D03*
X176992Y244970D02*
D03*
X176328Y238900D02*
D03*
X182974Y237659D02*
D03*
X162491Y246060D02*
D03*
X218923Y151826D02*
D03*
X204403Y269480D02*
D03*
X222518Y272334D02*
D03*
X157953Y272981D02*
D03*
X188524Y268679D02*
D03*
X203037Y236457D02*
D03*
X236919Y214901D02*
D03*
X236934Y241769D02*
D03*
X173563Y167509D02*
D03*
X198324Y301033D02*
D03*
X216651Y300627D02*
D03*
D61*
X175971Y280420D02*
D03*
X176139Y284249D02*
D03*
X176169Y275672D02*
D03*
X172593Y273276D02*
D03*
M02*
