G04*
G04 #@! TF.GenerationSoftware,Altium Limited,Altium Designer,23.3.1 (30)*
G04*
G04 Layer_Color=32896*
%FSLAX25Y25*%
%MOIN*%
G70*
G04*
G04 #@! TF.SameCoordinates,9E9A1B20-5B00-4279-B210-449FD35A5861*
G04*
G04*
G04 #@! TF.FilePolarity,Positive*
G04*
G01*
G75*
%ADD10C,0.00787*%
G36*
X232928Y192952D02*
X232593D01*
Y194070D01*
X232164D01*
X232124Y194066D01*
X232095D01*
X232069Y194062D01*
X232051Y194059D01*
X232036D01*
X232029Y194055D01*
X232025D01*
X231967Y194037D01*
X231942Y194026D01*
X231920Y194015D01*
X231898Y194004D01*
X231883Y193997D01*
X231876Y193993D01*
X231872Y193990D01*
X231843Y193968D01*
X231814Y193942D01*
X231760Y193888D01*
X231734Y193862D01*
X231716Y193841D01*
X231705Y193826D01*
X231701Y193822D01*
X231665Y193771D01*
X231625Y193717D01*
X231585Y193658D01*
X231545Y193604D01*
X231512Y193553D01*
X231487Y193513D01*
X231476Y193498D01*
X231468Y193487D01*
X231461Y193480D01*
Y193476D01*
X231130Y192952D01*
X230715D01*
X231148Y193637D01*
X231199Y193709D01*
X231246Y193775D01*
X231294Y193830D01*
X231334Y193880D01*
X231370Y193917D01*
X231399Y193946D01*
X231417Y193964D01*
X231425Y193972D01*
X231454Y193993D01*
X231487Y194019D01*
X231552Y194059D01*
X231581Y194073D01*
X231603Y194088D01*
X231618Y194095D01*
X231625Y194099D01*
X231559Y194110D01*
X231498Y194121D01*
X231443Y194139D01*
X231388Y194153D01*
X231341Y194172D01*
X231297Y194194D01*
X231257Y194212D01*
X231221Y194230D01*
X231192Y194252D01*
X231163Y194270D01*
X231141Y194284D01*
X231123Y194299D01*
X231108Y194310D01*
X231097Y194321D01*
X231094Y194325D01*
X231090Y194328D01*
X231061Y194365D01*
X231032Y194401D01*
X230988Y194477D01*
X230959Y194554D01*
X230937Y194627D01*
X230922Y194689D01*
X230919Y194714D01*
Y194740D01*
X230915Y194758D01*
Y194772D01*
Y194780D01*
Y194783D01*
X230919Y194860D01*
X230930Y194929D01*
X230948Y194994D01*
X230966Y195049D01*
X230988Y195096D01*
X231002Y195133D01*
X231017Y195155D01*
X231021Y195158D01*
Y195162D01*
X231064Y195220D01*
X231108Y195271D01*
X231155Y195315D01*
X231199Y195347D01*
X231239Y195373D01*
X231272Y195387D01*
X231294Y195398D01*
X231297Y195402D01*
X231301D01*
X231334Y195413D01*
X231374Y195424D01*
X231454Y195442D01*
X231541Y195453D01*
X231621Y195464D01*
X231698Y195468D01*
X231731D01*
X231760Y195471D01*
X232928D01*
Y192952D01*
D02*
G37*
G36*
X230497Y195140D02*
X229263D01*
X229350Y195034D01*
X229434Y194922D01*
X229506Y194812D01*
X229576Y194707D01*
X229605Y194659D01*
X229630Y194616D01*
X229656Y194576D01*
X229674Y194543D01*
X229689Y194514D01*
X229699Y194496D01*
X229707Y194481D01*
X229710Y194477D01*
X229783Y194332D01*
X229849Y194186D01*
X229903Y194048D01*
X229925Y193986D01*
X229947Y193924D01*
X229969Y193870D01*
X229983Y193819D01*
X229998Y193775D01*
X230009Y193739D01*
X230020Y193706D01*
X230027Y193684D01*
X230031Y193669D01*
Y193666D01*
X230067Y193517D01*
X230082Y193444D01*
X230093Y193378D01*
X230103Y193316D01*
X230114Y193254D01*
X230122Y193203D01*
X230129Y193152D01*
X230133Y193109D01*
X230136Y193069D01*
X230140Y193032D01*
Y193003D01*
X230143Y192981D01*
Y192967D01*
Y192956D01*
Y192952D01*
X229827D01*
X229816Y193091D01*
X229798Y193218D01*
X229779Y193334D01*
X229768Y193389D01*
X229758Y193440D01*
X229750Y193484D01*
X229739Y193524D01*
X229732Y193560D01*
X229725Y193589D01*
X229718Y193611D01*
X229714Y193629D01*
X229710Y193640D01*
Y193644D01*
X229656Y193811D01*
X229597Y193968D01*
X229568Y194044D01*
X229539Y194117D01*
X229506Y194183D01*
X229477Y194248D01*
X229452Y194306D01*
X229426Y194357D01*
X229404Y194401D01*
X229386Y194441D01*
X229368Y194474D01*
X229357Y194496D01*
X229350Y194510D01*
X229346Y194514D01*
X229303Y194590D01*
X229259Y194667D01*
X229215Y194736D01*
X229172Y194801D01*
X229132Y194860D01*
X229092Y194918D01*
X229051Y194969D01*
X229019Y195013D01*
X228986Y195056D01*
X228957Y195093D01*
X228928Y195122D01*
X228906Y195147D01*
X228891Y195169D01*
X228877Y195184D01*
X228870Y195191D01*
X228866Y195195D01*
Y195438D01*
X230497D01*
Y195140D01*
D02*
G37*
G36*
X188072Y186822D02*
X188134Y186815D01*
X188196Y186804D01*
X188254Y186789D01*
X188309Y186771D01*
X188356Y186753D01*
X188403Y186731D01*
X188443Y186709D01*
X188483Y186691D01*
X188516Y186669D01*
X188545Y186651D01*
X188567Y186633D01*
X188585Y186618D01*
X188600Y186607D01*
X188607Y186600D01*
X188611Y186596D01*
X188654Y186553D01*
X188691Y186505D01*
X188724Y186458D01*
X188753Y186411D01*
X188775Y186367D01*
X188796Y186320D01*
X188826Y186232D01*
X188833Y186192D01*
X188840Y186156D01*
X188847Y186123D01*
X188851Y186094D01*
X188855Y186072D01*
Y186054D01*
Y186043D01*
Y186039D01*
X188851Y185952D01*
X188836Y185872D01*
X188814Y185803D01*
X188793Y185745D01*
X188771Y185697D01*
X188749Y185661D01*
X188734Y185639D01*
X188731Y185632D01*
X188680Y185577D01*
X188625Y185530D01*
X188567Y185493D01*
X188509Y185464D01*
X188458Y185442D01*
X188418Y185428D01*
X188403Y185424D01*
X188392Y185421D01*
X188385Y185417D01*
X188381D01*
X188443Y185384D01*
X188494Y185351D01*
X188538Y185315D01*
X188574Y185282D01*
X188603Y185253D01*
X188625Y185228D01*
X188636Y185213D01*
X188640Y185206D01*
X188669Y185155D01*
X188691Y185104D01*
X188709Y185053D01*
X188720Y185006D01*
X188727Y184966D01*
X188731Y184936D01*
Y184915D01*
Y184907D01*
X188727Y184845D01*
X188716Y184783D01*
X188702Y184729D01*
X188683Y184682D01*
X188665Y184642D01*
X188651Y184609D01*
X188640Y184591D01*
X188636Y184583D01*
X188600Y184529D01*
X188556Y184481D01*
X188512Y184441D01*
X188469Y184405D01*
X188432Y184379D01*
X188400Y184358D01*
X188378Y184347D01*
X188374Y184343D01*
X188371D01*
X188305Y184314D01*
X188239Y184292D01*
X188174Y184274D01*
X188116Y184263D01*
X188068Y184256D01*
X188028Y184252D01*
X187937D01*
X187886Y184259D01*
X187788Y184278D01*
X187704Y184307D01*
X187631Y184336D01*
X187599Y184354D01*
X187573Y184369D01*
X187548Y184383D01*
X187530Y184398D01*
X187515Y184409D01*
X187504Y184416D01*
X187497Y184420D01*
X187493Y184423D01*
X187424Y184492D01*
X187370Y184569D01*
X187326Y184649D01*
X187289Y184729D01*
X187267Y184798D01*
X187257Y184827D01*
X187249Y184853D01*
X187246Y184874D01*
X187242Y184889D01*
X187238Y184900D01*
Y184904D01*
X187548Y184958D01*
X187562Y184878D01*
X187584Y184809D01*
X187610Y184751D01*
X187635Y184704D01*
X187661Y184667D01*
X187682Y184642D01*
X187697Y184623D01*
X187701Y184620D01*
X187748Y184583D01*
X187799Y184554D01*
X187846Y184536D01*
X187894Y184521D01*
X187937Y184514D01*
X187970Y184507D01*
X187999D01*
X188065Y184511D01*
X188123Y184525D01*
X188174Y184543D01*
X188218Y184562D01*
X188250Y184583D01*
X188276Y184601D01*
X188294Y184616D01*
X188298Y184620D01*
X188338Y184663D01*
X188367Y184711D01*
X188385Y184758D01*
X188400Y184802D01*
X188407Y184842D01*
X188414Y184871D01*
Y184893D01*
Y184896D01*
Y184900D01*
Y184940D01*
X188407Y184976D01*
X188389Y185038D01*
X188363Y185093D01*
X188334Y185140D01*
X188305Y185173D01*
X188279Y185198D01*
X188261Y185213D01*
X188258Y185217D01*
X188254D01*
X188192Y185249D01*
X188134Y185275D01*
X188072Y185293D01*
X188017Y185304D01*
X187970Y185311D01*
X187930Y185319D01*
X187883D01*
X187868Y185315D01*
X187850D01*
X187813Y185588D01*
X187861Y185577D01*
X187905Y185570D01*
X187941Y185563D01*
X187974Y185559D01*
X187999Y185555D01*
X188032D01*
X188108Y185563D01*
X188178Y185577D01*
X188239Y185599D01*
X188290Y185624D01*
X188330Y185650D01*
X188359Y185672D01*
X188378Y185686D01*
X188385Y185694D01*
X188432Y185748D01*
X188469Y185806D01*
X188494Y185865D01*
X188509Y185923D01*
X188520Y185970D01*
X188523Y186010D01*
X188527Y186025D01*
Y186036D01*
Y186043D01*
Y186047D01*
X188520Y186127D01*
X188502Y186199D01*
X188480Y186261D01*
X188451Y186316D01*
X188421Y186360D01*
X188400Y186392D01*
X188381Y186414D01*
X188374Y186422D01*
X188316Y186472D01*
X188254Y186509D01*
X188192Y186534D01*
X188134Y186553D01*
X188083Y186564D01*
X188043Y186567D01*
X188028Y186571D01*
X188006D01*
X187941Y186567D01*
X187879Y186553D01*
X187824Y186534D01*
X187781Y186512D01*
X187744Y186494D01*
X187715Y186476D01*
X187701Y186462D01*
X187693Y186458D01*
X187650Y186407D01*
X187613Y186349D01*
X187581Y186287D01*
X187555Y186221D01*
X187537Y186167D01*
X187530Y186141D01*
X187526Y186119D01*
X187522Y186101D01*
X187519Y186087D01*
X187515Y186079D01*
Y186076D01*
X187206Y186116D01*
X187213Y186174D01*
X187224Y186229D01*
X187257Y186330D01*
X187297Y186418D01*
X187319Y186454D01*
X187340Y186491D01*
X187362Y186523D01*
X187384Y186549D01*
X187402Y186574D01*
X187420Y186593D01*
X187431Y186607D01*
X187442Y186618D01*
X187450Y186625D01*
X187453Y186629D01*
X187497Y186662D01*
X187540Y186695D01*
X187584Y186720D01*
X187631Y186742D01*
X187723Y186778D01*
X187810Y186800D01*
X187850Y186807D01*
X187886Y186815D01*
X187919Y186818D01*
X187948Y186822D01*
X187970Y186826D01*
X188003D01*
X188072Y186822D01*
D02*
G37*
G36*
X186933Y186483D02*
X185691D01*
Y184263D01*
X185356D01*
Y186782D01*
X186933D01*
Y186483D01*
D02*
G37*
G36*
X203166Y222975D02*
X203115Y222902D01*
X203068Y222837D01*
X203021Y222782D01*
X202980Y222731D01*
X202944Y222695D01*
X202915Y222666D01*
X202897Y222648D01*
X202889Y222640D01*
X202860Y222618D01*
X202828Y222593D01*
X202762Y222553D01*
X202733Y222538D01*
X202711Y222524D01*
X202697Y222516D01*
X202689Y222513D01*
X202755Y222502D01*
X202817Y222491D01*
X202871Y222473D01*
X202926Y222458D01*
X202973Y222440D01*
X203017Y222418D01*
X203057Y222400D01*
X203093Y222382D01*
X203122Y222360D01*
X203152Y222342D01*
X203173Y222327D01*
X203192Y222313D01*
X203206Y222302D01*
X203217Y222291D01*
X203221Y222287D01*
X203224Y222284D01*
X203254Y222247D01*
X203283Y222211D01*
X203326Y222134D01*
X203355Y222058D01*
X203377Y221985D01*
X203392Y221923D01*
X203396Y221898D01*
Y221872D01*
X203399Y221854D01*
Y221839D01*
Y221832D01*
Y221829D01*
X203396Y221752D01*
X203385Y221683D01*
X203366Y221617D01*
X203348Y221563D01*
X203326Y221515D01*
X203312Y221479D01*
X203297Y221457D01*
X203294Y221454D01*
Y221450D01*
X203250Y221392D01*
X203206Y221341D01*
X203159Y221297D01*
X203115Y221264D01*
X203075Y221239D01*
X203042Y221224D01*
X203021Y221213D01*
X203017Y221210D01*
X203013D01*
X202980Y221199D01*
X202941Y221188D01*
X202860Y221170D01*
X202773Y221159D01*
X202693Y221148D01*
X202617Y221144D01*
X202584D01*
X202555Y221141D01*
X201386D01*
Y223659D01*
X201721D01*
Y222542D01*
X202151D01*
X202191Y222546D01*
X202220D01*
X202245Y222549D01*
X202263Y222553D01*
X202278D01*
X202285Y222557D01*
X202289D01*
X202347Y222575D01*
X202373Y222586D01*
X202395Y222597D01*
X202416Y222607D01*
X202431Y222615D01*
X202438Y222618D01*
X202442Y222622D01*
X202471Y222644D01*
X202500Y222669D01*
X202555Y222724D01*
X202580Y222749D01*
X202598Y222771D01*
X202609Y222786D01*
X202613Y222790D01*
X202649Y222840D01*
X202689Y222895D01*
X202729Y222953D01*
X202769Y223008D01*
X202802Y223059D01*
X202828Y223099D01*
X202839Y223113D01*
X202846Y223124D01*
X202853Y223132D01*
Y223135D01*
X203184Y223659D01*
X203599D01*
X203166Y222975D01*
D02*
G37*
G36*
X204961Y221130D02*
X204761D01*
X204724Y221192D01*
X204684Y221250D01*
X204637Y221308D01*
X204593Y221359D01*
X204549Y221403D01*
X204517Y221439D01*
X204502Y221450D01*
X204491Y221461D01*
X204487Y221465D01*
X204484Y221468D01*
X204407Y221530D01*
X204331Y221588D01*
X204258Y221639D01*
X204185Y221679D01*
X204123Y221716D01*
X204098Y221730D01*
X204076Y221741D01*
X204058Y221752D01*
X204043Y221756D01*
X204036Y221763D01*
X204032D01*
Y222061D01*
X204087Y222040D01*
X204142Y222014D01*
X204196Y221989D01*
X204247Y221963D01*
X204291Y221941D01*
X204327Y221923D01*
X204349Y221909D01*
X204353Y221905D01*
X204356D01*
X204422Y221865D01*
X204480Y221825D01*
X204531Y221789D01*
X204571Y221756D01*
X204608Y221730D01*
X204629Y221708D01*
X204648Y221694D01*
X204651Y221690D01*
Y223659D01*
X204961D01*
Y221130D01*
D02*
G37*
G36*
X206675Y223696D02*
X206766Y223681D01*
X206843Y223656D01*
X206908Y223630D01*
X206963Y223605D01*
X206981Y223590D01*
X206999Y223579D01*
X207014Y223572D01*
X207025Y223565D01*
X207028Y223557D01*
X207032D01*
X207097Y223496D01*
X207152Y223430D01*
X207199Y223357D01*
X207236Y223292D01*
X207265Y223230D01*
X207279Y223204D01*
X207287Y223179D01*
X207294Y223161D01*
X207301Y223146D01*
X207305Y223139D01*
Y223135D01*
X207323Y223081D01*
X207338Y223026D01*
X207360Y222910D01*
X207378Y222790D01*
X207389Y222673D01*
X207392Y222622D01*
X207396Y222575D01*
Y222531D01*
X207400Y222491D01*
Y222462D01*
Y222436D01*
Y222422D01*
Y222418D01*
Y222349D01*
X207396Y222284D01*
Y222225D01*
X207392Y222167D01*
X207385Y222116D01*
X207381Y222065D01*
X207378Y222022D01*
X207370Y221981D01*
X207367Y221945D01*
X207360Y221912D01*
X207356Y221887D01*
X207352Y221865D01*
X207348Y221847D01*
X207345Y221836D01*
X207341Y221829D01*
Y221825D01*
X207319Y221745D01*
X207294Y221672D01*
X207265Y221610D01*
X207243Y221555D01*
X207218Y221508D01*
X207203Y221476D01*
X207188Y221457D01*
X207185Y221450D01*
X207145Y221395D01*
X207105Y221348D01*
X207061Y221308D01*
X207021Y221272D01*
X206984Y221246D01*
X206955Y221228D01*
X206937Y221217D01*
X206934Y221213D01*
X206930D01*
X206872Y221184D01*
X206810Y221166D01*
X206752Y221151D01*
X206697Y221141D01*
X206650Y221133D01*
X206610Y221130D01*
X206577D01*
X206479Y221137D01*
X206388Y221151D01*
X206311Y221177D01*
X206246Y221202D01*
X206191Y221232D01*
X206169Y221242D01*
X206151Y221257D01*
X206136Y221264D01*
X206125Y221272D01*
X206122Y221279D01*
X206118D01*
X206053Y221337D01*
X205998Y221406D01*
X205951Y221476D01*
X205914Y221541D01*
X205885Y221603D01*
X205871Y221628D01*
X205863Y221654D01*
X205856Y221672D01*
X205849Y221687D01*
X205845Y221694D01*
Y221697D01*
X205831Y221752D01*
X205816Y221807D01*
X205794Y221927D01*
X205776Y222047D01*
X205765Y222160D01*
X205762Y222214D01*
X205758Y222262D01*
Y222305D01*
X205754Y222345D01*
Y222375D01*
Y222400D01*
Y222415D01*
Y222418D01*
X205758Y222546D01*
X205765Y222666D01*
X205776Y222775D01*
X205794Y222877D01*
X205812Y222972D01*
X205834Y223055D01*
X205856Y223132D01*
X205878Y223197D01*
X205900Y223255D01*
X205925Y223306D01*
X205943Y223350D01*
X205962Y223383D01*
X205980Y223412D01*
X205991Y223430D01*
X205998Y223441D01*
X206002Y223445D01*
X206042Y223488D01*
X206085Y223528D01*
X206133Y223565D01*
X206180Y223594D01*
X206227Y223619D01*
X206275Y223641D01*
X206322Y223656D01*
X206366Y223670D01*
X206409Y223681D01*
X206449Y223689D01*
X206486Y223696D01*
X206515Y223699D01*
X206540Y223703D01*
X206577D01*
X206675Y223696D01*
D02*
G37*
G36*
X230043Y204414D02*
X230083Y204356D01*
X230131Y204298D01*
X230174Y204247D01*
X230218Y204203D01*
X230251Y204167D01*
X230265Y204156D01*
X230276Y204145D01*
X230280Y204141D01*
X230283Y204138D01*
X230360Y204076D01*
X230436Y204017D01*
X230509Y203966D01*
X230582Y203926D01*
X230644Y203890D01*
X230669Y203875D01*
X230691Y203865D01*
X230709Y203854D01*
X230724Y203850D01*
X230731Y203843D01*
X230735D01*
Y203544D01*
X230680Y203566D01*
X230626Y203592D01*
X230571Y203617D01*
X230520Y203643D01*
X230476Y203664D01*
X230440Y203683D01*
X230418Y203697D01*
X230414Y203701D01*
X230411D01*
X230345Y203741D01*
X230287Y203781D01*
X230236Y203817D01*
X230196Y203850D01*
X230160Y203875D01*
X230138Y203897D01*
X230119Y203912D01*
X230116Y203916D01*
Y201946D01*
X229806D01*
Y204476D01*
X230007D01*
X230043Y204414D01*
D02*
G37*
G36*
X228085D02*
X228125Y204356D01*
X228172Y204298D01*
X228216Y204247D01*
X228259Y204203D01*
X228292Y204167D01*
X228307Y204156D01*
X228318Y204145D01*
X228321Y204141D01*
X228325Y204138D01*
X228401Y204076D01*
X228478Y204017D01*
X228551Y203966D01*
X228624Y203926D01*
X228685Y203890D01*
X228711Y203875D01*
X228733Y203865D01*
X228751Y203854D01*
X228766Y203850D01*
X228773Y203843D01*
X228776D01*
Y203544D01*
X228722Y203566D01*
X228667Y203592D01*
X228613Y203617D01*
X228562Y203643D01*
X228518Y203664D01*
X228482Y203683D01*
X228460Y203697D01*
X228456Y203701D01*
X228452D01*
X228387Y203741D01*
X228329Y203781D01*
X228278Y203817D01*
X228238Y203850D01*
X228201Y203875D01*
X228179Y203897D01*
X228161Y203912D01*
X228158Y203916D01*
Y201946D01*
X227848D01*
Y204476D01*
X228048D01*
X228085Y204414D01*
D02*
G37*
G36*
X233381Y201946D02*
X233046D01*
Y203064D01*
X232617D01*
X232576Y203060D01*
X232547D01*
X232522Y203057D01*
X232504Y203053D01*
X232489D01*
X232482Y203049D01*
X232478D01*
X232420Y203031D01*
X232395Y203020D01*
X232373Y203009D01*
X232351Y202998D01*
X232336Y202991D01*
X232329Y202987D01*
X232325Y202984D01*
X232296Y202962D01*
X232267Y202936D01*
X232213Y202882D01*
X232187Y202856D01*
X232169Y202835D01*
X232158Y202820D01*
X232154Y202816D01*
X232118Y202765D01*
X232078Y202711D01*
X232038Y202653D01*
X231998Y202598D01*
X231965Y202547D01*
X231940Y202507D01*
X231929Y202492D01*
X231921Y202481D01*
X231914Y202474D01*
Y202470D01*
X231583Y201946D01*
X231168D01*
X231601Y202631D01*
X231652Y202703D01*
X231699Y202769D01*
X231747Y202824D01*
X231787Y202874D01*
X231823Y202911D01*
X231852Y202940D01*
X231870Y202958D01*
X231878Y202965D01*
X231907Y202987D01*
X231940Y203013D01*
X232005Y203053D01*
X232034Y203067D01*
X232056Y203082D01*
X232071Y203089D01*
X232078Y203093D01*
X232012Y203104D01*
X231950Y203115D01*
X231896Y203133D01*
X231841Y203148D01*
X231794Y203166D01*
X231750Y203188D01*
X231710Y203206D01*
X231674Y203224D01*
X231645Y203246D01*
X231616Y203264D01*
X231594Y203278D01*
X231576Y203293D01*
X231561Y203304D01*
X231550Y203315D01*
X231546Y203319D01*
X231543Y203322D01*
X231514Y203359D01*
X231485Y203395D01*
X231441Y203471D01*
X231412Y203548D01*
X231390Y203621D01*
X231375Y203683D01*
X231372Y203708D01*
Y203733D01*
X231368Y203752D01*
Y203766D01*
Y203774D01*
Y203777D01*
X231372Y203854D01*
X231383Y203923D01*
X231401Y203988D01*
X231419Y204043D01*
X231441Y204090D01*
X231455Y204127D01*
X231470Y204149D01*
X231474Y204152D01*
Y204156D01*
X231517Y204214D01*
X231561Y204265D01*
X231608Y204309D01*
X231652Y204341D01*
X231692Y204367D01*
X231725Y204381D01*
X231747Y204392D01*
X231750Y204396D01*
X231754D01*
X231787Y204407D01*
X231827Y204418D01*
X231907Y204436D01*
X231994Y204447D01*
X232074Y204458D01*
X232151Y204462D01*
X232183D01*
X232213Y204465D01*
X233381D01*
Y201946D01*
D02*
G37*
G36*
X186975Y223672D02*
X186924Y223600D01*
X186876Y223534D01*
X186829Y223479D01*
X186789Y223428D01*
X186752Y223392D01*
X186723Y223363D01*
X186705Y223345D01*
X186698Y223337D01*
X186669Y223316D01*
X186636Y223290D01*
X186571Y223250D01*
X186541Y223236D01*
X186520Y223221D01*
X186505Y223214D01*
X186498Y223210D01*
X186563Y223199D01*
X186625Y223188D01*
X186680Y223170D01*
X186734Y223155D01*
X186782Y223137D01*
X186825Y223115D01*
X186865Y223097D01*
X186902Y223079D01*
X186931Y223057D01*
X186960Y223039D01*
X186982Y223024D01*
X187000Y223010D01*
X187015Y222999D01*
X187025Y222988D01*
X187029Y222984D01*
X187033Y222981D01*
X187062Y222944D01*
X187091Y222908D01*
X187135Y222831D01*
X187164Y222755D01*
X187186Y222682D01*
X187200Y222620D01*
X187204Y222595D01*
Y222569D01*
X187207Y222551D01*
Y222537D01*
Y222529D01*
Y222526D01*
X187204Y222449D01*
X187193Y222380D01*
X187175Y222315D01*
X187157Y222260D01*
X187135Y222213D01*
X187120Y222176D01*
X187106Y222154D01*
X187102Y222151D01*
Y222147D01*
X187058Y222089D01*
X187015Y222038D01*
X186967Y221994D01*
X186924Y221961D01*
X186884Y221936D01*
X186851Y221921D01*
X186829Y221911D01*
X186825Y221907D01*
X186822D01*
X186789Y221896D01*
X186749Y221885D01*
X186669Y221867D01*
X186581Y221856D01*
X186501Y221845D01*
X186425Y221841D01*
X186392D01*
X186363Y221838D01*
X185195D01*
Y224357D01*
X185529D01*
Y223239D01*
X185959D01*
X185999Y223243D01*
X186028D01*
X186054Y223246D01*
X186072Y223250D01*
X186086D01*
X186094Y223254D01*
X186097D01*
X186156Y223272D01*
X186181Y223283D01*
X186203Y223294D01*
X186225Y223305D01*
X186239Y223312D01*
X186247Y223316D01*
X186250Y223319D01*
X186279Y223341D01*
X186308Y223366D01*
X186363Y223421D01*
X186389Y223447D01*
X186407Y223468D01*
X186418Y223483D01*
X186421Y223487D01*
X186458Y223538D01*
X186498Y223592D01*
X186538Y223651D01*
X186578Y223705D01*
X186611Y223756D01*
X186636Y223796D01*
X186647Y223811D01*
X186654Y223821D01*
X186662Y223829D01*
Y223833D01*
X186993Y224357D01*
X187408D01*
X186975Y223672D01*
D02*
G37*
G36*
X188460Y224393D02*
X188551Y224378D01*
X188634Y224353D01*
X188704Y224324D01*
X188733Y224313D01*
X188762Y224298D01*
X188784Y224284D01*
X188805Y224273D01*
X188820Y224266D01*
X188831Y224258D01*
X188838Y224251D01*
X188842D01*
X188915Y224189D01*
X188980Y224120D01*
X189031Y224047D01*
X189075Y223978D01*
X189111Y223916D01*
X189126Y223887D01*
X189137Y223865D01*
X189144Y223843D01*
X189151Y223829D01*
X189155Y223821D01*
Y223818D01*
X189173Y223763D01*
X189191Y223701D01*
X189217Y223578D01*
X189235Y223447D01*
X189246Y223323D01*
X189253Y223268D01*
X189257Y223214D01*
Y223166D01*
X189260Y223126D01*
Y223094D01*
Y223068D01*
Y223050D01*
Y223046D01*
Y222962D01*
X189257Y222882D01*
X189250Y222810D01*
X189242Y222741D01*
X189235Y222679D01*
X189228Y222620D01*
X189217Y222566D01*
X189206Y222518D01*
X189195Y222478D01*
X189188Y222442D01*
X189177Y222409D01*
X189170Y222384D01*
X189162Y222365D01*
X189155Y222351D01*
X189151Y222344D01*
Y222340D01*
X189108Y222253D01*
X189060Y222176D01*
X189006Y222111D01*
X188958Y222056D01*
X188911Y222016D01*
X188875Y221987D01*
X188860Y221976D01*
X188849Y221969D01*
X188846Y221961D01*
X188842D01*
X188766Y221918D01*
X188689Y221885D01*
X188613Y221860D01*
X188543Y221845D01*
X188481Y221834D01*
X188456Y221831D01*
X188438D01*
X188420Y221827D01*
X188394D01*
X188332Y221831D01*
X188274Y221838D01*
X188216Y221849D01*
X188165Y221863D01*
X188067Y221903D01*
X188023Y221921D01*
X187987Y221943D01*
X187950Y221969D01*
X187921Y221987D01*
X187892Y222009D01*
X187870Y222027D01*
X187852Y222042D01*
X187841Y222053D01*
X187834Y222060D01*
X187830Y222063D01*
X187790Y222107D01*
X187757Y222158D01*
X187724Y222205D01*
X187699Y222256D01*
X187677Y222311D01*
X187659Y222362D01*
X187633Y222457D01*
X187622Y222504D01*
X187615Y222544D01*
X187612Y222584D01*
X187608Y222617D01*
X187604Y222642D01*
Y222660D01*
Y222675D01*
Y222679D01*
X187608Y222748D01*
X187615Y222810D01*
X187622Y222871D01*
X187637Y222930D01*
X187655Y222981D01*
X187673Y223032D01*
X187692Y223075D01*
X187714Y223115D01*
X187732Y223152D01*
X187750Y223184D01*
X187768Y223210D01*
X187786Y223236D01*
X187801Y223254D01*
X187808Y223265D01*
X187815Y223272D01*
X187819Y223275D01*
X187859Y223316D01*
X187903Y223348D01*
X187946Y223381D01*
X187994Y223407D01*
X188037Y223428D01*
X188081Y223447D01*
X188165Y223472D01*
X188201Y223483D01*
X188238Y223490D01*
X188267Y223494D01*
X188296Y223498D01*
X188318Y223501D01*
X188347D01*
X188416Y223498D01*
X188481Y223487D01*
X188540Y223472D01*
X188594Y223454D01*
X188634Y223439D01*
X188667Y223425D01*
X188689Y223414D01*
X188696Y223410D01*
X188754Y223374D01*
X188805Y223334D01*
X188849Y223294D01*
X188886Y223257D01*
X188911Y223221D01*
X188933Y223195D01*
X188947Y223177D01*
X188951Y223170D01*
Y223199D01*
Y223217D01*
Y223228D01*
Y223232D01*
X188947Y223305D01*
X188944Y223374D01*
X188936Y223436D01*
X188929Y223494D01*
X188918Y223541D01*
X188911Y223578D01*
X188907Y223592D01*
Y223603D01*
X188904Y223607D01*
Y223610D01*
X188886Y223676D01*
X188867Y223734D01*
X188849Y223785D01*
X188831Y223829D01*
X188816Y223862D01*
X188802Y223887D01*
X188795Y223905D01*
X188791Y223909D01*
X188762Y223949D01*
X188733Y223982D01*
X188704Y224011D01*
X188674Y224036D01*
X188653Y224058D01*
X188631Y224073D01*
X188616Y224080D01*
X188613Y224084D01*
X188573Y224106D01*
X188529Y224120D01*
X188489Y224131D01*
X188449Y224138D01*
X188416Y224142D01*
X188391Y224146D01*
X188365D01*
X188307Y224142D01*
X188252Y224131D01*
X188205Y224116D01*
X188165Y224098D01*
X188136Y224084D01*
X188110Y224069D01*
X188096Y224058D01*
X188092Y224055D01*
X188056Y224014D01*
X188026Y223967D01*
X188001Y223916D01*
X187983Y223865D01*
X187968Y223821D01*
X187957Y223781D01*
X187954Y223767D01*
Y223760D01*
X187950Y223752D01*
Y223749D01*
X187652Y223774D01*
X187673Y223880D01*
X187703Y223971D01*
X187739Y224051D01*
X187775Y224116D01*
X187812Y224167D01*
X187830Y224189D01*
X187845Y224207D01*
X187855Y224218D01*
X187866Y224229D01*
X187870Y224233D01*
X187874Y224236D01*
X187910Y224266D01*
X187950Y224291D01*
X188030Y224331D01*
X188110Y224360D01*
X188187Y224378D01*
X188256Y224393D01*
X188285Y224397D01*
X188310D01*
X188329Y224400D01*
X188358D01*
X188460Y224393D01*
D02*
G37*
%LPC*%
G36*
X232593Y195191D02*
X231800D01*
X231701Y195187D01*
X231618Y195173D01*
X231545Y195155D01*
X231490Y195133D01*
X231443Y195111D01*
X231414Y195093D01*
X231396Y195078D01*
X231388Y195074D01*
X231345Y195027D01*
X231312Y194980D01*
X231290Y194929D01*
X231272Y194885D01*
X231265Y194842D01*
X231261Y194809D01*
X231257Y194787D01*
Y194783D01*
Y194780D01*
X231261Y194736D01*
X231268Y194692D01*
X231279Y194656D01*
X231290Y194623D01*
X231305Y194594D01*
X231315Y194572D01*
X231323Y194557D01*
X231327Y194554D01*
X231352Y194518D01*
X231385Y194485D01*
X231417Y194459D01*
X231450Y194437D01*
X231479Y194423D01*
X231501Y194412D01*
X231516Y194405D01*
X231523Y194401D01*
X231574Y194386D01*
X231632Y194376D01*
X231691Y194368D01*
X231749Y194365D01*
X231800Y194361D01*
X231843Y194357D01*
X232593D01*
Y195191D01*
D02*
G37*
G36*
X202471Y222254D02*
X201721D01*
Y221421D01*
X202515D01*
X202613Y221425D01*
X202697Y221439D01*
X202769Y221457D01*
X202824Y221479D01*
X202871Y221501D01*
X202901Y221519D01*
X202919Y221534D01*
X202926Y221537D01*
X202970Y221585D01*
X203002Y221632D01*
X203024Y221683D01*
X203042Y221727D01*
X203050Y221770D01*
X203053Y221803D01*
X203057Y221825D01*
Y221829D01*
Y221832D01*
X203053Y221876D01*
X203046Y221919D01*
X203035Y221956D01*
X203024Y221989D01*
X203010Y222018D01*
X202999Y222040D01*
X202992Y222054D01*
X202988Y222058D01*
X202962Y222094D01*
X202930Y222127D01*
X202897Y222152D01*
X202864Y222174D01*
X202835Y222189D01*
X202813Y222200D01*
X202799Y222207D01*
X202791Y222211D01*
X202740Y222225D01*
X202682Y222236D01*
X202624Y222243D01*
X202566Y222247D01*
X202515Y222251D01*
X202471Y222254D01*
D02*
G37*
G36*
X206599Y223448D02*
X206577D01*
X206537Y223445D01*
X206500Y223441D01*
X206431Y223416D01*
X206369Y223383D01*
X206315Y223346D01*
X206275Y223310D01*
X206242Y223277D01*
X206224Y223252D01*
X206217Y223248D01*
Y223245D01*
X206191Y223201D01*
X206169Y223150D01*
X206147Y223092D01*
X206133Y223030D01*
X206118Y222964D01*
X206107Y222895D01*
X206089Y222753D01*
X206082Y222688D01*
X206078Y222626D01*
X206075Y222568D01*
Y222520D01*
X206071Y222477D01*
Y222444D01*
Y222426D01*
Y222418D01*
X206075Y222305D01*
X206078Y222203D01*
X206085Y222109D01*
X206096Y222022D01*
X206107Y221945D01*
X206122Y221876D01*
X206136Y221814D01*
X206151Y221759D01*
X206166Y221712D01*
X206176Y221672D01*
X206191Y221639D01*
X206202Y221610D01*
X206213Y221592D01*
X206220Y221577D01*
X206227Y221570D01*
Y221567D01*
X206253Y221534D01*
X206278Y221505D01*
X206308Y221483D01*
X206337Y221461D01*
X206395Y221428D01*
X206449Y221406D01*
X206497Y221395D01*
X206537Y221388D01*
X206551Y221385D01*
X206573D01*
X206613Y221388D01*
X206653Y221392D01*
X206690Y221403D01*
X206722Y221417D01*
X206784Y221450D01*
X206839Y221486D01*
X206879Y221526D01*
X206912Y221559D01*
X206923Y221574D01*
X206930Y221585D01*
X206937Y221588D01*
Y221592D01*
X206963Y221636D01*
X206984Y221687D01*
X207006Y221745D01*
X207021Y221807D01*
X207035Y221872D01*
X207046Y221941D01*
X207065Y222080D01*
X207072Y222149D01*
X207076Y222211D01*
X207079Y222269D01*
Y222316D01*
X207083Y222360D01*
Y222393D01*
Y222411D01*
Y222415D01*
Y222418D01*
Y222531D01*
X207076Y222633D01*
X207068Y222724D01*
X207061Y222811D01*
X207050Y222884D01*
X207035Y222953D01*
X207021Y223011D01*
X207010Y223066D01*
X206995Y223110D01*
X206981Y223146D01*
X206970Y223179D01*
X206955Y223204D01*
X206948Y223223D01*
X206941Y223234D01*
X206934Y223241D01*
Y223245D01*
X206904Y223281D01*
X206875Y223310D01*
X206846Y223339D01*
X206817Y223361D01*
X206755Y223397D01*
X206701Y223423D01*
X206650Y223437D01*
X206613Y223445D01*
X206599Y223448D01*
D02*
G37*
G36*
X233046Y204185D02*
X232253D01*
X232154Y204181D01*
X232071Y204167D01*
X231998Y204149D01*
X231943Y204127D01*
X231896Y204105D01*
X231867Y204087D01*
X231849Y204072D01*
X231841Y204068D01*
X231798Y204021D01*
X231765Y203974D01*
X231743Y203923D01*
X231725Y203879D01*
X231717Y203836D01*
X231714Y203803D01*
X231710Y203781D01*
Y203777D01*
Y203774D01*
X231714Y203730D01*
X231721Y203686D01*
X231732Y203650D01*
X231743Y203617D01*
X231757Y203588D01*
X231768Y203566D01*
X231776Y203552D01*
X231779Y203548D01*
X231805Y203512D01*
X231838Y203479D01*
X231870Y203453D01*
X231903Y203431D01*
X231932Y203417D01*
X231954Y203406D01*
X231969Y203399D01*
X231976Y203395D01*
X232027Y203380D01*
X232085Y203370D01*
X232143Y203362D01*
X232202Y203359D01*
X232253Y203355D01*
X232296Y203351D01*
X233046D01*
Y204185D01*
D02*
G37*
G36*
X186279Y222952D02*
X185529D01*
Y222118D01*
X186323D01*
X186421Y222122D01*
X186505Y222136D01*
X186578Y222154D01*
X186632Y222176D01*
X186680Y222198D01*
X186709Y222216D01*
X186727Y222231D01*
X186734Y222235D01*
X186778Y222282D01*
X186811Y222329D01*
X186833Y222380D01*
X186851Y222424D01*
X186858Y222467D01*
X186862Y222500D01*
X186865Y222522D01*
Y222526D01*
Y222529D01*
X186862Y222573D01*
X186854Y222617D01*
X186844Y222653D01*
X186833Y222686D01*
X186818Y222715D01*
X186807Y222737D01*
X186800Y222751D01*
X186796Y222755D01*
X186771Y222791D01*
X186738Y222824D01*
X186705Y222850D01*
X186672Y222871D01*
X186643Y222886D01*
X186621Y222897D01*
X186607Y222904D01*
X186600Y222908D01*
X186549Y222922D01*
X186490Y222933D01*
X186432Y222941D01*
X186374Y222944D01*
X186323Y222948D01*
X186279Y222952D01*
D02*
G37*
G36*
X188445Y223228D02*
X188423D01*
X188347Y223221D01*
X188278Y223206D01*
X188216Y223181D01*
X188161Y223152D01*
X188121Y223126D01*
X188088Y223101D01*
X188070Y223086D01*
X188063Y223079D01*
X188016Y223021D01*
X187979Y222955D01*
X187957Y222890D01*
X187939Y222828D01*
X187928Y222773D01*
X187925Y222751D01*
Y222729D01*
X187921Y222711D01*
Y222700D01*
Y222693D01*
Y222690D01*
X187928Y222595D01*
X187943Y222508D01*
X187968Y222431D01*
X187997Y222369D01*
X188023Y222318D01*
X188048Y222282D01*
X188056Y222271D01*
X188063Y222260D01*
X188070Y222256D01*
Y222253D01*
X188099Y222224D01*
X188128Y222195D01*
X188190Y222154D01*
X188252Y222122D01*
X188310Y222104D01*
X188358Y222089D01*
X188398Y222085D01*
X188412Y222082D01*
X188471D01*
X188507Y222089D01*
X188573Y222107D01*
X188631Y222133D01*
X188682Y222158D01*
X188722Y222187D01*
X188751Y222213D01*
X188769Y222231D01*
X188776Y222235D01*
Y222238D01*
X188824Y222300D01*
X188860Y222369D01*
X188886Y222442D01*
X188900Y222511D01*
X188911Y222569D01*
X188915Y222595D01*
Y222620D01*
X188918Y222639D01*
Y222653D01*
Y222660D01*
Y222664D01*
X188911Y222759D01*
X188897Y222842D01*
X188875Y222912D01*
X188849Y222970D01*
X188820Y223017D01*
X188798Y223050D01*
X188784Y223072D01*
X188776Y223079D01*
X188722Y223130D01*
X188663Y223166D01*
X188605Y223192D01*
X188547Y223210D01*
X188500Y223221D01*
X188460Y223225D01*
X188445Y223228D01*
D02*
G37*
%LPD*%
D10*
X238255Y189901D02*
Y196003D01*
X227601Y189901D02*
X238255D01*
X227601D02*
Y196003D01*
X238255D01*
X180029Y183578D02*
Y190074D01*
X190684D01*
Y183578D02*
Y190074D01*
X180029Y183578D02*
X190684D01*
X192910Y218856D02*
Y228550D01*
X209863D01*
Y218856D02*
Y228550D01*
X192910Y218856D02*
X209863D01*
X239483Y198698D02*
Y205194D01*
X227279Y198698D02*
X239483D01*
X227279D02*
Y205194D01*
X239483D01*
X176718Y219553D02*
Y229247D01*
X193672D01*
Y219553D02*
Y229247D01*
X176718Y219553D02*
X193672D01*
M02*
