G04*
G04 #@! TF.GenerationSoftware,Altium Limited,Altium Designer,23.3.1 (30)*
G04*
G04 Layer_Color=16711935*
%FSLAX25Y25*%
%MOIN*%
G70*
G04*
G04 #@! TF.SameCoordinates,9E9A1B20-5B00-4279-B210-449FD35A5861*
G04*
G04*
G04 #@! TF.FilePolarity,Negative*
G04*
G01*
G75*
%ADD31R,0.05118X0.06299*%
%ADD43C,0.07087*%
%ADD44R,0.07087X0.07087*%
%ADD45C,0.16339*%
%ADD46R,0.06693X0.06693*%
%ADD47C,0.06693*%
%ADD48C,0.05591*%
%ADD49C,0.02953*%
%ADD63R,0.03367X0.04969*%
%ADD66R,0.04545X0.05339*%
%ADD67R,0.04942X0.05756*%
%ADD68R,0.03740X0.05709*%
%ADD70R,0.02165X0.02165*%
%ADD71R,0.06594X0.03347*%
%ADD72R,0.03937X0.05906*%
%ADD73R,0.04724X0.06299*%
D31*
X188714Y166529D02*
D03*
X181628D02*
D03*
X197617Y166569D02*
D03*
X204704D02*
D03*
X220533Y166464D02*
D03*
X213447D02*
D03*
X236451Y166399D02*
D03*
X229364D02*
D03*
X230355Y182470D02*
D03*
X237442D02*
D03*
X223501Y223498D02*
D03*
X216414D02*
D03*
X189205Y213446D02*
D03*
X182118D02*
D03*
D43*
X134910Y240101D02*
D03*
X259602Y192213D02*
D03*
X134855Y208625D02*
D03*
X134874Y176955D02*
D03*
X259639Y223522D02*
D03*
X259503Y286800D02*
D03*
Y255098D02*
D03*
X259691Y160723D02*
D03*
X135066Y271644D02*
D03*
X134598Y145386D02*
D03*
D44*
X135066Y286644D02*
D03*
X259602Y177213D02*
D03*
X134855Y223625D02*
D03*
X134874Y191955D02*
D03*
X259639Y208522D02*
D03*
X259503Y271800D02*
D03*
Y240098D02*
D03*
X259691Y145723D02*
D03*
X134910Y255101D02*
D03*
X134598Y160386D02*
D03*
D45*
X118975Y123223D02*
D03*
X274005Y122283D02*
D03*
X119387Y309595D02*
D03*
X273759Y310090D02*
D03*
D46*
X161294Y140997D02*
D03*
D47*
Y150996D02*
D03*
Y160996D02*
D03*
Y170996D02*
D03*
Y180997D02*
D03*
Y190997D02*
D03*
D48*
X212148Y122047D02*
D03*
X201609Y256851D02*
D03*
X176992Y244970D02*
D03*
X176328Y238900D02*
D03*
X182974Y237659D02*
D03*
X162491Y246060D02*
D03*
X218923Y151826D02*
D03*
X204403Y269480D02*
D03*
X222518Y272334D02*
D03*
X157953Y272981D02*
D03*
X188524Y268679D02*
D03*
X203037Y236457D02*
D03*
X236919Y214901D02*
D03*
X236934Y241769D02*
D03*
X173563Y167509D02*
D03*
X198324Y301033D02*
D03*
X216651Y300627D02*
D03*
D49*
X175971Y280420D02*
D03*
X176139Y284249D02*
D03*
X176169Y275672D02*
D03*
X172593Y273276D02*
D03*
D63*
X229678Y192952D02*
D03*
X236178D02*
D03*
D66*
X188018Y186826D02*
D03*
X182696D02*
D03*
D67*
X205424Y223703D02*
D03*
X197349D02*
D03*
X189232Y224400D02*
D03*
X181157D02*
D03*
D68*
X229542Y201946D02*
D03*
X237220D02*
D03*
D70*
X183589Y176752D02*
D03*
X187526Y175177D02*
D03*
Y178327D02*
D03*
D71*
X199328Y179877D02*
D03*
Y184877D02*
D03*
Y189877D02*
D03*
Y194877D02*
D03*
Y199877D02*
D03*
Y204877D02*
D03*
Y209877D02*
D03*
Y214877D02*
D03*
X220683D02*
D03*
Y209877D02*
D03*
Y204877D02*
D03*
Y199877D02*
D03*
Y194877D02*
D03*
Y189877D02*
D03*
Y184877D02*
D03*
Y179877D02*
D03*
D72*
X188970Y196146D02*
D03*
X182474D02*
D03*
D73*
X189303Y204187D02*
D03*
X182019D02*
D03*
M02*
