G04*
G04 #@! TF.GenerationSoftware,Altium Limited,Altium Designer,23.3.1 (30)*
G04*
G04 Layer_Color=32768*
%FSLAX25Y25*%
%MOIN*%
G70*
G04*
G04 #@! TF.SameCoordinates,9E9A1B20-5B00-4279-B210-449FD35A5861*
G04*
G04*
G04 #@! TF.FilePolarity,Positive*
G04*
G01*
G75*
%ADD10C,0.00787*%
%ADD74C,0.00197*%
D10*
X197699Y222290D02*
X208723D01*
X197699D02*
Y228983D01*
X208723D01*
Y222290D02*
Y228983D01*
X155436Y224505D02*
X161539D01*
Y235159D01*
X155436D02*
X161539D01*
X155436Y224505D02*
Y235159D01*
X164385Y251536D02*
X170488D01*
X164385Y240881D02*
Y251536D01*
Y240881D02*
X170488D01*
Y251536D01*
X163987Y268740D02*
X170089D01*
X163987Y258086D02*
Y268740D01*
Y258086D02*
X170089D01*
Y268740D01*
X163918Y270742D02*
X170021D01*
Y281396D01*
X163918D02*
X170021D01*
X163918Y270742D02*
Y281396D01*
X165450Y224282D02*
Y230975D01*
Y224282D02*
X176474D01*
Y230975D01*
X165450D02*
X176474D01*
D74*
X211311Y288677D02*
Y292614D01*
X209342Y290645D02*
X213279D01*
X203043Y284543D02*
Y296748D01*
Y284543D02*
X219579D01*
Y296748D01*
X203043D02*
X219579D01*
X217230Y229920D02*
Y233857D01*
X215261Y231888D02*
X219198D01*
X213785Y224802D02*
Y238975D01*
X220674D01*
Y224802D02*
Y238975D01*
X213785Y224802D02*
X220674D01*
M02*
