G04*
G04 #@! TF.GenerationSoftware,Altium Limited,Altium Designer,23.3.1 (30)*
G04*
G04 Layer_Color=16711935*
%FSLAX25Y25*%
%MOIN*%
G70*
G04*
G04 #@! TF.SameCoordinates,9E9A1B20-5B00-4279-B210-449FD35A5861*
G04*
G04*
G04 #@! TF.FilePolarity,Positive*
G04*
G01*
G75*
%ADD10C,0.00787*%
%ADD14C,0.00472*%
G36*
X157650Y233909D02*
X157680Y233905D01*
X157712Y233901D01*
X157752Y233894D01*
X157792Y233887D01*
X157887Y233865D01*
X157985Y233828D01*
X158036Y233807D01*
X158084Y233777D01*
X158135Y233748D01*
X158182Y233712D01*
X158186Y233708D01*
X158196Y233701D01*
X158211Y233686D01*
X158229Y233668D01*
X158251Y233643D01*
X158280Y233614D01*
X158306Y233577D01*
X158335Y233537D01*
X158364Y233494D01*
X158389Y233443D01*
X158415Y233388D01*
X158440Y233330D01*
X158458Y233268D01*
X158473Y233199D01*
X158484Y233126D01*
X158488Y233050D01*
Y233017D01*
X158484Y232991D01*
X158480Y232962D01*
X158477Y232929D01*
X158473Y232889D01*
X158462Y232849D01*
X158440Y232758D01*
X158408Y232667D01*
X158386Y232620D01*
X158360Y232573D01*
X158331Y232529D01*
X158298Y232485D01*
X158295Y232482D01*
X158291Y232474D01*
X158276Y232467D01*
X158262Y232453D01*
X158244Y232434D01*
X158222Y232416D01*
X158193Y232394D01*
X158160Y232376D01*
X158127Y232354D01*
X158087Y232332D01*
X158000Y232292D01*
X157898Y232260D01*
X157843Y232249D01*
X157785Y232241D01*
X157760Y232565D01*
X157763D01*
X157771D01*
X157782Y232569D01*
X157800Y232573D01*
X157840Y232584D01*
X157894Y232598D01*
X157949Y232620D01*
X158011Y232649D01*
X158065Y232685D01*
X158116Y232729D01*
X158120Y232736D01*
X158135Y232751D01*
X158153Y232780D01*
X158175Y232820D01*
X158196Y232864D01*
X158215Y232918D01*
X158229Y232980D01*
X158233Y233050D01*
Y233071D01*
X158229Y233086D01*
X158226Y233130D01*
X158211Y233180D01*
X158193Y233242D01*
X158164Y233304D01*
X158120Y233370D01*
X158095Y233399D01*
X158065Y233428D01*
X158062Y233432D01*
X158058Y233435D01*
X158047Y233443D01*
X158036Y233453D01*
X157996Y233479D01*
X157945Y233508D01*
X157883Y233534D01*
X157807Y233559D01*
X157716Y233577D01*
X157669Y233585D01*
X157618D01*
X157614D01*
X157607D01*
X157592D01*
X157574Y233581D01*
X157552D01*
X157527Y233577D01*
X157468Y233566D01*
X157399Y233548D01*
X157330Y233523D01*
X157265Y233486D01*
X157203Y233435D01*
X157199D01*
X157195Y233428D01*
X157177Y233410D01*
X157152Y233377D01*
X157123Y233333D01*
X157097Y233275D01*
X157072Y233210D01*
X157053Y233133D01*
X157046Y233089D01*
Y233020D01*
X157050Y232991D01*
X157053Y232955D01*
X157064Y232911D01*
X157075Y232868D01*
X157094Y232820D01*
X157115Y232773D01*
X157119Y232769D01*
X157126Y232755D01*
X157144Y232733D01*
X157163Y232704D01*
X157188Y232675D01*
X157221Y232645D01*
X157254Y232613D01*
X157294Y232587D01*
X157254Y232296D01*
X155958Y232540D01*
Y233792D01*
X156253D01*
Y232784D01*
X156933Y232649D01*
X156930Y232653D01*
X156926Y232660D01*
X156919Y232671D01*
X156908Y232689D01*
X156897Y232711D01*
X156882Y232736D01*
X156853Y232795D01*
X156824Y232868D01*
X156799Y232948D01*
X156781Y233035D01*
X156773Y233079D01*
Y233159D01*
X156777Y233180D01*
X156781Y233210D01*
X156784Y233242D01*
X156791Y233279D01*
X156802Y233319D01*
X156828Y233406D01*
X156846Y233453D01*
X156871Y233501D01*
X156897Y233548D01*
X156926Y233595D01*
X156963Y233639D01*
X157002Y233683D01*
X157006Y233686D01*
X157013Y233694D01*
X157024Y233705D01*
X157043Y233719D01*
X157068Y233737D01*
X157094Y233756D01*
X157126Y233777D01*
X157163Y233799D01*
X157203Y233818D01*
X157246Y233839D01*
X157297Y233858D01*
X157348Y233876D01*
X157403Y233890D01*
X157465Y233901D01*
X157527Y233909D01*
X157592Y233912D01*
X157596D01*
X157607D01*
X157625D01*
X157650Y233909D01*
D02*
G37*
G36*
X158444Y231630D02*
X157920Y231299D01*
X157916D01*
X157909Y231291D01*
X157898Y231284D01*
X157883Y231273D01*
X157843Y231248D01*
X157792Y231215D01*
X157738Y231175D01*
X157680Y231135D01*
X157625Y231095D01*
X157574Y231058D01*
X157570Y231055D01*
X157556Y231044D01*
X157534Y231026D01*
X157509Y231000D01*
X157454Y230946D01*
X157428Y230916D01*
X157407Y230887D01*
X157403Y230884D01*
X157399Y230876D01*
X157392Y230862D01*
X157381Y230840D01*
X157370Y230818D01*
X157359Y230793D01*
X157341Y230734D01*
Y230731D01*
X157337Y230724D01*
Y230709D01*
X157334Y230691D01*
X157330Y230665D01*
Y230636D01*
X157326Y230596D01*
Y230167D01*
X158444D01*
Y229832D01*
X155925D01*
Y231000D01*
X155929Y231029D01*
Y231062D01*
X155932Y231138D01*
X155943Y231219D01*
X155954Y231306D01*
X155972Y231386D01*
X155983Y231426D01*
X155994Y231459D01*
Y231462D01*
X155998Y231466D01*
X156009Y231488D01*
X156023Y231521D01*
X156049Y231561D01*
X156082Y231604D01*
X156125Y231652D01*
X156176Y231695D01*
X156235Y231739D01*
X156238D01*
X156242Y231743D01*
X156264Y231757D01*
X156300Y231772D01*
X156347Y231794D01*
X156402Y231812D01*
X156467Y231830D01*
X156537Y231841D01*
X156613Y231845D01*
X156617D01*
X156624D01*
X156639D01*
X156657Y231841D01*
X156682D01*
X156708Y231837D01*
X156770Y231823D01*
X156842Y231801D01*
X156919Y231772D01*
X156995Y231728D01*
X157032Y231699D01*
X157068Y231670D01*
X157072Y231666D01*
X157075Y231663D01*
X157086Y231652D01*
X157097Y231637D01*
X157112Y231619D01*
X157126Y231597D01*
X157144Y231568D01*
X157166Y231539D01*
X157185Y231503D01*
X157203Y231462D01*
X157225Y231419D01*
X157243Y231371D01*
X157257Y231317D01*
X157275Y231262D01*
X157286Y231200D01*
X157297Y231135D01*
X157301Y231142D01*
X157308Y231157D01*
X157323Y231178D01*
X157337Y231208D01*
X157377Y231273D01*
X157403Y231306D01*
X157425Y231335D01*
X157432Y231342D01*
X157450Y231361D01*
X157479Y231390D01*
X157516Y231426D01*
X157567Y231466D01*
X157621Y231513D01*
X157687Y231561D01*
X157760Y231612D01*
X158444Y232045D01*
Y231630D01*
D02*
G37*
%LPC*%
G36*
X156617Y231503D02*
X156613D01*
X156609D01*
X156588Y231499D01*
X156555Y231495D01*
X156511Y231488D01*
X156467Y231470D01*
X156416Y231448D01*
X156369Y231415D01*
X156322Y231371D01*
X156318Y231364D01*
X156304Y231346D01*
X156285Y231317D01*
X156264Y231270D01*
X156242Y231215D01*
X156224Y231142D01*
X156209Y231058D01*
X156205Y230960D01*
Y230167D01*
X157039D01*
Y230916D01*
X157035Y230960D01*
X157032Y231011D01*
X157028Y231069D01*
X157021Y231128D01*
X157010Y231186D01*
X156995Y231237D01*
X156992Y231244D01*
X156984Y231259D01*
X156973Y231280D01*
X156959Y231310D01*
X156937Y231342D01*
X156912Y231375D01*
X156879Y231408D01*
X156842Y231433D01*
X156839Y231437D01*
X156824Y231444D01*
X156802Y231455D01*
X156773Y231470D01*
X156740Y231481D01*
X156704Y231492D01*
X156660Y231499D01*
X156617Y231503D01*
D02*
G37*
%LPD*%
D10*
X197699Y222290D02*
X208723D01*
X197699D02*
Y228983D01*
X208723D01*
Y222290D02*
Y228983D01*
X155436Y224505D02*
X161539D01*
Y235159D01*
X155436D02*
X161539D01*
X155436Y224505D02*
Y235159D01*
X164385Y251536D02*
X170488D01*
X164385Y240881D02*
Y251536D01*
Y240881D02*
X170488D01*
Y251536D01*
X163987Y268740D02*
X170089D01*
X163987Y258086D02*
Y268740D01*
Y258086D02*
X170089D01*
Y268740D01*
X163918Y270742D02*
X170021D01*
Y281396D01*
X163918D02*
X170021D01*
X163918Y270742D02*
Y281396D01*
X165450Y224282D02*
Y230975D01*
Y224282D02*
X176474D01*
Y230975D01*
X165450D02*
X176474D01*
D14*
X201164Y223196D02*
X201558Y222802D01*
X202345D01*
X202739Y223196D01*
Y224770D01*
X202345Y225164D01*
X201558D01*
X201164Y224770D01*
X198803Y222802D02*
X200377D01*
Y223983D01*
X199590Y223589D01*
X199197D01*
X198803Y223983D01*
Y224770D01*
X199197Y225164D01*
X199984D01*
X200377Y224770D01*
X167909Y245736D02*
X170270D01*
Y244555D01*
X169877Y244162D01*
X169090D01*
X168696Y244555D01*
Y245736D01*
Y244949D02*
X167909Y244162D01*
Y242194D02*
X170270D01*
X169090Y243375D01*
Y241800D01*
X167510Y262941D02*
X169872D01*
Y261760D01*
X169478Y261366D01*
X168691D01*
X168298Y261760D01*
Y262941D01*
Y262153D02*
X167510Y261366D01*
Y259005D02*
Y260579D01*
X169085Y259005D01*
X169478D01*
X169872Y259398D01*
Y260186D01*
X169478Y260579D01*
X166497Y276541D02*
X164136D01*
Y277722D01*
X164529Y278116D01*
X165316D01*
X165710Y277722D01*
Y276541D01*
Y277329D02*
X166497Y278116D01*
X164529Y278903D02*
X164136Y279296D01*
Y280084D01*
X164529Y280477D01*
X164923D01*
X165316Y280084D01*
Y279690D01*
Y280084D01*
X165710Y280477D01*
X166103D01*
X166497Y280084D01*
Y279296D01*
X166103Y278903D01*
X173009Y230068D02*
X172615Y230462D01*
X171828D01*
X171434Y230068D01*
Y228494D01*
X171828Y228101D01*
X172615D01*
X173009Y228494D01*
X175370Y230462D02*
X174583Y230068D01*
X173796Y229281D01*
Y228494D01*
X174189Y228101D01*
X174976D01*
X175370Y228494D01*
Y228888D01*
X174976Y229281D01*
X173796D01*
M02*
