G04*
G04 #@! TF.GenerationSoftware,Altium Limited,Altium Designer,23.3.1 (30)*
G04*
G04 Layer_Color=65535*
%FSLAX25Y25*%
%MOIN*%
G70*
G04*
G04 #@! TF.SameCoordinates,9E9A1B20-5B00-4279-B210-449FD35A5861*
G04*
G04*
G04 #@! TF.FilePolarity,Positive*
G04*
G01*
G75*
%ADD10C,0.00787*%
%ADD11C,0.00394*%
%ADD12C,0.02362*%
%ADD13C,0.00984*%
%ADD14C,0.00472*%
%ADD15C,0.01000*%
%ADD16R,0.04724X0.00787*%
G36*
X204112Y146088D02*
X204106D01*
Y146032D01*
X205062D01*
Y146026D01*
X205068D01*
Y145791D01*
X205062D01*
Y145959D01*
X205056D01*
Y146020D01*
X204749D01*
Y146015D01*
X204721D01*
Y146020D01*
X204112D01*
Y145629D01*
X200249D01*
Y145635D01*
X200243D01*
Y146624D01*
X204112D01*
Y146088D01*
D02*
G37*
G36*
X205068Y145780D02*
X205062D01*
Y145786D01*
X205068D01*
Y145780D01*
D02*
G37*
G36*
X205062Y145562D02*
X205068D01*
Y145556D01*
X205062D01*
Y145551D01*
X205068D01*
Y145311D01*
X205073D01*
Y144986D01*
X205068D01*
Y144947D01*
Y144942D01*
Y144858D01*
X205073D01*
Y144847D01*
X205079D01*
Y144841D01*
X205084D01*
Y144830D01*
X205090D01*
Y144819D01*
X205051D01*
Y144824D01*
X205045D01*
Y144852D01*
X205051D01*
Y144897D01*
X205056D01*
Y145696D01*
X205062D01*
Y145562D01*
D02*
G37*
G36*
X217047Y142985D02*
X215404D01*
Y142991D01*
X215308D01*
Y142996D01*
X215236D01*
Y143002D01*
X215180D01*
Y143008D01*
X215135D01*
Y143013D01*
X215090D01*
Y143019D01*
X215051D01*
Y143024D01*
X215018D01*
Y143030D01*
X214984D01*
Y143035D01*
X214956D01*
Y143041D01*
X214928D01*
Y143047D01*
X214900D01*
Y143052D01*
X214872D01*
Y143058D01*
X214850D01*
Y143063D01*
X214828D01*
Y143069D01*
X214805D01*
Y143075D01*
X214783D01*
Y143080D01*
X214761D01*
Y143086D01*
X214744D01*
Y143091D01*
X214721D01*
Y143097D01*
X214705D01*
Y143103D01*
X214688D01*
Y143108D01*
X214671D01*
Y143114D01*
X214654D01*
Y143119D01*
X214638D01*
Y143125D01*
X214621D01*
Y143131D01*
X214604D01*
Y143136D01*
X214593D01*
Y143142D01*
X214576D01*
Y143147D01*
X214559D01*
Y143153D01*
X214548D01*
Y143158D01*
X214531D01*
Y143164D01*
X214520D01*
Y143170D01*
X214509D01*
Y143175D01*
X214492D01*
Y143181D01*
X214481D01*
Y143186D01*
X214470D01*
Y143192D01*
X214459D01*
Y143198D01*
X214448D01*
Y143203D01*
X214436D01*
Y143209D01*
X214425D01*
Y143214D01*
X214414D01*
Y143220D01*
X214403D01*
Y143226D01*
X214392D01*
Y143231D01*
X214381D01*
Y143237D01*
X214369D01*
Y143242D01*
X214358D01*
Y143248D01*
X214347D01*
Y143253D01*
X214341D01*
Y143259D01*
X214330D01*
Y143265D01*
X214319D01*
Y143270D01*
X214308D01*
Y143276D01*
X214302D01*
Y143281D01*
X214291D01*
Y143287D01*
X214280D01*
Y143293D01*
X214274D01*
Y143298D01*
X214263D01*
Y143304D01*
X214252D01*
Y143309D01*
X214246D01*
Y143315D01*
X214235D01*
Y143321D01*
X214230D01*
Y143326D01*
X214218D01*
Y143332D01*
X214213D01*
Y143337D01*
X214202D01*
Y143343D01*
X214196D01*
Y143349D01*
X214185D01*
Y143354D01*
X214179D01*
Y143360D01*
X214168D01*
Y143365D01*
X214162D01*
Y143371D01*
X214157D01*
Y143376D01*
X214146D01*
Y143382D01*
X214140D01*
Y143388D01*
X214129D01*
Y143393D01*
X214123D01*
Y143399D01*
X214118D01*
Y143404D01*
X214107D01*
Y143410D01*
X214101D01*
Y143416D01*
X214095D01*
Y143421D01*
X214084D01*
Y143427D01*
X214079D01*
Y143432D01*
X214073D01*
Y143438D01*
X214068D01*
Y143444D01*
X214056D01*
Y143449D01*
X214051D01*
Y143455D01*
X214045D01*
Y143460D01*
X214039D01*
Y143466D01*
X214028D01*
Y143472D01*
X214023D01*
Y143477D01*
X214017D01*
Y143483D01*
X214012D01*
Y143488D01*
X214006D01*
Y143494D01*
X213995D01*
Y143499D01*
X213989D01*
Y143505D01*
X213984D01*
Y143511D01*
X213978D01*
Y143516D01*
X213972D01*
Y143522D01*
X213967D01*
Y143527D01*
X213961D01*
Y143533D01*
X213950D01*
Y143538D01*
X213945D01*
Y143544D01*
X213939D01*
Y143550D01*
X213933D01*
Y143555D01*
X213928D01*
Y143561D01*
X213922D01*
Y143567D01*
X213916D01*
Y143572D01*
X213911D01*
Y143578D01*
X213905D01*
Y143583D01*
X213900D01*
Y143589D01*
X213894D01*
Y143594D01*
X213889D01*
Y143600D01*
X213877D01*
Y143606D01*
X213872D01*
Y143611D01*
X213866D01*
Y143617D01*
X213861D01*
Y143622D01*
X213855D01*
Y143628D01*
X213849D01*
Y143634D01*
X213844D01*
Y143639D01*
X213838D01*
Y143645D01*
X213833D01*
Y143650D01*
X213827D01*
Y143656D01*
X213822D01*
Y143661D01*
X213816D01*
Y143667D01*
X213810D01*
Y143673D01*
X213805D01*
Y143684D01*
X213799D01*
Y143690D01*
X213794D01*
Y143695D01*
X213788D01*
Y143701D01*
X213782D01*
Y143706D01*
X213777D01*
Y143712D01*
X213771D01*
Y143717D01*
X213766D01*
Y143723D01*
X213760D01*
Y143729D01*
X213754D01*
Y143734D01*
X213749D01*
Y143740D01*
X213743D01*
Y143745D01*
X213738D01*
Y143751D01*
X213732D01*
Y143762D01*
X213726D01*
Y143768D01*
X213721D01*
Y143773D01*
X213715D01*
Y143779D01*
X213710D01*
Y143784D01*
X213704D01*
Y143790D01*
X213699D01*
Y143801D01*
X213693D01*
Y143807D01*
X213687D01*
Y143812D01*
X213682D01*
Y143818D01*
X213676D01*
Y143824D01*
X213671D01*
Y143829D01*
X213665D01*
Y143840D01*
X213659D01*
Y143846D01*
X213654D01*
Y143852D01*
X213648D01*
Y143857D01*
X213643D01*
Y143863D01*
X213637D01*
Y143868D01*
X213631D01*
Y143879D01*
X213626D01*
Y143885D01*
X213620D01*
Y143891D01*
X213615D01*
Y143896D01*
X213609D01*
Y143902D01*
X213603D01*
Y143907D01*
X213598D01*
Y143919D01*
X213592D01*
Y143924D01*
X213587D01*
Y143930D01*
X213581D01*
Y143935D01*
X213576D01*
Y143941D01*
X213570D01*
Y143947D01*
X213564D01*
Y143958D01*
X213559D01*
Y143963D01*
X213553D01*
Y143969D01*
X213548D01*
Y143974D01*
X213542D01*
Y143980D01*
X213536D01*
Y143986D01*
X213531D01*
Y143997D01*
X213525D01*
Y144002D01*
X213520D01*
Y144008D01*
X213514D01*
Y144014D01*
X213509D01*
Y144019D01*
X213503D01*
Y144025D01*
X213497D01*
Y144036D01*
X213492D01*
Y144042D01*
X213486D01*
Y144047D01*
X213480D01*
Y144053D01*
X213475D01*
Y144058D01*
X213469D01*
Y144064D01*
X213464D01*
Y144075D01*
X213458D01*
Y144081D01*
X213453D01*
Y144086D01*
X213447D01*
Y144092D01*
X213441D01*
Y144097D01*
X213436D01*
Y144103D01*
X213430D01*
Y144114D01*
X213425D01*
Y144120D01*
X213419D01*
Y144125D01*
X213413D01*
Y144131D01*
X213408D01*
Y144137D01*
X213402D01*
Y144142D01*
X213397D01*
Y144153D01*
X213391D01*
Y144159D01*
X213386D01*
Y144165D01*
X213380D01*
Y144170D01*
X213374D01*
Y144176D01*
X213369D01*
Y144181D01*
X213363D01*
Y144193D01*
X213357D01*
Y144198D01*
X213352D01*
Y144204D01*
X213346D01*
Y144209D01*
X213341D01*
Y144215D01*
X213335D01*
Y144226D01*
X213330D01*
Y144232D01*
X213324D01*
Y144237D01*
X213318D01*
Y144243D01*
X213313D01*
Y144248D01*
X213307D01*
Y144254D01*
X213302D01*
Y144265D01*
X213296D01*
Y144271D01*
X213291D01*
Y144276D01*
X213285D01*
Y144282D01*
X213279D01*
Y144288D01*
X213274D01*
Y144293D01*
X213268D01*
Y144304D01*
X213263D01*
Y144310D01*
X213257D01*
Y144316D01*
X213251D01*
Y144321D01*
X213246D01*
Y144327D01*
X213240D01*
Y144332D01*
X213235D01*
Y144343D01*
X213229D01*
Y144349D01*
X213223D01*
Y144355D01*
X213218D01*
Y144360D01*
X213212D01*
Y144366D01*
X213207D01*
Y144371D01*
X213201D01*
Y144377D01*
X213195D01*
Y144388D01*
X213190D01*
Y144394D01*
X213184D01*
Y144399D01*
X213179D01*
Y144405D01*
X213173D01*
Y144411D01*
X213168D01*
Y144416D01*
X213162D01*
Y144427D01*
X213156D01*
Y144433D01*
X213151D01*
Y144439D01*
X213145D01*
Y144444D01*
X213140D01*
Y144450D01*
X213134D01*
Y144455D01*
X213128D01*
Y144466D01*
X213123D01*
Y144472D01*
X213117D01*
Y144478D01*
X213112D01*
Y144483D01*
X213106D01*
Y144489D01*
X213100D01*
Y144494D01*
X213095D01*
Y144506D01*
X213089D01*
Y144511D01*
X213084D01*
Y144517D01*
X213078D01*
Y144522D01*
X213072D01*
Y144528D01*
X213067D01*
Y144534D01*
X213061D01*
Y144545D01*
X213056D01*
Y144550D01*
X213050D01*
Y144556D01*
X213045D01*
Y144562D01*
X213039D01*
Y144567D01*
X213033D01*
Y144573D01*
X213028D01*
Y144584D01*
X213022D01*
Y144589D01*
X213017D01*
Y144595D01*
X213011D01*
Y144601D01*
X213005D01*
Y144606D01*
X213000D01*
Y144612D01*
X212994D01*
Y144623D01*
X212989D01*
Y144629D01*
X212983D01*
Y144634D01*
X212977D01*
Y144640D01*
X212972D01*
Y144645D01*
X212966D01*
Y144651D01*
X212961D01*
Y144662D01*
X212955D01*
Y144668D01*
X212949D01*
Y144673D01*
X212944D01*
Y144679D01*
X212938D01*
Y144685D01*
X212933D01*
Y144690D01*
X212927D01*
Y144701D01*
X212922D01*
Y144707D01*
X212916D01*
Y144712D01*
X212910D01*
Y144718D01*
X212905D01*
Y144724D01*
X212899D01*
Y144729D01*
X212894D01*
Y144740D01*
X212888D01*
Y144746D01*
X212882D01*
Y144752D01*
X212877D01*
Y144757D01*
X212871D01*
Y144763D01*
X212866D01*
Y144768D01*
X212860D01*
Y144780D01*
X212854D01*
Y144785D01*
X212849D01*
Y144791D01*
X212843D01*
Y144796D01*
X212838D01*
Y144802D01*
X212832D01*
Y144808D01*
X212826D01*
Y144819D01*
X212821D01*
Y144824D01*
X212815D01*
Y144830D01*
X212810D01*
Y144835D01*
X212804D01*
Y144841D01*
X212799D01*
Y144852D01*
X212793D01*
Y144858D01*
X212787D01*
Y144863D01*
X212782D01*
Y144869D01*
X212776D01*
Y144875D01*
X212771D01*
Y144880D01*
X212765D01*
Y144891D01*
X212759D01*
Y144897D01*
X212754D01*
Y144903D01*
X212748D01*
Y144908D01*
X212743D01*
Y144914D01*
X212737D01*
Y144919D01*
X212732D01*
Y144930D01*
X212726D01*
Y144936D01*
X212720D01*
Y144942D01*
X212715D01*
Y144947D01*
X212709D01*
Y144953D01*
X212703D01*
Y144958D01*
X212698D01*
Y144964D01*
X212692D01*
Y144975D01*
X212687D01*
Y144981D01*
X212681D01*
Y144986D01*
X212676D01*
Y144992D01*
X212670D01*
Y144998D01*
X212664D01*
Y145009D01*
X212659D01*
Y145014D01*
X212653D01*
Y145020D01*
X212648D01*
Y145026D01*
X212642D01*
Y145031D01*
X212636D01*
Y145037D01*
X212631D01*
Y145048D01*
X212625D01*
Y145053D01*
X212620D01*
Y145059D01*
X212614D01*
Y145065D01*
X212609D01*
Y145070D01*
X212603D01*
Y145076D01*
X212597D01*
Y145087D01*
X212592D01*
Y145093D01*
X212586D01*
Y145098D01*
X212580D01*
Y145104D01*
X212575D01*
Y145109D01*
X212569D01*
Y145115D01*
X212564D01*
Y145126D01*
X212558D01*
Y145132D01*
X212553D01*
Y145137D01*
X212547D01*
Y145143D01*
X212541D01*
Y145149D01*
X212536D01*
Y145154D01*
X212530D01*
Y145165D01*
X212525D01*
Y145171D01*
X212519D01*
Y145176D01*
X212513D01*
Y145182D01*
X212508D01*
Y145188D01*
X212502D01*
Y145193D01*
X212497D01*
Y145204D01*
X212491D01*
Y145210D01*
X212486D01*
Y145215D01*
X212480D01*
Y145221D01*
X212474D01*
Y145227D01*
X212469D01*
Y145232D01*
X212463D01*
Y145244D01*
X212457D01*
Y145249D01*
X212452D01*
Y145255D01*
X212446D01*
Y145260D01*
X212441D01*
Y145266D01*
X212435D01*
Y145271D01*
X212430D01*
Y145277D01*
X212424D01*
Y145288D01*
X212418D01*
Y145294D01*
X212413D01*
Y145299D01*
X212407D01*
Y145305D01*
X212402D01*
Y145311D01*
X212396D01*
Y145316D01*
X212390D01*
Y145327D01*
X212385D01*
Y145333D01*
X212379D01*
Y145338D01*
X212374D01*
Y145344D01*
X212368D01*
Y145350D01*
X212363D01*
Y145355D01*
X212357D01*
Y145367D01*
X212351D01*
Y145372D01*
X212346D01*
Y145378D01*
X212340D01*
Y145383D01*
X212335D01*
Y145389D01*
X212329D01*
Y145394D01*
X212323D01*
Y145406D01*
X212318D01*
Y145411D01*
X212312D01*
Y145417D01*
X212307D01*
Y145422D01*
X212301D01*
Y145428D01*
X212295D01*
Y145433D01*
X212290D01*
Y145445D01*
X212284D01*
Y145450D01*
X212279D01*
Y145456D01*
X212273D01*
Y145461D01*
X212267D01*
Y145467D01*
X212262D01*
Y145478D01*
X212256D01*
Y145484D01*
X212251D01*
Y145489D01*
X212245D01*
Y145495D01*
X212240D01*
Y145501D01*
X212234D01*
Y145506D01*
X212228D01*
Y145517D01*
X212223D01*
Y145523D01*
X212217D01*
Y145529D01*
X212212D01*
Y145534D01*
X212206D01*
Y145540D01*
X212200D01*
Y145545D01*
X212195D01*
Y145556D01*
X212189D01*
Y145562D01*
X212184D01*
Y145568D01*
X212178D01*
Y145573D01*
X212173D01*
Y145579D01*
X212167D01*
Y145584D01*
X212161D01*
Y145596D01*
X212156D01*
Y145601D01*
X212150D01*
Y145607D01*
X212144D01*
Y145612D01*
X212139D01*
Y145618D01*
X212133D01*
Y145624D01*
X212128D01*
Y145635D01*
X212122D01*
Y145640D01*
X212117D01*
Y145646D01*
X212111D01*
Y145651D01*
X212105D01*
Y145657D01*
X212100D01*
Y145663D01*
X212094D01*
Y145674D01*
X212089D01*
Y145679D01*
X212083D01*
Y145685D01*
X212077D01*
Y145691D01*
X212072D01*
Y145696D01*
X212066D01*
Y145702D01*
X212061D01*
Y145713D01*
X212055D01*
Y145719D01*
X212050D01*
Y145724D01*
X212044D01*
Y145730D01*
X212038D01*
Y145735D01*
X212033D01*
Y145741D01*
X212027D01*
Y145752D01*
X212021D01*
Y145758D01*
X212016D01*
Y145763D01*
X212010D01*
Y145769D01*
X212005D01*
Y145774D01*
X211999D01*
Y145780D01*
X211994D01*
Y145791D01*
X211988D01*
Y145797D01*
X211982D01*
Y145802D01*
X211977D01*
Y145808D01*
X211971D01*
Y145814D01*
X211966D01*
Y145819D01*
X211960D01*
Y145830D01*
X211954D01*
Y145836D01*
X211949D01*
Y145842D01*
X211943D01*
Y145847D01*
X211938D01*
Y145853D01*
X211932D01*
Y145858D01*
X211927D01*
Y145870D01*
X211921D01*
Y145875D01*
X211915D01*
Y145881D01*
X211910D01*
Y145886D01*
X211904D01*
Y145892D01*
X211898D01*
Y145897D01*
X211893D01*
Y145909D01*
X211887D01*
Y145914D01*
X211882D01*
Y145920D01*
X211876D01*
Y145925D01*
X211871D01*
Y145931D01*
X211865D01*
Y145937D01*
X211859D01*
Y145948D01*
X211854D01*
Y145953D01*
X211848D01*
Y145959D01*
X211843D01*
Y145965D01*
X211837D01*
Y145970D01*
X211831D01*
Y145976D01*
X211826D01*
Y145987D01*
X211820D01*
Y145993D01*
X211815D01*
Y145998D01*
X211809D01*
Y146004D01*
X211804D01*
Y146009D01*
X211798D01*
Y146015D01*
X211792D01*
Y146026D01*
X211787D01*
Y146032D01*
X211781D01*
Y146037D01*
X211776D01*
Y146043D01*
X211770D01*
Y146048D01*
X211764D01*
Y146054D01*
X211759D01*
Y146065D01*
X211753D01*
Y146071D01*
X211748D01*
Y146076D01*
X211742D01*
Y146082D01*
X211736D01*
Y146088D01*
X211731D01*
Y146093D01*
X211725D01*
Y146104D01*
X211720D01*
Y146110D01*
X211714D01*
Y146116D01*
X211708D01*
Y146121D01*
X211703D01*
Y146127D01*
X211697D01*
Y146132D01*
X211692D01*
Y146143D01*
X211686D01*
Y146149D01*
X211681D01*
Y146155D01*
X211675D01*
Y146160D01*
X211669D01*
Y146166D01*
X211664D01*
Y146171D01*
X211658D01*
Y146183D01*
X211653D01*
Y146188D01*
X211647D01*
Y146194D01*
X211641D01*
Y146199D01*
X211636D01*
Y146205D01*
X211630D01*
Y146211D01*
X211625D01*
Y146222D01*
X211619D01*
Y146227D01*
X211613D01*
Y146233D01*
X211608D01*
Y146239D01*
X211602D01*
Y146244D01*
X211597D01*
Y146250D01*
X211591D01*
Y146261D01*
X211585D01*
Y146266D01*
X211580D01*
Y146272D01*
X211574D01*
Y146278D01*
X211569D01*
Y146283D01*
X211563D01*
Y146289D01*
X211558D01*
Y146300D01*
X211552D01*
Y146306D01*
X211546D01*
Y146311D01*
X211541D01*
Y146317D01*
X211535D01*
Y146322D01*
X211530D01*
Y146328D01*
X211524D01*
Y146339D01*
X211518D01*
Y146345D01*
X211513D01*
Y146350D01*
X211507D01*
Y146356D01*
X211502D01*
Y146361D01*
X211496D01*
Y146367D01*
X211491D01*
Y146378D01*
X211485D01*
Y146384D01*
X211479D01*
Y146389D01*
X211474D01*
Y146395D01*
X211468D01*
Y146401D01*
X211462D01*
Y146406D01*
X211457D01*
Y146417D01*
X211451D01*
Y146423D01*
X211446D01*
Y146429D01*
X211440D01*
Y146434D01*
X211435D01*
Y146440D01*
X211429D01*
Y146445D01*
X211423D01*
Y146457D01*
X211418D01*
Y146462D01*
X211412D01*
Y146468D01*
X211407D01*
Y146473D01*
X211401D01*
Y146479D01*
X211395D01*
Y146484D01*
X211390D01*
Y146496D01*
X211384D01*
Y146501D01*
X211379D01*
Y146507D01*
X211373D01*
Y146512D01*
X211368D01*
Y146518D01*
X211362D01*
Y146524D01*
X211356D01*
Y146535D01*
X211351D01*
Y146540D01*
X211345D01*
Y146546D01*
X211340D01*
Y146552D01*
X211334D01*
Y146557D01*
X211328D01*
Y146563D01*
X211323D01*
Y146574D01*
X211317D01*
Y146580D01*
X211312D01*
Y146585D01*
X211306D01*
Y146591D01*
X211300D01*
Y146596D01*
X211295D01*
Y146602D01*
X211289D01*
Y146613D01*
X211284D01*
Y146619D01*
X211278D01*
Y146624D01*
X211273D01*
Y146630D01*
X211267D01*
Y146635D01*
X211261D01*
Y146641D01*
X211256D01*
Y146652D01*
X211250D01*
Y146658D01*
X211245D01*
Y146663D01*
X211239D01*
Y146669D01*
X211233D01*
Y146675D01*
X211228D01*
Y146680D01*
X211222D01*
Y146691D01*
X211217D01*
Y146697D01*
X211211D01*
Y146703D01*
X211205D01*
Y146708D01*
X211200D01*
Y146714D01*
X211194D01*
Y146719D01*
X211189D01*
Y146730D01*
X211183D01*
Y146736D01*
X211177D01*
Y146742D01*
X211172D01*
Y146747D01*
X211166D01*
Y146753D01*
X211161D01*
Y146758D01*
X211155D01*
Y146770D01*
X211150D01*
Y146775D01*
X211144D01*
Y146781D01*
X211138D01*
Y146786D01*
X211133D01*
Y146792D01*
X211127D01*
Y146798D01*
X211122D01*
Y146809D01*
X211116D01*
Y146814D01*
X211110D01*
Y146820D01*
X211105D01*
Y146826D01*
X211099D01*
Y146831D01*
X211094D01*
Y146837D01*
X211088D01*
Y146848D01*
X211082D01*
Y146853D01*
X211077D01*
Y146859D01*
X211071D01*
Y146865D01*
X211066D01*
Y146870D01*
X211060D01*
Y146876D01*
X211054D01*
Y146887D01*
X211049D01*
Y146892D01*
X211043D01*
Y146898D01*
X211038D01*
Y146904D01*
X211032D01*
Y146909D01*
X211027D01*
Y146915D01*
X211021D01*
Y146926D01*
X211015D01*
Y146932D01*
X211010D01*
Y146937D01*
X211004D01*
Y146943D01*
X210999D01*
Y146948D01*
X210993D01*
Y146954D01*
X210987D01*
Y146965D01*
X210982D01*
Y146971D01*
X210976D01*
Y146976D01*
X210971D01*
Y146982D01*
X210965D01*
Y146988D01*
X210959D01*
Y146993D01*
X210954D01*
Y146999D01*
X210948D01*
Y147010D01*
X210943D01*
Y147016D01*
X210937D01*
Y147021D01*
X210931D01*
Y147027D01*
X210926D01*
Y147032D01*
X210920D01*
Y147038D01*
X210915D01*
Y147049D01*
X210909D01*
Y147055D01*
X210904D01*
Y147060D01*
X210898D01*
Y147066D01*
X210892D01*
Y147071D01*
X210887D01*
Y147083D01*
X210881D01*
Y147088D01*
X210876D01*
Y147094D01*
X210870D01*
Y147099D01*
X210864D01*
Y147105D01*
X210859D01*
Y147110D01*
X210853D01*
Y147122D01*
X210848D01*
Y147127D01*
X210842D01*
Y147133D01*
X210837D01*
Y147139D01*
X210831D01*
Y147144D01*
X210825D01*
Y147150D01*
X210820D01*
Y147161D01*
X210814D01*
Y147166D01*
X210808D01*
Y147172D01*
X210803D01*
Y147178D01*
X210797D01*
Y147183D01*
X210792D01*
Y147189D01*
X210786D01*
Y147194D01*
X210781D01*
Y147200D01*
X210775D01*
Y147211D01*
X210769D01*
Y147217D01*
X210764D01*
Y147222D01*
X210758D01*
Y147228D01*
X210753D01*
Y147233D01*
X210747D01*
Y147239D01*
X210741D01*
Y147245D01*
X210736D01*
Y147250D01*
X210730D01*
Y147256D01*
X210725D01*
Y147262D01*
X210719D01*
Y147267D01*
X210714D01*
Y147273D01*
X210708D01*
Y147278D01*
X210702D01*
Y147284D01*
X210697D01*
Y147289D01*
X210691D01*
Y147295D01*
X210685D01*
Y147301D01*
X210680D01*
Y147306D01*
X210674D01*
Y147312D01*
X210669D01*
Y147317D01*
X210658D01*
Y147323D01*
X210652D01*
Y147328D01*
X210646D01*
Y147334D01*
X210641D01*
Y147340D01*
X210635D01*
Y147345D01*
X210630D01*
Y147351D01*
X210618D01*
Y147356D01*
X210613D01*
Y147362D01*
X210607D01*
Y147368D01*
X210602D01*
Y147373D01*
X210596D01*
Y147379D01*
X210585D01*
Y147384D01*
X210579D01*
Y147390D01*
X210574D01*
Y147396D01*
X210562D01*
Y147401D01*
X210557D01*
Y147407D01*
X210551D01*
Y147412D01*
X210540D01*
Y147418D01*
X210535D01*
Y147424D01*
X210523D01*
Y147429D01*
X210518D01*
Y147435D01*
X210512D01*
Y147440D01*
X210501D01*
Y147446D01*
X210495D01*
Y147451D01*
X210484D01*
Y147457D01*
X210473D01*
Y147463D01*
X210468D01*
Y147468D01*
X210456D01*
Y147474D01*
X210451D01*
Y147479D01*
X210440D01*
Y147485D01*
X210428D01*
Y147491D01*
X210417D01*
Y147496D01*
X210412D01*
Y147502D01*
X210400D01*
Y147507D01*
X210389D01*
Y147513D01*
X210378D01*
Y147519D01*
X210367D01*
Y147524D01*
X210356D01*
Y147530D01*
X210345D01*
Y147535D01*
X210333D01*
Y147541D01*
X210322D01*
Y147547D01*
X210311D01*
Y147552D01*
X210294D01*
Y147558D01*
X210283D01*
Y147563D01*
X210266D01*
Y147569D01*
X210255D01*
Y147574D01*
X210238D01*
Y147580D01*
X210222D01*
Y147586D01*
X210205D01*
Y147591D01*
X210188D01*
Y147597D01*
X210166D01*
Y147602D01*
X210143D01*
Y147608D01*
X210121D01*
Y147614D01*
X210093D01*
Y147619D01*
X210059D01*
Y147625D01*
X210015D01*
Y147630D01*
X209864D01*
Y142985D01*
X208427D01*
Y146020D01*
X207712D01*
Y146026D01*
X207851D01*
Y146032D01*
X208215D01*
Y146026D01*
X208433D01*
Y146032D01*
X208438D01*
Y146037D01*
X208433D01*
Y146132D01*
X208427D01*
Y148804D01*
Y148810D01*
Y149045D01*
X209981D01*
Y149039D01*
X210099D01*
Y149033D01*
X210182D01*
Y149028D01*
X210249D01*
Y149022D01*
X210305D01*
Y149017D01*
X210350D01*
Y149011D01*
X210395D01*
Y149005D01*
X210434D01*
Y149000D01*
X210468D01*
Y148994D01*
X210495D01*
Y148989D01*
X210529D01*
Y148983D01*
X210557D01*
Y148978D01*
X210579D01*
Y148972D01*
X210602D01*
Y148966D01*
X210624D01*
Y148961D01*
X210646D01*
Y148955D01*
X210669D01*
Y148950D01*
X210691D01*
Y148944D01*
X210708D01*
Y148939D01*
X210725D01*
Y148933D01*
X210741D01*
Y148927D01*
X210758D01*
Y148922D01*
X210775D01*
Y148916D01*
X210792D01*
Y148910D01*
X210808D01*
Y148905D01*
X210820D01*
Y148899D01*
X210837D01*
Y148894D01*
X210853D01*
Y148888D01*
X210864D01*
Y148883D01*
X210881D01*
Y148877D01*
X210892D01*
Y148871D01*
X210904D01*
Y148866D01*
X210920D01*
Y148860D01*
X210931D01*
Y148855D01*
X210943D01*
Y148849D01*
X210954D01*
Y148843D01*
X210965D01*
Y148838D01*
X210976D01*
Y148832D01*
X210987D01*
Y148827D01*
X210999D01*
Y148821D01*
X211010D01*
Y148816D01*
X211021D01*
Y148810D01*
X211032D01*
Y148804D01*
X211043D01*
Y148799D01*
X211054D01*
Y148793D01*
X211066D01*
Y148787D01*
X211077D01*
Y148782D01*
X211082D01*
Y148776D01*
X211094D01*
Y148771D01*
X211105D01*
Y148765D01*
X211110D01*
Y148760D01*
X211122D01*
Y148754D01*
X211133D01*
Y148748D01*
X211138D01*
Y148743D01*
X211150D01*
Y148737D01*
X211161D01*
Y148732D01*
X211166D01*
Y148726D01*
X211177D01*
Y148721D01*
X211183D01*
Y148715D01*
X211194D01*
Y148709D01*
X211205D01*
Y148704D01*
X211211D01*
Y148698D01*
X211217D01*
Y148693D01*
X211228D01*
Y148687D01*
X211233D01*
Y148681D01*
X211245D01*
Y148676D01*
X211250D01*
Y148670D01*
X211261D01*
Y148665D01*
X211267D01*
Y148659D01*
X211278D01*
Y148653D01*
X211284D01*
Y148648D01*
X211289D01*
Y148642D01*
X211300D01*
Y148637D01*
X211306D01*
Y148631D01*
X211312D01*
Y148625D01*
X211323D01*
Y148620D01*
X211328D01*
Y148614D01*
X211334D01*
Y148609D01*
X211345D01*
Y148603D01*
X211351D01*
Y148598D01*
X211356D01*
Y148592D01*
X211362D01*
Y148586D01*
X211373D01*
Y148581D01*
X211379D01*
Y148575D01*
X211384D01*
Y148570D01*
X211390D01*
Y148564D01*
X211401D01*
Y148558D01*
X211407D01*
Y148553D01*
X211412D01*
Y148547D01*
X211418D01*
Y148542D01*
X211429D01*
Y148536D01*
X211435D01*
Y148530D01*
X211440D01*
Y148525D01*
X211446D01*
Y148519D01*
X211451D01*
Y148514D01*
X211457D01*
Y148508D01*
X211468D01*
Y148502D01*
X211474D01*
Y148497D01*
X211479D01*
Y148491D01*
X211485D01*
Y148486D01*
X211491D01*
Y148480D01*
X211496D01*
Y148475D01*
X211502D01*
Y148469D01*
X211507D01*
Y148463D01*
X211513D01*
Y148458D01*
X211524D01*
Y148452D01*
X211530D01*
Y148447D01*
X211535D01*
Y148441D01*
X211541D01*
Y148435D01*
X211546D01*
Y148430D01*
X211552D01*
Y148424D01*
X211558D01*
Y148419D01*
X211563D01*
Y148413D01*
X211569D01*
Y148407D01*
X211574D01*
Y148402D01*
X211580D01*
Y148396D01*
X211585D01*
Y148391D01*
X211591D01*
Y148385D01*
X211597D01*
Y148380D01*
X211602D01*
Y148374D01*
X211608D01*
Y148368D01*
X211613D01*
Y148363D01*
X211619D01*
Y148357D01*
X211625D01*
Y148352D01*
X211630D01*
Y148346D01*
X211636D01*
Y148340D01*
X211641D01*
Y148335D01*
X211647D01*
Y148329D01*
X211653D01*
Y148324D01*
X211658D01*
Y148318D01*
X211664D01*
Y148312D01*
X211669D01*
Y148307D01*
X211675D01*
Y148301D01*
X211681D01*
Y148296D01*
X211686D01*
Y148290D01*
X211692D01*
Y148284D01*
X211697D01*
Y148279D01*
X211703D01*
Y148273D01*
X211708D01*
Y148268D01*
X211714D01*
Y148262D01*
X211720D01*
Y148257D01*
X211725D01*
Y148245D01*
X211731D01*
Y148240D01*
X211736D01*
Y148234D01*
X211742D01*
Y148229D01*
X211748D01*
Y148223D01*
X211753D01*
Y148217D01*
X211759D01*
Y148212D01*
X211764D01*
Y148206D01*
X211770D01*
Y148201D01*
X211776D01*
Y148189D01*
X211781D01*
Y148184D01*
X211787D01*
Y148178D01*
X211792D01*
Y148173D01*
X211798D01*
Y148167D01*
X211804D01*
Y148161D01*
X211809D01*
Y148150D01*
X211815D01*
Y148145D01*
X211820D01*
Y148139D01*
X211826D01*
Y148134D01*
X211831D01*
Y148128D01*
X211837D01*
Y148122D01*
X211843D01*
Y148117D01*
X211848D01*
Y148106D01*
X211854D01*
Y148100D01*
X211859D01*
Y148094D01*
X211865D01*
Y148089D01*
X211871D01*
Y148083D01*
X211876D01*
Y148078D01*
X211882D01*
Y148066D01*
X211887D01*
Y148061D01*
X211893D01*
Y148055D01*
X211898D01*
Y148050D01*
X211904D01*
Y148044D01*
X211910D01*
Y148038D01*
X211915D01*
Y148033D01*
X211921D01*
Y148022D01*
X211927D01*
Y148016D01*
X211932D01*
Y148011D01*
X211938D01*
Y148005D01*
X211943D01*
Y147999D01*
X211949D01*
Y147994D01*
X211954D01*
Y147983D01*
X211960D01*
Y147977D01*
X211966D01*
Y147971D01*
X211971D01*
Y147966D01*
X211977D01*
Y147960D01*
X211982D01*
Y147955D01*
X211988D01*
Y147949D01*
X211994D01*
Y147938D01*
X211999D01*
Y147932D01*
X212005D01*
Y147927D01*
X212010D01*
Y147921D01*
X212016D01*
Y147915D01*
X212021D01*
Y147910D01*
X212027D01*
Y147899D01*
X212033D01*
Y147893D01*
X212038D01*
Y147888D01*
X212044D01*
Y147882D01*
X212050D01*
Y147876D01*
X212055D01*
Y147871D01*
X212061D01*
Y147865D01*
X212066D01*
Y147854D01*
X212072D01*
Y147848D01*
X212077D01*
Y147843D01*
X212083D01*
Y147837D01*
X212089D01*
Y147832D01*
X212094D01*
Y147826D01*
X212100D01*
Y147815D01*
X212105D01*
Y147809D01*
X212111D01*
Y147804D01*
X212117D01*
Y147798D01*
X212122D01*
Y147792D01*
X212128D01*
Y147787D01*
X212133D01*
Y147781D01*
X212139D01*
Y147770D01*
X212144D01*
Y147765D01*
X212150D01*
Y147759D01*
X212156D01*
Y147753D01*
X212161D01*
Y147748D01*
X212167D01*
Y147742D01*
X212173D01*
Y147731D01*
X212178D01*
Y147725D01*
X212184D01*
Y147720D01*
X212189D01*
Y147714D01*
X212195D01*
Y147709D01*
X212200D01*
Y147703D01*
X212206D01*
Y147697D01*
X212212D01*
Y147686D01*
X212217D01*
Y147681D01*
X212223D01*
Y147675D01*
X212228D01*
Y147669D01*
X212234D01*
Y147664D01*
X212240D01*
Y147658D01*
X212245D01*
Y147647D01*
X212251D01*
Y147642D01*
X212256D01*
Y147636D01*
X212262D01*
Y147630D01*
X212267D01*
Y147625D01*
X212273D01*
Y147619D01*
X212279D01*
Y147614D01*
X212284D01*
Y147602D01*
X212290D01*
Y147597D01*
X212295D01*
Y147591D01*
X212301D01*
Y147586D01*
X212307D01*
Y147580D01*
X212312D01*
Y147574D01*
X212318D01*
Y147563D01*
X212323D01*
Y147558D01*
X212329D01*
Y147552D01*
X212335D01*
Y147547D01*
X212340D01*
Y147541D01*
X212346D01*
Y147535D01*
X212351D01*
Y147530D01*
X212357D01*
Y147519D01*
X212363D01*
Y147513D01*
X212368D01*
Y147507D01*
X212374D01*
Y147502D01*
X212379D01*
Y147496D01*
X212385D01*
Y147491D01*
X212390D01*
Y147479D01*
X212396D01*
Y147474D01*
X212402D01*
Y147468D01*
X212407D01*
Y147463D01*
X212413D01*
Y147457D01*
X212418D01*
Y147451D01*
X212424D01*
Y147446D01*
X212430D01*
Y147435D01*
X212435D01*
Y147429D01*
X212441D01*
Y147424D01*
X212446D01*
Y147418D01*
X212452D01*
Y147412D01*
X212457D01*
Y147407D01*
X212463D01*
Y147401D01*
X212469D01*
Y147390D01*
X212474D01*
Y147384D01*
X212480D01*
Y147379D01*
X212486D01*
Y147373D01*
X212491D01*
Y147368D01*
X212497D01*
Y147362D01*
X212502D01*
Y147351D01*
X212508D01*
Y147345D01*
X212513D01*
Y147340D01*
X212519D01*
Y147334D01*
X212525D01*
Y147328D01*
X212530D01*
Y147323D01*
X212536D01*
Y147317D01*
X212541D01*
Y147306D01*
X212547D01*
Y147301D01*
X212553D01*
Y147295D01*
X212558D01*
Y147289D01*
X212564D01*
Y147284D01*
X212569D01*
Y147278D01*
X212575D01*
Y147267D01*
X212580D01*
Y147262D01*
X212586D01*
Y147256D01*
X212592D01*
Y147250D01*
X212597D01*
Y147245D01*
X212603D01*
Y147239D01*
X212609D01*
Y147233D01*
X212614D01*
Y147222D01*
X212620D01*
Y147217D01*
X212625D01*
Y147211D01*
X212631D01*
Y147206D01*
X212636D01*
Y147200D01*
X212642D01*
Y147194D01*
X212648D01*
Y147183D01*
X212653D01*
Y147178D01*
X212659D01*
Y147172D01*
X212664D01*
Y147166D01*
X212670D01*
Y147161D01*
X212676D01*
Y147155D01*
X212681D01*
Y147150D01*
X212687D01*
Y147139D01*
X212692D01*
Y147133D01*
X212698D01*
Y147127D01*
X212703D01*
Y147122D01*
X212709D01*
Y147116D01*
X212715D01*
Y147110D01*
X212720D01*
Y147099D01*
X212726D01*
Y147094D01*
X212732D01*
Y147088D01*
X212737D01*
Y147083D01*
X212743D01*
Y147077D01*
X212748D01*
Y147071D01*
X212754D01*
Y147066D01*
X212759D01*
Y147055D01*
X212765D01*
Y147049D01*
X212771D01*
Y147044D01*
X212776D01*
Y147038D01*
X212782D01*
Y147032D01*
X212787D01*
Y147027D01*
X212793D01*
Y147016D01*
X212799D01*
Y147010D01*
X212804D01*
Y147004D01*
X212810D01*
Y146999D01*
X212815D01*
Y146993D01*
X212821D01*
Y146988D01*
X212826D01*
Y146982D01*
X212832D01*
Y146971D01*
X212838D01*
Y146965D01*
X212843D01*
Y146960D01*
X212849D01*
Y146954D01*
X212854D01*
Y146948D01*
X212860D01*
Y146943D01*
X212866D01*
Y146937D01*
X212871D01*
Y146926D01*
X212877D01*
Y146921D01*
X212882D01*
Y146915D01*
X212888D01*
Y146909D01*
X212894D01*
Y146904D01*
X212899D01*
Y146898D01*
X212905D01*
Y146887D01*
X212910D01*
Y146881D01*
X212916D01*
Y146876D01*
X212922D01*
Y146870D01*
X212927D01*
Y146865D01*
X212933D01*
Y146859D01*
X212938D01*
Y146853D01*
X212944D01*
Y146842D01*
X212949D01*
Y146837D01*
X212955D01*
Y146831D01*
X212961D01*
Y146826D01*
X212966D01*
Y146820D01*
X212972D01*
Y146814D01*
X212977D01*
Y146803D01*
X212983D01*
Y146798D01*
X212989D01*
Y146792D01*
X212994D01*
Y146786D01*
X213000D01*
Y146781D01*
X213005D01*
Y146775D01*
X213011D01*
Y146770D01*
X213017D01*
Y146758D01*
X213022D01*
Y146753D01*
X213028D01*
Y146747D01*
X213033D01*
Y146742D01*
X213039D01*
Y146736D01*
X213045D01*
Y146730D01*
X213050D01*
Y146719D01*
X213056D01*
Y146714D01*
X213061D01*
Y146708D01*
X213067D01*
Y146703D01*
X213072D01*
Y146697D01*
X213078D01*
Y146691D01*
X213084D01*
Y146686D01*
X213089D01*
Y146675D01*
X213095D01*
Y146669D01*
X213100D01*
Y146663D01*
X213106D01*
Y146658D01*
X213112D01*
Y146652D01*
X213117D01*
Y146647D01*
X213123D01*
Y146641D01*
X213128D01*
Y146630D01*
X213134D01*
Y146624D01*
X213140D01*
Y146619D01*
X213145D01*
Y146613D01*
X213151D01*
Y146607D01*
X213156D01*
Y146602D01*
X213162D01*
Y146591D01*
X213168D01*
Y146585D01*
X213173D01*
Y146580D01*
X213179D01*
Y146574D01*
X213184D01*
Y146568D01*
X213190D01*
Y146563D01*
X213195D01*
Y146557D01*
X213201D01*
Y146546D01*
X213207D01*
Y146540D01*
X213212D01*
Y146535D01*
X213218D01*
Y146529D01*
X213223D01*
Y146524D01*
X213229D01*
Y146518D01*
X213235D01*
Y146507D01*
X213240D01*
Y146501D01*
X213246D01*
Y146496D01*
X213251D01*
Y146490D01*
X213257D01*
Y146484D01*
X213263D01*
Y146479D01*
X213268D01*
Y146473D01*
X213274D01*
Y146462D01*
X213279D01*
Y146457D01*
X213285D01*
Y146451D01*
X213291D01*
Y146445D01*
X213296D01*
Y146440D01*
X213302D01*
Y146434D01*
X213307D01*
Y146423D01*
X213313D01*
Y146417D01*
X213318D01*
Y146412D01*
X213324D01*
Y146406D01*
X213330D01*
Y146401D01*
X213335D01*
Y146395D01*
X213341D01*
Y146389D01*
X213346D01*
Y146378D01*
X213352D01*
Y146373D01*
X213357D01*
Y146367D01*
X213363D01*
Y146361D01*
X213369D01*
Y146356D01*
X213374D01*
Y146350D01*
X213380D01*
Y146345D01*
X213386D01*
Y146334D01*
X213391D01*
Y146328D01*
X213397D01*
Y146322D01*
X213402D01*
Y146317D01*
X213408D01*
Y146311D01*
X213413D01*
Y146306D01*
X213419D01*
Y146294D01*
X213425D01*
Y146289D01*
X213430D01*
Y146283D01*
X213436D01*
Y146278D01*
X213441D01*
Y146272D01*
X213447D01*
Y146266D01*
X213453D01*
Y146261D01*
X213458D01*
Y146250D01*
X213464D01*
Y146244D01*
X213469D01*
Y146239D01*
X213475D01*
Y146233D01*
X213480D01*
Y146227D01*
X213486D01*
Y146222D01*
X213492D01*
Y146211D01*
X213497D01*
Y146205D01*
X213503D01*
Y146199D01*
X213509D01*
Y146194D01*
X213514D01*
Y146188D01*
X213520D01*
Y146183D01*
X213525D01*
Y146177D01*
X213531D01*
Y146166D01*
X213536D01*
Y146160D01*
X213542D01*
Y146155D01*
X213548D01*
Y146149D01*
X213553D01*
Y146143D01*
X213559D01*
Y146138D01*
X213564D01*
Y146127D01*
X213570D01*
Y146121D01*
X213576D01*
Y146116D01*
X213581D01*
Y146110D01*
X213587D01*
Y146104D01*
X213592D01*
Y146099D01*
X213598D01*
Y146093D01*
X213603D01*
Y146082D01*
X213609D01*
Y146076D01*
X213615D01*
Y146071D01*
X213620D01*
Y146065D01*
X213626D01*
Y146060D01*
X213631D01*
Y146054D01*
X213637D01*
Y146043D01*
X213643D01*
Y146037D01*
X213648D01*
Y146032D01*
X213654D01*
Y146026D01*
X213659D01*
Y146020D01*
X213665D01*
Y146015D01*
X213671D01*
Y146009D01*
X213676D01*
Y145998D01*
X213682D01*
Y145993D01*
X213687D01*
Y145987D01*
X213693D01*
Y145981D01*
X213699D01*
Y145976D01*
X213704D01*
Y145970D01*
X213710D01*
Y145965D01*
X213715D01*
Y145953D01*
X213721D01*
Y145948D01*
X213726D01*
Y145942D01*
X213732D01*
Y145937D01*
X213738D01*
Y145931D01*
X213743D01*
Y145925D01*
X213749D01*
Y145914D01*
X213754D01*
Y145909D01*
X213760D01*
Y145903D01*
X213766D01*
Y145897D01*
X213771D01*
Y145892D01*
X213777D01*
Y145886D01*
X213782D01*
Y145881D01*
X213788D01*
Y145870D01*
X213794D01*
Y145864D01*
X213799D01*
Y145858D01*
X213805D01*
Y145853D01*
X213810D01*
Y145847D01*
X213816D01*
Y145842D01*
X213822D01*
Y145830D01*
X213827D01*
Y145825D01*
X213833D01*
Y145819D01*
X213838D01*
Y145814D01*
X213844D01*
Y145808D01*
X213849D01*
Y145802D01*
X213855D01*
Y145797D01*
X213861D01*
Y145786D01*
X213866D01*
Y145780D01*
X213872D01*
Y145774D01*
X213877D01*
Y145769D01*
X213883D01*
Y145763D01*
X213889D01*
Y145758D01*
X213894D01*
Y145747D01*
X213900D01*
Y145741D01*
X213905D01*
Y145735D01*
X213911D01*
Y145730D01*
X213916D01*
Y145724D01*
X213922D01*
Y145719D01*
X213928D01*
Y145713D01*
X213933D01*
Y145702D01*
X213939D01*
Y145696D01*
X213945D01*
Y145691D01*
X213950D01*
Y145685D01*
X213956D01*
Y145679D01*
X213961D01*
Y145674D01*
X213967D01*
Y145668D01*
X213972D01*
Y145657D01*
X213978D01*
Y145651D01*
X213984D01*
Y145646D01*
X213989D01*
Y145640D01*
X213995D01*
Y145635D01*
X214000D01*
Y145629D01*
X214006D01*
Y145618D01*
X214012D01*
Y145612D01*
X214017D01*
Y145607D01*
X214023D01*
Y145601D01*
X214028D01*
Y145596D01*
X214034D01*
Y145590D01*
X214039D01*
Y145584D01*
X214045D01*
Y145573D01*
X214051D01*
Y145568D01*
X214056D01*
Y145562D01*
X214062D01*
Y145556D01*
X214068D01*
Y145551D01*
X214073D01*
Y145545D01*
X214079D01*
Y145534D01*
X214084D01*
Y145529D01*
X214090D01*
Y145523D01*
X214095D01*
Y145517D01*
X214101D01*
Y145512D01*
X214107D01*
Y145506D01*
X214112D01*
Y145501D01*
X214118D01*
Y145489D01*
X214123D01*
Y145484D01*
X214129D01*
Y145478D01*
X214135D01*
Y145473D01*
X214140D01*
Y145467D01*
X214146D01*
Y145461D01*
X214151D01*
Y145450D01*
X214157D01*
Y145445D01*
X214162D01*
Y145439D01*
X214168D01*
Y145433D01*
X214174D01*
Y145428D01*
X214179D01*
Y145422D01*
X214185D01*
Y145417D01*
X214190D01*
Y145406D01*
X214196D01*
Y145400D01*
X214202D01*
Y145394D01*
X214207D01*
Y145389D01*
X214213D01*
Y145383D01*
X214218D01*
Y145378D01*
X214224D01*
Y145367D01*
X214230D01*
Y145361D01*
X214235D01*
Y145355D01*
X214241D01*
Y145350D01*
X214246D01*
Y145344D01*
X214252D01*
Y145338D01*
X214258D01*
Y145333D01*
X214263D01*
Y145322D01*
X214269D01*
Y145316D01*
X214274D01*
Y145311D01*
X214280D01*
Y145305D01*
X214285D01*
Y145299D01*
X214291D01*
Y145294D01*
X214297D01*
Y145283D01*
X214302D01*
Y145277D01*
X214308D01*
Y145271D01*
X214313D01*
Y145266D01*
X214319D01*
Y145260D01*
X214325D01*
Y145255D01*
X214330D01*
Y145249D01*
X214336D01*
Y145238D01*
X214341D01*
Y145232D01*
X214347D01*
Y145227D01*
X214353D01*
Y145221D01*
X214358D01*
Y145215D01*
X214364D01*
Y145210D01*
X214369D01*
Y145204D01*
X214375D01*
Y145193D01*
X214381D01*
Y145188D01*
X214386D01*
Y145182D01*
X214392D01*
Y145176D01*
X214397D01*
Y145171D01*
X214403D01*
Y145165D01*
X214408D01*
Y145154D01*
X214414D01*
Y145149D01*
X214420D01*
Y145143D01*
X214425D01*
Y145137D01*
X214431D01*
Y145132D01*
X214436D01*
Y145126D01*
X214442D01*
Y145121D01*
X214448D01*
Y145115D01*
X214453D01*
Y145104D01*
X214459D01*
Y145098D01*
X214464D01*
Y145093D01*
X214470D01*
Y145087D01*
X214475D01*
Y145081D01*
X214481D01*
Y145076D01*
X214487D01*
Y145065D01*
X214492D01*
Y145059D01*
X214498D01*
Y145053D01*
X214504D01*
Y145048D01*
X214509D01*
Y145042D01*
X214515D01*
Y145037D01*
X214520D01*
Y145026D01*
X214526D01*
Y145020D01*
X214531D01*
Y145014D01*
X214537D01*
Y145009D01*
X214543D01*
Y145003D01*
X214548D01*
Y144998D01*
X214554D01*
Y144986D01*
X214559D01*
Y144981D01*
X214565D01*
Y144975D01*
X214571D01*
Y144970D01*
X214576D01*
Y144964D01*
X214582D01*
Y144958D01*
X214587D01*
Y144947D01*
X214593D01*
Y144942D01*
X214598D01*
Y144936D01*
X214604D01*
Y144930D01*
X214610D01*
Y144925D01*
X214615D01*
Y144919D01*
X214621D01*
Y144908D01*
X214627D01*
Y144903D01*
X214632D01*
Y144897D01*
X214638D01*
Y144891D01*
X214643D01*
Y144886D01*
X214649D01*
Y144880D01*
X214654D01*
Y144875D01*
X214660D01*
Y144863D01*
X214666D01*
Y144858D01*
X214671D01*
Y144852D01*
X214677D01*
Y144847D01*
X214682D01*
Y144841D01*
X214688D01*
Y144835D01*
X214693D01*
Y144830D01*
X214699D01*
Y144824D01*
X214705D01*
Y144819D01*
X214710D01*
Y144808D01*
X214716D01*
Y144802D01*
X214721D01*
Y144796D01*
X214727D01*
Y144791D01*
X214733D01*
Y144785D01*
X214738D01*
Y144780D01*
X214744D01*
Y144774D01*
X214749D01*
Y144768D01*
X214755D01*
Y144763D01*
X214761D01*
Y144757D01*
X214766D01*
Y144752D01*
X214772D01*
Y144746D01*
X214777D01*
Y144740D01*
X214783D01*
Y144735D01*
X214794D01*
Y144729D01*
X214800D01*
Y144724D01*
X214805D01*
Y144718D01*
X214811D01*
Y144712D01*
X214816D01*
Y144707D01*
X214822D01*
Y144701D01*
X214833D01*
Y144696D01*
X214839D01*
Y144690D01*
X214844D01*
Y144685D01*
X214850D01*
Y144679D01*
X214856D01*
Y144673D01*
X214867D01*
Y144668D01*
X214872D01*
Y144662D01*
X214878D01*
Y144657D01*
X214889D01*
Y144651D01*
X214895D01*
Y144645D01*
X214900D01*
Y144640D01*
X214906D01*
Y144634D01*
X214917D01*
Y144629D01*
X214923D01*
Y144623D01*
X214928D01*
Y144617D01*
X214939D01*
Y144612D01*
X214945D01*
Y144606D01*
X214956D01*
Y144601D01*
X214962D01*
Y144595D01*
X214967D01*
Y144589D01*
X214979D01*
Y144584D01*
X214984D01*
Y144578D01*
X214995D01*
Y144573D01*
X215001D01*
Y144567D01*
X215012D01*
Y144562D01*
X215018D01*
Y144556D01*
X215029D01*
Y144550D01*
X215040D01*
Y144545D01*
X215046D01*
Y144539D01*
X215057D01*
Y144534D01*
X215068D01*
Y144528D01*
X215074D01*
Y144522D01*
X215085D01*
Y144517D01*
X215096D01*
Y144511D01*
X215107D01*
Y144506D01*
X215118D01*
Y144500D01*
X215130D01*
Y144494D01*
X215141D01*
Y144489D01*
X215152D01*
Y144483D01*
X215163D01*
Y144478D01*
X215174D01*
Y144472D01*
X215185D01*
Y144466D01*
X215202D01*
Y144461D01*
X215213D01*
Y144455D01*
X215230D01*
Y144450D01*
X215241D01*
Y144444D01*
X215258D01*
Y144439D01*
X215275D01*
Y144433D01*
X215297D01*
Y144427D01*
X215314D01*
Y144422D01*
X215336D01*
Y144416D01*
X215364D01*
Y144411D01*
X215398D01*
Y144405D01*
X215448D01*
Y144399D01*
X215521D01*
Y144394D01*
X215605D01*
Y149045D01*
X217047D01*
Y142985D01*
D02*
G37*
G36*
X206929Y149151D02*
X206946D01*
Y149145D01*
X206957D01*
Y149134D01*
X206963D01*
Y149123D01*
X206968D01*
Y147742D01*
X200037D01*
Y147737D01*
X199986D01*
Y147731D01*
X199958D01*
Y147725D01*
X199936D01*
Y147720D01*
X199919D01*
Y147714D01*
X199902D01*
Y147709D01*
X199891D01*
Y147703D01*
X199880D01*
Y147697D01*
X199869D01*
Y147692D01*
X199863D01*
Y147686D01*
X199852D01*
Y147681D01*
X199846D01*
Y147675D01*
X199841D01*
Y147669D01*
X199830D01*
Y147664D01*
X199824D01*
Y147658D01*
X199819D01*
Y147653D01*
X199813D01*
Y147642D01*
X199807D01*
Y147636D01*
X199802D01*
Y147630D01*
X199796D01*
Y147619D01*
X199791D01*
Y147614D01*
X199785D01*
Y147602D01*
X199779D01*
Y147591D01*
X199774D01*
Y147574D01*
X199768D01*
Y147558D01*
X199763D01*
Y147535D01*
X199757D01*
Y147507D01*
X199751D01*
Y147451D01*
X199746D01*
Y144808D01*
X199751D01*
Y144746D01*
X199757D01*
Y144718D01*
X199763D01*
Y144696D01*
X199768D01*
Y144679D01*
X199774D01*
Y144668D01*
X199779D01*
Y144651D01*
X199785D01*
Y144640D01*
X199791D01*
Y144634D01*
X199796D01*
Y144623D01*
X199802D01*
Y144617D01*
X199807D01*
Y144612D01*
X199813D01*
Y144601D01*
X199819D01*
Y144595D01*
X199824D01*
Y144589D01*
X199830D01*
Y144584D01*
X199841D01*
Y144578D01*
X199846D01*
Y144573D01*
X199852D01*
Y144567D01*
X199863D01*
Y144562D01*
X199869D01*
Y144556D01*
X199880D01*
Y144550D01*
X199891D01*
Y144545D01*
X199902D01*
Y144539D01*
X199914D01*
Y144534D01*
X199930D01*
Y144528D01*
X199947D01*
Y144522D01*
X199975D01*
Y144517D01*
X200009D01*
Y144511D01*
X206907D01*
Y144506D01*
X206996D01*
Y143097D01*
X199975D01*
Y143103D01*
X199852D01*
Y143108D01*
X199774D01*
Y143114D01*
X199712D01*
Y143119D01*
X199656D01*
Y143125D01*
X199612D01*
Y143131D01*
X199573D01*
Y143136D01*
X199533D01*
Y143142D01*
X199500D01*
Y143147D01*
X199472D01*
Y143153D01*
X199444D01*
Y143158D01*
X199416D01*
Y143164D01*
X199388D01*
Y143170D01*
X199366D01*
Y143175D01*
X199338D01*
Y143181D01*
X199321D01*
Y143186D01*
X199299D01*
Y143192D01*
X199276D01*
Y143198D01*
X199260D01*
Y143203D01*
X199237D01*
Y143209D01*
X199221D01*
Y143214D01*
X199204D01*
Y143220D01*
X199187D01*
Y143226D01*
X199165D01*
Y143231D01*
X199153D01*
Y143237D01*
X199137D01*
Y143242D01*
X199120D01*
Y143248D01*
X199103D01*
Y143253D01*
X199092D01*
Y143259D01*
X199075D01*
Y143265D01*
X199064D01*
Y143270D01*
X199047D01*
Y143276D01*
X199036D01*
Y143281D01*
X199025D01*
Y143287D01*
X199014D01*
Y143293D01*
X199002D01*
Y143298D01*
X198986D01*
Y143304D01*
X198975D01*
Y143309D01*
X198963D01*
Y143315D01*
X198952D01*
Y143321D01*
X198941D01*
Y143326D01*
X198935D01*
Y143332D01*
X198924D01*
Y143337D01*
X198913D01*
Y143343D01*
X198902D01*
Y143349D01*
X198891D01*
Y143354D01*
X198885D01*
Y143360D01*
X198874D01*
Y143365D01*
X198863D01*
Y143371D01*
X198857D01*
Y143376D01*
X198846D01*
Y143382D01*
X198835D01*
Y143388D01*
X198829D01*
Y143393D01*
X198818D01*
Y143399D01*
X198812D01*
Y143404D01*
X198801D01*
Y143410D01*
X198796D01*
Y143416D01*
X198784D01*
Y143421D01*
X198779D01*
Y143427D01*
X198773D01*
Y143432D01*
X198762D01*
Y143438D01*
X198757D01*
Y143444D01*
X198751D01*
Y143449D01*
X198740D01*
Y143455D01*
X198734D01*
Y143460D01*
X198729D01*
Y143466D01*
X198717D01*
Y143472D01*
X198712D01*
Y143477D01*
X198706D01*
Y143483D01*
X198701D01*
Y143488D01*
X198695D01*
Y143494D01*
X198689D01*
Y143499D01*
X198678D01*
Y143505D01*
X198673D01*
Y143511D01*
X198667D01*
Y143516D01*
X198661D01*
Y143522D01*
X198656D01*
Y143527D01*
X198650D01*
Y143533D01*
X198645D01*
Y143538D01*
X198639D01*
Y143544D01*
X198634D01*
Y143550D01*
X198628D01*
Y143555D01*
X198622D01*
Y143561D01*
X198617D01*
Y143567D01*
X198611D01*
Y143572D01*
X198606D01*
Y143578D01*
X198600D01*
Y143583D01*
X198594D01*
Y143589D01*
X198589D01*
Y143594D01*
X198583D01*
Y143600D01*
X198578D01*
Y143606D01*
X198572D01*
Y143617D01*
X198566D01*
Y143622D01*
X198561D01*
Y143628D01*
X198555D01*
Y143634D01*
X198550D01*
Y143639D01*
X198544D01*
Y143650D01*
X198538D01*
Y143656D01*
X198533D01*
Y143661D01*
X198527D01*
Y143673D01*
X198522D01*
Y143678D01*
X198516D01*
Y143684D01*
X198511D01*
Y143695D01*
X198505D01*
Y143701D01*
X198499D01*
Y143712D01*
X198494D01*
Y143717D01*
X198488D01*
Y143729D01*
X198483D01*
Y143734D01*
X198477D01*
Y143745D01*
X198471D01*
Y143751D01*
X198466D01*
Y143762D01*
X198460D01*
Y143773D01*
X198455D01*
Y143779D01*
X198449D01*
Y143790D01*
X198443D01*
Y143801D01*
X198438D01*
Y143812D01*
X198432D01*
Y143818D01*
X198427D01*
Y143829D01*
X198421D01*
Y143840D01*
X198416D01*
Y143852D01*
X198410D01*
Y143863D01*
X198404D01*
Y143874D01*
X198399D01*
Y143891D01*
X198393D01*
Y143902D01*
X198388D01*
Y143913D01*
X198382D01*
Y143930D01*
X198376D01*
Y143941D01*
X198371D01*
Y143958D01*
X198365D01*
Y143969D01*
X198360D01*
Y143986D01*
X198354D01*
Y144002D01*
X198348D01*
Y144019D01*
X198343D01*
Y144036D01*
X198337D01*
Y144053D01*
X198332D01*
Y144075D01*
X198326D01*
Y144092D01*
X198320D01*
Y144114D01*
X198315D01*
Y144137D01*
X198309D01*
Y144165D01*
X198304D01*
Y144193D01*
X198298D01*
Y144220D01*
X198293D01*
Y144254D01*
X198287D01*
Y144288D01*
X198281D01*
Y144332D01*
X198276D01*
Y144383D01*
X198270D01*
Y144450D01*
X198265D01*
Y144584D01*
X198259D01*
Y147681D01*
X198265D01*
Y147804D01*
X198270D01*
Y147871D01*
X198276D01*
Y147927D01*
X198281D01*
Y147966D01*
X198287D01*
Y148005D01*
X198293D01*
Y148033D01*
X198298D01*
Y148066D01*
X198304D01*
Y148089D01*
X198309D01*
Y148117D01*
X198315D01*
Y148139D01*
X198320D01*
Y148161D01*
X198326D01*
Y148184D01*
X198332D01*
Y148201D01*
X198337D01*
Y148217D01*
X198343D01*
Y148234D01*
X198348D01*
Y148251D01*
X198354D01*
Y148268D01*
X198360D01*
Y148284D01*
X198365D01*
Y148301D01*
X198371D01*
Y148312D01*
X198376D01*
Y148329D01*
X198382D01*
Y148340D01*
X198388D01*
Y148352D01*
X198393D01*
Y148368D01*
X198399D01*
Y148380D01*
X198404D01*
Y148391D01*
X198410D01*
Y148402D01*
X198416D01*
Y148413D01*
X198421D01*
Y148424D01*
X198427D01*
Y148435D01*
X198432D01*
Y148447D01*
X198438D01*
Y148452D01*
X198443D01*
Y148463D01*
X198449D01*
Y148475D01*
X198455D01*
Y148480D01*
X198460D01*
Y148491D01*
X198466D01*
Y148502D01*
X198471D01*
Y148508D01*
X198477D01*
Y148519D01*
X198483D01*
Y148525D01*
X198488D01*
Y148536D01*
X198494D01*
Y148542D01*
X198499D01*
Y148553D01*
X198505D01*
Y148558D01*
X198511D01*
Y148564D01*
X198516D01*
Y148575D01*
X198522D01*
Y148581D01*
X198527D01*
Y148592D01*
X198533D01*
Y148598D01*
X198538D01*
Y148603D01*
X198544D01*
Y148609D01*
X198550D01*
Y148620D01*
X198555D01*
Y148625D01*
X198561D01*
Y148631D01*
X198566D01*
Y148637D01*
X198572D01*
Y148648D01*
X198578D01*
Y148653D01*
X198583D01*
Y148659D01*
X198589D01*
Y148665D01*
X198594D01*
Y148670D01*
X198600D01*
Y148676D01*
X198606D01*
Y148681D01*
X198611D01*
Y148687D01*
X198617D01*
Y148693D01*
X198622D01*
Y148698D01*
X198628D01*
Y148704D01*
X198634D01*
Y148709D01*
X198639D01*
Y148715D01*
X198645D01*
Y148721D01*
X198650D01*
Y148726D01*
X198656D01*
Y148732D01*
X198661D01*
Y148737D01*
X198667D01*
Y148743D01*
X198673D01*
Y148748D01*
X198678D01*
Y148754D01*
X198689D01*
Y148760D01*
X198695D01*
Y148765D01*
X198701D01*
Y148771D01*
X198706D01*
Y148776D01*
X198712D01*
Y148782D01*
X198723D01*
Y148787D01*
X198729D01*
Y148793D01*
X198734D01*
Y148799D01*
X198745D01*
Y148804D01*
X198751D01*
Y148810D01*
X198757D01*
Y148816D01*
X198768D01*
Y148821D01*
X198773D01*
Y148827D01*
X198779D01*
Y148832D01*
X198790D01*
Y148838D01*
X198796D01*
Y148843D01*
X198807D01*
Y148849D01*
X198812D01*
Y148855D01*
X198824D01*
Y148860D01*
X198829D01*
Y148866D01*
X198840D01*
Y148871D01*
X198846D01*
Y148877D01*
X198857D01*
Y148883D01*
X198868D01*
Y148888D01*
X198874D01*
Y148894D01*
X198885D01*
Y148899D01*
X198896D01*
Y148905D01*
X198907D01*
Y148910D01*
X198919D01*
Y148916D01*
X198924D01*
Y148922D01*
X198935D01*
Y148927D01*
X198946D01*
Y148933D01*
X198958D01*
Y148939D01*
X198969D01*
Y148944D01*
X198980D01*
Y148950D01*
X198991D01*
Y148955D01*
X199002D01*
Y148961D01*
X199019D01*
Y148966D01*
X199030D01*
Y148972D01*
X199042D01*
Y148978D01*
X199053D01*
Y148983D01*
X199069D01*
Y148989D01*
X199081D01*
Y148994D01*
X199098D01*
Y149000D01*
X199109D01*
Y149005D01*
X199125D01*
Y149011D01*
X199142D01*
Y149017D01*
X199159D01*
Y149022D01*
X199170D01*
Y149028D01*
X199187D01*
Y149033D01*
X199209D01*
Y149039D01*
X199226D01*
Y149045D01*
X199243D01*
Y149050D01*
X199265D01*
Y149056D01*
X199282D01*
Y149061D01*
X199304D01*
Y149067D01*
X199327D01*
Y149073D01*
X199349D01*
Y149078D01*
X199371D01*
Y149084D01*
X199399D01*
Y149089D01*
X199427D01*
Y149095D01*
X199455D01*
Y149101D01*
X199483D01*
Y149106D01*
X199517D01*
Y149112D01*
X199556D01*
Y149117D01*
X199595D01*
Y149123D01*
X199640D01*
Y149128D01*
X199690D01*
Y149134D01*
X199751D01*
Y149140D01*
X199830D01*
Y149145D01*
X199942D01*
Y149151D01*
X206918D01*
Y149156D01*
X206929D01*
Y149151D01*
D02*
G37*
G36*
X205336Y141454D02*
X205118D01*
Y141576D01*
X205336D01*
Y141454D01*
D02*
G37*
G36*
X202988Y141325D02*
Y141319D01*
Y141185D01*
X202820D01*
Y141191D01*
X202765D01*
Y141185D01*
X202675D01*
Y141180D01*
X202664D01*
Y141174D01*
X202658D01*
Y141168D01*
X202653D01*
Y141163D01*
X202647D01*
Y141140D01*
X202642D01*
Y140710D01*
X202424D01*
Y141202D01*
X202429D01*
Y141219D01*
X202435D01*
Y141235D01*
X202440D01*
Y141247D01*
X202446D01*
Y141252D01*
X202451D01*
Y141263D01*
X202457D01*
Y141269D01*
X202463D01*
Y141275D01*
X202468D01*
Y141280D01*
X202474D01*
Y141286D01*
X202479D01*
Y141291D01*
X202485D01*
Y141297D01*
X202491D01*
Y141303D01*
X202496D01*
Y141308D01*
X202507D01*
Y141314D01*
X202513D01*
Y141319D01*
X202524D01*
Y141325D01*
X202535D01*
Y141331D01*
X202552D01*
Y141336D01*
X202569D01*
Y141342D01*
X202597D01*
Y141347D01*
X202988D01*
Y141325D01*
D02*
G37*
G36*
X201831Y141202D02*
X201837D01*
Y141185D01*
X201300D01*
Y141191D01*
X201283D01*
Y141174D01*
X201278D01*
Y141146D01*
X201272D01*
Y141107D01*
X201266D01*
Y140928D01*
X201272D01*
Y140894D01*
X201278D01*
Y140889D01*
X201283D01*
Y140883D01*
X201289D01*
Y140878D01*
X201300D01*
Y140872D01*
X201837D01*
Y140710D01*
X201216D01*
Y140716D01*
X201194D01*
Y140721D01*
X201177D01*
Y140727D01*
X201160D01*
Y140732D01*
X201149D01*
Y140738D01*
X201138D01*
Y140744D01*
X201132D01*
Y140749D01*
X201121D01*
Y140755D01*
X201115D01*
Y140760D01*
X201110D01*
Y140766D01*
X201104D01*
Y140771D01*
X201093D01*
Y140783D01*
X201087D01*
Y140788D01*
X201082D01*
Y140794D01*
X201076D01*
Y140799D01*
X201071D01*
Y140811D01*
X201065D01*
Y140822D01*
X201060D01*
Y140839D01*
X201054D01*
Y140861D01*
X201048D01*
Y141202D01*
X201054D01*
Y141219D01*
X201060D01*
Y141235D01*
X201065D01*
Y141247D01*
X201071D01*
Y141252D01*
X201076D01*
Y141263D01*
X201082D01*
Y141269D01*
X201087D01*
Y141275D01*
X201093D01*
Y141280D01*
X201099D01*
Y141286D01*
X201104D01*
Y141291D01*
X201110D01*
Y141297D01*
X201115D01*
Y141303D01*
X201121D01*
Y141308D01*
X201132D01*
Y141314D01*
X201138D01*
Y141319D01*
X201149D01*
Y141325D01*
X201160D01*
Y141331D01*
X201177D01*
Y141336D01*
X201194D01*
Y141342D01*
X201222D01*
Y141347D01*
X201831D01*
Y141202D01*
D02*
G37*
G36*
X200825Y141342D02*
X200853D01*
Y141336D01*
X200869D01*
Y141331D01*
X200881D01*
Y141325D01*
X200886D01*
Y141319D01*
X200892D01*
Y141314D01*
X200897D01*
Y141308D01*
X200903D01*
Y141303D01*
X200909D01*
Y141297D01*
X200914D01*
Y141291D01*
X200920D01*
Y141280D01*
X200925D01*
Y141269D01*
X200931D01*
Y141252D01*
X200937D01*
Y141219D01*
X200942D01*
Y141090D01*
X200937D01*
Y141068D01*
X200931D01*
Y141051D01*
X200925D01*
Y141040D01*
X200920D01*
Y141034D01*
X200914D01*
Y141023D01*
X200909D01*
Y141017D01*
X200903D01*
Y141012D01*
X200897D01*
Y141006D01*
X200892D01*
Y141001D01*
X200881D01*
Y140995D01*
X200875D01*
Y140989D01*
X200858D01*
Y140984D01*
X200841D01*
Y140978D01*
X200758D01*
Y140973D01*
X200746D01*
Y140978D01*
X200305D01*
Y140967D01*
X200310D01*
Y140922D01*
X200316D01*
Y140900D01*
X200322D01*
Y140889D01*
X200327D01*
Y140883D01*
X200333D01*
Y140878D01*
X200344D01*
Y140872D01*
X200925D01*
Y140710D01*
X200255D01*
Y140716D01*
X200227D01*
Y140721D01*
X200210D01*
Y140727D01*
X200193D01*
Y140732D01*
X200182D01*
Y140738D01*
X200171D01*
Y140744D01*
X200160D01*
Y140749D01*
X200154D01*
Y140755D01*
X200148D01*
Y140760D01*
X200143D01*
Y140766D01*
X200132D01*
Y140777D01*
X200126D01*
Y140783D01*
X200120D01*
Y140788D01*
X200115D01*
Y140794D01*
X200109D01*
Y140805D01*
X200104D01*
Y140822D01*
X200098D01*
Y140850D01*
X200093D01*
Y141213D01*
X200098D01*
Y141241D01*
X200104D01*
Y141258D01*
X200109D01*
Y141263D01*
X200115D01*
Y141275D01*
X200120D01*
Y141280D01*
X200126D01*
Y141286D01*
X200132D01*
Y141291D01*
X200137D01*
Y141297D01*
X200143D01*
Y141303D01*
X200148D01*
Y141308D01*
X200154D01*
Y141314D01*
X200165D01*
Y141319D01*
X200176D01*
Y141325D01*
X200187D01*
Y141331D01*
X200199D01*
Y141336D01*
X200221D01*
Y141342D01*
X200255D01*
Y141347D01*
X200825D01*
Y141342D01*
D02*
G37*
G36*
X216957D02*
X216985D01*
Y141336D01*
X217002D01*
Y141331D01*
X217019D01*
Y141325D01*
X217030D01*
Y141319D01*
X217041D01*
Y141314D01*
X217053D01*
Y141308D01*
X217064D01*
Y141303D01*
X217069D01*
Y141297D01*
X217075D01*
Y141291D01*
X217080D01*
Y141286D01*
X217086D01*
Y141280D01*
X217092D01*
Y141275D01*
X217097D01*
Y141269D01*
X217103D01*
Y141263D01*
X217108D01*
Y141252D01*
X217114D01*
Y141241D01*
X217120D01*
Y141230D01*
X217125D01*
Y141213D01*
X217131D01*
Y141196D01*
X217136D01*
Y141157D01*
X217142D01*
Y140710D01*
X216918D01*
Y140749D01*
X216913D01*
Y141017D01*
X216918D01*
Y141090D01*
X216913D01*
Y141152D01*
X216907D01*
Y141168D01*
X216902D01*
Y141180D01*
X216896D01*
Y141185D01*
X216812D01*
Y141191D01*
X216779D01*
Y141185D01*
X216656D01*
Y140710D01*
X216426D01*
Y140732D01*
Y140738D01*
Y141185D01*
X216169D01*
Y140710D01*
X215951D01*
Y141347D01*
X216957D01*
Y141342D01*
D02*
G37*
G36*
X215649D02*
X215677D01*
Y141336D01*
X215700D01*
Y141331D01*
X215717D01*
Y141325D01*
X215728D01*
Y141319D01*
X215744D01*
Y141314D01*
X215750D01*
Y141308D01*
X215761D01*
Y141303D01*
X215767D01*
Y141297D01*
X215778D01*
Y141291D01*
X215784D01*
Y141286D01*
X215789D01*
Y141280D01*
X215795D01*
Y141269D01*
X215800D01*
Y141263D01*
X215806D01*
Y141252D01*
X215811D01*
Y141247D01*
X215817D01*
Y141230D01*
X215823D01*
Y141219D01*
X215828D01*
Y141196D01*
X215834D01*
Y141163D01*
X215840D01*
Y140894D01*
X215834D01*
Y140861D01*
X215828D01*
Y140839D01*
X215823D01*
Y140827D01*
X215817D01*
Y140811D01*
X215811D01*
Y140799D01*
X215806D01*
Y140794D01*
X215800D01*
Y140783D01*
X215795D01*
Y140777D01*
X215789D01*
Y140771D01*
X215784D01*
Y140766D01*
X215778D01*
Y140760D01*
X215772D01*
Y140755D01*
X215761D01*
Y140749D01*
X215756D01*
Y140744D01*
X215744D01*
Y140738D01*
X215733D01*
Y140732D01*
X215717D01*
Y140727D01*
X215700D01*
Y140721D01*
X215683D01*
Y140716D01*
X215649D01*
Y140710D01*
X215113D01*
Y140716D01*
X215085D01*
Y140721D01*
X215062D01*
Y140727D01*
X215051D01*
Y140732D01*
X215040D01*
Y140738D01*
X215029D01*
Y140744D01*
X215018D01*
Y140749D01*
X215012D01*
Y140755D01*
X215007D01*
Y140760D01*
X214995D01*
Y140766D01*
X214990D01*
Y140771D01*
X214984D01*
Y140777D01*
X214979D01*
Y140783D01*
X214973D01*
Y140794D01*
X214967D01*
Y140799D01*
X214962D01*
Y140811D01*
X214956D01*
Y140816D01*
X214951D01*
Y140833D01*
X214945D01*
Y140850D01*
X214939D01*
Y140928D01*
X214934D01*
Y141129D01*
X214939D01*
Y141208D01*
X214945D01*
Y141224D01*
X214951D01*
Y141241D01*
X214956D01*
Y141247D01*
X214962D01*
Y141258D01*
X214967D01*
Y141263D01*
X214973D01*
Y141275D01*
X214979D01*
Y141280D01*
X214984D01*
Y141286D01*
X214990D01*
Y141291D01*
X214995D01*
Y141297D01*
X215001D01*
Y141303D01*
X215012D01*
Y141308D01*
X215018D01*
Y141314D01*
X215029D01*
Y141319D01*
X215040D01*
Y141325D01*
X215051D01*
Y141331D01*
X215062D01*
Y141336D01*
X215085D01*
Y141342D01*
X215118D01*
Y141347D01*
X215649D01*
Y141342D01*
D02*
G37*
G36*
X214828Y141258D02*
X214822D01*
Y141185D01*
X214291D01*
Y141180D01*
X214280D01*
Y141174D01*
X214274D01*
Y141168D01*
X214269D01*
Y141163D01*
X214263D01*
Y141129D01*
X214258D01*
Y140934D01*
X214263D01*
Y140894D01*
X214269D01*
Y140889D01*
X214274D01*
Y140883D01*
X214280D01*
Y140878D01*
X214297D01*
Y140872D01*
X214828D01*
Y140866D01*
X214833D01*
Y140710D01*
X214207D01*
Y140716D01*
X214185D01*
Y140721D01*
X214168D01*
Y140727D01*
X214151D01*
Y140732D01*
X214140D01*
Y140738D01*
X214129D01*
Y140744D01*
X214123D01*
Y140749D01*
X214112D01*
Y140755D01*
X214107D01*
Y140760D01*
X214101D01*
Y140766D01*
X214095D01*
Y140771D01*
X214090D01*
Y140777D01*
X214084D01*
Y140783D01*
X214079D01*
Y140788D01*
X214073D01*
Y140794D01*
X214068D01*
Y140805D01*
X214062D01*
Y140811D01*
X214056D01*
Y140822D01*
X214051D01*
Y140839D01*
X214045D01*
Y140855D01*
X214039D01*
Y141196D01*
X214045D01*
Y141219D01*
X214051D01*
Y141235D01*
X214056D01*
Y141247D01*
X214062D01*
Y141252D01*
X214068D01*
Y141263D01*
X214073D01*
Y141269D01*
X214079D01*
Y141275D01*
X214084D01*
Y141280D01*
X214090D01*
Y141286D01*
X214095D01*
Y141291D01*
X214101D01*
Y141297D01*
X214107D01*
Y141303D01*
X214112D01*
Y141308D01*
X214123D01*
Y141314D01*
X214129D01*
Y141319D01*
X214140D01*
Y141325D01*
X214151D01*
Y141331D01*
X214168D01*
Y141336D01*
X214185D01*
Y141342D01*
X214207D01*
Y141347D01*
X214828D01*
Y141258D01*
D02*
G37*
G36*
X213822Y141342D02*
X213844D01*
Y141336D01*
X213861D01*
Y141331D01*
X213866D01*
Y141325D01*
X213877D01*
Y141319D01*
X213883D01*
Y141314D01*
X213894D01*
Y141308D01*
X213900D01*
Y141297D01*
X213905D01*
Y141291D01*
X213911D01*
Y141280D01*
X213916D01*
Y141269D01*
X213922D01*
Y141252D01*
X213928D01*
Y141224D01*
X213933D01*
Y141096D01*
X213928D01*
Y141068D01*
X213922D01*
Y141051D01*
X213916D01*
Y141040D01*
X213911D01*
Y141034D01*
X213905D01*
Y141023D01*
X213900D01*
Y141017D01*
X213894D01*
Y141012D01*
X213889D01*
Y141006D01*
X213883D01*
Y141001D01*
X213872D01*
Y140995D01*
X213866D01*
Y140989D01*
X213849D01*
Y140984D01*
X213833D01*
Y140978D01*
X213296D01*
Y140967D01*
X213302D01*
Y140922D01*
X213307D01*
Y140900D01*
X213313D01*
Y140889D01*
X213318D01*
Y140883D01*
X213324D01*
Y140878D01*
X213335D01*
Y140872D01*
X213916D01*
Y140710D01*
X213240D01*
Y140716D01*
X213218D01*
Y140721D01*
X213201D01*
Y140727D01*
X213184D01*
Y140732D01*
X213173D01*
Y140738D01*
X213162D01*
Y140744D01*
X213156D01*
Y140749D01*
X213145D01*
Y140755D01*
X213140D01*
Y140760D01*
X213134D01*
Y140766D01*
X213128D01*
Y140771D01*
X213123D01*
Y140777D01*
X213117D01*
Y140783D01*
X213112D01*
Y140788D01*
X213106D01*
Y140799D01*
X213100D01*
Y140811D01*
X213095D01*
Y140822D01*
X213089D01*
Y140861D01*
X213084D01*
Y141219D01*
X213089D01*
Y141224D01*
Y141241D01*
X213095D01*
Y141258D01*
X213100D01*
Y141263D01*
X213106D01*
Y141275D01*
X213112D01*
Y141280D01*
X213117D01*
Y141286D01*
X213123D01*
Y141291D01*
X213128D01*
Y141297D01*
X213134D01*
Y141303D01*
X213140D01*
Y141308D01*
X213145D01*
Y141314D01*
X213156D01*
Y141319D01*
X213168D01*
Y141325D01*
X213179D01*
Y141331D01*
X213195D01*
Y141336D01*
X213212D01*
Y141342D01*
X213240D01*
Y141347D01*
X213822D01*
Y141342D01*
D02*
G37*
G36*
X212961Y141191D02*
Y141185D01*
Y140710D01*
X212737D01*
Y140894D01*
X212743D01*
Y141398D01*
X212737D01*
Y141576D01*
X212961D01*
Y141191D01*
D02*
G37*
G36*
X212502Y141342D02*
X212525D01*
Y141336D01*
X212541D01*
Y141331D01*
X212553D01*
Y141325D01*
X212558D01*
Y141319D01*
X212569D01*
Y141314D01*
X212575D01*
Y141308D01*
X212580D01*
Y141303D01*
X212586D01*
Y141291D01*
X212592D01*
Y141286D01*
X212597D01*
Y141269D01*
X212603D01*
Y141252D01*
X212609D01*
Y141235D01*
Y141230D01*
X212614D01*
Y141085D01*
X212609D01*
Y141062D01*
X212603D01*
Y141051D01*
X212597D01*
Y141040D01*
X212592D01*
Y141029D01*
X212586D01*
Y141023D01*
X212580D01*
Y141017D01*
X212575D01*
Y141012D01*
X212569D01*
Y141006D01*
X212564D01*
Y141001D01*
X212553D01*
Y140995D01*
X212547D01*
Y140989D01*
X212536D01*
Y140984D01*
X212519D01*
Y140978D01*
X211982D01*
Y140928D01*
X211988D01*
Y140906D01*
X211994D01*
Y140894D01*
X211999D01*
Y140883D01*
X212005D01*
Y140878D01*
X212021D01*
Y140872D01*
X212597D01*
Y140710D01*
X211927D01*
Y140716D01*
X211898D01*
Y140721D01*
X211882D01*
Y140727D01*
X211865D01*
Y140732D01*
X211854D01*
Y140738D01*
X211843D01*
Y140744D01*
X211837D01*
Y140749D01*
X211826D01*
Y140755D01*
X211820D01*
Y140760D01*
X211815D01*
Y140766D01*
X211809D01*
Y140771D01*
X211804D01*
Y140777D01*
X211798D01*
Y140783D01*
X211792D01*
Y140788D01*
X211787D01*
Y140799D01*
X211781D01*
Y140811D01*
X211776D01*
Y140827D01*
X211770D01*
Y140855D01*
X211764D01*
Y141196D01*
X211770D01*
Y141235D01*
X211776D01*
Y141252D01*
X211781D01*
Y141263D01*
X211787D01*
Y141275D01*
X211792D01*
Y141280D01*
X211798D01*
Y141286D01*
X211804D01*
Y141291D01*
X211809D01*
Y141297D01*
X211815D01*
Y141303D01*
X211820D01*
Y141308D01*
X211831D01*
Y141314D01*
X211837D01*
Y141319D01*
X211848D01*
Y141325D01*
X211859D01*
Y141331D01*
X211876D01*
Y141336D01*
X211893D01*
Y141342D01*
X211921D01*
Y141347D01*
X212502D01*
Y141342D01*
D02*
G37*
G36*
X211742Y141375D02*
X211222D01*
Y140710D01*
X210999D01*
Y140866D01*
X211004D01*
Y141291D01*
X210999D01*
Y141375D01*
X210468D01*
Y141454D01*
Y141459D01*
Y141560D01*
X211742D01*
Y141375D01*
D02*
G37*
G36*
X209802Y140889D02*
X209797D01*
Y140855D01*
X209791D01*
Y140839D01*
X209786D01*
Y140822D01*
X209780D01*
Y140811D01*
X209774D01*
Y140799D01*
X209769D01*
Y140788D01*
X209763D01*
Y140783D01*
X209758D01*
Y140777D01*
X209752D01*
Y140771D01*
X209746D01*
Y140766D01*
X209741D01*
Y140760D01*
X209735D01*
Y140755D01*
X209724D01*
Y140749D01*
X209718D01*
Y140744D01*
X209707D01*
Y140738D01*
X209696D01*
Y140732D01*
X209679D01*
Y140727D01*
X209663D01*
Y140721D01*
X209646D01*
Y140716D01*
X209612D01*
Y140710D01*
X209076D01*
Y140716D01*
X209042D01*
Y140721D01*
X209025D01*
Y140727D01*
X209014D01*
Y140732D01*
X209003D01*
Y140738D01*
X208992D01*
Y140744D01*
X208981D01*
Y140749D01*
X208975D01*
Y140755D01*
X208969D01*
Y140760D01*
X208958D01*
Y140766D01*
X208953D01*
Y140771D01*
X208947D01*
Y140777D01*
X208941D01*
Y140783D01*
X208936D01*
Y140794D01*
X208930D01*
Y140799D01*
X208925D01*
Y140811D01*
X208919D01*
Y140822D01*
X208913D01*
Y140833D01*
X208908D01*
Y140850D01*
X208902D01*
Y140872D01*
Y140878D01*
Y140922D01*
X208897D01*
Y141135D01*
X208902D01*
Y141208D01*
X208908D01*
Y141224D01*
X208913D01*
Y141241D01*
X208919D01*
Y141247D01*
X208925D01*
Y141258D01*
X208930D01*
Y141263D01*
X208936D01*
Y141275D01*
X208941D01*
Y141280D01*
X208947D01*
Y141286D01*
X208953D01*
Y141291D01*
X208958D01*
Y141297D01*
X208969D01*
Y141303D01*
X208975D01*
Y141308D01*
X208981D01*
Y141314D01*
X208992D01*
Y141319D01*
X209003D01*
Y141325D01*
X209014D01*
Y141331D01*
X209025D01*
Y141336D01*
X209042D01*
Y141342D01*
X209070D01*
Y141347D01*
X209573D01*
Y141353D01*
X209579D01*
Y141576D01*
X209802D01*
Y140889D01*
D02*
G37*
G36*
X208584Y141342D02*
X208612D01*
Y141336D01*
X208634D01*
Y141331D01*
X208651D01*
Y141325D01*
X208662D01*
Y141319D01*
X208673D01*
Y141314D01*
X208684D01*
Y141308D01*
X208690D01*
Y141303D01*
X208701D01*
Y141297D01*
X208707D01*
Y141291D01*
X208712D01*
Y141286D01*
X208718D01*
Y141280D01*
X208723D01*
Y141275D01*
X208729D01*
Y141269D01*
X208735D01*
Y141258D01*
X208740D01*
Y141252D01*
X208746D01*
Y141235D01*
X208751D01*
Y141224D01*
X208757D01*
Y141208D01*
X208763D01*
Y141180D01*
X208768D01*
Y141129D01*
X208774D01*
Y140710D01*
X208544D01*
Y141174D01*
X208539D01*
Y141180D01*
X208494D01*
Y141185D01*
X208086D01*
Y140710D01*
X207868D01*
Y141347D01*
X208584D01*
Y141342D01*
D02*
G37*
G36*
X207594D02*
X207622D01*
Y141336D01*
X207639D01*
Y141331D01*
X207656D01*
Y141325D01*
X207667D01*
Y141319D01*
X207673D01*
Y141314D01*
X207684D01*
Y141308D01*
X207689D01*
Y141303D01*
X207700D01*
Y141297D01*
X207706D01*
Y141291D01*
X207712D01*
Y141286D01*
X207717D01*
Y141275D01*
X207723D01*
Y141269D01*
X207728D01*
Y141263D01*
X207734D01*
Y141252D01*
X207740D01*
Y141241D01*
X207745D01*
Y141230D01*
X207751D01*
Y141208D01*
X207756D01*
Y141180D01*
X207762D01*
Y140872D01*
X207756D01*
Y140833D01*
X207751D01*
Y140816D01*
X207745D01*
Y140799D01*
X207740D01*
Y140794D01*
X207734D01*
Y140783D01*
X207728D01*
Y140777D01*
X207723D01*
Y140771D01*
X207717D01*
Y140766D01*
X207712D01*
Y140760D01*
X207706D01*
Y140755D01*
X207700D01*
Y140749D01*
X207689D01*
Y140744D01*
X207684D01*
Y140738D01*
X207673D01*
Y140732D01*
X207661D01*
Y140727D01*
X207645D01*
Y140721D01*
X207628D01*
Y140716D01*
X207600D01*
Y140710D01*
X207018D01*
Y140716D01*
X206996D01*
Y140721D01*
X206979D01*
Y140727D01*
X206968D01*
Y140732D01*
X206957D01*
Y140738D01*
X206951D01*
Y140744D01*
X206946D01*
Y140749D01*
X206940D01*
Y140755D01*
X206935D01*
Y140766D01*
X206929D01*
Y140771D01*
X206924D01*
Y140788D01*
X206918D01*
Y140816D01*
X206912D01*
Y140984D01*
X206918D01*
Y141006D01*
X206924D01*
Y141017D01*
X206929D01*
Y141029D01*
X206935D01*
Y141034D01*
X206940D01*
Y141040D01*
X206946D01*
Y141045D01*
X206951D01*
Y141051D01*
X206957D01*
Y141057D01*
X206968D01*
Y141062D01*
X206974D01*
Y141068D01*
X206991D01*
Y141073D01*
X207007D01*
Y141079D01*
X207550D01*
Y141101D01*
X207544D01*
Y141129D01*
X207538D01*
Y141146D01*
X207533D01*
Y141157D01*
X207527D01*
Y141168D01*
X207522D01*
Y141174D01*
X207516D01*
Y141180D01*
X207505D01*
Y141185D01*
X206924D01*
Y141219D01*
X206918D01*
Y141347D01*
X207594D01*
Y141342D01*
D02*
G37*
G36*
X206236D02*
X206241D01*
Y141325D01*
X206247D01*
Y141185D01*
X205716D01*
Y141180D01*
X205705D01*
Y141174D01*
X205699D01*
Y141168D01*
X205694D01*
Y141163D01*
X205688D01*
Y141152D01*
X205682D01*
Y141096D01*
X205677D01*
Y140956D01*
X205682D01*
Y140900D01*
X205688D01*
Y140889D01*
X205694D01*
Y140883D01*
X205705D01*
Y140878D01*
X205716D01*
Y140872D01*
X206253D01*
Y140710D01*
X205638D01*
Y140716D01*
X205610D01*
Y140721D01*
X205587D01*
Y140727D01*
X205576D01*
Y140732D01*
X205559D01*
Y140738D01*
X205554D01*
Y140744D01*
X205543D01*
Y140749D01*
X205532D01*
Y140755D01*
X205526D01*
Y140760D01*
X205520D01*
Y140766D01*
X205515D01*
Y140771D01*
X205509D01*
Y140777D01*
X205504D01*
Y140783D01*
X205498D01*
Y140788D01*
X205492D01*
Y140799D01*
X205487D01*
Y140805D01*
X205481D01*
Y140816D01*
X205476D01*
Y140827D01*
X205470D01*
Y140850D01*
X205465D01*
Y140878D01*
X205459D01*
Y141180D01*
X205465D01*
Y141208D01*
X205470D01*
Y141230D01*
X205476D01*
Y141241D01*
X205481D01*
Y141252D01*
X205487D01*
Y141258D01*
X205492D01*
Y141269D01*
X205498D01*
Y141275D01*
X205504D01*
Y141280D01*
X205509D01*
Y141286D01*
X205515D01*
Y141291D01*
X205520D01*
Y141297D01*
X205526D01*
Y141303D01*
X205532D01*
Y141308D01*
X205543D01*
Y141314D01*
X205554D01*
Y141319D01*
X205559D01*
Y141325D01*
X205576D01*
Y141331D01*
X205587D01*
Y141336D01*
X205610D01*
Y141342D01*
X205638D01*
Y141347D01*
X206236D01*
Y141342D01*
D02*
G37*
G36*
X205336Y140710D02*
X205118D01*
Y141347D01*
X205336D01*
Y140710D01*
D02*
G37*
G36*
X204799Y141342D02*
X204827D01*
Y141336D01*
X204850D01*
Y141331D01*
X204866D01*
Y141325D01*
X204877D01*
Y141319D01*
X204889D01*
Y141314D01*
X204900D01*
Y141308D01*
X204911D01*
Y141303D01*
X204917D01*
Y141297D01*
X204922D01*
Y141291D01*
X204928D01*
Y141286D01*
X204939D01*
Y141275D01*
X204945D01*
Y141269D01*
X204950D01*
Y141263D01*
X204956D01*
Y141252D01*
X204961D01*
Y141241D01*
X204967D01*
Y141230D01*
X204973D01*
Y141213D01*
X204978D01*
Y141191D01*
X204984D01*
Y141152D01*
X204989D01*
Y140710D01*
X204760D01*
Y141180D01*
X204710D01*
Y141185D01*
X204307D01*
Y141096D01*
X204302D01*
Y140855D01*
X204307D01*
Y140710D01*
X204084D01*
Y140766D01*
Y140771D01*
Y141347D01*
X204799D01*
Y141342D01*
D02*
G37*
G36*
X202222Y141347D02*
X202345D01*
Y141185D01*
X202222D01*
Y140883D01*
Y140878D01*
Y140710D01*
X202004D01*
Y140878D01*
X202010D01*
Y141034D01*
X202004D01*
Y141185D01*
X201892D01*
Y141347D01*
X202004D01*
Y141537D01*
X202178D01*
Y141543D01*
X202222D01*
Y141347D01*
D02*
G37*
G36*
X199969Y140710D02*
X199746D01*
Y141017D01*
X199751D01*
Y141291D01*
X199746D01*
Y141414D01*
Y141420D01*
Y141576D01*
X199969D01*
Y140710D01*
D02*
G37*
G36*
X199634Y141381D02*
X199628D01*
Y141375D01*
X198606D01*
Y141370D01*
X198594D01*
Y141364D01*
X198589D01*
Y141358D01*
X198583D01*
Y141347D01*
X198578D01*
Y141325D01*
X198572D01*
Y141213D01*
X199623D01*
Y141034D01*
X198572D01*
Y140934D01*
X198578D01*
Y140917D01*
X198583D01*
Y140911D01*
X198589D01*
Y140900D01*
X198600D01*
Y140894D01*
X198622D01*
Y140889D01*
X199640D01*
Y140710D01*
X198533D01*
Y140716D01*
X198499D01*
Y140721D01*
X198483D01*
Y140727D01*
X198466D01*
Y140732D01*
X198455D01*
Y140738D01*
X198443D01*
Y140744D01*
X198438D01*
Y140749D01*
X198427D01*
Y140755D01*
X198421D01*
Y140760D01*
X198416D01*
Y140766D01*
X198410D01*
Y140771D01*
X198404D01*
Y140777D01*
X198399D01*
Y140783D01*
X198393D01*
Y140788D01*
X198388D01*
Y140794D01*
X198382D01*
Y140805D01*
X198376D01*
Y140811D01*
X198371D01*
Y140822D01*
X198365D01*
Y140833D01*
X198360D01*
Y140855D01*
X198354D01*
Y141414D01*
X198360D01*
Y141431D01*
X198365D01*
Y141448D01*
X198371D01*
Y141459D01*
X198376D01*
Y141465D01*
X198382D01*
Y141470D01*
Y141476D01*
X198388D01*
Y141481D01*
X198393D01*
Y141487D01*
X198399D01*
Y141493D01*
X198404D01*
Y141498D01*
X198410D01*
Y141504D01*
X198416D01*
Y141509D01*
X198421D01*
Y141515D01*
X198432D01*
Y141521D01*
X198438D01*
Y141526D01*
X198449D01*
Y141532D01*
X198460D01*
Y141537D01*
X198471D01*
Y141543D01*
X198488D01*
Y141549D01*
X198505D01*
Y141554D01*
X198538D01*
Y141560D01*
X199634D01*
Y141381D01*
D02*
G37*
G36*
X203787Y141342D02*
X203815D01*
Y141336D01*
X203838D01*
Y141331D01*
X203854D01*
Y141325D01*
X203866D01*
Y141319D01*
X203877D01*
Y141314D01*
X203888D01*
Y141308D01*
X203899D01*
Y141303D01*
X203905D01*
Y141297D01*
X203910D01*
Y141291D01*
X203916D01*
Y141286D01*
X203922D01*
Y141280D01*
X203927D01*
Y141275D01*
X203933D01*
Y141269D01*
X203938D01*
Y141258D01*
X203944D01*
Y141247D01*
X203950D01*
Y141235D01*
X203955D01*
Y141224D01*
X203961D01*
Y141208D01*
X203966D01*
Y141185D01*
X203972D01*
Y141146D01*
X203977D01*
Y140906D01*
X203972D01*
Y140872D01*
X203966D01*
Y140850D01*
X203961D01*
Y140833D01*
X203955D01*
Y140816D01*
X203950D01*
Y140805D01*
X203944D01*
Y140799D01*
X203938D01*
Y140788D01*
X203933D01*
Y140783D01*
X203927D01*
Y140777D01*
X203922D01*
Y140766D01*
X203916D01*
Y140760D01*
X203905D01*
Y140755D01*
X203899D01*
Y140749D01*
X203894D01*
Y140744D01*
X203883D01*
Y140738D01*
X203866D01*
Y140732D01*
X203854D01*
Y140727D01*
X203832D01*
Y140721D01*
X203810D01*
Y140716D01*
X203776D01*
Y140710D01*
X203704D01*
Y140704D01*
X203642D01*
Y140710D01*
X203251D01*
Y140716D01*
X203223D01*
Y140721D01*
X203201D01*
Y140727D01*
X203189D01*
Y140732D01*
X203173D01*
Y140738D01*
X203167D01*
Y140744D01*
X203156D01*
Y140749D01*
X203145D01*
Y140755D01*
X203139D01*
Y140760D01*
X203133D01*
Y140766D01*
X203128D01*
Y140771D01*
X203122D01*
Y140777D01*
X203117D01*
Y140783D01*
X203111D01*
Y140788D01*
X203105D01*
Y140794D01*
X203100D01*
Y140805D01*
X203094D01*
Y140811D01*
X203089D01*
Y140827D01*
X203083D01*
Y140844D01*
X203078D01*
Y140872D01*
X203072D01*
Y141180D01*
X203078D01*
Y141219D01*
X203083D01*
Y141230D01*
X203089D01*
Y141241D01*
X203094D01*
Y141252D01*
X203100D01*
Y141263D01*
X203105D01*
Y141269D01*
X203111D01*
Y141275D01*
X203117D01*
Y141280D01*
X203122D01*
Y141286D01*
X203128D01*
Y141291D01*
X203133D01*
Y141297D01*
X203139D01*
Y141303D01*
X203145D01*
Y141308D01*
X203156D01*
Y141314D01*
X203161D01*
Y141319D01*
X203173D01*
Y141325D01*
X203184D01*
Y141331D01*
X203201D01*
Y141336D01*
X203217D01*
Y141342D01*
X203256D01*
Y141347D01*
X203787D01*
Y141342D01*
D02*
G37*
G36*
X235745Y149039D02*
X235751D01*
Y147882D01*
X235745D01*
Y147630D01*
X229172D01*
Y147625D01*
X229099D01*
Y147630D01*
X228842D01*
Y147625D01*
X228758D01*
Y147619D01*
X228724D01*
Y147614D01*
X228702D01*
Y147608D01*
X228685D01*
Y147602D01*
X228674D01*
Y147597D01*
X228663D01*
Y147591D01*
X228652D01*
Y147586D01*
X228646D01*
Y147580D01*
X228635D01*
Y147574D01*
X228629D01*
Y147569D01*
X228618D01*
Y147563D01*
X228613D01*
Y147558D01*
X228607D01*
Y147552D01*
X228601D01*
Y147547D01*
X228596D01*
Y147541D01*
X228590D01*
Y147535D01*
X228585D01*
Y147530D01*
X228579D01*
Y147519D01*
X228573D01*
Y147513D01*
X228568D01*
Y147507D01*
X228562D01*
Y147496D01*
X228557D01*
Y147485D01*
X228551D01*
Y147474D01*
X228545D01*
Y147463D01*
X228540D01*
Y147446D01*
X228534D01*
Y147424D01*
X228529D01*
Y144757D01*
X228523D01*
Y144673D01*
X228529D01*
Y144617D01*
X228534D01*
Y144589D01*
X228540D01*
Y144573D01*
X228545D01*
Y144556D01*
X228551D01*
Y144545D01*
X228557D01*
Y144534D01*
X228562D01*
Y144522D01*
X228568D01*
Y144517D01*
X228573D01*
Y144511D01*
X228579D01*
Y144500D01*
X228585D01*
Y144494D01*
X228590D01*
Y144489D01*
X228596D01*
Y144483D01*
X228601D01*
Y144478D01*
X228607D01*
Y144472D01*
X228613D01*
Y144466D01*
X228618D01*
Y144461D01*
X228624D01*
Y144455D01*
X228635D01*
Y144450D01*
X228641D01*
Y144444D01*
X228652D01*
Y144439D01*
X228663D01*
Y144433D01*
X228674D01*
Y144427D01*
X228691D01*
Y144422D01*
X228708D01*
Y144416D01*
X228724D01*
Y144411D01*
X228752D01*
Y144405D01*
X228786D01*
Y144399D01*
X228853D01*
Y144394D01*
X235768D01*
Y144388D01*
X235773D01*
Y143248D01*
X235768D01*
Y142985D01*
X228758D01*
Y142991D01*
X228635D01*
Y142996D01*
X228551D01*
Y143002D01*
X228490D01*
Y143008D01*
X228439D01*
Y143013D01*
X228389D01*
Y143019D01*
X228350D01*
Y143024D01*
X228316D01*
Y143030D01*
X228277D01*
Y143035D01*
X228249D01*
Y143041D01*
X228216D01*
Y143047D01*
X228188D01*
Y143052D01*
X228165D01*
Y143058D01*
X228137D01*
Y143063D01*
X228115D01*
Y143069D01*
X228093D01*
Y143075D01*
X228070D01*
Y143080D01*
X228048D01*
Y143086D01*
X228031D01*
Y143091D01*
X228009D01*
Y143097D01*
X227992D01*
Y143103D01*
X227975D01*
Y143108D01*
X227959D01*
Y143114D01*
X227942D01*
Y143119D01*
X227925D01*
Y143125D01*
X227908D01*
Y143131D01*
X227891D01*
Y143136D01*
X227875D01*
Y143142D01*
X227864D01*
Y143147D01*
X227847D01*
Y143153D01*
X227836D01*
Y143158D01*
X227824D01*
Y143164D01*
X227808D01*
Y143170D01*
X227797D01*
Y143175D01*
X227785D01*
Y143181D01*
X227774D01*
Y143186D01*
X227763D01*
Y143192D01*
X227752D01*
Y143198D01*
X227741D01*
Y143203D01*
X227729D01*
Y143209D01*
X227718D01*
Y143214D01*
X227707D01*
Y143220D01*
X227696D01*
Y143226D01*
X227685D01*
Y143231D01*
X227674D01*
Y143237D01*
X227668D01*
Y143242D01*
X227657D01*
Y143248D01*
X227646D01*
Y143253D01*
X227634D01*
Y143259D01*
X227629D01*
Y143265D01*
X227618D01*
Y143270D01*
X227612D01*
Y143276D01*
X227601D01*
Y143281D01*
X227595D01*
Y143287D01*
X227584D01*
Y143293D01*
X227578D01*
Y143298D01*
X227567D01*
Y143304D01*
X227562D01*
Y143309D01*
X227551D01*
Y143315D01*
X227545D01*
Y143321D01*
X227539D01*
Y143326D01*
X227528D01*
Y143332D01*
X227523D01*
Y143337D01*
X227517D01*
Y143343D01*
X227506D01*
Y143349D01*
X227500D01*
Y143354D01*
X227495D01*
Y143360D01*
X227489D01*
Y143365D01*
X227478D01*
Y143371D01*
X227472D01*
Y143376D01*
X227467D01*
Y143382D01*
X227461D01*
Y143388D01*
X227455D01*
Y143393D01*
X227450D01*
Y143399D01*
X227439D01*
Y143404D01*
X227433D01*
Y143410D01*
X227428D01*
Y143416D01*
X227422D01*
Y143421D01*
X227416D01*
Y143427D01*
X227411D01*
Y143432D01*
X227405D01*
Y143438D01*
X227400D01*
Y143444D01*
X227394D01*
Y143449D01*
X227388D01*
Y143455D01*
X227383D01*
Y143460D01*
X227377D01*
Y143466D01*
X227372D01*
Y143472D01*
X227366D01*
Y143477D01*
X227361D01*
Y143488D01*
X227355D01*
Y143494D01*
X227349D01*
Y143499D01*
X227344D01*
Y143505D01*
X227338D01*
Y143511D01*
X227332D01*
Y143516D01*
X227327D01*
Y143527D01*
X227321D01*
Y143533D01*
X227316D01*
Y143538D01*
X227310D01*
Y143544D01*
X227305D01*
Y143555D01*
X227299D01*
Y143561D01*
X227293D01*
Y143567D01*
X227288D01*
Y143578D01*
X227282D01*
Y143583D01*
X227277D01*
Y143594D01*
X227271D01*
Y143600D01*
X227265D01*
Y143611D01*
X227260D01*
Y143617D01*
X227254D01*
Y143628D01*
X227249D01*
Y143634D01*
X227243D01*
Y143645D01*
X227238D01*
Y143656D01*
X227232D01*
Y143661D01*
X227226D01*
Y143673D01*
X227221D01*
Y143684D01*
X227215D01*
Y143695D01*
X227209D01*
Y143701D01*
X227204D01*
Y143712D01*
X227198D01*
Y143723D01*
X227193D01*
Y143734D01*
X227187D01*
Y143745D01*
X227182D01*
Y143756D01*
X227176D01*
Y143768D01*
X227170D01*
Y143779D01*
X227165D01*
Y143796D01*
X227159D01*
Y143807D01*
X227154D01*
Y143818D01*
X227148D01*
Y143835D01*
X227143D01*
Y143846D01*
X227137D01*
Y143863D01*
X227131D01*
Y143879D01*
X227126D01*
Y143896D01*
X227120D01*
Y143913D01*
X227115D01*
Y143930D01*
X227109D01*
Y143947D01*
X227103D01*
Y143969D01*
X227098D01*
Y143991D01*
X227092D01*
Y144014D01*
X227087D01*
Y144036D01*
X227081D01*
Y144064D01*
X227075D01*
Y144092D01*
X227070D01*
Y144120D01*
X227064D01*
Y144153D01*
X227059D01*
Y144193D01*
X227053D01*
Y144243D01*
X227047D01*
Y144299D01*
X227042D01*
Y144377D01*
X227036D01*
Y144556D01*
X227031D01*
Y144712D01*
X227036D01*
Y147233D01*
X227031D01*
Y147491D01*
X227036D01*
Y147664D01*
X227042D01*
Y147737D01*
X227047D01*
Y147792D01*
X227053D01*
Y147837D01*
X227059D01*
Y147876D01*
X227064D01*
Y147910D01*
X227070D01*
Y147943D01*
X227075D01*
Y147971D01*
X227081D01*
Y147994D01*
X227087D01*
Y148022D01*
X227092D01*
Y148044D01*
X227098D01*
Y148061D01*
X227103D01*
Y148083D01*
X227109D01*
Y148100D01*
X227115D01*
Y148122D01*
X227120D01*
Y148139D01*
X227126D01*
Y148156D01*
X227131D01*
Y148167D01*
X227137D01*
Y148184D01*
X227143D01*
Y148201D01*
X227148D01*
Y148212D01*
X227154D01*
Y148223D01*
X227159D01*
Y148240D01*
X227165D01*
Y148251D01*
X227170D01*
Y148262D01*
X227176D01*
Y148273D01*
X227182D01*
Y148284D01*
X227187D01*
Y148296D01*
X227193D01*
Y148307D01*
X227198D01*
Y148318D01*
X227204D01*
Y148329D01*
X227209D01*
Y148340D01*
X227215D01*
Y148352D01*
X227221D01*
Y148357D01*
X227226D01*
Y148368D01*
X227232D01*
Y148380D01*
X227238D01*
Y148385D01*
X227243D01*
Y148396D01*
X227249D01*
Y148402D01*
X227254D01*
Y148413D01*
X227260D01*
Y148419D01*
X227265D01*
Y148430D01*
X227271D01*
Y148435D01*
X227277D01*
Y148447D01*
X227282D01*
Y148452D01*
X227288D01*
Y148463D01*
X227293D01*
Y148469D01*
X227299D01*
Y148475D01*
X227305D01*
Y148486D01*
X227310D01*
Y148491D01*
X227316D01*
Y148497D01*
X227321D01*
Y148508D01*
X227327D01*
Y148514D01*
X227332D01*
Y148519D01*
X227338D01*
Y148525D01*
X227344D01*
Y148530D01*
X227349D01*
Y148536D01*
X227355D01*
Y148547D01*
X227361D01*
Y148553D01*
X227366D01*
Y148558D01*
X227372D01*
Y148564D01*
X227377D01*
Y148570D01*
X227383D01*
Y148575D01*
X227388D01*
Y148581D01*
X227394D01*
Y148586D01*
X227400D01*
Y148592D01*
X227405D01*
Y148598D01*
X227411D01*
Y148603D01*
X227416D01*
Y148609D01*
X227422D01*
Y148614D01*
X227428D01*
Y148620D01*
X227433D01*
Y148625D01*
X227439D01*
Y148631D01*
X227444D01*
Y148637D01*
X227455D01*
Y148642D01*
X227461D01*
Y148648D01*
X227467D01*
Y148653D01*
X227472D01*
Y148659D01*
X227478D01*
Y148665D01*
X227489D01*
Y148670D01*
X227495D01*
Y148676D01*
X227500D01*
Y148681D01*
X227506D01*
Y148687D01*
X227517D01*
Y148693D01*
X227523D01*
Y148698D01*
X227528D01*
Y148704D01*
X227539D01*
Y148709D01*
X227545D01*
Y148715D01*
X227551D01*
Y148721D01*
X227562D01*
Y148726D01*
X227567D01*
Y148732D01*
X227578D01*
Y148737D01*
X227584D01*
Y148743D01*
X227595D01*
Y148748D01*
X227601D01*
Y148754D01*
X227612D01*
Y148760D01*
X227618D01*
Y148765D01*
X227629D01*
Y148771D01*
X227640D01*
Y148776D01*
X227646D01*
Y148782D01*
X227657D01*
Y148787D01*
X227668D01*
Y148793D01*
X227679D01*
Y148799D01*
X227685D01*
Y148804D01*
X227696D01*
Y148810D01*
X227707D01*
Y148816D01*
X227718D01*
Y148821D01*
X227729D01*
Y148827D01*
X227741D01*
Y148832D01*
X227752D01*
Y148838D01*
X227763D01*
Y148843D01*
X227774D01*
Y148849D01*
X227791D01*
Y148855D01*
X227802D01*
Y148860D01*
X227813D01*
Y148866D01*
X227824D01*
Y148871D01*
X227841D01*
Y148877D01*
X227852D01*
Y148883D01*
X227869D01*
Y148888D01*
X227880D01*
Y148894D01*
X227897D01*
Y148899D01*
X227914D01*
Y148905D01*
X227931D01*
Y148910D01*
X227947D01*
Y148916D01*
X227964D01*
Y148922D01*
X227981D01*
Y148927D01*
X227998D01*
Y148933D01*
X228020D01*
Y148939D01*
X228037D01*
Y148944D01*
X228059D01*
Y148950D01*
X228076D01*
Y148955D01*
X228098D01*
Y148961D01*
X228121D01*
Y148966D01*
X228149D01*
Y148972D01*
X228171D01*
Y148978D01*
X228199D01*
Y148983D01*
X228227D01*
Y148989D01*
X228260D01*
Y148994D01*
X228288D01*
Y149000D01*
X228327D01*
Y149005D01*
X228367D01*
Y149011D01*
X228406D01*
Y149017D01*
X228456D01*
Y149022D01*
X228512D01*
Y149028D01*
X228585D01*
Y149033D01*
X228674D01*
Y149039D01*
X228825D01*
Y149045D01*
X235745D01*
Y149039D01*
D02*
G37*
G36*
X222374Y149307D02*
X222391D01*
Y149302D01*
X222413D01*
Y149296D01*
X222430D01*
Y149291D01*
X222441D01*
Y149285D01*
X222458D01*
Y149279D01*
X222475D01*
Y149274D01*
X222492D01*
Y149268D01*
X222503D01*
Y149263D01*
X222519D01*
Y149257D01*
X222536D01*
Y149251D01*
X222548D01*
Y149246D01*
X222564D01*
Y149240D01*
X222575D01*
Y149235D01*
X222587D01*
Y149229D01*
X222603D01*
Y149224D01*
X222615D01*
Y149218D01*
X222626D01*
Y149212D01*
X222637D01*
Y149207D01*
X222648D01*
Y149201D01*
X222659D01*
Y149196D01*
X222676D01*
Y149190D01*
X222687D01*
Y149184D01*
X222698D01*
Y149179D01*
X222710D01*
Y149173D01*
X222721D01*
Y149168D01*
X222726D01*
Y149162D01*
X222738D01*
Y149156D01*
X222749D01*
Y149151D01*
X222760D01*
Y149145D01*
X222771D01*
Y149140D01*
X222782D01*
Y149134D01*
X222788D01*
Y149128D01*
X222799D01*
Y149123D01*
X222810D01*
Y149117D01*
X222821D01*
Y149112D01*
X222827D01*
Y149106D01*
X222838D01*
Y149101D01*
X222849D01*
Y149095D01*
X222855D01*
Y149089D01*
X222866D01*
Y149084D01*
X222872D01*
Y149078D01*
X222883D01*
Y149073D01*
X222888D01*
Y149067D01*
X222900D01*
Y149061D01*
X222905D01*
Y149056D01*
X222916D01*
Y149050D01*
X222922D01*
Y149045D01*
X222933D01*
Y149039D01*
X222939D01*
Y149033D01*
X222950D01*
Y149028D01*
X222955D01*
Y149022D01*
X222967D01*
Y149017D01*
X222972D01*
Y149011D01*
X222978D01*
Y149005D01*
X222989D01*
Y149000D01*
X222995D01*
Y148994D01*
X223000D01*
Y148989D01*
X223011D01*
Y148983D01*
X223017D01*
Y148978D01*
X223023D01*
Y148972D01*
X223028D01*
Y148966D01*
X223039D01*
Y148961D01*
X223045D01*
Y148955D01*
X223051D01*
Y148950D01*
X223056D01*
Y148944D01*
X223067D01*
Y148939D01*
X223073D01*
Y148933D01*
X223078D01*
Y148927D01*
X223084D01*
Y148922D01*
X223090D01*
Y148916D01*
X223095D01*
Y148910D01*
X223107D01*
Y148905D01*
X223112D01*
Y148899D01*
X223118D01*
Y148894D01*
X223123D01*
Y148888D01*
X223129D01*
Y148883D01*
X223134D01*
Y148877D01*
X223140D01*
Y148871D01*
X223146D01*
Y148866D01*
X223151D01*
Y148860D01*
X223157D01*
Y148855D01*
X223162D01*
Y148849D01*
X223168D01*
Y148843D01*
X223174D01*
Y148838D01*
X223179D01*
Y148832D01*
X223185D01*
Y148827D01*
X223190D01*
Y148821D01*
X223196D01*
Y148816D01*
X223201D01*
Y148810D01*
X223207D01*
Y148804D01*
X223213D01*
Y148799D01*
X223218D01*
Y148793D01*
X223224D01*
Y148787D01*
X223230D01*
Y148782D01*
X223235D01*
Y148776D01*
X223241D01*
Y148771D01*
X223246D01*
Y148765D01*
X223252D01*
Y148760D01*
X223257D01*
Y148754D01*
X223263D01*
Y148748D01*
X223269D01*
Y148743D01*
X223274D01*
Y148732D01*
X223280D01*
Y148726D01*
X223285D01*
Y148721D01*
X223291D01*
Y148715D01*
X223296D01*
Y148709D01*
X223302D01*
Y148704D01*
X223308D01*
Y148693D01*
X223313D01*
Y148687D01*
X223319D01*
Y148681D01*
X223324D01*
Y148676D01*
X223330D01*
Y148670D01*
X223336D01*
Y148659D01*
X223341D01*
Y148653D01*
X223347D01*
Y148648D01*
X223352D01*
Y148637D01*
X223358D01*
Y148631D01*
X223364D01*
Y148625D01*
X223369D01*
Y148614D01*
X223375D01*
Y148609D01*
X223380D01*
Y148603D01*
X223386D01*
Y148592D01*
X223392D01*
Y148586D01*
X223397D01*
Y148575D01*
X223403D01*
Y148570D01*
X223408D01*
Y148558D01*
X223414D01*
Y148553D01*
X223419D01*
Y148542D01*
X223425D01*
Y148536D01*
X223431D01*
Y148525D01*
X223436D01*
Y148519D01*
X223442D01*
Y148508D01*
X223447D01*
Y148497D01*
X223453D01*
Y148491D01*
X223459D01*
Y148480D01*
X223464D01*
Y148469D01*
X223470D01*
Y148463D01*
X223475D01*
Y148452D01*
X223481D01*
Y148441D01*
X223487D01*
Y148430D01*
X223492D01*
Y148419D01*
X223498D01*
Y148407D01*
X223503D01*
Y148402D01*
X223509D01*
Y148391D01*
X223515D01*
Y148380D01*
X223520D01*
Y148368D01*
X223526D01*
Y148357D01*
X223531D01*
Y148340D01*
X223537D01*
Y148329D01*
X223542D01*
Y148318D01*
X223548D01*
Y148307D01*
X223554D01*
Y148296D01*
X223559D01*
Y148279D01*
X223565D01*
Y148268D01*
X223570D01*
Y148257D01*
X223576D01*
Y148240D01*
X223582D01*
Y148223D01*
X223587D01*
Y148212D01*
X223593D01*
Y148195D01*
X223598D01*
Y148178D01*
X223604D01*
Y148161D01*
X223610D01*
Y148150D01*
X223615D01*
Y148128D01*
X223621D01*
Y148111D01*
X223626D01*
Y148094D01*
X223632D01*
Y148072D01*
X223638D01*
Y148055D01*
X223643D01*
Y148033D01*
X223649D01*
Y148011D01*
X223654D01*
Y147988D01*
X223660D01*
Y147960D01*
X223665D01*
Y147932D01*
X223671D01*
Y147899D01*
X223677D01*
Y147865D01*
X223682D01*
Y147826D01*
X223688D01*
Y147776D01*
X223693D01*
Y147692D01*
X223699D01*
Y147630D01*
X223285D01*
Y147625D01*
X223190D01*
Y142901D01*
X223185D01*
Y142812D01*
X221703D01*
Y143270D01*
X221698D01*
Y147457D01*
X218170D01*
Y148860D01*
X218243D01*
Y148866D01*
X222212D01*
Y148883D01*
X222218D01*
Y148899D01*
X222223D01*
Y148916D01*
X222229D01*
Y148933D01*
X222234D01*
Y148950D01*
X222240D01*
Y148961D01*
X222246D01*
Y148978D01*
X222251D01*
Y148994D01*
X222257D01*
Y149011D01*
X222262D01*
Y149028D01*
X222268D01*
Y149045D01*
X222274D01*
Y149056D01*
X222279D01*
Y149073D01*
X222285D01*
Y149089D01*
X222290D01*
Y149106D01*
X222296D01*
Y149123D01*
X222302D01*
Y149140D01*
X222307D01*
Y149151D01*
X222313D01*
Y149168D01*
X222318D01*
Y149184D01*
X222324D01*
Y149201D01*
X222329D01*
Y149218D01*
X222335D01*
Y149235D01*
X222341D01*
Y149251D01*
X222346D01*
Y149263D01*
X222352D01*
Y149279D01*
X222357D01*
Y149296D01*
X222363D01*
Y149313D01*
X222374D01*
Y149307D01*
D02*
G37*
G36*
X233806Y141454D02*
X233582D01*
Y141576D01*
X233806D01*
Y141454D01*
D02*
G37*
G36*
X229848D02*
X229630D01*
Y141576D01*
X229848D01*
Y141454D01*
D02*
G37*
G36*
X223487D02*
X223269D01*
Y141576D01*
X223487D01*
Y141454D01*
D02*
G37*
G36*
X220815D02*
X220591D01*
Y141576D01*
X220815D01*
Y141454D01*
D02*
G37*
G36*
X227489Y141381D02*
X227483D01*
Y141375D01*
X226634D01*
Y141381D01*
X226511D01*
Y141375D01*
X226455D01*
Y141370D01*
X226449D01*
Y141364D01*
X226444D01*
Y141358D01*
X226438D01*
Y141347D01*
X226432D01*
Y141331D01*
X226427D01*
Y141213D01*
X227478D01*
Y141034D01*
X226427D01*
Y140939D01*
X226432D01*
Y140922D01*
X226438D01*
Y140911D01*
X226444D01*
Y140906D01*
X226449D01*
Y140900D01*
X226455D01*
Y140894D01*
X226472D01*
Y140889D01*
X227495D01*
Y140710D01*
X226377D01*
Y140716D01*
X226354D01*
Y140721D01*
X226338D01*
Y140727D01*
X226321D01*
Y140732D01*
X226309D01*
Y140738D01*
X226304D01*
Y140744D01*
X226293D01*
Y140749D01*
X226282D01*
Y140755D01*
X226276D01*
Y140760D01*
X226270D01*
Y140766D01*
X226265D01*
Y140771D01*
X226259D01*
Y140777D01*
X226254D01*
Y140783D01*
X226248D01*
Y140788D01*
X226242D01*
Y140794D01*
X226237D01*
Y140805D01*
X226231D01*
Y140811D01*
X226226D01*
Y140822D01*
X226220D01*
Y140839D01*
X226215D01*
Y140855D01*
X226209D01*
Y141414D01*
X226215D01*
Y141431D01*
X226220D01*
Y141448D01*
X226226D01*
Y141459D01*
X226231D01*
Y141465D01*
X226237D01*
Y141476D01*
X226242D01*
Y141481D01*
X226248D01*
Y141487D01*
X226254D01*
Y141493D01*
X226259D01*
Y141498D01*
X226265D01*
Y141504D01*
X226270D01*
Y141509D01*
X226276D01*
Y141515D01*
X226287D01*
Y141521D01*
X226293D01*
Y141526D01*
X226304D01*
Y141532D01*
X226315D01*
Y141537D01*
X226326D01*
Y141543D01*
X226343D01*
Y141549D01*
X226360D01*
Y141554D01*
X226393D01*
Y141560D01*
X227489D01*
Y141381D01*
D02*
G37*
G36*
X233498Y141185D02*
X233331D01*
Y141191D01*
X233275D01*
Y141185D01*
X233185D01*
Y141180D01*
X233174D01*
Y141174D01*
X233169D01*
Y141168D01*
X233163D01*
Y141163D01*
X233157D01*
Y141107D01*
X233152D01*
Y140710D01*
X232934D01*
Y141196D01*
X232939D01*
Y141219D01*
X232945D01*
Y141230D01*
X232950D01*
Y141247D01*
X232956D01*
Y141252D01*
X232962D01*
Y141263D01*
X232967D01*
Y141269D01*
X232973D01*
Y141275D01*
X232978D01*
Y141280D01*
X232984D01*
Y141286D01*
X232990D01*
Y141291D01*
X232995D01*
Y141297D01*
X233001D01*
Y141303D01*
X233006D01*
Y141308D01*
X233017D01*
Y141314D01*
X233023D01*
Y141319D01*
X233034D01*
Y141325D01*
X233046D01*
Y141331D01*
X233062D01*
Y141336D01*
X233079D01*
Y141342D01*
X233107D01*
Y141347D01*
X233498D01*
Y141185D01*
D02*
G37*
G36*
X219451Y140866D02*
X219445D01*
Y140839D01*
X219439D01*
Y140827D01*
X219434D01*
Y140816D01*
X219428D01*
Y140805D01*
X219423D01*
Y140794D01*
X219417D01*
Y140788D01*
X219411D01*
Y140783D01*
X219406D01*
Y140777D01*
X219400D01*
Y140771D01*
X219395D01*
Y140766D01*
X219389D01*
Y140760D01*
X219384D01*
Y140755D01*
X219378D01*
Y140749D01*
X219367D01*
Y140744D01*
X219356D01*
Y140738D01*
X219350D01*
Y140732D01*
X219333D01*
Y140727D01*
X219322D01*
Y140721D01*
X219305D01*
Y140716D01*
X219272D01*
Y140710D01*
X218746D01*
Y140716D01*
X218713D01*
Y140721D01*
X218696D01*
Y140727D01*
X218679D01*
Y140732D01*
X218668D01*
Y140738D01*
X218657D01*
Y140744D01*
X218651D01*
Y140749D01*
X218640D01*
Y140755D01*
X218635D01*
Y140760D01*
X218629D01*
Y140766D01*
X218623D01*
Y140771D01*
X218618D01*
Y140777D01*
X218612D01*
Y140783D01*
X218606D01*
Y140788D01*
X218601D01*
Y140794D01*
X218595D01*
Y140799D01*
X218590D01*
Y140811D01*
X218584D01*
Y140822D01*
X218579D01*
Y140833D01*
X218573D01*
Y140855D01*
X218567D01*
Y141331D01*
X218785D01*
Y140883D01*
X218797D01*
Y140878D01*
X218841D01*
Y140872D01*
X219221D01*
Y140939D01*
X219227D01*
Y141331D01*
X219451D01*
Y140866D01*
D02*
G37*
G36*
X234627Y141342D02*
X234655D01*
Y141336D01*
X234672D01*
Y141331D01*
X234689D01*
Y141325D01*
X234700D01*
Y141319D01*
X234711D01*
Y141314D01*
X234722D01*
Y141308D01*
X234728D01*
Y141303D01*
X234739D01*
Y141297D01*
X234745D01*
Y141291D01*
X234750D01*
Y141286D01*
X234756D01*
Y141280D01*
X234762D01*
Y141275D01*
X234767D01*
Y141269D01*
X234773D01*
Y141263D01*
X234778D01*
Y141252D01*
X234784D01*
Y141247D01*
X234790D01*
Y141235D01*
X234795D01*
Y141219D01*
X234801D01*
Y141196D01*
X234806D01*
Y141135D01*
X234812D01*
Y140710D01*
X234583D01*
Y141157D01*
X234577D01*
Y141168D01*
X234572D01*
Y141174D01*
X234566D01*
Y141180D01*
X234549D01*
Y141185D01*
X234426D01*
Y141191D01*
X234376D01*
Y141185D01*
X234130D01*
Y140710D01*
X233906D01*
Y141347D01*
X234627D01*
Y141342D01*
D02*
G37*
G36*
X233800Y140794D02*
X233806D01*
Y140710D01*
X233582D01*
Y140866D01*
Y140872D01*
Y141342D01*
X233588D01*
Y141347D01*
X233800D01*
Y140794D01*
D02*
G37*
G36*
X232699Y141342D02*
X232721D01*
Y141336D01*
X232733D01*
Y141331D01*
X232744D01*
Y141325D01*
X232755D01*
Y141319D01*
X232760D01*
Y141314D01*
X232766D01*
Y141308D01*
X232772D01*
Y141303D01*
X232777D01*
Y141297D01*
X232783D01*
Y141291D01*
X232788D01*
Y141280D01*
X232794D01*
Y141263D01*
X232800D01*
Y141247D01*
X232805D01*
Y141213D01*
X232811D01*
Y141118D01*
X232805D01*
Y141073D01*
X232800D01*
Y141057D01*
X232794D01*
Y141045D01*
X232788D01*
Y141034D01*
X232783D01*
Y141029D01*
X232777D01*
Y141017D01*
X232772D01*
Y141012D01*
X232766D01*
Y141006D01*
X232755D01*
Y141001D01*
X232749D01*
Y140995D01*
X232738D01*
Y140989D01*
X232727D01*
Y140984D01*
X232710D01*
Y140978D01*
X232173D01*
Y140945D01*
X232179D01*
Y140917D01*
X232185D01*
Y140900D01*
X232190D01*
Y140889D01*
X232196D01*
Y140883D01*
X232201D01*
Y140878D01*
X232207D01*
Y140872D01*
X232788D01*
Y140710D01*
X232118D01*
Y140716D01*
X232095D01*
Y140721D01*
X232073D01*
Y140727D01*
X232062D01*
Y140732D01*
X232050D01*
Y140738D01*
X232039D01*
Y140744D01*
X232028D01*
Y140749D01*
X232023D01*
Y140755D01*
X232011D01*
Y140760D01*
X232006D01*
Y140766D01*
X232000D01*
Y140771D01*
X231995D01*
Y140777D01*
X231989D01*
Y140788D01*
X231983D01*
Y140794D01*
X231978D01*
Y140805D01*
X231972D01*
Y140816D01*
X231967D01*
Y140839D01*
X231961D01*
Y140950D01*
X231955D01*
Y140967D01*
X231961D01*
Y141224D01*
X231967D01*
Y141247D01*
X231972D01*
Y141258D01*
X231978D01*
Y141269D01*
X231983D01*
Y141275D01*
X231989D01*
Y141286D01*
X231995D01*
Y141291D01*
X232000D01*
Y141297D01*
X232011D01*
Y141303D01*
X232017D01*
Y141308D01*
X232023D01*
Y141314D01*
X232034D01*
Y141319D01*
X232039D01*
Y141325D01*
X232056D01*
Y141331D01*
X232067D01*
Y141336D01*
X232090D01*
Y141342D01*
X232118D01*
Y141347D01*
X232699D01*
Y141342D01*
D02*
G37*
G36*
X231726D02*
X231749D01*
Y141336D01*
X231760D01*
Y141331D01*
X231771D01*
Y141325D01*
X231777D01*
Y141319D01*
X231788D01*
Y141314D01*
X231793D01*
Y141308D01*
X231799D01*
Y141303D01*
X231804D01*
Y141297D01*
X231810D01*
Y141286D01*
X231816D01*
Y141275D01*
X231821D01*
Y141263D01*
X231827D01*
Y141235D01*
X231833D01*
Y141185D01*
X231838D01*
Y141129D01*
X231833D01*
Y141085D01*
X231827D01*
Y141073D01*
Y141068D01*
Y141062D01*
X231821D01*
Y141045D01*
X231816D01*
Y141034D01*
X231810D01*
Y141029D01*
X231804D01*
Y141023D01*
X231799D01*
Y141017D01*
X231793D01*
Y141012D01*
X231788D01*
Y141006D01*
X231782D01*
Y141001D01*
X231777D01*
Y140995D01*
X231765D01*
Y140989D01*
X231754D01*
Y140984D01*
X231732D01*
Y140978D01*
X231201D01*
Y140939D01*
X231206D01*
Y140906D01*
X231212D01*
Y140894D01*
X231218D01*
Y140883D01*
X231229D01*
Y140878D01*
X231240D01*
Y140872D01*
X231816D01*
Y140710D01*
X231145D01*
Y140716D01*
X231117D01*
Y140721D01*
X231100D01*
Y140727D01*
X231089D01*
Y140732D01*
X231072D01*
Y140738D01*
X231067D01*
Y140744D01*
X231055D01*
Y140749D01*
X231044D01*
Y140755D01*
X231039D01*
Y140760D01*
X231033D01*
Y140766D01*
X231028D01*
Y140771D01*
X231022D01*
Y140777D01*
X231016D01*
Y140783D01*
X231011D01*
Y140794D01*
X231005D01*
Y140805D01*
X230999D01*
Y140816D01*
X230994D01*
Y140833D01*
X230988D01*
Y140883D01*
X230983D01*
Y141196D01*
X230988D01*
Y141235D01*
X230994D01*
Y141252D01*
X230999D01*
Y141263D01*
X231005D01*
Y141269D01*
X231011D01*
Y141280D01*
X231016D01*
Y141286D01*
X231022D01*
Y141291D01*
X231028D01*
Y141297D01*
X231033D01*
Y141303D01*
X231039D01*
Y141308D01*
X231050D01*
Y141314D01*
X231055D01*
Y141319D01*
X231067D01*
Y141325D01*
X231078D01*
Y141331D01*
X231095D01*
Y141336D01*
X231111D01*
Y141342D01*
X231145D01*
Y141347D01*
X231726D01*
Y141342D01*
D02*
G37*
G36*
X230686D02*
X230715D01*
Y141336D01*
X230737D01*
Y141331D01*
X230754D01*
Y141325D01*
X230765D01*
Y141319D01*
X230776D01*
Y141314D01*
X230787D01*
Y141308D01*
X230798D01*
Y141303D01*
X230804D01*
Y141297D01*
X230809D01*
Y141291D01*
X230821D01*
Y141286D01*
X230826D01*
Y141280D01*
X230832D01*
Y141269D01*
X230837D01*
Y141263D01*
X230843D01*
Y141252D01*
X230849D01*
Y141241D01*
X230854D01*
Y141230D01*
X230860D01*
Y141213D01*
X230865D01*
Y141191D01*
X230871D01*
Y141152D01*
X230877D01*
Y140710D01*
X230659D01*
Y140716D01*
X230653D01*
Y140727D01*
X230647D01*
Y141180D01*
X230597D01*
Y141185D01*
X230195D01*
Y141057D01*
X230189D01*
Y140861D01*
X230195D01*
Y140710D01*
X229971D01*
Y141347D01*
X230686D01*
Y141342D01*
D02*
G37*
G36*
X229848Y140710D02*
X229630D01*
Y141347D01*
X229848D01*
Y140710D01*
D02*
G37*
G36*
X228316Y141342D02*
X228350D01*
Y141336D01*
X228367D01*
Y141331D01*
X228383D01*
Y141325D01*
X228395D01*
Y141319D01*
X228411D01*
Y141314D01*
X228417D01*
Y141308D01*
X228428D01*
Y141303D01*
X228434D01*
Y141297D01*
X228445D01*
Y141291D01*
X228450D01*
Y141286D01*
X228456D01*
Y141280D01*
X228462D01*
Y141269D01*
X228467D01*
Y141263D01*
X228473D01*
Y141252D01*
X228479D01*
Y141247D01*
X228484D01*
Y141230D01*
X228490D01*
Y141213D01*
X228495D01*
Y141196D01*
X228501D01*
Y141163D01*
X228506D01*
Y140710D01*
X228277D01*
Y141180D01*
X228227D01*
Y141185D01*
X227824D01*
Y140710D01*
X227601D01*
Y140866D01*
X227606D01*
Y141191D01*
X227601D01*
Y141347D01*
X228316D01*
Y141342D01*
D02*
G37*
G36*
X225342D02*
X225370D01*
Y141336D01*
X225387D01*
Y141331D01*
X225404D01*
Y141325D01*
X225415D01*
Y141319D01*
X225426D01*
Y141314D01*
X225437D01*
Y141308D01*
X225443D01*
Y141303D01*
X225454D01*
Y141297D01*
X225460D01*
Y141291D01*
X225465D01*
Y141286D01*
X225471D01*
Y141280D01*
X225477D01*
Y141275D01*
X225482D01*
Y141269D01*
X225488D01*
Y141263D01*
X225493D01*
Y141252D01*
X225499D01*
Y141247D01*
X225505D01*
Y141235D01*
X225510D01*
Y141219D01*
X225516D01*
Y141196D01*
X225521D01*
Y141135D01*
X225527D01*
Y140710D01*
X225298D01*
Y141157D01*
X225292D01*
Y141168D01*
X225287D01*
Y141174D01*
X225281D01*
Y141180D01*
X225264D01*
Y141185D01*
X225141D01*
Y141191D01*
X225091D01*
Y141185D01*
X224845D01*
Y140710D01*
X224621D01*
Y141347D01*
X225342D01*
Y141342D01*
D02*
G37*
G36*
X224325D02*
X224353D01*
Y141336D01*
X224375D01*
Y141331D01*
X224392D01*
Y141325D01*
X224403D01*
Y141319D01*
X224414D01*
Y141314D01*
X224426D01*
Y141308D01*
X224437D01*
Y141303D01*
X224443D01*
Y141297D01*
X224448D01*
Y141291D01*
X224459D01*
Y141280D01*
X224465D01*
Y141275D01*
X224470D01*
Y141269D01*
X224476D01*
Y141263D01*
X224482D01*
Y141252D01*
X224487D01*
Y141241D01*
X224493D01*
Y141224D01*
X224498D01*
Y141213D01*
X224504D01*
Y141185D01*
X224510D01*
Y141140D01*
X224515D01*
Y140911D01*
X224510D01*
Y140872D01*
X224504D01*
Y140844D01*
X224498D01*
Y140827D01*
X224493D01*
Y140816D01*
X224487D01*
Y140805D01*
X224482D01*
Y140794D01*
X224476D01*
Y140788D01*
X224470D01*
Y140783D01*
X224465D01*
Y140771D01*
X224459D01*
Y140766D01*
X224454D01*
Y140760D01*
X224443D01*
Y140755D01*
X224437D01*
Y140749D01*
X224426D01*
Y140744D01*
X224414D01*
Y140738D01*
X224403D01*
Y140732D01*
X224392D01*
Y140727D01*
X224375D01*
Y140721D01*
X224353D01*
Y140716D01*
X224325D01*
Y140710D01*
X223783D01*
Y140716D01*
X223755D01*
Y140721D01*
X223738D01*
Y140727D01*
X223721D01*
Y140732D01*
X223710D01*
Y140738D01*
X223705D01*
Y140744D01*
X223693D01*
Y140749D01*
X223682D01*
Y140755D01*
X223677D01*
Y140760D01*
X223671D01*
Y140766D01*
X223665D01*
Y140771D01*
X223660D01*
Y140777D01*
X223654D01*
Y140783D01*
X223649D01*
Y140788D01*
X223643D01*
Y140799D01*
X223638D01*
Y140805D01*
X223632D01*
Y140816D01*
X223626D01*
Y140827D01*
X223621D01*
Y140844D01*
X223615D01*
Y140866D01*
X223610D01*
Y141068D01*
Y141073D01*
Y141191D01*
X223615D01*
Y141219D01*
X223621D01*
Y141230D01*
X223626D01*
Y141241D01*
X223632D01*
Y141252D01*
X223638D01*
Y141263D01*
X223643D01*
Y141269D01*
X223649D01*
Y141275D01*
X223654D01*
Y141280D01*
X223660D01*
Y141286D01*
X223665D01*
Y141291D01*
X223671D01*
Y141297D01*
X223677D01*
Y141303D01*
X223682D01*
Y141308D01*
X223693D01*
Y141314D01*
X223699D01*
Y141319D01*
X223710D01*
Y141325D01*
X223721D01*
Y141331D01*
X223738D01*
Y141336D01*
X223755D01*
Y141342D01*
X223794D01*
Y141347D01*
X224325D01*
Y141342D01*
D02*
G37*
G36*
X223481D02*
X223487D01*
Y141129D01*
Y141124D01*
Y140710D01*
X223269D01*
Y141347D01*
X223481D01*
Y141342D01*
D02*
G37*
G36*
X223062Y141537D02*
X223067D01*
Y141347D01*
X223190D01*
Y141185D01*
X223067D01*
Y140710D01*
X222849D01*
Y141185D01*
X222738D01*
Y141347D01*
X222849D01*
Y141537D01*
X223045D01*
Y141543D01*
X223062D01*
Y141537D01*
D02*
G37*
G36*
X222519Y141342D02*
X222542D01*
Y141336D01*
X222559D01*
Y141331D01*
X222575D01*
Y141325D01*
X222587D01*
Y141319D01*
X222592D01*
Y141314D01*
X222603D01*
Y141308D01*
X222609D01*
Y141303D01*
X222620D01*
Y141297D01*
X222626D01*
Y141291D01*
X222631D01*
Y141286D01*
X222637D01*
Y141280D01*
X222642D01*
Y141269D01*
X222648D01*
Y141263D01*
X222654D01*
Y141258D01*
X222659D01*
Y141247D01*
X222665D01*
Y141235D01*
X222671D01*
Y141219D01*
X222676D01*
Y141191D01*
X222682D01*
Y140866D01*
X222676D01*
Y140827D01*
X222671D01*
Y140811D01*
X222665D01*
Y140799D01*
X222659D01*
Y140788D01*
X222654D01*
Y140783D01*
X222648D01*
Y140777D01*
X222642D01*
Y140771D01*
X222637D01*
Y140766D01*
X222631D01*
Y140760D01*
X222626D01*
Y140755D01*
X222620D01*
Y140749D01*
X222609D01*
Y140744D01*
X222603D01*
Y140738D01*
X222592D01*
Y140732D01*
X222581D01*
Y140727D01*
X222564D01*
Y140721D01*
X222548D01*
Y140716D01*
X222519D01*
Y140710D01*
X221933D01*
Y140716D01*
X221910D01*
Y140721D01*
X221899D01*
Y140727D01*
X221888D01*
Y140732D01*
X221882D01*
Y140738D01*
X221871D01*
Y140744D01*
X221866D01*
Y140749D01*
X221860D01*
Y140760D01*
X221854D01*
Y140766D01*
X221849D01*
Y140777D01*
X221843D01*
Y140788D01*
X221838D01*
Y140827D01*
X221832D01*
Y140967D01*
X221838D01*
Y141001D01*
X221843D01*
Y141017D01*
X221849D01*
Y141029D01*
X221854D01*
Y141034D01*
X221860D01*
Y141040D01*
X221866D01*
Y141045D01*
X221871D01*
Y141051D01*
X221877D01*
Y141057D01*
X221888D01*
Y141062D01*
X221899D01*
Y141068D01*
X221910D01*
Y141073D01*
X221927D01*
Y141079D01*
X222469D01*
Y141101D01*
X222464D01*
Y141129D01*
X222458D01*
Y141146D01*
X222452D01*
Y141163D01*
X222447D01*
Y141168D01*
X222441D01*
Y141180D01*
X222413D01*
Y141185D01*
X222290D01*
Y141191D01*
X222195D01*
Y141185D01*
X221877D01*
Y141191D01*
X221849D01*
Y141196D01*
X221843D01*
Y141224D01*
X221838D01*
Y141347D01*
X222519D01*
Y141342D01*
D02*
G37*
G36*
X221720Y141258D02*
X221726D01*
Y141191D01*
X221698D01*
Y141185D01*
X221200D01*
Y141180D01*
X221178D01*
Y141174D01*
X221172D01*
Y141168D01*
X221167D01*
Y141163D01*
X221161D01*
Y141135D01*
X221156D01*
Y141062D01*
X221150D01*
Y140995D01*
X221156D01*
Y140922D01*
X221161D01*
Y140894D01*
X221167D01*
Y140889D01*
X221172D01*
Y140883D01*
X221178D01*
Y140878D01*
X221206D01*
Y140872D01*
X221726D01*
Y140710D01*
X221111D01*
Y140716D01*
X221083D01*
Y140721D01*
X221060D01*
Y140727D01*
X221049D01*
Y140732D01*
X221038D01*
Y140738D01*
X221027D01*
Y140744D01*
X221016D01*
Y140749D01*
X221010D01*
Y140755D01*
X221005D01*
Y140760D01*
X220999D01*
Y140766D01*
X220988D01*
Y140771D01*
X220982D01*
Y140777D01*
X220977D01*
Y140788D01*
X220971D01*
Y140794D01*
X220966D01*
Y140799D01*
X220960D01*
Y140811D01*
X220954D01*
Y140822D01*
X220949D01*
Y140833D01*
X220943D01*
Y140850D01*
X220938D01*
Y140984D01*
X220932D01*
Y141079D01*
X220938D01*
Y141202D01*
X220943D01*
Y141224D01*
X220949D01*
Y141235D01*
X220954D01*
Y141247D01*
X220960D01*
Y141258D01*
X220966D01*
Y141263D01*
X220971D01*
Y141269D01*
X220977D01*
Y141280D01*
X220982D01*
Y141286D01*
X220988D01*
Y141291D01*
X220993D01*
Y141297D01*
X221005D01*
Y141303D01*
X221010D01*
Y141308D01*
X221016D01*
Y141314D01*
X221027D01*
Y141319D01*
X221038D01*
Y141325D01*
X221049D01*
Y141331D01*
X221060D01*
Y141336D01*
X221083D01*
Y141342D01*
X221105D01*
Y141347D01*
X221720D01*
Y141258D01*
D02*
G37*
G36*
X220809Y140755D02*
X220815D01*
Y140710D01*
X220591D01*
Y140771D01*
Y140777D01*
Y141347D01*
X220809D01*
Y140755D01*
D02*
G37*
G36*
X220295Y141342D02*
X220323D01*
Y141336D01*
X220345D01*
Y141331D01*
X220362D01*
Y141325D01*
X220373D01*
Y141319D01*
X220384D01*
Y141314D01*
X220395D01*
Y141308D01*
X220401D01*
Y141303D01*
X220412D01*
Y141297D01*
X220418D01*
Y141291D01*
X220423D01*
Y141286D01*
X220429D01*
Y141280D01*
X220434D01*
Y141275D01*
X220440D01*
Y141269D01*
X220446D01*
Y141258D01*
X220451D01*
Y141252D01*
X220457D01*
Y141241D01*
X220462D01*
Y141224D01*
X220468D01*
Y141208D01*
X220474D01*
Y141185D01*
X220479D01*
Y141135D01*
X220485D01*
Y140906D01*
Y140900D01*
Y140710D01*
X220256D01*
Y141140D01*
X220250D01*
Y141168D01*
X220244D01*
Y141174D01*
X220239D01*
Y141180D01*
X220222D01*
Y141185D01*
X220093D01*
Y141191D01*
X220043D01*
Y141185D01*
X219797D01*
Y140710D01*
X219579D01*
Y141347D01*
X220295D01*
Y141342D01*
D02*
G37*
G36*
X218271D02*
X218299D01*
Y141336D01*
X218321D01*
Y141331D01*
X218338D01*
Y141325D01*
X218349D01*
Y141319D01*
X218361D01*
Y141314D01*
X218372D01*
Y141308D01*
X218383D01*
Y141303D01*
X218389D01*
Y141297D01*
X218394D01*
Y141291D01*
X218400D01*
Y141286D01*
X218405D01*
Y141280D01*
X218411D01*
Y141275D01*
X218417D01*
Y141269D01*
X218422D01*
Y141263D01*
X218428D01*
Y141252D01*
X218433D01*
Y141241D01*
X218439D01*
Y141230D01*
X218444D01*
Y141213D01*
X218450D01*
Y141191D01*
X218456D01*
Y141146D01*
X218461D01*
Y140710D01*
X218238D01*
Y140716D01*
X218232D01*
Y141157D01*
X218226D01*
Y141168D01*
X218221D01*
Y141174D01*
X218215D01*
Y141180D01*
X218198D01*
Y141185D01*
X218143D01*
Y141191D01*
X218075D01*
Y141185D01*
X217975D01*
Y140710D01*
X217746D01*
Y141185D01*
X217489D01*
Y140710D01*
X217265D01*
Y140850D01*
X217270D01*
Y141208D01*
X217265D01*
Y141347D01*
X218271D01*
Y141342D01*
D02*
G37*
G36*
X235673D02*
X235701D01*
Y141336D01*
X235723D01*
Y141331D01*
X235740D01*
Y141325D01*
X235751D01*
Y141319D01*
X235762D01*
Y141314D01*
X235773D01*
Y141308D01*
X235779D01*
Y141303D01*
X235790D01*
Y141297D01*
X235796D01*
Y141291D01*
X235801D01*
Y141286D01*
X235807D01*
Y141280D01*
X235812D01*
Y141269D01*
X235818D01*
Y141263D01*
X235824D01*
Y141252D01*
X235829D01*
Y141241D01*
X235835D01*
Y141219D01*
X235841D01*
Y141135D01*
X235846D01*
Y140989D01*
X235841D01*
Y140833D01*
X235846D01*
Y140732D01*
X235841D01*
Y140671D01*
X235835D01*
Y140643D01*
X235829D01*
Y140626D01*
X235824D01*
Y140609D01*
X235818D01*
Y140598D01*
X235812D01*
Y140587D01*
X235807D01*
Y140581D01*
X235801D01*
Y140576D01*
X235796D01*
Y140565D01*
X235790D01*
Y140559D01*
X235785D01*
Y140553D01*
X235779D01*
Y140548D01*
X235768D01*
Y140542D01*
X235762D01*
Y140537D01*
X235751D01*
Y140531D01*
X235740D01*
Y140525D01*
X235729D01*
Y140520D01*
X235712D01*
Y140514D01*
X235695D01*
Y140509D01*
X235673D01*
Y140503D01*
X235634D01*
Y140498D01*
X234980D01*
Y140548D01*
Y140553D01*
Y140660D01*
X235533D01*
Y140665D01*
X235561D01*
Y140671D01*
X235578D01*
Y140676D01*
X235595D01*
Y140682D01*
X235611D01*
Y140688D01*
X235617D01*
Y140721D01*
X235611D01*
Y140805D01*
X235058D01*
Y140811D01*
X235035D01*
Y140816D01*
X235019D01*
Y140822D01*
X235008D01*
Y140827D01*
X235002D01*
Y140833D01*
X234991D01*
Y140839D01*
X234985D01*
Y140844D01*
X234980D01*
Y140850D01*
X234974D01*
Y140855D01*
X234968D01*
Y140861D01*
X234963D01*
Y140872D01*
X234957D01*
Y140878D01*
X234952D01*
Y140894D01*
X234946D01*
Y140917D01*
X234941D01*
Y141230D01*
X234946D01*
Y141252D01*
X234952D01*
Y141263D01*
X234957D01*
Y141269D01*
X234963D01*
Y141275D01*
X234968D01*
Y141280D01*
X234974D01*
Y141291D01*
X234980D01*
Y141297D01*
X234991D01*
Y141303D01*
X234996D01*
Y141308D01*
X235002D01*
Y141314D01*
X235013D01*
Y141319D01*
X235024D01*
Y141325D01*
X235035D01*
Y141331D01*
X235052D01*
Y141336D01*
X235075D01*
Y141342D01*
X235103D01*
Y141347D01*
X235673D01*
Y141342D01*
D02*
G37*
G36*
X229345D02*
X229373D01*
Y141336D01*
X229395D01*
Y141331D01*
X229412D01*
Y141325D01*
X229429D01*
Y141319D01*
X229440D01*
Y141314D01*
X229446D01*
Y141308D01*
X229457D01*
Y141303D01*
X229468D01*
Y141297D01*
X229473D01*
Y141291D01*
X229479D01*
Y141286D01*
X229485D01*
Y141280D01*
X229490D01*
Y141269D01*
X229496D01*
Y141258D01*
X229501D01*
Y141247D01*
X229507D01*
Y141230D01*
X229513D01*
Y141208D01*
X229518D01*
Y140682D01*
X229513D01*
Y140648D01*
X229507D01*
Y140632D01*
X229501D01*
Y140615D01*
X229496D01*
Y140604D01*
X229490D01*
Y140593D01*
X229485D01*
Y140581D01*
X229479D01*
Y140576D01*
X229473D01*
Y140570D01*
X229468D01*
Y140565D01*
X229462D01*
Y140559D01*
X229457D01*
Y140553D01*
X229451D01*
Y140548D01*
X229446D01*
Y140542D01*
X229434D01*
Y140537D01*
X229429D01*
Y140531D01*
X229418D01*
Y140525D01*
X229406D01*
Y140520D01*
X229390D01*
Y140514D01*
X229373D01*
Y140509D01*
X229350D01*
Y140503D01*
X229311D01*
Y140498D01*
X228652D01*
Y140660D01*
X229211D01*
Y140665D01*
X229239D01*
Y140671D01*
X229256D01*
Y140676D01*
X229272D01*
Y140682D01*
X229289D01*
Y140777D01*
X229295D01*
Y140799D01*
X229289D01*
Y140805D01*
X228730D01*
Y140811D01*
X228708D01*
Y140816D01*
X228696D01*
Y140822D01*
X228685D01*
Y140827D01*
X228674D01*
Y140833D01*
X228668D01*
Y140839D01*
X228663D01*
Y140844D01*
X228657D01*
Y140850D01*
X228652D01*
Y140855D01*
X228646D01*
Y140861D01*
X228641D01*
Y140866D01*
X228635D01*
Y140878D01*
X228629D01*
Y140889D01*
X228624D01*
Y140911D01*
X228618D01*
Y140989D01*
X228613D01*
Y141135D01*
X228618D01*
Y141241D01*
X228624D01*
Y141252D01*
X228629D01*
Y141263D01*
X228635D01*
Y141275D01*
X228641D01*
Y141280D01*
X228646D01*
Y141286D01*
X228652D01*
Y141291D01*
X228657D01*
Y141297D01*
X228663D01*
Y141303D01*
X228674D01*
Y141308D01*
X228680D01*
Y141314D01*
X228691D01*
Y141319D01*
X228702D01*
Y141325D01*
X228713D01*
Y141331D01*
X228724D01*
Y141336D01*
X228747D01*
Y141342D01*
X228786D01*
Y141347D01*
X229345D01*
Y141342D01*
D02*
G37*
%LPC*%
G36*
X200719Y141191D02*
X200327D01*
Y141185D01*
X200316D01*
Y141174D01*
X200310D01*
Y141163D01*
X200305D01*
Y141085D01*
X200299D01*
Y141073D01*
X200417D01*
Y141079D01*
X200607D01*
Y141073D01*
X200719D01*
Y141118D01*
X200724D01*
Y141152D01*
X200719D01*
Y141191D01*
D02*
G37*
G36*
X215543D02*
X215459D01*
Y141185D01*
X215359D01*
Y141191D01*
X215252D01*
Y141185D01*
X215185D01*
Y141180D01*
X215174D01*
Y141174D01*
X215169D01*
Y141163D01*
X215163D01*
Y141152D01*
X215158D01*
Y141129D01*
Y141124D01*
Y141118D01*
X215152D01*
Y141090D01*
X215158D01*
Y141062D01*
X215152D01*
Y140939D01*
X215158D01*
Y140911D01*
X215163D01*
Y140900D01*
X215169D01*
Y140889D01*
X215174D01*
Y140883D01*
X215180D01*
Y140878D01*
X215185D01*
Y140872D01*
X215264D01*
Y140866D01*
X215336D01*
Y140872D01*
X215459D01*
Y140866D01*
X215471D01*
Y140872D01*
X215504D01*
Y140866D01*
X215538D01*
Y140872D01*
X215582D01*
Y140878D01*
X215594D01*
Y140883D01*
X215605D01*
Y140889D01*
X215610D01*
Y140922D01*
X215616D01*
Y141135D01*
X215610D01*
Y141174D01*
X215599D01*
Y141180D01*
X215582D01*
Y141185D01*
X215543D01*
Y141191D01*
D02*
G37*
G36*
X213710D02*
X213330D01*
Y141185D01*
X213302D01*
Y141157D01*
X213296D01*
Y141101D01*
X213291D01*
Y141073D01*
X213408D01*
Y141079D01*
X213598D01*
Y141073D01*
X213710D01*
Y141107D01*
X213715D01*
Y141152D01*
X213710D01*
Y141191D01*
D02*
G37*
G36*
X212390D02*
X211999D01*
Y141185D01*
X211994D01*
Y141180D01*
X211988D01*
Y141174D01*
X211982D01*
Y141157D01*
X211977D01*
Y141073D01*
X212094D01*
Y141079D01*
X212284D01*
Y141073D01*
X212390D01*
Y141090D01*
X212396D01*
Y141124D01*
Y141129D01*
Y141174D01*
X212390D01*
Y141191D01*
D02*
G37*
G36*
X209383D02*
X209249D01*
Y141185D01*
X209148D01*
Y141180D01*
X209137D01*
Y141168D01*
X209132D01*
Y141163D01*
X209126D01*
Y141146D01*
X209120D01*
Y141112D01*
X209115D01*
Y140945D01*
X209120D01*
Y140911D01*
X209126D01*
Y140894D01*
X209132D01*
Y140889D01*
X209137D01*
Y140878D01*
X209148D01*
Y140872D01*
X209226D01*
Y140866D01*
X209310D01*
Y140872D01*
X209422D01*
Y140866D01*
X209433D01*
Y140872D01*
X209472D01*
Y140866D01*
X209489D01*
Y140872D01*
X209540D01*
Y140878D01*
X209556D01*
Y140883D01*
X209567D01*
Y140889D01*
X209573D01*
Y140922D01*
X209579D01*
Y141073D01*
Y141079D01*
Y141185D01*
X209383D01*
Y141191D01*
D02*
G37*
G36*
X207550Y140984D02*
X207533D01*
Y140978D01*
X207466D01*
Y140984D01*
X207253D01*
Y140978D01*
X207125D01*
Y140872D01*
X207175D01*
Y140866D01*
X207499D01*
Y140872D01*
X207522D01*
Y140878D01*
X207527D01*
Y140883D01*
X207533D01*
Y140889D01*
X207538D01*
Y140900D01*
X207544D01*
Y140922D01*
X207550D01*
Y140967D01*
X207555D01*
Y140978D01*
X207550D01*
Y140984D01*
D02*
G37*
G36*
X203681Y141191D02*
X203631D01*
Y141185D01*
X203609D01*
Y141191D01*
X203597D01*
Y141185D01*
X203497D01*
Y141191D01*
X203391D01*
Y141185D01*
X203329D01*
Y141180D01*
X203312D01*
Y141174D01*
X203307D01*
Y141168D01*
X203301D01*
Y141163D01*
X203296D01*
Y141124D01*
X203290D01*
Y140939D01*
X203296D01*
Y140894D01*
X203301D01*
Y140889D01*
X203307D01*
Y140883D01*
X203312D01*
Y140878D01*
X203329D01*
Y140872D01*
X203396D01*
Y140866D01*
X203486D01*
Y140872D01*
X203597D01*
Y140866D01*
X203609D01*
Y140872D01*
X203631D01*
Y140866D01*
X203670D01*
Y140872D01*
X203715D01*
Y140878D01*
X203732D01*
Y140883D01*
X203743D01*
Y140894D01*
X203748D01*
Y140945D01*
X203754D01*
Y141107D01*
X203748D01*
Y141163D01*
X203743D01*
Y141174D01*
X203732D01*
Y141180D01*
X203715D01*
Y141185D01*
X203681D01*
Y141191D01*
D02*
G37*
G36*
X232414D02*
X232285D01*
Y141185D01*
X232207D01*
Y141180D01*
X232201D01*
Y141174D01*
X232196D01*
Y141168D01*
X232190D01*
Y141157D01*
X232185D01*
Y141146D01*
X232179D01*
Y141112D01*
X232173D01*
Y141079D01*
X232565D01*
Y141085D01*
X232570D01*
Y141096D01*
X232576D01*
Y141107D01*
X232581D01*
Y141118D01*
X232587D01*
Y141135D01*
X232593D01*
Y141152D01*
X232587D01*
Y141157D01*
X232581D01*
Y141163D01*
X232576D01*
Y141174D01*
X232570D01*
Y141180D01*
X232565D01*
Y141185D01*
X232414D01*
Y141191D01*
D02*
G37*
G36*
X231268D02*
X231223D01*
Y141185D01*
X231218D01*
Y141152D01*
X231212D01*
Y141129D01*
X231206D01*
Y141107D01*
X231201D01*
Y141090D01*
X231195D01*
Y141079D01*
X231592D01*
Y141090D01*
X231598D01*
Y141101D01*
X231603D01*
Y141112D01*
X231609D01*
Y141124D01*
X231614D01*
Y141135D01*
X231620D01*
Y141146D01*
X231614D01*
Y141157D01*
X231609D01*
Y141163D01*
X231603D01*
Y141168D01*
X231598D01*
Y141180D01*
X231592D01*
Y141185D01*
X231268D01*
Y141191D01*
D02*
G37*
G36*
X224208D02*
X224129D01*
Y141185D01*
X224034D01*
Y141191D01*
X223928D01*
Y141185D01*
X223861D01*
Y141180D01*
X223850D01*
Y141174D01*
X223844D01*
Y141168D01*
X223839D01*
Y141163D01*
X223833D01*
Y141118D01*
X223828D01*
Y140939D01*
X223833D01*
Y140894D01*
X223839D01*
Y140889D01*
X223844D01*
Y140883D01*
X223850D01*
Y140878D01*
X223861D01*
Y140872D01*
X223939D01*
Y140866D01*
X224018D01*
Y140872D01*
X224135D01*
Y140866D01*
X224152D01*
Y140872D01*
X224174D01*
Y140866D01*
X224202D01*
Y140872D01*
X224252D01*
Y140878D01*
X224269D01*
Y140883D01*
X224280D01*
Y140894D01*
X224286D01*
Y140945D01*
X224292D01*
Y141112D01*
X224286D01*
Y141163D01*
X224280D01*
Y141174D01*
X224269D01*
Y141180D01*
X224252D01*
Y141185D01*
X224208D01*
Y141191D01*
D02*
G37*
G36*
X222475Y140984D02*
X222464D01*
Y140978D01*
X222369D01*
Y140984D01*
X222167D01*
Y140978D01*
X222050D01*
Y140973D01*
X222044D01*
Y140872D01*
X222100D01*
Y140866D01*
X222413D01*
Y140872D01*
X222441D01*
Y140878D01*
X222447D01*
Y140883D01*
X222452D01*
Y140889D01*
X222458D01*
Y140900D01*
X222464D01*
Y140917D01*
X222469D01*
Y140962D01*
X222475D01*
Y140984D01*
D02*
G37*
G36*
X235214Y141191D02*
X235175D01*
Y141180D01*
X235170D01*
Y141152D01*
X235164D01*
Y141124D01*
X235158D01*
Y141068D01*
X235153D01*
Y141051D01*
X235158D01*
Y141006D01*
X235164D01*
Y140989D01*
X235170D01*
Y140984D01*
X235175D01*
Y140978D01*
X235181D01*
Y140973D01*
X235192D01*
Y140967D01*
X235611D01*
Y141040D01*
X235617D01*
Y141180D01*
X235583D01*
Y141185D01*
X235214D01*
Y141191D01*
D02*
G37*
G36*
X228887D02*
X228853D01*
Y141185D01*
X228847D01*
Y141168D01*
X228842D01*
Y141140D01*
X228836D01*
Y141017D01*
X228842D01*
Y140989D01*
X228847D01*
Y140967D01*
X228853D01*
Y140962D01*
X228864D01*
Y140967D01*
X229289D01*
Y141180D01*
X229267D01*
Y141185D01*
X228887D01*
Y141191D01*
D02*
G37*
%LPD*%
D10*
X192517Y147875D02*
G03*
X192517Y147875I-197J0D01*
G01*
X197837Y161264D02*
G03*
X197837Y161264I-197J0D01*
G01*
X194171Y226020D02*
G03*
X194171Y226020I-197J0D01*
G01*
X161228Y216540D02*
G03*
X161228Y216540I-197J0D01*
G01*
X192673Y181687D02*
G03*
X192673Y181687I-197J0D01*
G01*
X231119Y161319D02*
G03*
X231119Y161319I-197J0D01*
G01*
X185279Y290247D02*
G03*
X185279Y290247I-197J0D01*
G01*
X166373Y290513D02*
G03*
X166373Y290513I-197J0D01*
G01*
X236612Y246015D02*
G03*
X236612Y245228I0J-394D01*
G01*
D02*
G03*
X236612Y246015I0J394D01*
G01*
X198880Y221404D02*
X207542D01*
X198880Y229869D02*
X207542D01*
X154255Y224898D02*
Y234765D01*
X162720Y224898D02*
Y234765D01*
X156294Y196745D02*
X166294D01*
Y135248D02*
Y196745D01*
X156294Y135248D02*
X166294D01*
X156294D02*
Y196745D01*
X181699Y170751D02*
X185636D01*
X181699Y159334D02*
X185636D01*
X199725Y170308D02*
X222166D01*
X199725Y190781D02*
X222166D01*
X224342Y198551D02*
Y203276D01*
X179657Y198551D02*
X224342D01*
X179657D02*
Y203276D01*
Y212724D02*
Y217449D01*
X224342D01*
Y212724D02*
Y217449D01*
X155528Y241002D02*
Y249073D01*
X159072Y242380D02*
Y249073D01*
X171669Y241275D02*
Y251142D01*
X163204Y241275D02*
Y251142D01*
X171270Y258479D02*
Y268346D01*
X162806Y258479D02*
Y268346D01*
X162737Y271136D02*
Y281002D01*
X171202Y271136D02*
Y281002D01*
X217413Y285330D02*
Y286511D01*
X205208Y285330D02*
Y286511D01*
X217413Y294779D02*
Y295960D01*
X205208Y294779D02*
Y295960D01*
Y285330D02*
X217413D01*
X205208Y295960D02*
X217413D01*
X225812Y231669D02*
Y232457D01*
X231127Y231669D02*
Y232457D01*
X208168Y250141D02*
Y272582D01*
X185726Y250141D02*
Y272582D01*
X208168D01*
X185726Y250141D02*
X208168D01*
X166631Y223396D02*
X175293D01*
X166631Y231860D02*
X175293D01*
D11*
X175400Y168782D02*
G03*
X175794Y168782I197J0D01*
G01*
D02*
G03*
X175400Y168782I-197J0D01*
G01*
X233890Y208000D02*
G03*
X233496Y208000I-197J0D01*
G01*
D02*
G03*
X233890Y208000I197J0D01*
G01*
X245035Y169733D02*
Y199694D01*
X273775D01*
Y169733D02*
Y199694D01*
X245035Y169733D02*
X273775D01*
X149422Y201144D02*
Y231105D01*
X120682Y201144D02*
X149422D01*
X120682D02*
Y231105D01*
X149422D01*
X149441Y169475D02*
Y199436D01*
X120701Y169475D02*
X149441D01*
X120701D02*
Y199436D01*
X149441D01*
X245073Y201042D02*
Y231003D01*
X273813D01*
Y201042D02*
Y231003D01*
X245073Y201042D02*
X273813D01*
X244936Y264320D02*
Y294280D01*
X273676D01*
Y264320D02*
Y294280D01*
X244936Y264320D02*
X273676D01*
X244936Y232618D02*
Y262578D01*
X273676D01*
Y232618D02*
Y262578D01*
X244936Y232618D02*
X273676D01*
X245124Y138243D02*
Y168203D01*
X273864D01*
Y138243D02*
Y168203D01*
X245124Y138243D02*
X273864D01*
X149633Y264164D02*
Y294124D01*
X120893Y264164D02*
X149633D01*
X120893D02*
Y294124D01*
X149633D01*
X149477Y232621D02*
Y262581D01*
X120737Y232621D02*
X149477D01*
X120737D02*
Y262581D01*
X149477D01*
X149165Y137906D02*
Y167867D01*
X120424Y137906D02*
X149165D01*
X120424D02*
Y167867D01*
X149165D01*
X221454Y256055D02*
Y273771D01*
X239171D01*
Y256055D02*
Y273771D01*
X221454Y256055D02*
X239171D01*
X119857Y269188D02*
X117495D01*
Y270369D01*
X117889Y270762D01*
X118676D01*
X119069Y270369D01*
Y269188D01*
X119857Y273124D02*
Y271550D01*
X118282Y273124D01*
X117889D01*
X117495Y272730D01*
Y271943D01*
X117889Y271550D01*
X119728Y222262D02*
X118154D01*
X117367Y223049D01*
X118154Y223836D01*
X119728D01*
X118547D01*
Y222262D01*
Y224624D02*
Y226198D01*
X276624Y291000D02*
X276886Y291263D01*
Y291787D01*
X276624Y292050D01*
X276361D01*
X276099Y291787D01*
Y291263D01*
X275837Y291000D01*
X275574D01*
X275312Y291263D01*
Y291787D01*
X275574Y292050D01*
X276361Y290213D02*
Y289688D01*
X276099Y289426D01*
X275312D01*
Y290213D01*
X275574Y290476D01*
X275837Y290213D01*
Y289426D01*
X275312Y288639D02*
X276624D01*
X276099D01*
Y288901D01*
Y288376D01*
Y288639D01*
X276624D01*
X276886Y288376D01*
X275312Y286802D02*
Y287327D01*
X275574Y287589D01*
X276099D01*
X276361Y287327D01*
Y286802D01*
X276099Y286540D01*
X275837D01*
Y287589D01*
X276624Y285753D02*
X276361D01*
Y286015D01*
Y285490D01*
Y285753D01*
X275574D01*
X275312Y285490D01*
X276361Y284703D02*
X275574D01*
X275312Y284441D01*
Y283654D01*
X275049D01*
X274787Y283916D01*
Y284178D01*
X275312Y283654D02*
X276361D01*
X276500Y278065D02*
X276762Y277803D01*
Y277278D01*
X276500Y277016D01*
X275450D01*
X275188Y277278D01*
Y277803D01*
X275450Y278065D01*
X276500D01*
Y276491D02*
X276762Y276229D01*
Y275704D01*
X276500Y275442D01*
X276238D01*
X275975Y275704D01*
Y275966D01*
Y275704D01*
X275713Y275442D01*
X275450D01*
X275188Y275704D01*
Y276229D01*
X275450Y276491D01*
X274926Y274917D02*
Y273867D01*
X275188Y273342D02*
X276762D01*
Y272555D01*
X276500Y272293D01*
X275975D01*
X275713Y272555D01*
Y273342D01*
X276762Y271768D02*
X275450D01*
X275188Y271506D01*
Y270981D01*
X275450Y270719D01*
X276762D01*
Y270194D02*
X275188D01*
Y269144D01*
X275975Y268620D02*
Y267570D01*
X276431Y243243D02*
X276693Y242980D01*
Y242455D01*
X276431Y242193D01*
X275381D01*
X275119Y242455D01*
Y242980D01*
X275381Y243243D01*
X276431D01*
Y241668D02*
X276693Y241406D01*
Y240881D01*
X276431Y240619D01*
X276168D01*
X275906Y240881D01*
Y241143D01*
Y240881D01*
X275643Y240619D01*
X275381D01*
X275119Y240881D01*
Y241406D01*
X275381Y241668D01*
X274856Y240094D02*
Y239044D01*
X276693Y237470D02*
Y238520D01*
X275119D01*
Y237470D01*
X275906Y238520D02*
Y237995D01*
X275119Y236945D02*
X276693D01*
X275119Y235896D01*
X276693D01*
X275119Y235371D02*
X276168D01*
X276693Y234846D01*
X276168Y234321D01*
X275119D01*
X275906D01*
Y235371D01*
Y233797D02*
Y232747D01*
X276238Y260412D02*
X276500Y260149D01*
Y259624D01*
X276238Y259362D01*
X275188D01*
X274926Y259624D01*
Y260149D01*
X275188Y260412D01*
X276238D01*
Y258837D02*
X276500Y258575D01*
Y258050D01*
X276238Y257788D01*
X275975D01*
X275713Y258050D01*
Y258313D01*
Y258050D01*
X275450Y257788D01*
X275188D01*
X274926Y258050D01*
Y258575D01*
X275188Y258837D01*
X275713Y257263D02*
Y256213D01*
X276500Y255689D02*
X274926D01*
Y254902D01*
X275188Y254639D01*
X276238D01*
X276500Y254902D01*
Y255689D01*
Y254114D02*
Y253590D01*
Y253852D01*
X274926D01*
Y254114D01*
Y253590D01*
Y252802D02*
X276500D01*
Y252015D01*
X276238Y251753D01*
X275713D01*
X275450Y252015D01*
Y252802D01*
Y252278D02*
X274926Y251753D01*
X275713Y251228D02*
Y250179D01*
X276431Y229396D02*
X276693Y229134D01*
Y228609D01*
X276431Y228347D01*
X275381D01*
X275119Y228609D01*
Y229134D01*
X275381Y229396D01*
X276431D01*
X275119Y226772D02*
Y227822D01*
X276168Y226772D01*
X276431D01*
X276693Y227035D01*
Y227560D01*
X276431Y227822D01*
X274856Y226248D02*
Y225198D01*
X275119Y224673D02*
X276693D01*
Y223886D01*
X276431Y223624D01*
X275906D01*
X275643Y223886D01*
Y224673D01*
X276693Y223099D02*
X275381D01*
X275119Y222837D01*
Y222312D01*
X275381Y222050D01*
X276693D01*
Y221525D02*
X275119D01*
Y220475D01*
X275906Y219951D02*
Y218901D01*
X276500Y214443D02*
X276762Y214180D01*
Y213655D01*
X276500Y213393D01*
X275450D01*
X275188Y213655D01*
Y214180D01*
X275450Y214443D01*
X276500D01*
X275188Y211819D02*
Y212868D01*
X276238Y211819D01*
X276500D01*
X276762Y212081D01*
Y212606D01*
X276500Y212868D01*
X274926Y211294D02*
Y210244D01*
X276762Y209720D02*
X275188D01*
Y208933D01*
X275450Y208670D01*
X276500D01*
X276762Y208933D01*
Y209720D01*
Y208145D02*
Y207621D01*
Y207883D01*
X275188D01*
Y208145D01*
Y207621D01*
Y206834D02*
X276762D01*
Y206046D01*
X276500Y205784D01*
X275975D01*
X275713Y206046D01*
Y206834D01*
Y206309D02*
X275188Y205784D01*
X275975Y205259D02*
Y204210D01*
X276168Y183427D02*
X276431Y183165D01*
Y182640D01*
X276168Y182378D01*
X275119D01*
X274856Y182640D01*
Y183165D01*
X275119Y183427D01*
X276168D01*
X274856Y181853D02*
Y181328D01*
Y181591D01*
X276431D01*
X276168Y181853D01*
X275643Y180541D02*
Y179492D01*
X274856Y178967D02*
X276431D01*
Y178180D01*
X276168Y177917D01*
X275643D01*
X275381Y178180D01*
Y178967D01*
X276431Y177393D02*
X275119D01*
X274856Y177130D01*
Y176605D01*
X275119Y176343D01*
X276431D01*
Y175818D02*
X274856D01*
Y174769D01*
X275643Y174244D02*
Y173195D01*
X276500Y196858D02*
X276762Y196596D01*
Y196071D01*
X276500Y195808D01*
X275450D01*
X275188Y196071D01*
Y196596D01*
X275450Y196858D01*
X276500D01*
X275188Y194234D02*
Y195284D01*
X276238Y194234D01*
X276500D01*
X276762Y194497D01*
Y195021D01*
X276500Y195284D01*
X274926Y193710D02*
Y192660D01*
X276762Y191086D02*
Y192135D01*
X275188D01*
Y191086D01*
X275975Y192135D02*
Y191610D01*
X275188Y190561D02*
X276762D01*
X275188Y189511D01*
X276762D01*
X275188Y188987D02*
X276238D01*
X276762Y188462D01*
X276238Y187937D01*
X275188D01*
X275975D01*
Y188987D01*
Y187412D02*
Y186363D01*
X276232Y164185D02*
X276494Y163923D01*
Y163398D01*
X276232Y163136D01*
X275183D01*
X274920Y163398D01*
Y163923D01*
X275183Y164185D01*
X276232D01*
X274920Y162611D02*
Y162086D01*
Y162349D01*
X276494D01*
X276232Y162611D01*
X275707Y161299D02*
Y160250D01*
X276494Y159725D02*
X274920D01*
Y158938D01*
X275183Y158675D01*
X276232D01*
X276494Y158938D01*
Y159725D01*
Y158150D02*
Y157626D01*
Y157888D01*
X274920D01*
Y158150D01*
Y157626D01*
Y156839D02*
X276494D01*
Y156052D01*
X276232Y155789D01*
X275707D01*
X275445Y156052D01*
Y156839D01*
Y156314D02*
X274920Y155789D01*
X275707Y155264D02*
Y154215D01*
X276643Y150176D02*
X276905Y149913D01*
Y149388D01*
X276643Y149126D01*
X275593D01*
X275331Y149388D01*
Y149913D01*
X275593Y150176D01*
X276643D01*
X275331Y148601D02*
Y148076D01*
Y148339D01*
X276905D01*
X276643Y148601D01*
X275068Y147289D02*
Y146240D01*
X276905Y144666D02*
Y145715D01*
X275331D01*
Y144666D01*
X276118Y145715D02*
Y145190D01*
X275331Y144141D02*
X276905D01*
X275331Y143091D01*
X276905D01*
X275331Y142567D02*
X276380D01*
X276905Y142042D01*
X276380Y141517D01*
X275331D01*
X276118D01*
Y142567D01*
Y140992D02*
Y139943D01*
X117696Y190391D02*
X117303Y189998D01*
Y189210D01*
X117696Y188817D01*
X119270D01*
X119664Y189210D01*
Y189998D01*
X119270Y190391D01*
X118483D01*
Y189604D01*
X119664Y191178D02*
X117303D01*
X119664Y192753D01*
X117303D01*
Y193540D02*
X119664D01*
Y194720D01*
X119270Y195114D01*
X117696D01*
X117303Y194720D01*
Y193540D01*
X117168Y175832D02*
Y174258D01*
X119530D01*
Y175832D01*
X118349Y174258D02*
Y175045D01*
Y176619D02*
Y178194D01*
X117562Y177406D02*
X119136D01*
X119664Y204737D02*
X118090D01*
X117303Y205524D01*
X118090Y206311D01*
X119664D01*
X118483D01*
Y204737D01*
Y207099D02*
Y208673D01*
X117696Y207886D02*
X119270D01*
X119713Y238464D02*
X117352D01*
Y239645D01*
X117745Y240038D01*
X118533D01*
X118926Y239645D01*
Y238464D01*
X119713Y240825D02*
Y241613D01*
Y241219D01*
X117352D01*
X117745Y240825D01*
X118218Y155724D02*
Y157298D01*
X117431Y156511D02*
X119005D01*
X119399Y158085D02*
Y158872D01*
Y158479D01*
X117037D01*
X117431Y158085D01*
X119399Y161627D02*
Y160053D01*
X117824Y161627D01*
X117431D01*
X117037Y161234D01*
Y160447D01*
X117431Y160053D01*
X117037Y162414D02*
X118612D01*
X119399Y163201D01*
X118612Y163989D01*
X117037D01*
X117296Y143147D02*
X116902Y142753D01*
Y141966D01*
X117296Y141573D01*
X118870D01*
X119264Y141966D01*
Y142753D01*
X118870Y143147D01*
X118083D01*
Y142360D01*
X119264Y143934D02*
X116902D01*
X119264Y145508D01*
X116902D01*
Y146295D02*
X119264D01*
Y147476D01*
X118870Y147870D01*
X117296D01*
X116902Y147476D01*
Y146295D01*
X150534Y192502D02*
Y191715D01*
Y192108D01*
X152502D01*
X152896Y191715D01*
Y191321D01*
X152502Y190927D01*
X152896Y193289D02*
Y194076D01*
Y193682D01*
X150534D01*
X150928Y193289D01*
Y195257D02*
X150534Y195650D01*
Y196437D01*
X150928Y196831D01*
X152502D01*
X152896Y196437D01*
Y195650D01*
X152502Y195257D01*
X150928D01*
X153404Y231296D02*
X151042D01*
Y232476D01*
X151436Y232870D01*
X152223D01*
X152617Y232476D01*
Y231296D01*
Y232083D02*
X153404Y232870D01*
X151042Y235231D02*
Y233657D01*
X152223D01*
X151830Y234444D01*
Y234838D01*
X152223Y235231D01*
X153010D01*
X153404Y234838D01*
Y234051D01*
X153010Y233657D01*
D12*
X190845Y254078D02*
G03*
X190845Y254078I-1181J0D01*
G01*
D13*
X183069Y244629D02*
G03*
X183069Y244629I-492J0D01*
G01*
D14*
X118440Y253496D02*
Y255070D01*
X117653Y254283D02*
X119228D01*
X117260Y257431D02*
Y255857D01*
X118440D01*
X118047Y256644D01*
Y257038D01*
X118440Y257431D01*
X119228D01*
X119621Y257038D01*
Y256251D01*
X119228Y255857D01*
X119621Y284834D02*
X117260D01*
Y286014D01*
X117653Y286408D01*
X118440D01*
X118834Y286014D01*
Y284834D01*
X117653Y287195D02*
X117260Y287589D01*
Y288376D01*
X117653Y288769D01*
X118047D01*
X118440Y288376D01*
Y287982D01*
Y288376D01*
X118834Y288769D01*
X119228D01*
X119621Y288376D01*
Y287589D01*
X119228Y287195D01*
X168618Y189161D02*
Y191523D01*
X169799D01*
X170192Y191129D01*
Y190342D01*
X169799Y189948D01*
X168618D01*
X170979Y189161D02*
X171766D01*
X171373D01*
Y191523D01*
X170979Y191129D01*
X150114Y161732D02*
Y160944D01*
Y161338D01*
X152082D01*
X152476Y160944D01*
Y160551D01*
X152082Y160157D01*
Y162519D02*
X152476Y162912D01*
Y163699D01*
X152082Y164093D01*
X150508D01*
X150114Y163699D01*
Y162912D01*
X150508Y162519D01*
X150901D01*
X151295Y162912D01*
Y164093D01*
X150717Y224864D02*
Y224077D01*
Y224470D01*
X152685D01*
X153078Y224077D01*
Y223683D01*
X152685Y223290D01*
X151110Y225651D02*
X150717Y226045D01*
Y226832D01*
X151110Y227225D01*
X151504D01*
X151898Y226832D01*
X152291Y227225D01*
X152685D01*
X153078Y226832D01*
Y226045D01*
X152685Y225651D01*
X152291D01*
X151898Y226045D01*
X151504Y225651D01*
X151110D01*
X151898Y226045D02*
Y226832D01*
X241782Y291427D02*
Y290640D01*
Y291033D01*
X243750D01*
X244144Y290640D01*
Y290246D01*
X243750Y289853D01*
X241782Y292214D02*
Y293788D01*
X242176D01*
X243750Y292214D01*
X244144D01*
X241436Y259858D02*
Y259071D01*
Y259464D01*
X243404D01*
X243797Y259071D01*
Y258677D01*
X243404Y258283D01*
X241436Y262219D02*
X241830Y261432D01*
X242617Y260645D01*
X243404D01*
X243797Y261038D01*
Y261826D01*
X243404Y262219D01*
X243010D01*
X242617Y261826D01*
Y260645D01*
X241713Y225173D02*
Y224386D01*
Y224780D01*
X243681D01*
X244075Y224386D01*
Y223993D01*
X243681Y223599D01*
X241713Y227535D02*
Y225960D01*
X242894D01*
X242500Y226748D01*
Y227141D01*
X242894Y227535D01*
X243681D01*
X244075Y227141D01*
Y226354D01*
X243681Y225960D01*
X241329Y196869D02*
Y196081D01*
Y196475D01*
X243297D01*
X243691Y196081D01*
Y195688D01*
X243297Y195294D01*
X243691Y198836D02*
X241329D01*
X242510Y197656D01*
Y199230D01*
X241958Y164682D02*
Y163895D01*
Y164288D01*
X243926D01*
X244320Y163895D01*
Y163501D01*
X243926Y163108D01*
X242352Y165469D02*
X241958Y165863D01*
Y166650D01*
X242352Y167043D01*
X242746D01*
X243139Y166650D01*
Y166256D01*
Y166650D01*
X243533Y167043D01*
X243926D01*
X244320Y166650D01*
Y165863D01*
X243926Y165469D01*
X150566Y291462D02*
Y290675D01*
Y291068D01*
X152534D01*
X152928Y290675D01*
Y290281D01*
X152534Y289887D01*
X152928Y293823D02*
Y292249D01*
X151354Y293823D01*
X150960D01*
X150566Y293430D01*
Y292642D01*
X150960Y292249D01*
X150114Y260063D02*
Y259276D01*
Y259670D01*
X152082D01*
X152476Y259276D01*
Y258882D01*
X152082Y258489D01*
X152476Y260850D02*
Y261637D01*
Y261244D01*
X150114D01*
X150508Y260850D01*
X231426Y197181D02*
Y196787D01*
X232213Y196000D01*
X233000Y196787D01*
Y197181D01*
X232213Y196000D02*
Y194819D01*
X233787D02*
X234574D01*
X234181D01*
Y197181D01*
X233787Y196787D01*
X178373Y279042D02*
Y277074D01*
X178766Y276680D01*
X179553D01*
X179947Y277074D01*
Y279042D01*
X180734Y276680D02*
X181521D01*
X181128D01*
Y279042D01*
X180734Y278648D01*
X241025Y245413D02*
X240632Y245019D01*
Y244232D01*
X241025Y243839D01*
X241419D01*
X241813Y244232D01*
Y245019D01*
X242206Y245413D01*
X242600D01*
X242993Y245019D01*
Y244232D01*
X242600Y243839D01*
X242993Y246200D02*
Y246987D01*
Y246594D01*
X240632D01*
X241025Y246200D01*
X229895Y241383D02*
Y243744D01*
X231076D01*
X231469Y243350D01*
Y242563D01*
X231076Y242170D01*
X229895D01*
X230682D02*
X231469Y241383D01*
X232257D02*
X233044D01*
X232650D01*
Y243744D01*
X232257Y243350D01*
X164343Y253023D02*
Y255384D01*
X165524D01*
X165917Y254991D01*
Y254204D01*
X165524Y253810D01*
X164343D01*
X165130D02*
X165917Y253023D01*
X167885D02*
Y255384D01*
X166704Y254204D01*
X168279D01*
X161366Y277091D02*
X159005D01*
Y278272D01*
X159398Y278666D01*
X160185D01*
X160579Y278272D01*
Y277091D01*
Y277878D02*
X161366Y278666D01*
X159398Y279453D02*
X159005Y279846D01*
Y280633D01*
X159398Y281027D01*
X159792D01*
X160185Y280633D01*
Y280240D01*
Y280633D01*
X160579Y281027D01*
X160972D01*
X161366Y280633D01*
Y279846D01*
X160972Y279453D01*
X161719Y263945D02*
X159357D01*
Y265126D01*
X159751Y265519D01*
X160538D01*
X160932Y265126D01*
Y263945D01*
Y264732D02*
X161719Y265519D01*
Y267881D02*
Y266306D01*
X160145Y267881D01*
X159751D01*
X159357Y267487D01*
Y266700D01*
X159751Y266306D01*
X195478Y195725D02*
Y193364D01*
X197052D01*
X199414D02*
X197839D01*
X199414Y194938D01*
Y195332D01*
X199020Y195725D01*
X198233D01*
X197839Y195332D01*
X204737Y299826D02*
Y297465D01*
X206311D01*
X207098D02*
X207885D01*
X207492D01*
Y299826D01*
X207098Y299432D01*
X169987Y155484D02*
Y156271D01*
Y155878D01*
X172348D01*
Y155484D01*
Y156271D01*
X170381Y159026D02*
X169987Y158633D01*
Y157845D01*
X170381Y157452D01*
X171955D01*
X172348Y157845D01*
Y158633D01*
X171955Y159026D01*
X172348Y159813D02*
Y160601D01*
Y160207D01*
X169987D01*
X170381Y159813D01*
X217155Y242569D02*
Y240208D01*
X218336D01*
X218730Y240601D01*
Y242175D01*
X218336Y242569D01*
X217155D01*
X219517Y240208D02*
X220304D01*
X219910D01*
Y242569D01*
X219517Y242175D01*
X155064Y255800D02*
Y253439D01*
X156245D01*
X156639Y253832D01*
Y255406D01*
X156245Y255800D01*
X155064D01*
X159000Y253439D02*
X157426D01*
X159000Y255013D01*
Y255406D01*
X158607Y255800D01*
X157819D01*
X157426Y255406D01*
X199097Y166853D02*
X198704Y167247D01*
X197916D01*
X197523Y166853D01*
Y165279D01*
X197916Y164885D01*
X198704D01*
X199097Y165279D01*
X199884Y164885D02*
X200672D01*
X200278D01*
Y167247D01*
X199884Y166853D01*
X201852D02*
X202246Y167247D01*
X203033D01*
X203427Y166853D01*
Y165279D01*
X203033Y164885D01*
X202246D01*
X201852Y165279D01*
Y166853D01*
X229892Y168641D02*
X229499Y169035D01*
X228711D01*
X228318Y168641D01*
Y167067D01*
X228711Y166674D01*
X229499D01*
X229892Y167067D01*
X230679D02*
X231073Y166674D01*
X231860D01*
X232254Y167067D01*
Y168641D01*
X231860Y169035D01*
X231073D01*
X230679Y168641D01*
Y168248D01*
X231073Y167854D01*
X232254D01*
X172478Y147750D02*
X172084Y147356D01*
Y146569D01*
X172478Y146176D01*
X174052D01*
X174446Y146569D01*
Y147356D01*
X174052Y147750D01*
X172478Y148537D02*
X172084Y148931D01*
Y149718D01*
X172478Y150111D01*
X172871D01*
X173265Y149718D01*
X173658Y150111D01*
X174052D01*
X174446Y149718D01*
Y148931D01*
X174052Y148537D01*
X173658D01*
X173265Y148931D01*
X172871Y148537D01*
X172478D01*
X173265Y148931D02*
Y149718D01*
X185275Y188018D02*
X184881Y188411D01*
X184094D01*
X183701Y188018D01*
Y186443D01*
X184094Y186050D01*
X184881D01*
X185275Y186443D01*
X186062Y188411D02*
X187636D01*
Y188018D01*
X186062Y186443D01*
Y186050D01*
X205317Y219923D02*
X204924Y220317D01*
X204137D01*
X203743Y219923D01*
Y218349D01*
X204137Y217955D01*
X204924D01*
X205317Y218349D01*
X207679Y220317D02*
X206105D01*
Y219136D01*
X206892Y219530D01*
X207285D01*
X207679Y219136D01*
Y218349D01*
X207285Y217955D01*
X206498D01*
X206105Y218349D01*
X175423Y221906D02*
X175030Y222300D01*
X174242D01*
X173849Y221906D01*
Y220332D01*
X174242Y219939D01*
X175030D01*
X175423Y220332D01*
X177785Y222300D02*
X176997Y221906D01*
X176210Y221119D01*
Y220332D01*
X176604Y219939D01*
X177391D01*
X177785Y220332D01*
Y220726D01*
X177391Y221119D01*
X176210D01*
X169991Y296802D02*
X169597Y297196D01*
X168810D01*
X168416Y296802D01*
Y295228D01*
X168810Y294834D01*
X169597D01*
X169991Y295228D01*
X171959Y294834D02*
Y297196D01*
X170778Y296015D01*
X172352D01*
X188282Y297026D02*
X187888Y297420D01*
X187101D01*
X186708Y297026D01*
Y295452D01*
X187101Y295058D01*
X187888D01*
X188282Y295452D01*
X189069Y297026D02*
X189463Y297420D01*
X190250D01*
X190644Y297026D01*
Y296633D01*
X190250Y296239D01*
X189856D01*
X190250D01*
X190644Y295846D01*
Y295452D01*
X190250Y295058D01*
X189463D01*
X189069Y295452D01*
X189751Y220800D02*
X189357Y221194D01*
X188570D01*
X188176Y220800D01*
Y219226D01*
X188570Y218832D01*
X189357D01*
X189751Y219226D01*
X192112Y218832D02*
X190538D01*
X192112Y220407D01*
Y220800D01*
X191719Y221194D01*
X190931D01*
X190538Y220800D01*
X157018Y217890D02*
X156624Y218284D01*
X155837D01*
X155444Y217890D01*
Y216316D01*
X155837Y215922D01*
X156624D01*
X157018Y216316D01*
X157805Y215922D02*
X158592D01*
X158199D01*
Y218284D01*
X157805Y217890D01*
D15*
X181416Y136819D02*
X177518Y130521D01*
X181716Y136819D02*
X177818Y130521D01*
Y136819D02*
X177518Y135020D01*
Y136819D01*
X181716D01*
X177518Y130521D02*
X181716D01*
Y132320D01*
X181416Y130521D01*
X182946Y132920D02*
X186545D01*
Y133520D01*
X186245Y134120D01*
X185945Y134420D01*
X185345Y134720D01*
X184445D01*
X183546Y134420D01*
X182946Y133820D01*
X182646Y132920D01*
Y132320D01*
X182946Y131421D01*
X183546Y130821D01*
X184445Y130521D01*
X185045D01*
X185945Y130821D01*
X186545Y131421D01*
X186245Y132920D02*
Y133820D01*
X185945Y134420D01*
X184445Y134720D02*
X183846Y134420D01*
X183246Y133820D01*
X182946Y132920D01*
Y132320D01*
X183246Y131421D01*
X183846Y130821D01*
X184445Y130521D01*
X188404Y134720D02*
Y130521D01*
X188704Y134720D02*
Y130521D01*
Y132920D02*
X189004Y133820D01*
X189604Y134420D01*
X190203Y134720D01*
X191103D01*
X191403Y134420D01*
Y134120D01*
X191103Y133820D01*
X190803Y134120D01*
X191103Y134420D01*
X187504Y134720D02*
X188704D01*
X187504Y130521D02*
X189604D01*
X194162Y134720D02*
X193262Y134420D01*
X192663Y133820D01*
X192363Y132920D01*
Y132320D01*
X192663Y131421D01*
X193262Y130821D01*
X194162Y130521D01*
X194762D01*
X195662Y130821D01*
X196261Y131421D01*
X196561Y132320D01*
Y132920D01*
X196261Y133820D01*
X195662Y134420D01*
X194762Y134720D01*
X194162D01*
X193562Y134420D01*
X192963Y133820D01*
X192663Y132920D01*
Y132320D01*
X192963Y131421D01*
X193562Y130821D01*
X194162Y130521D01*
X194762D02*
X195362Y130821D01*
X195961Y131421D01*
X196261Y132320D01*
Y132920D01*
X195961Y133820D01*
X195362Y134420D01*
X194762Y134720D01*
X207358Y135919D02*
X207658Y135020D01*
Y136819D01*
X207358Y135919D01*
X206758Y136519D01*
X205858Y136819D01*
X205258D01*
X204359Y136519D01*
X203759Y135919D01*
X203459Y135319D01*
X203159Y134420D01*
Y132920D01*
X203459Y132020D01*
X203759Y131421D01*
X204359Y130821D01*
X205258Y130521D01*
X205858D01*
X206758Y130821D01*
X207358Y131421D01*
X205258Y136819D02*
X204659Y136519D01*
X204059Y135919D01*
X203759Y135319D01*
X203459Y134420D01*
Y132920D01*
X203759Y132020D01*
X204059Y131421D01*
X204659Y130821D01*
X205258Y130521D01*
X207358Y132920D02*
Y130521D01*
X207658Y132920D02*
Y130521D01*
X206458Y132920D02*
X208557D01*
X210267Y134720D02*
Y130521D01*
X210566Y134720D02*
Y130521D01*
Y132920D02*
X210866Y133820D01*
X211466Y134420D01*
X212066Y134720D01*
X212966D01*
X213266Y134420D01*
Y134120D01*
X212966Y133820D01*
X212666Y134120D01*
X212966Y134420D01*
X209367Y134720D02*
X210566D01*
X209367Y130521D02*
X211466D01*
X214825Y134120D02*
Y133820D01*
X214525D01*
Y134120D01*
X214825Y134420D01*
X215425Y134720D01*
X216624D01*
X217224Y134420D01*
X217524Y134120D01*
X217824Y133520D01*
Y131421D01*
X218124Y130821D01*
X218424Y130521D01*
X217524Y134120D02*
Y131421D01*
X217824Y130821D01*
X218424Y130521D01*
X218724D01*
X217524Y133520D02*
X217224Y133220D01*
X215425Y132920D01*
X214525Y132620D01*
X214225Y132020D01*
Y131421D01*
X214525Y130821D01*
X215425Y130521D01*
X216325D01*
X216924Y130821D01*
X217524Y131421D01*
X215425Y132920D02*
X214825Y132620D01*
X214525Y132020D01*
Y131421D01*
X214825Y130821D01*
X215425Y130521D01*
X220223Y134720D02*
X222023Y130521D01*
X220523Y134720D02*
X222023Y131121D01*
X223822Y134720D02*
X222023Y130521D01*
X219623Y134720D02*
X221423D01*
X222622D02*
X224422D01*
X226191Y136819D02*
X225891Y136519D01*
X226191Y136219D01*
X226491Y136519D01*
X226191Y136819D01*
Y134720D02*
Y130521D01*
X226491Y134720D02*
Y130521D01*
X225291Y134720D02*
X226491D01*
X225291Y130521D02*
X227391D01*
X230330D02*
X230030Y130821D01*
X229730Y131721D01*
Y136819D01*
X229430D01*
Y131721D01*
X229730Y130821D01*
X230330Y130521D01*
X230930D01*
X231529Y130821D01*
X231829Y131421D01*
X228530Y134720D02*
X230930D01*
X233449D02*
X235248Y130521D01*
X233749Y134720D02*
X235248Y131121D01*
X237048Y134720D02*
X235248Y130521D01*
X234648Y129322D01*
X234049Y128722D01*
X233449Y128422D01*
X233149D01*
X232849Y128722D01*
X233149Y129022D01*
X233449Y128722D01*
X232849Y134720D02*
X234648D01*
X235848D02*
X237647D01*
D16*
X217230Y224408D02*
D03*
M02*
