G04*
G04 #@! TF.GenerationSoftware,Altium Limited,Altium Designer,23.3.1 (30)*
G04*
G04 Layer_Physical_Order=4*
G04 Layer_Color=16711680*
%FSLAX25Y25*%
%MOIN*%
G70*
G04*
G04 #@! TF.SameCoordinates,9E9A1B20-5B00-4279-B210-449FD35A5861*
G04*
G04*
G04 #@! TF.FilePolarity,Positive*
G04*
G01*
G75*
%ADD17R,0.04528X0.05709*%
%ADD50C,0.00591*%
%ADD52C,0.00591*%
%ADD53C,0.01181*%
%ADD55C,0.06496*%
%ADD56R,0.06496X0.06496*%
%ADD57C,0.15748*%
%ADD58R,0.06102X0.06102*%
%ADD59C,0.06102*%
%ADD60C,0.05000*%
%ADD61C,0.02362*%
%ADD62R,0.01575X0.01575*%
%ADD63R,0.03367X0.04969*%
%ADD64R,0.06004X0.02756*%
%ADD65R,0.03347X0.05315*%
%ADD66R,0.04545X0.05339*%
%ADD67R,0.04942X0.05756*%
%ADD68R,0.03740X0.05709*%
%ADD69R,0.04134X0.05709*%
D17*
X188714Y166529D02*
D03*
X181628D02*
D03*
X197617Y166569D02*
D03*
X204704D02*
D03*
X220533Y166464D02*
D03*
X213447D02*
D03*
X236451Y166399D02*
D03*
X229364D02*
D03*
X230355Y182470D02*
D03*
X237442D02*
D03*
X223501Y223498D02*
D03*
X216414D02*
D03*
X189205Y213446D02*
D03*
X182118D02*
D03*
D50*
X176777Y168301D02*
D03*
D52*
X173754Y249003D02*
G03*
X173705Y248955I3076J-3126D01*
G01*
X174914Y248558D02*
G03*
X174399Y248102I1916J-2681D01*
G01*
X174609Y170634D02*
G03*
X176777Y168238I-1046J-3125D01*
G01*
X205904Y254921D02*
Y266930D01*
X175996Y251246D02*
X202228D01*
X205904Y254921D01*
X173754Y249003D02*
X175996Y251246D01*
X204671Y248558D02*
X222518Y266405D01*
X174914Y248558D02*
X204671D01*
X204403Y268430D02*
X205904Y266930D01*
X222518Y266405D02*
Y272334D01*
X204403Y268430D02*
Y269480D01*
X169540Y244726D02*
X173705Y248955D01*
X171725Y238052D02*
X175486Y234291D01*
X171725Y238052D02*
Y242761D01*
X173311Y244347D01*
X169515Y242767D02*
X174399Y248102D01*
X169515Y238135D02*
Y242767D01*
Y238135D02*
X175264Y232386D01*
X173311Y244347D02*
X176369D01*
X176992Y244970D01*
X167263Y242449D02*
X169540Y244726D01*
X176570Y238900D02*
X179052Y241381D01*
X189784D01*
X176328Y238900D02*
X176570D01*
X189784Y241381D02*
X198774Y232392D01*
X198322Y231301D02*
X228480D01*
X191964Y237659D02*
X198322Y231301D01*
X198774Y232392D02*
X229204D01*
X182974Y237659D02*
X191964D01*
X193072Y234291D02*
X197152Y230211D01*
X175486Y234291D02*
X193072D01*
X191997Y232386D02*
X195263Y229120D01*
X175264Y232386D02*
X191997D01*
X167263Y237713D02*
X174584Y230392D01*
X192256D02*
X194763Y227885D01*
X174584Y230392D02*
X192256D01*
X197152Y230211D02*
X227521D01*
X195263Y229120D02*
X227070D01*
X194763Y227885D02*
X226142D01*
X167263Y237713D02*
Y242449D01*
X227070Y229120D02*
X230346Y225844D01*
Y211374D02*
Y225844D01*
X226877Y207905D02*
X230346Y211374D01*
X222307Y199877D02*
X226877Y204448D01*
Y207905D01*
X220683Y199877D02*
X222307D01*
Y204877D02*
X229255Y211826D01*
X226142Y227885D02*
X229255Y224772D01*
Y211826D02*
Y224772D01*
X192032Y228074D02*
X193820Y226286D01*
X186432Y228074D02*
X192032D01*
X228480Y231301D02*
X248684Y211097D01*
X229204Y232392D02*
X249774Y211821D01*
X227521Y230211D02*
X247480Y210252D01*
X248684Y171730D02*
Y211097D01*
X247480Y157933D02*
Y210252D01*
X185182Y221951D02*
Y226824D01*
X220683Y204877D02*
X222307D01*
X195173Y226286D02*
X197349Y224110D01*
X185182Y226824D02*
X186432Y228074D01*
X193820Y226286D02*
X195173D01*
X176070Y275771D02*
Y280320D01*
X175971Y280420D02*
X176070Y280320D01*
X172593Y280704D02*
X176139Y284249D01*
X172593Y273276D02*
Y280704D01*
X176070Y275771D02*
X176169Y275672D01*
X181464Y218233D02*
X185182Y221951D01*
X249774Y187041D02*
Y211821D01*
X189232Y223993D02*
Y224400D01*
X168417Y186826D02*
X174609Y180634D01*
Y170634D02*
Y180634D01*
X176777Y168301D02*
X176777Y168238D01*
X144744Y186826D02*
X168417D01*
X182696D01*
X186746Y168497D02*
Y169155D01*
X185632Y170268D02*
X186746Y169155D01*
Y168497D02*
X188714Y166529D01*
X178500Y170268D02*
X185632D01*
X176777Y168545D02*
X178500Y170268D01*
X176777Y168301D02*
X176777Y168545D01*
X134874Y176955D02*
X144744Y186826D01*
X188714Y166529D02*
X188959D01*
X189204D02*
X197578D01*
X134855Y208625D02*
X144463Y218233D01*
X181464D01*
X197349Y223703D02*
Y224110D01*
X134855Y223625D02*
X135630Y224400D01*
X181157D01*
X247480Y157933D02*
X259691Y145723D01*
X248684Y171730D02*
X259691Y160723D01*
X249774Y187041D02*
X259602Y177213D01*
X187526Y178327D02*
X191154D01*
X197705Y184877D01*
X197578Y166529D02*
X197617Y166569D01*
X187592Y198508D02*
X188970Y197130D01*
Y196146D02*
X189861Y195255D01*
X188970Y196146D02*
Y197130D01*
X189861Y195255D02*
X198951D01*
X199328Y194877D01*
X191408Y221817D02*
X191412D01*
X189232Y223993D02*
X191408Y221817D01*
X191412D02*
X192927Y220302D01*
X205424Y223703D02*
X205629Y223498D01*
X212620D01*
X216414D01*
X220473D02*
X223501D01*
X219740Y222765D02*
X220473Y223498D01*
X192927Y214655D02*
Y220302D01*
X204000Y214877D02*
X212620Y223498D01*
X219740Y220581D02*
Y222765D01*
X229678Y192952D02*
Y193753D01*
X231066Y195142D02*
X231399D01*
X229678Y192151D02*
Y192952D01*
Y193753D02*
X231066Y195142D01*
X220683Y184877D02*
X221765Y185960D01*
X183589Y179622D02*
X186040Y182074D01*
X182474Y192603D02*
Y196146D01*
Y192603D02*
X183863Y191214D01*
X184374D01*
X186040Y182074D02*
Y184848D01*
X188018Y187223D02*
X189995Y189200D01*
X186040Y184848D02*
X188018Y186826D01*
Y187223D01*
X184374Y191214D02*
X186040Y189548D01*
Y188803D02*
Y189548D01*
Y188803D02*
X188018Y186826D01*
X183589Y176752D02*
Y179622D01*
X182019Y203399D02*
Y204187D01*
Y203399D02*
X186911Y198508D01*
X237220Y200962D02*
Y201946D01*
X231399Y195142D02*
X237220Y200962D01*
X199328Y214877D02*
X204000D01*
X192927Y214655D02*
X197705Y209877D01*
X186911Y198508D02*
X187592D01*
X197705Y209877D02*
X199328D01*
X221765Y185960D02*
X223487D01*
X229678Y192151D01*
X189995Y189200D02*
X198651D01*
X199328Y189877D01*
Y209877D02*
X209037D01*
X219740Y220581D01*
X197705Y184877D02*
X199328D01*
D53*
X195480Y261723D02*
X200555Y256851D01*
X201609D01*
X179142D02*
X200555D01*
X153289Y230998D02*
X179142Y256851D01*
X201508Y255956D02*
X201609Y256851D01*
X200816Y255264D02*
X201508Y255956D01*
X195471Y261732D02*
X195480Y261723D01*
X188524Y268679D02*
X195471Y261732D01*
X157355Y246060D02*
X162491D01*
X148313Y255101D02*
X157355Y246060D01*
X131750Y230998D02*
X153289D01*
X216651Y300627D02*
X217684D01*
X218977Y299334D01*
X219036D01*
X218923Y151826D02*
X228538D01*
X243227Y166515D01*
X126668Y130915D02*
Y183749D01*
X118975Y123223D02*
X126668Y130915D01*
Y183749D02*
X134874Y191955D01*
X179545Y277658D02*
X188524Y268679D01*
X183232Y304623D02*
X212654D01*
X152304Y273695D02*
X183232Y304623D01*
X152304Y251497D02*
Y273695D01*
X157953Y272981D02*
X179545Y294573D01*
X134910Y255101D02*
X148313D01*
X179545Y294573D02*
X186005Y301033D01*
X179545Y277658D02*
Y294573D01*
X186005Y301033D02*
X198324D01*
X203037Y236457D02*
X203510Y235984D01*
X220483D01*
X236791Y252292D01*
X243227Y185102D02*
Y208025D01*
X236919Y214332D02*
Y214901D01*
Y214332D02*
X243227Y208025D01*
X236791Y241913D02*
Y252292D01*
Y241913D02*
X236934Y241769D01*
X180445Y211182D02*
X182118Y212856D01*
X168602Y211182D02*
X180445D01*
X149375Y191955D02*
X168602Y211182D01*
X182118Y212856D02*
Y213446D01*
X134874Y191955D02*
X149375D01*
X190878Y211182D02*
X191399D01*
X197705Y204877D02*
X199328D01*
X191399Y211182D02*
X197705Y204877D01*
X189205Y212856D02*
X190878Y211182D01*
X189205Y212856D02*
Y213446D01*
X161294Y140997D02*
X187697D01*
X202794Y156094D01*
X226736D01*
X236451Y165809D01*
Y166399D01*
X210952Y189877D02*
X219059D01*
X220683D01*
X215120Y185939D02*
X219059Y189877D01*
X215120Y168137D02*
Y185939D01*
X213447Y166464D02*
X215120Y168137D01*
X236178Y192151D02*
X243227Y185102D01*
Y166515D02*
Y185102D01*
X236178Y192151D02*
Y192952D01*
X235085Y191058D02*
X236178Y192151D01*
X204704Y166569D02*
X213342D01*
X201310Y162584D02*
X204704Y165978D01*
X184982Y162584D02*
X201310D01*
X181628Y165938D02*
X184982Y162584D01*
X181628Y165938D02*
Y166529D01*
X173563Y167509D02*
X173781D01*
X177926Y171654D01*
X181608D01*
X185131Y175177D01*
X187526D01*
X125832Y225080D02*
X131750Y230998D01*
X125832Y200997D02*
X134874Y191955D01*
X125832Y200997D02*
Y225080D01*
X200953Y199877D02*
X210952Y189877D01*
X189303Y204187D02*
X193395D01*
X213342Y166569D02*
X213447Y166464D01*
X220533D02*
X220598Y166399D01*
X229364D01*
X204704Y165978D02*
Y166569D01*
X199328Y199877D02*
X200953D01*
X197705D02*
X199328D01*
X193395Y204187D02*
X197705Y199877D01*
X225678Y193249D02*
Y197098D01*
X234318Y191058D02*
X235085D01*
X220533Y179728D02*
X220683Y179877D01*
X224900Y182470D02*
X230355D01*
X222307Y179877D02*
X224900Y182470D01*
X220683Y179877D02*
X222307D01*
X230355Y182470D02*
Y187096D01*
X182118Y212856D02*
X187827Y207147D01*
X220533Y166464D02*
Y179728D01*
X237442Y167390D02*
Y182470D01*
X236451Y166399D02*
X237442Y167390D01*
X197705Y179877D02*
X199328D01*
X193005Y175177D02*
X197705Y179877D01*
X187526Y175177D02*
X193005D01*
X229542Y200962D02*
Y201946D01*
X225678Y197098D02*
X229542Y200962D01*
X187827Y205663D02*
Y207147D01*
Y205663D02*
X189303Y204187D01*
X222307Y189877D02*
X225678Y193249D01*
X230355Y187096D02*
X234318Y191058D01*
X220683Y189877D02*
X222307D01*
X219036Y299334D02*
X236791Y281579D01*
Y265545D02*
Y281579D01*
X212654Y304623D02*
X216651Y300627D01*
X236791Y252292D02*
Y265426D01*
D55*
X134910Y240101D02*
D03*
X259602Y192213D02*
D03*
X134855Y208625D02*
D03*
X134874Y176955D02*
D03*
X259639Y223522D02*
D03*
X259503Y286800D02*
D03*
Y255098D02*
D03*
X259691Y160723D02*
D03*
X135066Y271644D02*
D03*
X134598Y145386D02*
D03*
D56*
X135066Y286644D02*
D03*
X259602Y177213D02*
D03*
X134855Y223625D02*
D03*
X134874Y191955D02*
D03*
X259639Y208522D02*
D03*
X259503Y271800D02*
D03*
Y240098D02*
D03*
X259691Y145723D02*
D03*
X134910Y255101D02*
D03*
X134598Y160386D02*
D03*
D57*
X118975Y123223D02*
D03*
X274005Y122283D02*
D03*
X119387Y309595D02*
D03*
X273759Y310090D02*
D03*
D58*
X161294Y140997D02*
D03*
D59*
Y150996D02*
D03*
Y160996D02*
D03*
Y170996D02*
D03*
Y180997D02*
D03*
Y190997D02*
D03*
D60*
X212148Y122047D02*
D03*
X201609Y256851D02*
D03*
X176992Y244970D02*
D03*
X176328Y238900D02*
D03*
X182974Y237659D02*
D03*
X162491Y246060D02*
D03*
X218923Y151826D02*
D03*
X204403Y269480D02*
D03*
X222518Y272334D02*
D03*
X157953Y272981D02*
D03*
X188524Y268679D02*
D03*
X203037Y236457D02*
D03*
X236919Y214901D02*
D03*
X236934Y241769D02*
D03*
X173563Y167509D02*
D03*
X198324Y301033D02*
D03*
X216651Y300627D02*
D03*
D61*
X175971Y280420D02*
D03*
X176139Y284249D02*
D03*
X176169Y275672D02*
D03*
X172593Y273276D02*
D03*
D62*
X183589Y176752D02*
D03*
X187526Y175177D02*
D03*
Y178327D02*
D03*
D63*
X229678Y192952D02*
D03*
X236178D02*
D03*
D64*
X199328Y179877D02*
D03*
Y184877D02*
D03*
Y189877D02*
D03*
Y194877D02*
D03*
Y199877D02*
D03*
Y204877D02*
D03*
Y209877D02*
D03*
Y214877D02*
D03*
X220683D02*
D03*
Y209877D02*
D03*
Y204877D02*
D03*
Y199877D02*
D03*
Y194877D02*
D03*
Y189877D02*
D03*
Y184877D02*
D03*
Y179877D02*
D03*
D65*
X188970Y196146D02*
D03*
X182474D02*
D03*
D66*
X188018Y186826D02*
D03*
X182696D02*
D03*
D67*
X205424Y223703D02*
D03*
X197349D02*
D03*
X189232Y224400D02*
D03*
X181157D02*
D03*
D68*
X229542Y201946D02*
D03*
X237220D02*
D03*
D69*
X189303Y204187D02*
D03*
X182019D02*
D03*
M02*
