M48
;Layer_Color=9474304
;FILE_FORMAT=2:4
INCH,LZ
;TYPE=PLATED
T1F00S00C0.0118
T2F00S00C0.0280
T3F00S00C0.0402
T4F00S00C0.0433
T5F00S00C0.1220
%
T01
X017259Y027328
X017617Y027567
X017597Y028042
X017614Y028425
T02
X021215Y012205
X021892Y015183
X017356Y016751
X017633Y02389
X017699Y024497
X018297Y023766
X020304Y023646
X020161Y025685
X02044Y026948
X018852Y026868
X015795Y027298
X016249Y024606
X023693Y024177
X023692Y02149
X022252Y027233
X021665Y030063
X019832Y030103
T03
X016129Y0141
Y0151
Y0161
Y0171
Y0181
Y0191
T04
X01346Y014539
X025969Y014572
Y016072
X02596Y017721
Y019221
X025964Y020852
Y022352
X02595Y02401
Y02551
Y02718
Y02868
X013507Y028664
Y027164
X013491Y02551
Y02401
X013485Y022362
Y020862
X013487Y019196
Y017696
X01346Y016039
T05
X011898Y012322
X0274Y012228
X027376Y031009
X011939Y03096
M30
