G04*
G04 #@! TF.GenerationSoftware,Altium Limited,Altium Designer,23.3.1 (30)*
G04*
G04 Layer_Color=8388736*
%FSLAX25Y25*%
%MOIN*%
G70*
G04*
G04 #@! TF.SameCoordinates,9E9A1B20-5B00-4279-B210-449FD35A5861*
G04*
G04*
G04 #@! TF.FilePolarity,Negative*
G04*
G01*
G75*
%ADD19R,0.04969X0.03367*%
%ADD21R,0.03740X0.05315*%
%ADD31R,0.05118X0.06299*%
%ADD32O,0.02953X0.08268*%
%ADD33O,0.08268X0.02953*%
%ADD34R,0.06299X0.05118*%
%ADD35R,0.04528X0.03347*%
%ADD36R,0.09055X0.11221*%
%ADD37R,0.22244X0.08465*%
%ADD38R,0.03347X0.05315*%
%ADD39R,0.06102X0.06890*%
%ADD40R,0.04528X0.06102*%
%ADD41R,0.05709X0.04921*%
%ADD42R,0.06693X0.05512*%
%ADD43C,0.07087*%
%ADD44R,0.07087X0.07087*%
%ADD45C,0.16339*%
%ADD46R,0.06693X0.06693*%
%ADD47C,0.06693*%
%ADD48C,0.05591*%
%ADD49C,0.02953*%
D19*
X167038Y260163D02*
D03*
X158488Y233082D02*
D03*
Y226582D02*
D03*
X167436Y242959D02*
D03*
Y249458D02*
D03*
X167038Y266663D02*
D03*
X166969Y279319D02*
D03*
Y272819D02*
D03*
D21*
X206164Y225636D02*
D03*
X200258D02*
D03*
X173915Y227628D02*
D03*
X168009D02*
D03*
D31*
X181106Y147869D02*
D03*
X188192D02*
D03*
X201913Y161290D02*
D03*
X209000D02*
D03*
X182601Y226013D02*
D03*
X189688D02*
D03*
X181125Y181731D02*
D03*
X188212D02*
D03*
X220490Y161319D02*
D03*
X227576D02*
D03*
X189132Y290239D02*
D03*
X196219D02*
D03*
X170341Y290515D02*
D03*
X177428D02*
D03*
D32*
X189073Y278093D02*
D03*
X185923D02*
D03*
X192223D02*
D03*
X195372D02*
D03*
X198522D02*
D03*
X201671D02*
D03*
X204821D02*
D03*
X207971D02*
D03*
Y244629D02*
D03*
X204821D02*
D03*
X201671D02*
D03*
X198522D02*
D03*
X195372D02*
D03*
X192223D02*
D03*
X189073D02*
D03*
X185923D02*
D03*
D33*
X180215Y272385D02*
D03*
Y250337D02*
D03*
Y253487D02*
D03*
Y256637D02*
D03*
Y259786D02*
D03*
Y262936D02*
D03*
Y266085D02*
D03*
Y269235D02*
D03*
X213679Y272385D02*
D03*
Y269235D02*
D03*
Y266085D02*
D03*
Y262936D02*
D03*
Y259786D02*
D03*
Y256637D02*
D03*
Y253487D02*
D03*
Y250337D02*
D03*
D34*
X161034Y205268D02*
D03*
Y212354D02*
D03*
D35*
X179341Y168782D02*
D03*
Y165042D02*
D03*
Y161302D02*
D03*
X187995D02*
D03*
Y165042D02*
D03*
Y168782D02*
D03*
D36*
X220394Y180544D02*
D03*
X201497D02*
D03*
D37*
X220701Y208000D02*
D03*
X183299D02*
D03*
D38*
X157300Y242380D02*
D03*
Y249073D02*
D03*
D39*
X236218Y250740D02*
D03*
Y279086D02*
D03*
X224407Y250740D02*
D03*
Y279086D02*
D03*
D40*
X216823Y290645D02*
D03*
X205799D02*
D03*
D41*
X217230Y227754D02*
D03*
Y236022D02*
D03*
D42*
X228469Y228028D02*
D03*
Y236099D02*
D03*
D43*
X134910Y240101D02*
D03*
X259602Y192213D02*
D03*
X134855Y208625D02*
D03*
X134874Y176955D02*
D03*
X259639Y223522D02*
D03*
X259503Y286800D02*
D03*
Y255098D02*
D03*
X259691Y160723D02*
D03*
X135066Y271644D02*
D03*
X134598Y145386D02*
D03*
D44*
X135066Y286644D02*
D03*
X259602Y177213D02*
D03*
X134855Y223625D02*
D03*
X134874Y191955D02*
D03*
X259639Y208522D02*
D03*
X259503Y271800D02*
D03*
Y240098D02*
D03*
X259691Y145723D02*
D03*
X134910Y255101D02*
D03*
X134598Y160386D02*
D03*
D45*
X118975Y123223D02*
D03*
X274005Y122283D02*
D03*
X119387Y309595D02*
D03*
X273759Y310090D02*
D03*
D46*
X161294Y140997D02*
D03*
D47*
Y150996D02*
D03*
Y160996D02*
D03*
Y170996D02*
D03*
Y180997D02*
D03*
Y190997D02*
D03*
D48*
X212148Y122047D02*
D03*
X201609Y256851D02*
D03*
X176992Y244970D02*
D03*
X176328Y238900D02*
D03*
X182974Y237659D02*
D03*
X162491Y246060D02*
D03*
X218923Y151826D02*
D03*
X204403Y269480D02*
D03*
X222518Y272334D02*
D03*
X157953Y272981D02*
D03*
X188524Y268679D02*
D03*
X203037Y236457D02*
D03*
X236919Y214901D02*
D03*
X236934Y241769D02*
D03*
X173563Y167509D02*
D03*
X198324Y301033D02*
D03*
X216651Y300627D02*
D03*
D49*
X175971Y280420D02*
D03*
X176139Y284249D02*
D03*
X176169Y275672D02*
D03*
X172593Y273276D02*
D03*
M02*
