G04*
G04 #@! TF.GenerationSoftware,Altium Limited,Altium Designer,23.3.1 (30)*
G04*
G04 Layer_Color=32768*
%FSLAX25Y25*%
%MOIN*%
G70*
G04*
G04 #@! TF.SameCoordinates,9E9A1B20-5B00-4279-B210-449FD35A5861*
G04*
G04*
G04 #@! TF.FilePolarity,Positive*
G04*
G01*
G75*
%ADD11C,0.00394*%
%ADD74C,0.00197*%
D11*
X185557Y174784D02*
Y178721D01*
X183589Y176752D02*
X187526D01*
X183754Y196146D02*
X187691D01*
X185722Y194177D02*
Y198114D01*
X183693Y204187D02*
X187630D01*
X185661Y202218D02*
Y206155D01*
X241098Y165796D02*
Y203631D01*
X277712D01*
Y165796D02*
Y203631D01*
X241098Y165796D02*
X277712D01*
X153359Y197207D02*
Y235042D01*
X116745Y197207D02*
X153359D01*
X116745D02*
Y235042D01*
X153359D01*
X153378Y165538D02*
Y203373D01*
X116764Y165538D02*
X153378D01*
X116764D02*
Y203373D01*
X153378D01*
X241136Y197105D02*
Y234940D01*
X277750D01*
Y197105D02*
Y234940D01*
X241136Y197105D02*
X277750D01*
X240999Y260383D02*
Y298217D01*
X277613D01*
Y260383D02*
Y298217D01*
X240999Y260383D02*
X277613D01*
X240999Y228681D02*
Y266515D01*
X277613D01*
Y228681D02*
Y266515D01*
X240999Y228681D02*
X277613D01*
X241187Y134306D02*
Y172140D01*
X277801D01*
Y134306D02*
Y172140D01*
X241187Y134306D02*
X277801D01*
X153570Y260227D02*
Y298061D01*
X116956Y260227D02*
X153570D01*
X116956D02*
Y298061D01*
X153570D01*
X153414Y228684D02*
Y266518D01*
X116800Y228684D02*
X153414D01*
X116800D02*
Y266518D01*
X153414D01*
X153102Y133969D02*
Y171804D01*
X116488Y133969D02*
X153102D01*
X116488D02*
Y171804D01*
X153102D01*
X193900Y155397D02*
Y174688D01*
X173435Y155397D02*
X193900D01*
X173435D02*
Y174688D01*
X193900D01*
X168535Y194614D02*
X235465D01*
X168535D02*
Y221386D01*
X235465D01*
Y194614D02*
Y221386D01*
X217517Y243653D02*
Y286173D01*
X243108D01*
Y243653D02*
Y286173D01*
X217517Y243653D02*
X243108D01*
X228469Y230095D02*
Y234032D01*
X226501Y232063D02*
X230438D01*
X194978Y261361D02*
X198916D01*
X196947Y259392D02*
Y263330D01*
D74*
X193606Y141471D02*
Y154267D01*
X175692D02*
X193606D01*
X175692Y141471D02*
Y154267D01*
Y141471D02*
X193606D01*
X196500Y167687D02*
X214413D01*
Y154892D02*
Y167687D01*
X196500Y154892D02*
X214413D01*
X196500D02*
Y167687D01*
X176214Y172926D02*
X194128D01*
X176214Y160131D02*
Y172926D01*
Y160131D02*
X194128D01*
Y172926D01*
X192204Y160171D02*
X210118D01*
Y172966D01*
X192204D02*
X210118D01*
X192204Y160171D02*
Y172966D01*
X208033Y172862D02*
X225947D01*
X208033Y160066D02*
Y172862D01*
Y160066D02*
X225947D01*
Y172862D01*
X223951Y172797D02*
X241864D01*
X223951Y160002D02*
Y172797D01*
Y160002D02*
X241864D01*
Y172797D01*
X224942Y176073D02*
X242855D01*
Y188868D01*
X224942D02*
X242855D01*
X224942Y176073D02*
Y188868D01*
X182407Y173799D02*
X188707D01*
Y179705D01*
X182407Y173799D02*
Y179705D01*
X188707D01*
X195340Y176511D02*
X224671D01*
Y218244D01*
X195340D02*
X224671D01*
X195340Y176511D02*
Y218244D01*
X191037Y192799D02*
Y199492D01*
X180407Y192799D02*
Y199492D01*
X191037D01*
X180407Y192799D02*
X191037D01*
X211001Y229895D02*
X228914D01*
X211001Y217100D02*
Y229895D01*
Y217100D02*
X228914D01*
Y229895D01*
X176705Y219844D02*
X194618D01*
X176705Y207049D02*
Y219844D01*
Y207049D02*
X194618D01*
Y219844D01*
X192354Y200250D02*
Y208124D01*
X178968Y200250D02*
Y208124D01*
X192354D01*
X178968Y200250D02*
X192354D01*
X195101Y219615D02*
Y232411D01*
X177188D02*
X195101D01*
X177188Y219615D02*
Y232411D01*
Y219615D02*
X195101D01*
X154636Y217768D02*
X167431D01*
X154636Y199854D02*
Y217768D01*
Y199854D02*
X167431D01*
Y217768D01*
X155408Y197630D02*
X167180D01*
Y134363D02*
Y197630D01*
X155408Y134363D02*
X167180D01*
X155408D02*
Y197630D01*
X193625Y175333D02*
Y188128D01*
X175712D02*
X193625D01*
X175712Y175333D02*
Y188128D01*
Y175333D02*
X193625D01*
X196280Y168930D02*
Y192159D01*
Y168930D02*
X225611D01*
Y192159D01*
X196280D02*
X225611D01*
X232990Y154921D02*
Y167717D01*
X215076D02*
X232990D01*
X215076Y154921D02*
Y167717D01*
Y154921D02*
X232990D01*
X154347Y239034D02*
Y252419D01*
X160253D01*
Y239034D02*
Y252419D01*
X154347Y239034D02*
X160253D01*
X183719Y296637D02*
X201632D01*
Y283842D02*
Y296637D01*
X183719Y283842D02*
X201632D01*
X183719D02*
Y296637D01*
X164928Y296913D02*
X182841D01*
Y284117D02*
Y296913D01*
X164928Y284117D02*
X182841D01*
X164928D02*
Y296913D01*
X223351Y223599D02*
X233588D01*
X223351Y240528D02*
X233588D01*
X223351Y223599D02*
Y240528D01*
X233588Y223599D02*
Y240528D01*
X219388Y238920D02*
Y283802D01*
X174506Y238920D02*
Y283802D01*
X219388D01*
X174506Y238920D02*
X219388D01*
M02*
