G04*
G04 #@! TF.GenerationSoftware,Altium Limited,Altium Designer,23.3.1 (30)*
G04*
G04 Layer_Color=8388736*
%FSLAX25Y25*%
%MOIN*%
G70*
G04*
G04 #@! TF.SameCoordinates,9E9A1B20-5B00-4279-B210-449FD35A5861*
G04*
G04*
G04 #@! TF.FilePolarity,Positive*
G04*
G01*
G75*
%ADD10C,0.00787*%
%ADD11C,0.00394*%
D10*
X198880Y222782D02*
X207542D01*
X198880D02*
Y228490D01*
X207542D01*
Y222782D02*
Y228490D01*
X156027Y225895D02*
X160948D01*
Y233769D01*
X156027D02*
X160948D01*
X156027Y225895D02*
Y233769D01*
X164976Y250146D02*
X169897D01*
X164976Y242271D02*
Y250146D01*
Y242271D02*
X169897D01*
Y250146D01*
X164577Y267350D02*
X169499D01*
X164577Y259476D02*
Y267350D01*
Y259476D02*
X169499D01*
Y267350D01*
X164509Y272132D02*
X169430D01*
Y280006D01*
X164509D02*
X169430D01*
X164509Y272132D02*
Y280006D01*
X166631Y224774D02*
Y230483D01*
Y224774D02*
X175293D01*
Y230483D01*
X166631D02*
X175293D01*
D11*
X205602Y295567D02*
X217020D01*
Y285724D02*
Y295567D01*
X205602Y285724D02*
X217020D01*
X205602D02*
Y295567D01*
M02*
