G04*
G04 #@! TF.GenerationSoftware,Altium Limited,Altium Designer,23.3.1 (30)*
G04*
G04 Layer_Color=32896*
%FSLAX25Y25*%
%MOIN*%
G70*
G04*
G04 #@! TF.SameCoordinates,9E9A1B20-5B00-4279-B210-449FD35A5861*
G04*
G04*
G04 #@! TF.FilePolarity,Positive*
G04*
G01*
G75*
%ADD10C,0.00787*%
%ADD11C,0.00394*%
%ADD13C,0.00984*%
D10*
X192257Y166529D02*
G03*
X192257Y166529I-197J0D01*
G01*
X194468Y166569D02*
G03*
X194468Y166569I-197J0D01*
G01*
X224077Y166464D02*
G03*
X224077Y166464I-197J0D01*
G01*
X239994Y166399D02*
G03*
X239994Y166399I-197J0D01*
G01*
X227206Y182470D02*
G03*
X227206Y182470I-197J0D01*
G01*
X227044Y223498D02*
G03*
X227044Y223498I-197J0D01*
G01*
X192748Y213446D02*
G03*
X192748Y213446I-197J0D01*
G01*
X183884Y179114D02*
Y179311D01*
Y174193D02*
Y174390D01*
Y174193D02*
X185175D01*
X183884Y179311D02*
X185175D01*
X227994Y197185D02*
X237861D01*
X227994Y188720D02*
X237861D01*
X203706Y177889D02*
X216305D01*
Y216866D01*
X203706D02*
X216305D01*
X203706Y177889D02*
Y216866D01*
X196325Y177121D02*
X202328D01*
X185328Y198410D02*
X186116D01*
X185328Y193882D02*
X186116D01*
X180423Y182396D02*
X190290D01*
X180423Y191255D02*
X190290D01*
X194878Y219250D02*
X207894D01*
X194878Y228156D02*
X207894D01*
X232889Y199190D02*
X233873D01*
X232889Y204702D02*
X233873D01*
X178686Y219947D02*
X191703D01*
X178686Y228853D02*
X191703D01*
X185267Y206647D02*
X186055D01*
X185267Y201726D02*
X186055D01*
D11*
X240187Y199229D02*
X242549D01*
Y200409D01*
X242155Y200803D01*
X241368D01*
X240974Y200409D01*
Y199229D01*
Y200016D02*
X240187Y200803D01*
Y201590D02*
Y202377D01*
Y201984D01*
X242549D01*
X242155Y201590D01*
X240187Y203558D02*
Y204345D01*
Y203952D01*
X242549D01*
X242155Y203558D01*
X232767Y172089D02*
X233161Y172482D01*
X233948D01*
X234341Y172089D01*
Y170515D01*
X233948Y170121D01*
X233161D01*
X232767Y170515D01*
X231980Y170121D02*
X231193D01*
X231586D01*
Y172482D01*
X231980Y172089D01*
X230012Y172482D02*
X228438D01*
Y172089D01*
X230012Y170515D01*
Y170121D01*
X215403Y172560D02*
X215796Y172954D01*
X216584D01*
X216977Y172560D01*
Y170986D01*
X216584Y170592D01*
X215796D01*
X215403Y170986D01*
X214616Y170592D02*
X213829D01*
X214222D01*
Y172954D01*
X214616Y172560D01*
X211074Y172954D02*
X211861Y172560D01*
X212648Y171773D01*
Y170986D01*
X212254Y170592D01*
X211467D01*
X211074Y170986D01*
Y171380D01*
X211467Y171773D01*
X212648D01*
X201024Y228464D02*
Y230826D01*
X199843D01*
X199449Y230432D01*
Y229645D01*
X199843Y229251D01*
X201024D01*
X200236D02*
X199449Y228464D01*
X198662D02*
X197875D01*
X198268D01*
Y230826D01*
X198662Y230432D01*
X196694D02*
X196301Y230826D01*
X195513D01*
X195120Y230432D01*
Y228858D01*
X195513Y228464D01*
X196301D01*
X196694Y228858D01*
Y230432D01*
X183143Y229017D02*
Y231379D01*
X181962D01*
X181569Y230985D01*
Y230198D01*
X181962Y229805D01*
X183143D01*
X182356D02*
X181569Y229017D01*
X180781Y229411D02*
X180388Y229017D01*
X179601D01*
X179207Y229411D01*
Y230985D01*
X179601Y231379D01*
X180388D01*
X180781Y230985D01*
Y230592D01*
X180388Y230198D01*
X179207D01*
X192353Y201772D02*
X194715D01*
Y202953D01*
X194321Y203346D01*
X193534D01*
X193141Y202953D01*
Y201772D01*
Y202559D02*
X192353Y203346D01*
X194321Y204134D02*
X194715Y204527D01*
Y205314D01*
X194321Y205708D01*
X193928D01*
X193534Y205314D01*
X193141Y205708D01*
X192747D01*
X192353Y205314D01*
Y204527D01*
X192747Y204134D01*
X193141D01*
X193534Y204527D01*
X193928Y204134D01*
X194321D01*
X193534Y204527D02*
Y205314D01*
X238852Y191333D02*
X241213D01*
Y192514D01*
X240819Y192908D01*
X240032D01*
X239639Y192514D01*
Y191333D01*
Y192121D02*
X238852Y192908D01*
X241213Y193695D02*
Y195269D01*
X240819D01*
X239245Y193695D01*
X238852D01*
X191684Y193830D02*
X194046D01*
Y195011D01*
X193652Y195405D01*
X192865D01*
X192471Y195011D01*
Y193830D01*
Y194617D02*
X191684Y195405D01*
X194046Y197766D02*
X193652Y196979D01*
X192865Y196192D01*
X192078D01*
X191684Y196585D01*
Y197372D01*
X192078Y197766D01*
X192471D01*
X192865Y197372D01*
Y196192D01*
X179171Y176876D02*
X180745D01*
X181139Y176482D01*
Y175695D01*
X180745Y175301D01*
X179171D01*
X178777Y175695D01*
Y176482D01*
X179564Y176089D02*
X178777Y176876D01*
Y176482D02*
X179171Y176876D01*
X178777Y177663D02*
Y178450D01*
Y178056D01*
X181139D01*
X180745Y177663D01*
X193555Y182319D02*
X191193D01*
Y183893D01*
X193161Y184680D02*
X193555Y185074D01*
Y185861D01*
X193161Y186255D01*
X192768D01*
X192374Y185861D01*
Y185468D01*
Y185861D01*
X191981Y186255D01*
X191587D01*
X191193Y185861D01*
Y185074D01*
X191587Y184680D01*
X206438Y174442D02*
X207225D01*
X206832D01*
Y176804D01*
X206438D01*
X207225D01*
X209980Y174836D02*
X209587Y174442D01*
X208799D01*
X208406Y174836D01*
Y176410D01*
X208799Y176804D01*
X209587D01*
X209980Y176410D01*
X212341Y176804D02*
X210767D01*
X212341Y175230D01*
Y174836D01*
X211948Y174442D01*
X211161D01*
X210767Y174836D01*
X219131Y229009D02*
X219525Y229403D01*
X220312D01*
X220705Y229009D01*
Y227435D01*
X220312Y227041D01*
X219525D01*
X219131Y227435D01*
X218344Y227041D02*
X217557D01*
X217950D01*
Y229403D01*
X218344Y229009D01*
X214802Y229403D02*
X216376D01*
Y228222D01*
X215589Y228616D01*
X215195D01*
X214802Y228222D01*
Y227435D01*
X215195Y227041D01*
X215982D01*
X216376Y227435D01*
X176551Y216272D02*
X176157Y216666D01*
Y217453D01*
X176551Y217846D01*
X178125D01*
X178519Y217453D01*
Y216666D01*
X178125Y216272D01*
X178519Y215485D02*
Y214698D01*
Y215091D01*
X176157D01*
X176551Y215485D01*
X178519Y212336D02*
X176157D01*
X177338Y213517D01*
Y211943D01*
X200317Y172560D02*
X200711Y172954D01*
X201498D01*
X201892Y172560D01*
Y170986D01*
X201498Y170592D01*
X200711D01*
X200317Y170986D01*
X199530Y170592D02*
X198743D01*
X199137D01*
Y172954D01*
X199530Y172560D01*
X197562D02*
X197169Y172954D01*
X196382D01*
X195988Y172560D01*
Y172167D01*
X196382Y171773D01*
X196775D01*
X196382D01*
X195988Y171380D01*
Y170986D01*
X196382Y170592D01*
X197169D01*
X197562Y170986D01*
X182151Y162408D02*
X182545Y162802D01*
X183332D01*
X183725Y162408D01*
Y160834D01*
X183332Y160440D01*
X182545D01*
X182151Y160834D01*
X181364Y160440D02*
X180577D01*
X180970D01*
Y162802D01*
X181364Y162408D01*
X177822Y160440D02*
X179396D01*
X177822Y162014D01*
Y162408D01*
X178215Y162802D01*
X179002D01*
X179396Y162408D01*
X242784Y182025D02*
X243177Y181631D01*
Y180844D01*
X242784Y180450D01*
X241209D01*
X240816Y180844D01*
Y181631D01*
X241209Y182025D01*
X240816Y182812D02*
Y183599D01*
Y183205D01*
X243177D01*
X242784Y182812D01*
X240816Y184780D02*
Y185567D01*
Y185173D01*
X243177D01*
X242784Y184780D01*
D13*
X188018Y181280D02*
G03*
X188018Y181280I-492J0D01*
G01*
M02*
