G04*
G04 #@! TF.GenerationSoftware,Altium Limited,Altium Designer,23.3.1 (30)*
G04*
G04 Layer_Color=2752767*
%FSLAX25Y25*%
%MOIN*%
G70*
G04*
G04 #@! TF.SameCoordinates,9E9A1B20-5B00-4279-B210-449FD35A5861*
G04*
G04*
G04 #@! TF.FilePolarity,Positive*
G04*
G01*
G75*
%ADD76C,0.00667*%
%ADD77C,0.00500*%
D76*
X136910Y240101D02*
G03*
X136910Y240101I-2000J0D01*
G01*
X137066Y286644D02*
G03*
X137066Y286644I-2000J0D01*
G01*
X261602Y177213D02*
G03*
X261602Y177213I-2000J0D01*
G01*
Y192213D02*
G03*
X261602Y192213I-2000J0D01*
G01*
X136855Y223625D02*
G03*
X136855Y223625I-2000J0D01*
G01*
Y208625D02*
G03*
X136855Y208625I-2000J0D01*
G01*
X136874Y191955D02*
G03*
X136874Y191955I-2000J0D01*
G01*
Y176955D02*
G03*
X136874Y176955I-2000J0D01*
G01*
X261639Y208522D02*
G03*
X261639Y208522I-2000J0D01*
G01*
Y223522D02*
G03*
X261639Y223522I-2000J0D01*
G01*
X261503Y271800D02*
G03*
X261503Y271800I-2000J0D01*
G01*
Y286800D02*
G03*
X261503Y286800I-2000J0D01*
G01*
Y240098D02*
G03*
X261503Y240098I-2000J0D01*
G01*
Y255098D02*
G03*
X261503Y255098I-2000J0D01*
G01*
X261691Y145723D02*
G03*
X261691Y145723I-2000J0D01*
G01*
Y160723D02*
G03*
X261691Y160723I-2000J0D01*
G01*
X137066Y271644D02*
G03*
X137066Y271644I-2000J0D01*
G01*
X136910Y255101D02*
G03*
X136910Y255101I-2000J0D01*
G01*
X136598Y160386D02*
G03*
X136598Y160386I-2000J0D01*
G01*
Y145386D02*
G03*
X136598Y145386I-2000J0D01*
G01*
D77*
X118975Y121223D02*
X119975Y122223D01*
X120975D01*
X119975Y123223D01*
X120975Y124223D01*
X119975D01*
X118975Y125223D01*
X117975Y124223D01*
X116975D01*
X117975Y123223D01*
X116975Y122223D01*
X117975D01*
X118975Y121223D01*
X274005Y120282D02*
X275005Y121282D01*
X276005D01*
X275005Y122283D01*
X276005Y123283D01*
X275005D01*
X274005Y124283D01*
X273005Y123283D01*
X272005D01*
X273005Y122283D01*
X272005Y121282D01*
X273005D01*
X274005Y120282D01*
X119387Y307595D02*
X120387Y308595D01*
X121388D01*
X120387Y309595D01*
X121388Y310595D01*
X120387D01*
X119387Y311595D01*
X118387Y310595D01*
X117387D01*
X118387Y309595D01*
X117387Y308595D01*
X118387D01*
X119387Y307595D01*
X273759Y308090D02*
X274759Y309090D01*
X275759D01*
X274759Y310090D01*
X275759Y311090D01*
X274759D01*
X273759Y312090D01*
X272759Y311090D01*
X271759D01*
X272759Y310090D01*
X271759Y309090D01*
X272759D01*
X273759Y308090D01*
X159294Y138997D02*
Y142997D01*
X163294D01*
Y138997D01*
X159294D01*
Y148996D02*
Y152997D01*
X163294D01*
Y148996D01*
X159294D01*
Y158996D02*
Y162996D01*
X163294D01*
Y158996D01*
X159294D01*
Y168997D02*
Y172996D01*
X163294D01*
Y168997D01*
X159294D01*
Y178997D02*
Y182996D01*
X163294D01*
Y178997D01*
X159294D01*
Y188997D02*
Y192997D01*
X163294D01*
Y188997D01*
X159294D01*
X210148Y120047D02*
X211148Y122047D01*
X210148Y124047D01*
X212148Y123047D01*
X214148Y124047D01*
X213148Y122047D01*
X214148Y120047D01*
X212148Y121047D01*
X210148Y120047D01*
X199609Y254851D02*
X200609Y256851D01*
X199609Y258851D01*
X201609Y257851D01*
X203609Y258851D01*
X202609Y256851D01*
X203609Y254851D01*
X201609Y255851D01*
X199609Y254851D01*
X174992Y242970D02*
X175992Y244970D01*
X174992Y246971D01*
X176992Y245971D01*
X178992Y246971D01*
X177992Y244970D01*
X178992Y242970D01*
X176992Y243970D01*
X174992Y242970D01*
X174328Y236900D02*
X175328Y238900D01*
X174328Y240900D01*
X176328Y239900D01*
X178328Y240900D01*
X177328Y238900D01*
X178328Y236900D01*
X176328Y237900D01*
X174328Y236900D01*
X180974Y235659D02*
X181974Y237659D01*
X180974Y239659D01*
X182974Y238659D01*
X184974Y239659D01*
X183974Y237659D01*
X184974Y235659D01*
X182974Y236659D01*
X180974Y235659D01*
X160491Y244060D02*
X161491Y246060D01*
X160491Y248060D01*
X162491Y247060D01*
X164491Y248060D01*
X163491Y246060D01*
X164491Y244060D01*
X162491Y245060D01*
X160491Y244060D01*
X216923Y149826D02*
X217923Y151826D01*
X216923Y153826D01*
X218923Y152826D01*
X220923Y153826D01*
X219923Y151826D01*
X220923Y149826D01*
X218923Y150826D01*
X216923Y149826D01*
X202403Y267480D02*
X203403Y269480D01*
X202403Y271480D01*
X204403Y270480D01*
X206403Y271480D01*
X205403Y269480D01*
X206403Y267480D01*
X204403Y268480D01*
X202403Y267480D01*
X220518Y270334D02*
X221518Y272334D01*
X220518Y274334D01*
X222518Y273334D01*
X224518Y274334D01*
X223518Y272334D01*
X224518Y270334D01*
X222518Y271334D01*
X220518Y270334D01*
X155953Y270981D02*
X156953Y272981D01*
X155953Y274981D01*
X157953Y273981D01*
X159953Y274981D01*
X158953Y272981D01*
X159953Y270981D01*
X157953Y271981D01*
X155953Y270981D01*
X175971Y278420D02*
X173971Y282420D01*
X177971D01*
X175971Y278420D01*
X176139Y282249D02*
X174139Y286249D01*
X178139D01*
X176139Y282249D01*
X176169Y273672D02*
X174169Y277672D01*
X178169D01*
X176169Y273672D01*
X186524Y266679D02*
X187524Y268679D01*
X186524Y270679D01*
X188524Y269679D01*
X190524Y270679D01*
X189524Y268679D01*
X190524Y266679D01*
X188524Y267679D01*
X186524Y266679D01*
X201037Y234457D02*
X202037Y236457D01*
X201037Y238457D01*
X203037Y237457D01*
X205037Y238457D01*
X204037Y236457D01*
X205037Y234457D01*
X203037Y235457D01*
X201037Y234457D01*
X234920Y212901D02*
X235919Y214901D01*
X234920Y216901D01*
X236919Y215901D01*
X238919Y216901D01*
X237919Y214901D01*
X238919Y212901D01*
X236919Y213901D01*
X234920Y212901D01*
X234934Y239769D02*
X235934Y241769D01*
X234934Y243769D01*
X236934Y242769D01*
X238934Y243769D01*
X237934Y241769D01*
X238934Y239769D01*
X236934Y240769D01*
X234934Y239769D01*
X171563Y165509D02*
X172563Y167509D01*
X171563Y169509D01*
X173563Y168509D01*
X175563Y169509D01*
X174563Y167509D01*
X175563Y165509D01*
X173563Y166509D01*
X171563Y165509D01*
X172593Y271276D02*
X170593Y275276D01*
X174593D01*
X172593Y271276D01*
X196324Y299033D02*
X197324Y301033D01*
X196324Y303033D01*
X198324Y302033D01*
X200324Y303033D01*
X199324Y301033D01*
X200324Y299033D01*
X198324Y300033D01*
X196324Y299033D01*
X214651Y298627D02*
X215651Y300627D01*
X214651Y302627D01*
X216651Y301627D01*
X218651Y302627D01*
X217651Y300627D01*
X218651Y298627D01*
X216651Y299627D01*
X214651Y298627D01*
M02*
