G04*
G04 #@! TF.GenerationSoftware,Altium Limited,Altium Designer,23.3.1 (30)*
G04*
G04 Layer_Physical_Order=1*
G04 Layer_Color=255*
%FSLAX25Y25*%
%MOIN*%
G70*
G04*
G04 #@! TF.SameCoordinates,9E9A1B20-5B00-4279-B210-449FD35A5861*
G04*
G04*
G04 #@! TF.FilePolarity,Positive*
G04*
G01*
G75*
%ADD17R,0.04528X0.05709*%
%ADD18O,0.02362X0.07677*%
%ADD19R,0.04969X0.03367*%
%ADD20O,0.07677X0.02362*%
%ADD21R,0.03740X0.05315*%
%ADD22R,0.05709X0.04528*%
%ADD23R,0.03937X0.02756*%
%ADD24R,0.08465X0.10630*%
%ADD25R,0.21654X0.07874*%
%ADD26R,0.02756X0.04724*%
%ADD27R,0.05512X0.06299*%
%ADD28R,0.03937X0.05512*%
%ADD29R,0.05118X0.04331*%
%ADD30R,0.06102X0.04921*%
%ADD50C,0.00591*%
%ADD51C,0.02756*%
%ADD52C,0.00591*%
%ADD53C,0.01181*%
%ADD54C,0.01968*%
%ADD55C,0.06496*%
%ADD56R,0.06496X0.06496*%
%ADD57C,0.15748*%
%ADD58R,0.06102X0.06102*%
%ADD59C,0.06102*%
%ADD60C,0.05000*%
%ADD61C,0.02362*%
D17*
X181106Y147869D02*
D03*
X188192D02*
D03*
X201913Y161290D02*
D03*
X209000D02*
D03*
X182601Y226013D02*
D03*
X189688D02*
D03*
X181125Y181731D02*
D03*
X188212D02*
D03*
X220490Y161319D02*
D03*
X227576D02*
D03*
X189132Y290239D02*
D03*
X196219D02*
D03*
X170341Y290515D02*
D03*
X177428D02*
D03*
D18*
X189073Y278093D02*
D03*
X185923D02*
D03*
X192223D02*
D03*
X195372D02*
D03*
X198522D02*
D03*
X201671D02*
D03*
X204821D02*
D03*
X207971D02*
D03*
Y244629D02*
D03*
X204821D02*
D03*
X201671D02*
D03*
X198522D02*
D03*
X195372D02*
D03*
X192223D02*
D03*
X189073D02*
D03*
X185923D02*
D03*
D19*
X167038Y260163D02*
D03*
X158488Y233082D02*
D03*
Y226582D02*
D03*
X167436Y242959D02*
D03*
Y249458D02*
D03*
X167038Y266663D02*
D03*
X166969Y279319D02*
D03*
Y272819D02*
D03*
D20*
X180215Y272385D02*
D03*
Y250337D02*
D03*
Y253487D02*
D03*
Y256637D02*
D03*
Y259786D02*
D03*
Y262936D02*
D03*
Y266085D02*
D03*
Y269235D02*
D03*
X213679Y272385D02*
D03*
Y269235D02*
D03*
Y266085D02*
D03*
Y262936D02*
D03*
Y259786D02*
D03*
Y256637D02*
D03*
Y253487D02*
D03*
Y250337D02*
D03*
D21*
X206164Y225636D02*
D03*
X200258D02*
D03*
X173915Y227628D02*
D03*
X168009D02*
D03*
D22*
X161034Y205268D02*
D03*
Y212354D02*
D03*
D23*
X179341Y168782D02*
D03*
Y165042D02*
D03*
Y161302D02*
D03*
X187995D02*
D03*
Y165042D02*
D03*
Y168782D02*
D03*
D24*
X220394Y180544D02*
D03*
X201497D02*
D03*
D25*
X220701Y208000D02*
D03*
X183299D02*
D03*
D26*
X157300Y242380D02*
D03*
Y249073D02*
D03*
D27*
X236218Y250740D02*
D03*
Y279086D02*
D03*
X224407Y250740D02*
D03*
Y279086D02*
D03*
D28*
X216823Y290645D02*
D03*
X205799D02*
D03*
D29*
X217230Y227754D02*
D03*
Y236022D02*
D03*
D30*
X228469Y228028D02*
D03*
Y236099D02*
D03*
D50*
X184779Y249155D02*
D03*
D51*
X239681Y122859D02*
G03*
X239691Y122859I0J2756D01*
G01*
X187995Y161302D02*
X188044Y161253D01*
X201678D01*
X272016Y123118D02*
X273156D01*
X273960Y122326D01*
X274005Y122283D01*
X220037Y141361D02*
X237733Y123666D01*
X238540Y122859D01*
X239681Y122859D01*
X239691Y122859D02*
X272016Y123118D01*
X220037Y141361D02*
X227576Y148901D01*
Y161319D01*
X202613Y158785D02*
X220037Y141361D01*
X161294Y140997D02*
X161842Y140448D01*
X157494Y144797D02*
X161294Y140997D01*
X201678Y161253D02*
X202613Y160317D01*
X187404Y159760D02*
Y161302D01*
X202613Y158785D02*
Y160317D01*
X189688Y226013D02*
X190226Y225475D01*
X188802Y226899D02*
X189688Y226013D01*
X188802Y226899D02*
Y227586D01*
X173915Y228416D02*
X174407Y228908D01*
X173915Y227628D02*
Y228416D01*
X187404Y161302D02*
X187995D01*
X187331Y148730D02*
X188192Y147869D01*
X187331Y159688D02*
X187404Y159760D01*
X187331Y148730D02*
Y159688D01*
X187306Y146983D02*
X188192Y147869D01*
X183135Y140448D02*
X187306Y144619D01*
Y146983D01*
X161842Y140448D02*
X183135D01*
X134598Y145386D02*
X135187Y144797D01*
X157494D01*
X134598Y138845D02*
Y145386D01*
X139058Y155926D02*
X173640D01*
X134598Y160386D02*
X139058Y155926D01*
X173640D02*
X179341Y150224D01*
X118975Y123223D02*
X134598Y138845D01*
X179341Y161302D02*
Y165042D01*
Y150224D02*
Y161302D01*
Y150224D02*
X181106Y148459D01*
Y147869D02*
Y148459D01*
D52*
X222412Y269040D02*
G03*
X222551Y269039I106J3294D01*
G01*
X185904Y263172D02*
X202196D01*
X209045Y256323D01*
X176150Y259451D02*
X182183D01*
X185904Y263172D01*
X192553Y264650D02*
X204233D01*
X188524Y268679D02*
X192553Y264650D01*
X204233D02*
X208216Y268633D01*
X209045Y249006D02*
Y256323D01*
X184779Y249155D02*
X184952Y249328D01*
X184755Y249130D02*
X184779Y249155D01*
X184952Y249328D02*
X187223D01*
X177522Y239939D02*
X184755Y249130D01*
X176484Y238900D02*
X177522Y239939D01*
X176992Y244970D02*
X177422Y245401D01*
Y249519D01*
X176328Y238900D02*
X176484D01*
X177422Y249519D02*
X178241Y250337D01*
X180215D01*
X185584Y240269D02*
Y244290D01*
X185923Y244629D01*
X182974Y237659D02*
X185584Y240269D01*
X167611Y236625D02*
X169311D01*
X172215Y239528D01*
Y249720D01*
X168756Y237949D02*
X171108Y240301D01*
X167393Y237949D02*
X168756D01*
X171108Y240301D02*
Y250187D01*
X177557Y256637D01*
X164615Y216558D02*
Y233629D01*
X163524Y234080D02*
X167393Y237949D01*
X163524Y216107D02*
Y234080D01*
X164615Y233629D02*
X167611Y236625D01*
X172215Y249720D02*
X175899Y253404D01*
X187223Y249328D02*
X188734Y247817D01*
Y244968D02*
X189073Y244629D01*
X188734Y244968D02*
Y247817D01*
X213705Y272359D02*
X222492D01*
X222518Y272334D01*
X213679Y272385D02*
X213705Y272359D01*
X205247Y270324D02*
Y272712D01*
X207971Y275436D02*
Y278093D01*
X205247Y272712D02*
X207971Y275436D01*
X204403Y269480D02*
X205247Y270324D01*
X208216Y268633D02*
Y272486D01*
X211962Y276232D01*
X221947D01*
X242111Y269408D02*
X259503Y286800D01*
X222551Y269039D02*
X241938Y269235D01*
X213679Y269235D02*
X216337D01*
X222412Y269040D01*
X241938Y269235D02*
X242111Y269408D01*
X221947Y276232D02*
X224407Y278693D01*
X176139Y284249D02*
X176283Y284105D01*
X186239D01*
X169746Y286644D02*
X175971Y280420D01*
X135066Y286644D02*
X169746D01*
X167701Y279319D02*
X168927Y278093D01*
X177736Y272686D02*
X178037Y272385D01*
X168927Y278093D02*
X185923D01*
X176169Y275672D02*
X177736Y274106D01*
Y272686D02*
Y274106D01*
X205568Y231958D02*
X207546Y233936D01*
X189649Y231958D02*
X205568D01*
X188624Y232982D02*
X189649Y231958D01*
X152136Y238632D02*
X157687Y233082D01*
X156030Y247006D02*
X156937D01*
X153956Y239155D02*
X157005Y236106D01*
X153956Y244933D02*
X156030Y247006D01*
X153956Y239155D02*
Y244933D01*
X152136Y238632D02*
Y250064D01*
X158920Y256847D01*
X157005Y236106D02*
X161544D01*
X157687Y233082D02*
X158488D01*
X177557Y272385D02*
X178037D01*
X134910Y240101D02*
X154972Y260163D01*
X167038D01*
X168334Y261459D01*
X169981D02*
X172746Y264224D01*
X168334Y261459D02*
X169981D01*
X172593Y273276D02*
X172746Y273123D01*
Y264224D02*
Y273123D01*
X188795Y278371D02*
X189073Y278093D01*
X188795Y278371D02*
Y281532D01*
X188468Y281860D02*
X188795Y281532D01*
X186239Y284105D02*
X188468Y281876D01*
Y281860D02*
Y281876D01*
X170977Y256847D02*
X174519Y260389D01*
X158920Y256847D02*
X170977D01*
X174519Y269346D02*
X177557Y272385D01*
X174519Y260389D02*
Y269346D01*
X178037Y272385D02*
X180215D01*
X158176Y279319D02*
X167701D01*
X252433Y199382D02*
Y241972D01*
Y199382D02*
X259602Y192213D01*
X257784Y210378D02*
Y212310D01*
X253938Y216157D02*
Y242428D01*
Y216157D02*
X257784Y212310D01*
Y210378D02*
X259639Y208522D01*
X255324Y228865D02*
X259639Y224549D01*
X255324Y228865D02*
Y242976D01*
X259639Y223522D02*
Y224549D01*
X213679Y262936D02*
X251665D01*
X259503Y255098D01*
X261132Y273429D02*
Y274138D01*
X255283Y267580D02*
X261132Y273429D01*
X217477Y267580D02*
X255283D01*
X158383Y251140D02*
X158444D01*
X158347Y251104D02*
X158383Y251140D01*
X162589Y255284D02*
X171983D01*
X158347Y249516D02*
Y251104D01*
X158444Y251140D02*
X162589Y255284D01*
X156937Y247006D02*
X158000Y248070D01*
X161544Y236106D02*
X162434Y235217D01*
X169713Y229990D02*
X172705Y232982D01*
X188624D01*
X158000Y248070D02*
Y249054D01*
X163524Y216107D02*
X165787Y213843D01*
X162434Y213754D02*
Y235217D01*
X164615Y216558D02*
X166878Y214295D01*
X161034Y212354D02*
X162434Y213754D01*
X207546Y233936D02*
Y238851D01*
X169584Y229990D02*
X169713D01*
X168009Y228416D02*
X169584Y229990D01*
X168009Y227628D02*
Y228416D01*
X167394Y226968D02*
X168032Y227606D01*
X212041Y223110D02*
Y240559D01*
X207971Y244629D02*
X212041Y240559D01*
X209514Y225636D02*
X212041Y223110D01*
X220701Y214450D01*
X206164Y225636D02*
X209514D01*
X220701Y208000D02*
Y214391D01*
X150501Y271644D02*
X158176Y279319D01*
X135066Y271644D02*
X150501D01*
X165787Y189171D02*
Y213843D01*
X162613Y185996D02*
X165787Y189171D01*
X216651Y290817D02*
X216823Y290645D01*
X224407Y278693D02*
Y279086D01*
X204821Y241576D02*
X207546Y238851D01*
X204821Y241576D02*
Y244629D01*
X180131Y253404D02*
X180215Y253487D01*
X175899Y253404D02*
X180131D01*
X213490Y244527D02*
X230687D01*
X209947Y248070D02*
X213490Y244527D01*
X209045Y249006D02*
X209947Y248105D01*
Y248070D02*
Y248105D01*
X215982Y266085D02*
X217477Y267580D01*
X213679Y266085D02*
X215982D01*
X213679Y259786D02*
X240410D01*
X260716Y242852D02*
X261132Y242437D01*
X257344Y242852D02*
X260716D01*
X240410Y259786D02*
X257344Y242852D01*
X238423Y255982D02*
X252433Y241972D01*
X238984Y257382D02*
X253938Y242428D01*
X239699Y258601D02*
X255324Y242976D01*
X215982Y250337D02*
X221627Y255982D01*
X213679Y250337D02*
X215982D01*
X221627Y255982D02*
X238423D01*
X213679Y256637D02*
X218263D01*
X220227Y258601D01*
X239699D01*
X217747Y253818D02*
X221311Y257382D01*
X238984D01*
X213679Y253487D02*
X214011Y253818D01*
X217747D01*
X166878Y186580D02*
Y214295D01*
X161294Y180997D02*
X166878Y186580D01*
X156405Y175885D02*
X161294Y170996D01*
X156405Y182764D02*
X159637Y185996D01*
X156405Y175885D02*
Y182764D01*
X159637Y185996D02*
X162613D01*
X177557Y256637D02*
X180215D01*
X157300Y249188D02*
X157647Y249535D01*
X161034Y205268D02*
X161294Y205007D01*
Y190997D02*
Y205007D01*
X158405Y249458D02*
X167436D01*
X171983Y255284D02*
X176150Y259451D01*
X230687Y244527D02*
X233758Y247598D01*
Y248279D01*
X236218Y250740D01*
X180288Y211011D02*
Y214073D01*
X167394Y226968D02*
X180288Y214073D01*
Y211011D02*
X183299Y208000D01*
X217230Y236022D02*
X228393D01*
X228469Y236099D01*
D53*
X192223Y250232D02*
X200457Y256920D01*
X200937D02*
X200998Y256914D01*
X201609Y256851D01*
X192223Y244629D02*
Y250232D01*
X200457Y256920D02*
X200937D01*
X195372Y244629D02*
X195476Y244733D01*
Y248996D01*
X196723Y250243D01*
X199956D01*
X157300Y243364D02*
X159265Y245329D01*
X161760D01*
X157300Y242380D02*
Y243364D01*
X161760Y245329D02*
X162491Y246060D01*
X163221Y245329D01*
X164265D01*
X166636Y242959D01*
X167436D01*
X203037Y236457D02*
Y237490D01*
X201671Y238856D02*
X203037Y237490D01*
X217987Y151826D02*
X218923D01*
X208947Y160866D02*
X217987Y151826D01*
X235421Y169164D02*
Y210354D01*
X188524Y268679D02*
X188691D01*
X194249Y274237D01*
X194494Y274649D02*
X195372Y275527D01*
X201671Y238856D02*
Y244177D01*
X201445Y244855D02*
X201897Y244403D01*
X201671Y244177D02*
X201897Y244403D01*
X201445Y244855D02*
Y248753D01*
X199956Y250243D02*
X201445Y248753D01*
X158103Y272900D02*
X166888D01*
X166969Y272819D01*
X228469Y223752D02*
Y228028D01*
X236919Y214901D02*
Y215302D01*
X228469Y223752D02*
X236919Y215302D01*
X228469Y228028D02*
X229060D01*
X236412Y235971D02*
Y241247D01*
X236934Y241769D01*
X230930Y230488D02*
X236412Y235971D01*
X229060Y228028D02*
X230930Y229898D01*
Y230488D01*
X229249Y163583D02*
X229840D01*
X235421Y169164D01*
X227576Y161319D02*
Y161909D01*
X229249Y163583D01*
X193844Y285491D02*
X198522Y280814D01*
X181835Y285491D02*
X193844D01*
X179101Y288226D02*
X181835Y285491D01*
X134874Y191955D02*
X137532Y194613D01*
X133631Y190712D02*
X134874Y191955D01*
X133631Y190570D02*
Y190712D01*
X137532Y194613D02*
X137674D01*
X152201Y209140D02*
Y221096D01*
X137674Y194613D02*
X152201Y209140D01*
X189688Y226013D02*
Y226702D01*
X189589D02*
X189688D01*
X188014Y228277D02*
X189589Y226702D01*
X176808Y231309D02*
X185081D01*
X188014Y228277D02*
Y228376D01*
X185081Y231309D02*
X188014Y228376D01*
X174407Y228908D02*
X176808Y231309D01*
X189720Y222308D02*
Y225475D01*
X220490Y161319D02*
Y161909D01*
X189720Y222308D02*
X235320Y176708D01*
X184274Y223576D02*
Y224340D01*
Y223576D02*
X217186Y190664D01*
Y183753D02*
Y190664D01*
X182601Y226013D02*
X184274Y224340D01*
X219596Y226180D02*
X235421Y210354D01*
X218804Y226180D02*
X219596D01*
X217230Y227754D02*
X218804Y226180D01*
X189132Y290830D02*
X198324Y300021D01*
Y301033D01*
X189132Y290239D02*
Y290830D01*
X216651Y290817D02*
Y300627D01*
X197092Y238911D02*
X198430Y240249D01*
X193754Y238911D02*
X197092D01*
X198430Y244537D02*
X198522Y244629D01*
X198430Y240249D02*
Y244537D01*
X192449Y240216D02*
X193754Y238911D01*
X242926Y310094D02*
X273759Y310090D01*
X224407Y279086D02*
Y291576D01*
X242926Y310094D01*
X192449Y240216D02*
Y244403D01*
X192223Y244629D02*
X192449Y244403D01*
X152201Y221096D02*
X157687Y226582D01*
X158488D01*
X204821Y278093D02*
Y281070D01*
X205799Y282049D02*
Y290645D01*
X204821Y281070D02*
X205799Y282049D01*
X196422Y290442D02*
X205596D01*
X160178Y290515D02*
X170341D01*
X141098Y309595D02*
X160178Y290515D01*
X119387Y309595D02*
X141098D01*
X170341Y291105D02*
X175062Y295826D01*
X184152D01*
X187853Y292126D01*
Y291519D02*
Y292126D01*
Y291519D02*
X189132Y290239D01*
X170341Y290515D02*
Y291105D01*
X179101Y288226D02*
Y288842D01*
X177428Y290515D02*
X179101Y288842D01*
X198522Y278093D02*
Y280814D01*
D54*
X173563Y167509D02*
X174384D01*
X175263Y168389D01*
X178357D01*
X173428Y174105D02*
X178750Y168782D01*
X178357Y168389D02*
X178750Y168782D01*
X179341D01*
X220490Y161909D02*
Y180449D01*
X190226Y225475D02*
X199101D01*
X194232Y168843D02*
Y177742D01*
X190824Y165436D02*
X194232Y168843D01*
X190243Y181731D02*
X194232Y177742D01*
X188388Y165436D02*
X190824D01*
X188212Y181731D02*
X190243D01*
X200311D01*
X187995Y165042D02*
X188388Y165436D01*
X207760Y192189D02*
X216691Y183258D01*
X173428Y183360D02*
X182257Y192189D01*
X207760D01*
X173428Y174105D02*
Y183360D01*
X196219Y290239D02*
X196422Y290442D01*
X205596D02*
X205799Y290645D01*
X217186Y183753D02*
X220394Y180544D01*
X166969Y272819D02*
X167004Y272785D01*
Y266697D02*
Y272785D01*
Y266697D02*
X167038Y266663D01*
X208872Y161261D02*
X220432D01*
X220490Y161319D01*
X200311Y181731D02*
X201497Y180544D01*
X187404Y168782D02*
X187995D01*
X181125Y175061D02*
X187404Y168782D01*
X181125Y175061D02*
Y181731D01*
D55*
X134910Y240101D02*
D03*
X259602Y192213D02*
D03*
X134855Y208625D02*
D03*
X134874Y176955D02*
D03*
X259639Y223522D02*
D03*
X259503Y286800D02*
D03*
Y255098D02*
D03*
X259691Y160723D02*
D03*
X135066Y271644D02*
D03*
X134598Y145386D02*
D03*
D56*
X135066Y286644D02*
D03*
X259602Y177213D02*
D03*
X134855Y223625D02*
D03*
X134874Y191955D02*
D03*
X259639Y208522D02*
D03*
X259503Y271800D02*
D03*
Y240098D02*
D03*
X259691Y145723D02*
D03*
X134910Y255101D02*
D03*
X134598Y160386D02*
D03*
D57*
X118975Y123223D02*
D03*
X274005Y122283D02*
D03*
X119387Y309595D02*
D03*
X273759Y310090D02*
D03*
D58*
X161294Y140997D02*
D03*
D59*
Y150996D02*
D03*
Y160996D02*
D03*
Y170996D02*
D03*
Y180997D02*
D03*
Y190997D02*
D03*
D60*
X212148Y122047D02*
D03*
X201609Y256851D02*
D03*
X176992Y244970D02*
D03*
X176328Y238900D02*
D03*
X182974Y237659D02*
D03*
X162491Y246060D02*
D03*
X218923Y151826D02*
D03*
X204403Y269480D02*
D03*
X222518Y272334D02*
D03*
X157953Y272981D02*
D03*
X188524Y268679D02*
D03*
X203037Y236457D02*
D03*
X236919Y214901D02*
D03*
X236934Y241769D02*
D03*
X173563Y167509D02*
D03*
X198324Y301033D02*
D03*
X216651Y300627D02*
D03*
D61*
X175971Y280420D02*
D03*
X176139Y284249D02*
D03*
X176169Y275672D02*
D03*
X172593Y273276D02*
D03*
M02*
